<?xml version="1.0" encoding="utf-8" standalone="no"?>
<!DOCTYPE svg PUBLIC "-//W3C//DTD SVG 1.1//EN"
  "http://www.w3.org/Graphics/SVG/1.1/DTD/svg11.dtd">
<svg xmlns:xlink="http://www.w3.org/1999/xlink" width="190.76129pt" height="192pt" viewBox="0 0 190.76129 192" xmlns="http://www.w3.org/2000/svg" version="1.1">
 <metadata>
  <rdf:RDF xmlns:dc="http://purl.org/dc/elements/1.1/" xmlns:cc="http://creativecommons.org/ns#" xmlns:rdf="http://www.w3.org/1999/02/22-rdf-syntax-ns#">
   <cc:Work>
    <dc:type rdf:resource="http://purl.org/dc/dcmitype/StillImage"/>
    <dc:date>2023-08-16T17:33:13.797078</dc:date>
    <dc:format>image/svg+xml</dc:format>
    <dc:creator>
     <cc:Agent>
      <dc:title>Matplotlib v3.7.2, https://matplotlib.org/</dc:title>
     </cc:Agent>
    </dc:creator>
   </cc:Work>
  </rdf:RDF>
 </metadata>
 <defs>
  <style type="text/css">*{stroke-linejoin: round; stroke-linecap: butt}</style>
 </defs>
 <g id="figure_1">
  <g id="patch_1">
   <path d="M 0 192 
L 190.76129 192 
L 190.76129 0 
L 0 0 
z
" style="fill: #ffffff"/>
  </g>
  <g id="axes_1">
   <g id="patch_2">
    <path d="M 23.845161 170.88 
L 171.685161 170.88 
L 171.685161 23.04 
L 23.845161 23.04 
z
" style="fill: #ffffff"/>
   </g>
   <g id="matplotlib.axis_1">
    <g id="xtick_1">
     <g id="text_1">
      <!-- 0 -->
      <g style="fill: #262626" transform="translate(28.119036 185.46375) scale(0.088 -0.088)">
       <defs>
        <path id="HelveticaNeue-30" d="M 845 2234 
Q 845 2400 848 2601 
Q 851 2803 880 3004 
Q 909 3206 963 3398 
Q 1018 3590 1123 3734 
Q 1229 3878 1389 3968 
Q 1549 4058 1779 4058 
Q 2010 4058 2170 3968 
Q 2330 3878 2435 3734 
Q 2541 3590 2595 3398 
Q 2650 3206 2678 3004 
Q 2707 2803 2710 2601 
Q 2714 2400 2714 2234 
Q 2714 1978 2698 1661 
Q 2682 1344 2595 1065 
Q 2509 787 2317 595 
Q 2125 403 1779 403 
Q 1434 403 1242 595 
Q 1050 787 963 1065 
Q 877 1344 861 1661 
Q 845 1978 845 2234 
z
M 269 2227 
Q 269 1978 281 1709 
Q 294 1440 345 1184 
Q 397 928 493 701 
Q 589 474 755 301 
Q 922 128 1174 29 
Q 1427 -70 1779 -70 
Q 2138 -70 2387 29 
Q 2637 128 2803 301 
Q 2970 474 3066 701 
Q 3162 928 3213 1184 
Q 3264 1440 3277 1709 
Q 3290 1978 3290 2227 
Q 3290 2477 3277 2745 
Q 3264 3014 3213 3270 
Q 3162 3526 3066 3756 
Q 2970 3987 2803 4160 
Q 2637 4333 2384 4435 
Q 2131 4538 1779 4538 
Q 1427 4538 1174 4435 
Q 922 4333 755 4160 
Q 589 3987 493 3756 
Q 397 3526 345 3270 
Q 294 3014 281 2745 
Q 269 2477 269 2227 
z
" transform="scale(0.015625)"/>
       </defs>
       <use xlink:href="#HelveticaNeue-30"/>
      </g>
     </g>
    </g>
    <g id="xtick_2">
     <g id="text_2">
      <!-- 2500 -->
      <g style="fill: #262626" transform="translate(54.384022 185.46375) scale(0.088 -0.088)">
       <defs>
        <path id="HelveticaNeue-32" d="M 282 2931 
L 826 2931 
Q 819 3136 867 3337 
Q 915 3539 1024 3699 
Q 1133 3859 1302 3958 
Q 1472 4058 1709 4058 
Q 1888 4058 2048 4000 
Q 2208 3942 2326 3833 
Q 2445 3725 2515 3574 
Q 2586 3424 2586 3238 
Q 2586 3002 2512 2822 
Q 2438 2643 2294 2489 
Q 2150 2336 1932 2185 
Q 1715 2035 1427 1856 
Q 1190 1715 972 1555 
Q 755 1395 582 1184 
Q 410 973 298 688 
Q 186 403 154 0 
L 3117 0 
L 3117 480 
L 787 480 
Q 826 691 950 854 
Q 1075 1018 1251 1158 
Q 1427 1299 1638 1424 
Q 1850 1549 2061 1677 
Q 2272 1811 2470 1958 
Q 2669 2106 2822 2288 
Q 2976 2470 3069 2700 
Q 3162 2931 3162 3232 
Q 3162 3552 3050 3795 
Q 2938 4038 2746 4201 
Q 2554 4365 2294 4451 
Q 2035 4538 1741 4538 
Q 1382 4538 1100 4416 
Q 819 4294 630 4080 
Q 442 3866 352 3571 
Q 262 3277 282 2931 
z
" transform="scale(0.015625)"/>
        <path id="HelveticaNeue-35" d="M 3008 3981 
L 3008 4461 
L 768 4461 
L 346 2106 
L 813 2080 
Q 973 2272 1181 2390 
Q 1389 2509 1658 2509 
Q 1888 2509 2077 2432 
Q 2266 2355 2400 2217 
Q 2534 2080 2608 1891 
Q 2682 1702 2682 1478 
Q 2682 1210 2605 1008 
Q 2528 806 2397 672 
Q 2266 538 2090 470 
Q 1914 403 1722 403 
Q 1517 403 1347 464 
Q 1178 525 1053 637 
Q 928 749 854 899 
Q 781 1050 768 1222 
L 224 1222 
Q 230 915 345 672 
Q 461 429 659 265 
Q 858 102 1117 16 
Q 1376 -70 1670 -70 
Q 2067 -70 2364 54 
Q 2662 179 2860 390 
Q 3059 602 3158 874 
Q 3258 1146 3258 1434 
Q 3258 1824 3142 2115 
Q 3027 2406 2828 2601 
Q 2630 2797 2361 2893 
Q 2093 2989 1792 2989 
Q 1562 2989 1328 2909 
Q 1094 2829 947 2662 
L 934 2675 
L 1178 3981 
L 3008 3981 
z
" transform="scale(0.015625)"/>
       </defs>
       <use xlink:href="#HelveticaNeue-32"/>
       <use xlink:href="#HelveticaNeue-35" x="55.599991"/>
       <use xlink:href="#HelveticaNeue-30" x="111.199982"/>
       <use xlink:href="#HelveticaNeue-30" x="166.799973"/>
      </g>
     </g>
    </g>
    <g id="xtick_3">
     <g id="text_3">
      <!-- 5000 -->
      <g style="fill: #262626" transform="translate(87.987382 185.46375) scale(0.088 -0.088)">
       <use xlink:href="#HelveticaNeue-35"/>
       <use xlink:href="#HelveticaNeue-30" x="55.599991"/>
       <use xlink:href="#HelveticaNeue-30" x="111.199982"/>
       <use xlink:href="#HelveticaNeue-30" x="166.799973"/>
      </g>
     </g>
    </g>
    <g id="xtick_4">
     <g id="text_4">
      <!-- 7500 -->
      <g style="fill: #262626" transform="translate(121.590742 185.46375) scale(0.088 -0.088)">
       <defs>
        <path id="HelveticaNeue-37" d="M 3258 3994 
L 3258 4461 
L 320 4461 
L 320 3949 
L 2701 3949 
Q 2342 3571 2032 3123 
Q 1722 2675 1485 2172 
Q 1248 1670 1097 1123 
Q 947 576 909 0 
L 1517 0 
Q 1549 531 1696 1094 
Q 1843 1658 2076 2189 
Q 2310 2720 2611 3187 
Q 2912 3654 3258 3994 
z
" transform="scale(0.015625)"/>
       </defs>
       <use xlink:href="#HelveticaNeue-37"/>
       <use xlink:href="#HelveticaNeue-35" x="55.599991"/>
       <use xlink:href="#HelveticaNeue-30" x="111.199982"/>
       <use xlink:href="#HelveticaNeue-30" x="166.799973"/>
      </g>
     </g>
    </g>
    <g id="xtick_5">
     <g id="text_5">
      <!-- 10000 -->
      <g style="fill: #262626" transform="translate(152.747978 185.46375) scale(0.088 -0.088)">
       <defs>
        <path id="HelveticaNeue-31" d="M 2278 0 
L 2278 4538 
L 1862 4538 
Q 1818 4282 1696 4115 
Q 1574 3949 1398 3853 
Q 1222 3757 1004 3721 
Q 787 3686 557 3686 
L 557 3251 
L 1734 3251 
L 1734 0 
L 2278 0 
z
" transform="scale(0.015625)"/>
       </defs>
       <use xlink:href="#HelveticaNeue-31"/>
       <use xlink:href="#HelveticaNeue-30" x="55.599991"/>
       <use xlink:href="#HelveticaNeue-30" x="111.199982"/>
       <use xlink:href="#HelveticaNeue-30" x="166.799973"/>
       <use xlink:href="#HelveticaNeue-30" x="222.399963"/>
      </g>
     </g>
    </g>
   </g>
   <g id="matplotlib.axis_2">
    <g id="ytick_1">
     <g id="text_6">
      <!-- −0.6 -->
      <g style="fill: #262626" transform="translate(-1.965464 174.021875) scale(0.088 -0.088)">
       <defs>
        <path id="HelveticaNeue-2212" d="M 307 1837 
L 307 1402 
L 3533 1402 
L 3533 1837 
L 307 1837 
z
" transform="scale(0.015625)"/>
        <path id="HelveticaNeue-2e" d="M 531 710 
L 531 0 
L 1242 0 
L 1242 710 
L 531 710 
z
" transform="scale(0.015625)"/>
        <path id="HelveticaNeue-36" d="M 2650 3379 
L 3194 3379 
Q 3142 3942 2809 4240 
Q 2477 4538 1914 4538 
Q 1427 4538 1107 4333 
Q 787 4128 595 3789 
Q 403 3450 323 3011 
Q 243 2573 243 2106 
Q 243 1747 297 1363 
Q 352 979 518 659 
Q 685 339 992 134 
Q 1299 -70 1805 -70 
Q 2234 -70 2525 74 
Q 2816 218 2992 438 
Q 3168 659 3245 928 
Q 3322 1197 3322 1446 
Q 3322 1760 3226 2029 
Q 3130 2298 2954 2496 
Q 2778 2694 2518 2806 
Q 2259 2918 1933 2918 
Q 1562 2918 1277 2777 
Q 992 2637 800 2323 
L 787 2336 
Q 794 2598 838 2899 
Q 883 3200 1001 3459 
Q 1120 3718 1331 3888 
Q 1542 4058 1888 4058 
Q 2214 4058 2412 3872 
Q 2611 3686 2650 3379 
z
M 1830 2438 
Q 2061 2438 2233 2355 
Q 2406 2272 2521 2134 
Q 2637 1997 2691 1808 
Q 2746 1619 2746 1408 
Q 2746 1210 2685 1027 
Q 2624 845 2509 704 
Q 2394 563 2224 483 
Q 2054 403 1830 403 
Q 1606 403 1430 483 
Q 1254 563 1136 697 
Q 1018 832 954 1017 
Q 890 1203 890 1414 
Q 890 1626 950 1814 
Q 1011 2003 1132 2140 
Q 1254 2278 1427 2358 
Q 1600 2438 1830 2438 
z
" transform="scale(0.015625)"/>
       </defs>
       <use xlink:href="#HelveticaNeue-2212"/>
       <use xlink:href="#HelveticaNeue-30" x="59.999985"/>
       <use xlink:href="#HelveticaNeue-2e" x="115.599976"/>
       <use xlink:href="#HelveticaNeue-36" x="143.399963"/>
      </g>
     </g>
    </g>
    <g id="ytick_2">
     <g id="text_7">
      <!-- −0.4 -->
      <g style="fill: #262626" transform="translate(-1.965464 149.381875) scale(0.088 -0.088)">
       <defs>
        <path id="HelveticaNeue-34" d="M 2170 1542 
L 646 1542 
L 2157 3763 
L 2170 3763 
L 2170 1542 
z
M 2682 1542 
L 2682 4538 
L 2246 4538 
L 179 1587 
L 179 1062 
L 2170 1062 
L 2170 0 
L 2682 0 
L 2682 1062 
L 3296 1062 
L 3296 1542 
L 2682 1542 
z
" transform="scale(0.015625)"/>
       </defs>
       <use xlink:href="#HelveticaNeue-2212"/>
       <use xlink:href="#HelveticaNeue-30" x="59.999985"/>
       <use xlink:href="#HelveticaNeue-2e" x="115.599976"/>
       <use xlink:href="#HelveticaNeue-34" x="143.399963"/>
      </g>
     </g>
    </g>
    <g id="ytick_3">
     <g id="text_8">
      <!-- −0.2 -->
      <g style="fill: #262626" transform="translate(-1.965464 124.741875) scale(0.088 -0.088)">
       <use xlink:href="#HelveticaNeue-2212"/>
       <use xlink:href="#HelveticaNeue-30" x="59.999985"/>
       <use xlink:href="#HelveticaNeue-2e" x="115.599976"/>
       <use xlink:href="#HelveticaNeue-32" x="143.399963"/>
      </g>
     </g>
    </g>
    <g id="ytick_4">
     <g id="text_9">
      <!-- 0.0 -->
      <g style="fill: #262626" transform="translate(3.314536 100.101875) scale(0.088 -0.088)">
       <use xlink:href="#HelveticaNeue-30"/>
       <use xlink:href="#HelveticaNeue-2e" x="55.599991"/>
       <use xlink:href="#HelveticaNeue-30" x="83.399979"/>
      </g>
     </g>
    </g>
    <g id="ytick_5">
     <g id="text_10">
      <!-- 0.2 -->
      <g style="fill: #262626" transform="translate(3.314536 75.461875) scale(0.088 -0.088)">
       <use xlink:href="#HelveticaNeue-30"/>
       <use xlink:href="#HelveticaNeue-2e" x="55.599991"/>
       <use xlink:href="#HelveticaNeue-32" x="83.399979"/>
      </g>
     </g>
    </g>
    <g id="ytick_6">
     <g id="text_11">
      <!-- 0.4 -->
      <g style="fill: #262626" transform="translate(3.314536 50.821875) scale(0.088 -0.088)">
       <use xlink:href="#HelveticaNeue-30"/>
       <use xlink:href="#HelveticaNeue-2e" x="55.599991"/>
       <use xlink:href="#HelveticaNeue-34" x="83.399979"/>
      </g>
     </g>
    </g>
    <g id="ytick_7">
     <g id="text_12">
      <!-- 0.6 -->
      <g style="fill: #262626" transform="translate(3.314536 26.181875) scale(0.088 -0.088)">
       <use xlink:href="#HelveticaNeue-30"/>
       <use xlink:href="#HelveticaNeue-2e" x="55.599991"/>
       <use xlink:href="#HelveticaNeue-36" x="83.399979"/>
      </g>
     </g>
    </g>
    <g id="text_13">
     <!-- Episode Reward -->
     <g style="fill: #262626" transform="translate(-7.541714 126.29375) rotate(-90) scale(0.08 -0.08)">
      <defs>
       <path id="HelveticaNeue-45" d="M 499 4570 
L 499 0 
L 3674 0 
L 3674 512 
L 1107 512 
L 1107 2093 
L 3482 2093 
L 3482 2605 
L 1107 2605 
L 1107 4058 
L 3654 4058 
L 3654 4570 
L 499 4570 
z
" transform="scale(0.015625)"/>
       <path id="HelveticaNeue-70" d="M 429 3309 
L 429 -1261 
L 973 -1261 
L 973 442 
L 986 442 
Q 1075 294 1206 195 
Q 1338 96 1485 38 
Q 1632 -19 1782 -44 
Q 1933 -70 2054 -70 
Q 2432 -70 2717 64 
Q 3002 198 3190 432 
Q 3379 666 3472 979 
Q 3565 1293 3565 1645 
Q 3565 1997 3469 2310 
Q 3373 2624 3184 2864 
Q 2995 3104 2710 3245 
Q 2426 3386 2042 3386 
Q 1696 3386 1408 3261 
Q 1120 3136 986 2861 
L 973 2861 
L 973 3309 
L 429 3309 
z
M 2989 1683 
Q 2989 1440 2937 1209 
Q 2886 979 2771 800 
Q 2656 621 2467 512 
Q 2278 403 1997 403 
Q 1715 403 1516 508 
Q 1318 614 1193 787 
Q 1069 960 1011 1187 
Q 954 1414 954 1658 
Q 954 1888 1008 2112 
Q 1062 2336 1184 2512 
Q 1306 2688 1498 2797 
Q 1690 2906 1965 2906 
Q 2227 2906 2422 2803 
Q 2618 2701 2742 2528 
Q 2867 2355 2928 2134 
Q 2989 1914 2989 1683 
z
" transform="scale(0.015625)"/>
       <path id="HelveticaNeue-69" d="M 986 3904 
L 986 4570 
L 442 4570 
L 442 3904 
L 986 3904 
z
M 442 3309 
L 442 0 
L 986 0 
L 986 3309 
L 442 3309 
z
" transform="scale(0.015625)"/>
       <path id="HelveticaNeue-73" d="M 742 1043 
L 198 1043 
Q 211 736 326 521 
Q 442 307 634 176 
Q 826 45 1075 -12 
Q 1325 -70 1600 -70 
Q 1850 -70 2102 -22 
Q 2355 26 2556 147 
Q 2758 269 2883 467 
Q 3008 666 3008 966 
Q 3008 1203 2915 1363 
Q 2822 1523 2672 1628 
Q 2522 1734 2326 1798 
Q 2131 1862 1926 1907 
Q 1734 1952 1542 1993 
Q 1350 2035 1196 2096 
Q 1043 2157 944 2249 
Q 845 2342 845 2483 
Q 845 2611 909 2691 
Q 973 2771 1075 2819 
Q 1178 2867 1302 2886 
Q 1427 2906 1549 2906 
Q 1683 2906 1814 2877 
Q 1946 2848 2054 2784 
Q 2163 2720 2233 2614 
Q 2304 2509 2317 2349 
L 2861 2349 
Q 2842 2650 2733 2851 
Q 2624 3053 2441 3171 
Q 2259 3290 2022 3338 
Q 1786 3386 1504 3386 
Q 1286 3386 1065 3331 
Q 845 3277 669 3165 
Q 493 3053 381 2873 
Q 269 2694 269 2445 
Q 269 2125 429 1945 
Q 589 1766 829 1667 
Q 1069 1568 1350 1513 
Q 1632 1459 1872 1392 
Q 2112 1325 2272 1216 
Q 2432 1107 2432 896 
Q 2432 742 2355 643 
Q 2278 544 2160 493 
Q 2042 442 1901 422 
Q 1760 403 1632 403 
Q 1466 403 1309 435 
Q 1152 467 1027 540 
Q 902 614 825 739 
Q 749 864 742 1043 
z
" transform="scale(0.015625)"/>
       <path id="HelveticaNeue-6f" d="M 806 1651 
Q 806 1952 886 2185 
Q 966 2419 1107 2579 
Q 1248 2739 1437 2822 
Q 1626 2906 1837 2906 
Q 2048 2906 2237 2822 
Q 2426 2739 2566 2579 
Q 2707 2419 2787 2185 
Q 2867 1952 2867 1651 
Q 2867 1350 2787 1116 
Q 2707 883 2566 726 
Q 2426 570 2237 486 
Q 2048 403 1837 403 
Q 1626 403 1437 486 
Q 1248 570 1107 726 
Q 966 883 886 1116 
Q 806 1350 806 1651 
z
M 230 1651 
Q 230 1286 332 972 
Q 435 659 640 425 
Q 845 192 1145 61 
Q 1446 -70 1837 -70 
Q 2234 -70 2531 61 
Q 2829 192 3033 425 
Q 3238 659 3340 972 
Q 3443 1286 3443 1651 
Q 3443 2016 3340 2333 
Q 3238 2650 3033 2883 
Q 2829 3117 2531 3251 
Q 2234 3386 1837 3386 
Q 1446 3386 1145 3251 
Q 845 3117 640 2883 
Q 435 2650 332 2333 
Q 230 2016 230 1651 
z
" transform="scale(0.015625)"/>
       <path id="HelveticaNeue-64" d="M 806 1626 
Q 806 1869 857 2099 
Q 909 2330 1024 2509 
Q 1139 2688 1331 2797 
Q 1523 2906 1798 2906 
Q 2080 2906 2278 2800 
Q 2477 2694 2601 2521 
Q 2726 2349 2784 2121 
Q 2842 1894 2842 1651 
Q 2842 1421 2787 1197 
Q 2733 973 2611 797 
Q 2490 621 2298 512 
Q 2106 403 1830 403 
Q 1568 403 1373 505 
Q 1178 608 1053 781 
Q 928 954 867 1174 
Q 806 1395 806 1626 
z
M 3366 0 
L 3366 4570 
L 2822 4570 
L 2822 2867 
L 2810 2867 
Q 2720 3014 2589 3113 
Q 2458 3213 2310 3273 
Q 2163 3334 2016 3360 
Q 1869 3386 1741 3386 
Q 1363 3386 1078 3248 
Q 794 3110 605 2876 
Q 416 2643 323 2329 
Q 230 2016 230 1664 
Q 230 1312 326 998 
Q 422 685 611 448 
Q 800 211 1085 70 
Q 1370 -70 1754 -70 
Q 2099 -70 2387 51 
Q 2675 173 2810 448 
L 2822 448 
L 2822 0 
L 3366 0 
z
" transform="scale(0.015625)"/>
       <path id="HelveticaNeue-65" d="M 2707 1971 
L 806 1971 
Q 819 2163 889 2332 
Q 960 2502 1081 2630 
Q 1203 2758 1372 2832 
Q 1542 2906 1754 2906 
Q 1958 2906 2128 2832 
Q 2298 2758 2422 2633 
Q 2547 2509 2620 2336 
Q 2694 2163 2707 1971 
z
M 3232 1050 
L 2694 1050 
Q 2624 723 2403 563 
Q 2182 403 1837 403 
Q 1568 403 1369 492 
Q 1171 582 1043 732 
Q 915 883 857 1078 
Q 800 1274 806 1491 
L 3283 1491 
Q 3296 1792 3229 2125 
Q 3162 2458 2986 2739 
Q 2810 3021 2518 3203 
Q 2227 3386 1786 3386 
Q 1446 3386 1161 3258 
Q 877 3130 669 2899 
Q 461 2669 345 2355 
Q 230 2042 230 1664 
Q 243 1286 342 966 
Q 442 646 640 416 
Q 838 186 1129 58 
Q 1421 -70 1818 -70 
Q 2381 -70 2752 211 
Q 3123 493 3232 1050 
z
" transform="scale(0.015625)"/>
       <path id="HelveticaNeue-20" transform="scale(0.015625)"/>
       <path id="HelveticaNeue-52" d="M 499 4570 
L 499 0 
L 1107 0 
L 1107 1952 
L 2592 1952 
Q 2816 1952 2950 1885 
Q 3085 1818 3168 1706 
Q 3251 1594 3289 1443 
Q 3328 1293 3354 1126 
Q 3386 960 3392 787 
Q 3398 614 3404 464 
Q 3411 314 3433 192 
Q 3456 70 3520 0 
L 4198 0 
Q 4102 115 4054 265 
Q 4006 416 3980 582 
Q 3955 749 3948 921 
Q 3942 1094 3930 1261 
Q 3910 1427 3875 1580 
Q 3840 1734 3766 1859 
Q 3693 1984 3568 2073 
Q 3443 2163 3245 2202 
L 3245 2214 
Q 3661 2330 3849 2643 
Q 4038 2957 4038 3373 
Q 4038 3930 3670 4250 
Q 3302 4570 2650 4570 
L 499 4570 
z
M 2374 2464 
L 1107 2464 
L 1107 4058 
L 2618 4058 
Q 3046 4058 3238 3840 
Q 3430 3622 3430 3277 
Q 3430 3027 3344 2870 
Q 3258 2714 3114 2621 
Q 2970 2528 2778 2496 
Q 2586 2464 2374 2464 
z
" transform="scale(0.015625)"/>
       <path id="HelveticaNeue-77" d="M 3686 0 
L 4742 3309 
L 4179 3309 
L 3437 602 
L 3424 602 
L 2733 3309 
L 2138 3309 
L 1472 602 
L 1459 602 
L 710 3309 
L 109 3309 
L 1171 0 
L 1760 0 
L 2426 2630 
L 2438 2630 
L 3110 0 
L 3686 0 
z
" transform="scale(0.015625)"/>
       <path id="HelveticaNeue-61" d="M 3341 13 
Q 3200 -70 2950 -70 
Q 2739 -70 2614 48 
Q 2490 166 2490 435 
Q 2266 166 1968 48 
Q 1670 -70 1325 -70 
Q 1101 -70 899 -19 
Q 698 32 550 141 
Q 403 250 316 426 
Q 230 602 230 851 
Q 230 1133 326 1312 
Q 422 1491 579 1603 
Q 736 1715 937 1772 
Q 1139 1830 1350 1869 
Q 1574 1914 1776 1936 
Q 1978 1958 2131 2000 
Q 2285 2042 2374 2122 
Q 2464 2202 2464 2355 
Q 2464 2534 2397 2643 
Q 2330 2752 2224 2809 
Q 2118 2867 1987 2886 
Q 1856 2906 1728 2906 
Q 1382 2906 1152 2774 
Q 922 2643 902 2278 
L 358 2278 
Q 371 2586 486 2797 
Q 602 3008 794 3139 
Q 986 3270 1232 3328 
Q 1478 3386 1760 3386 
Q 1984 3386 2205 3354 
Q 2426 3322 2605 3222 
Q 2784 3123 2893 2944 
Q 3002 2765 3002 2477 
L 3002 774 
Q 3002 582 3024 492 
Q 3046 403 3174 403 
Q 3245 403 3341 435 
L 3341 13 
z
M 2458 1709 
Q 2355 1632 2188 1597 
Q 2022 1562 1840 1539 
Q 1658 1517 1472 1488 
Q 1286 1459 1139 1395 
Q 992 1331 899 1212 
Q 806 1094 806 890 
Q 806 755 860 662 
Q 915 570 1001 512 
Q 1088 454 1203 428 
Q 1318 403 1446 403 
Q 1715 403 1907 476 
Q 2099 550 2220 662 
Q 2342 774 2400 905 
Q 2458 1037 2458 1152 
L 2458 1709 
z
" transform="scale(0.015625)"/>
       <path id="HelveticaNeue-72" d="M 390 3309 
L 390 0 
L 934 0 
L 934 1472 
Q 934 1792 998 2038 
Q 1062 2285 1203 2457 
Q 1344 2630 1574 2720 
Q 1805 2810 2131 2810 
L 2131 3386 
Q 1690 3398 1402 3206 
Q 1114 3014 915 2611 
L 902 2611 
L 902 3309 
L 390 3309 
z
" transform="scale(0.015625)"/>
      </defs>
      <use xlink:href="#HelveticaNeue-45"/>
      <use xlink:href="#HelveticaNeue-70" x="61.099991"/>
      <use xlink:href="#HelveticaNeue-69" x="120.399979"/>
      <use xlink:href="#HelveticaNeue-73" x="142.599976"/>
      <use xlink:href="#HelveticaNeue-6f" x="192.59996"/>
      <use xlink:href="#HelveticaNeue-64" x="249.999954"/>
      <use xlink:href="#HelveticaNeue-65" x="309.299942"/>
      <use xlink:href="#HelveticaNeue-20" x="362.999939"/>
      <use xlink:href="#HelveticaNeue-52" x="390.799927"/>
      <use xlink:href="#HelveticaNeue-65" x="459.299911"/>
      <use xlink:href="#HelveticaNeue-77" x="512.999908"/>
      <use xlink:href="#HelveticaNeue-61" x="588.799896"/>
      <use xlink:href="#HelveticaNeue-72" x="642.499893"/>
      <use xlink:href="#HelveticaNeue-64" x="674.049881"/>
     </g>
    </g>
   </g>
   <g id="PolyCollection_1"/>
   <g id="PolyCollection_2"/>
   <g id="line2d_1">
    <path d="M 30.565161 100.656 
L 30.672692 109.28 
L 30.793664 101.888 
L 30.833988 111.744 
L 30.901195 108.048 
L 30.928078 103.12 
L 30.968402 112.976 
L 30.995284 104.352 
L 31.089374 110.512 
L 31.075932 103.12 
L 31.102815 105.584 
L 31.170022 100.656 
L 31.143139 111.744 
L 31.183463 106.816 
L 31.237228 105.584 
L 31.264111 109.28 
L 31.344759 101.888 
L 31.290994 110.512 
L 31.371642 104.352 
L 31.465731 110.512 
L 31.45229 103.12 
L 31.506055 108.048 
L 31.559821 101.888 
L 31.532938 110.512 
L 31.600145 110.512 
L 31.65391 101.888 
L 31.721117 103.12 
L 31.734558 110.512 
L 31.774882 101.888 
L 31.828648 106.816 
L 31.85553 105.584 
L 31.909296 110.512 
L 31.989944 103.12 
L 31.936178 111.744 
L 32.016826 108.048 
L 32.030268 108.048 
L 32.043709 103.12 
L 32.124357 111.744 
L 32.258771 103.12 
L 32.285653 104.352 
L 32.299095 109.28 
L 32.379743 106.816 
L 32.460391 100.656 
L 32.433508 108.048 
L 32.487274 103.12 
L 32.514156 111.744 
L 32.594804 110.512 
L 32.675452 111.744 
L 32.702335 105.584 
L 32.782983 111.744 
L 32.7561 103.12 
L 32.809866 106.816 
L 32.890514 101.888 
L 32.836748 109.28 
L 32.917397 103.12 
L 32.957721 110.512 
L 33.038369 109.28 
L 33.078693 104.352 
L 33.145899 109.28 
L 33.159341 111.744 
L 33.172782 104.352 
L 33.25343 109.28 
L 33.374402 100.656 
L 33.414726 111.744 
L 33.495374 109.28 
L 33.616346 101.888 
L 33.535698 110.512 
L 33.629788 104.352 
L 33.643229 103.12 
L 33.65667 106.816 
L 33.696994 105.584 
L 33.737319 104.352 
L 33.804525 111.744 
L 33.912056 100.656 
L 33.925497 103.12 
L 33.965821 114.208 
L 34.046469 109.28 
L 34.100235 103.12 
L 34.154 105.584 
L 34.194324 111.744 
L 34.261531 110.512 
L 34.342179 103.12 
L 34.328738 112.976 
L 34.369062 105.584 
L 34.436268 104.352 
L 34.476592 111.744 
L 34.490034 101.888 
L 34.597565 104.352 
L 34.611006 103.12 
L 34.624447 109.28 
L 34.678213 106.816 
L 34.691654 110.512 
L 34.705095 103.12 
L 34.785743 108.048 
L 34.85295 101.888 
L 34.826067 109.28 
L 34.906715 105.584 
L 34.947039 111.744 
L 34.933598 104.352 
L 35.000805 108.048 
L 35.014246 100.656 
L 35.068012 109.28 
L 35.094894 109.28 
L 35.135218 110.512 
L 35.14866 101.888 
L 35.242749 108.048 
L 35.336838 101.888 
L 35.309956 111.744 
L 35.35028 103.12 
L 35.417487 115.44 
L 35.457811 108.048 
L 35.538459 101.888 
L 35.498135 109.28 
L 35.578783 105.584 
L 35.632548 103.12 
L 35.686313 111.744 
L 35.75352 101.888 
L 35.780403 112.976 
L 35.807286 103.12 
L 35.861051 110.512 
L 35.914816 104.352 
L 35.928258 101.888 
L 35.95514 109.28 
L 35.995464 104.352 
L 36.022347 103.12 
L 36.116436 109.28 
L 36.223967 103.12 
L 36.237409 108.048 
L 36.318057 111.744 
L 36.291174 105.584 
L 36.344939 108.048 
L 36.398705 110.512 
L 36.465911 103.12 
L 36.560001 101.888 
L 36.586883 111.744 
L 36.694414 101.888 
L 36.707856 104.352 
L 36.815386 111.744 
L 36.74818 103.12 
L 36.828828 106.816 
L 36.882593 108.048 
L 36.936358 104.352 
L 37.043889 110.512 
L 37.003565 100.656 
L 37.057331 108.048 
L 37.15142 104.352 
L 37.124537 110.512 
L 37.164861 106.816 
L 37.178303 106.816 
L 37.232068 104.352 
L 37.285833 110.512 
L 37.393364 104.352 
L 37.379923 111.744 
L 37.406805 108.048 
L 37.433688 110.512 
L 37.474012 104.352 
L 37.500895 108.048 
L 37.55466 103.12 
L 37.608426 105.584 
L 37.675632 110.512 
L 37.635308 103.12 
L 37.715956 105.584 
L 37.729398 106.816 
L 37.742839 103.12 
L 37.823487 105.584 
L 37.877252 110.512 
L 37.917577 103.12 
L 38.011666 111.744 
L 38.025107 104.352 
L 38.146079 109.28 
L 38.172962 108.048 
L 38.240169 100.656 
L 38.213286 111.744 
L 38.293934 101.888 
L 38.307376 110.512 
L 38.401465 106.816 
L 38.414906 106.816 
L 38.468672 110.512 
L 38.495554 104.352 
L 38.522437 106.816 
L 38.603085 100.656 
L 38.54932 110.512 
L 38.629968 105.584 
L 38.710616 100.656 
L 38.75094 110.512 
L 38.831588 104.352 
L 38.858471 105.584 
L 38.966001 109.28 
L 38.885353 103.12 
L 38.979443 108.048 
L 39.006325 109.28 
L 39.100415 100.656 
L 39.194504 108.048 
L 39.207946 103.12 
L 39.302035 110.512 
L 39.342359 109.28 
L 39.476772 100.656 
L 39.543979 112.976 
L 39.597745 111.744 
L 39.718717 105.584 
L 39.745599 111.744 
L 39.785923 101.888 
L 39.826247 109.28 
L 39.933778 103.12 
L 39.947219 105.584 
L 39.960661 101.888 
L 40.027868 108.048 
L 40.041309 110.512 
L 40.081633 105.584 
L 40.108516 106.816 
L 40.189164 100.656 
L 40.162281 108.048 
L 40.202605 106.816 
L 40.25637 112.976 
L 40.242929 103.12 
L 40.296694 103.12 
L 40.417667 108.048 
L 40.431108 101.888 
L 40.525197 109.28 
L 40.632728 101.888 
L 40.619287 111.744 
L 40.646169 105.584 
L 40.673052 110.512 
L 40.686493 103.12 
L 40.740259 105.584 
L 40.794024 108.048 
L 40.807466 104.352 
L 40.888114 111.744 
L 40.914996 109.28 
L 40.941879 103.12 
L 40.982203 110.512 
L 41.022527 108.048 
L 41.116616 110.512 
L 41.103175 104.352 
L 41.130058 108.048 
L 41.210706 111.744 
L 41.25103 101.888 
L 41.331678 109.28 
L 41.358561 104.352 
L 41.439209 114.208 
L 41.466091 105.584 
L 41.479533 100.656 
L 41.546739 106.816 
L 41.573622 104.352 
L 41.694594 110.512 
L 41.788684 111.744 
L 41.815566 101.888 
L 41.842449 112.976 
L 41.94998 110.512 
L 41.990304 104.352 
L 42.030628 111.744 
L 42.070952 105.584 
L 42.124717 104.352 
L 42.191924 111.744 
L 42.232248 104.352 
L 42.259131 112.976 
L 42.299455 110.512 
L 42.312896 110.512 
L 42.393544 101.888 
L 42.420427 109.28 
L 42.487634 103.12 
L 42.460751 111.744 
L 42.55484 105.584 
L 42.595164 109.28 
L 42.662371 106.816 
L 42.675812 101.888 
L 42.689254 110.512 
L 42.783343 103.12 
L 42.85055 110.512 
L 42.890874 101.888 
L 42.998405 110.512 
L 43.011846 109.28 
L 43.065611 100.656 
L 43.092494 112.976 
L 43.119377 109.28 
L 43.146259 114.208 
L 43.25379 104.352 
L 43.267231 112.976 
L 43.280673 101.888 
L 43.361321 108.048 
L 43.374762 108.048 
L 43.441969 103.12 
L 43.482293 108.048 
L 43.5495 101.888 
L 43.576382 109.28 
L 43.616706 104.352 
L 43.630148 110.512 
L 43.683913 100.656 
L 43.724237 109.28 
L 43.764561 103.12 
L 43.845209 108.048 
L 43.858651 109.28 
L 43.885533 103.12 
L 43.898975 106.816 
L 43.912416 103.12 
L 43.979623 110.512 
L 44.006505 104.352 
L 44.127478 108.048 
L 44.208126 100.656 
L 44.194684 109.28 
L 44.235008 108.048 
L 44.24845 108.048 
L 44.329098 104.352 
L 44.275332 109.28 
L 44.369422 105.584 
L 44.396304 106.816 
L 44.463511 103.12 
L 44.530718 110.512 
L 44.571042 108.048 
L 44.611366 110.512 
L 44.665131 101.888 
L 44.678573 111.744 
L 44.772662 103.12 
L 44.907075 111.744 
L 45.001165 104.352 
L 45.028048 108.048 
L 45.041489 108.048 
L 45.108696 112.976 
L 45.14902 101.888 
L 45.162461 108.048 
L 45.243109 100.656 
L 45.25655 104.352 
L 45.269992 101.888 
L 45.283433 110.512 
L 45.337198 108.048 
L 45.390964 110.512 
L 45.404405 103.12 
L 45.431288 109.28 
L 45.471612 101.888 
L 45.525377 111.744 
L 45.538819 109.28 
L 45.646349 106.816 
L 45.565701 111.744 
L 45.659791 108.048 
L 45.673232 111.744 
L 45.686673 105.584 
L 45.75388 110.512 
L 45.861411 100.656 
L 45.874852 106.816 
L 45.888294 106.816 
L 45.995824 112.976 
L 45.982383 105.584 
L 46.009266 108.048 
L 46.022707 103.12 
L 46.04959 110.512 
L 46.116796 105.584 
L 46.130238 105.584 
L 46.15712 108.048 
L 46.197445 103.12 
L 46.237769 110.512 
L 46.304975 105.584 
L 46.331858 104.352 
L 46.345299 114.208 
L 46.372182 101.888 
L 46.439389 105.584 
L 46.493154 108.048 
L 46.506595 100.656 
L 46.546919 105.584 
L 46.560361 105.584 
L 46.627568 110.512 
L 46.65445 105.584 
L 46.721657 101.888 
L 46.735098 109.28 
L 46.74854 106.816 
L 46.775422 110.512 
L 46.802305 105.584 
L 46.85607 108.048 
L 46.936718 100.656 
L 46.963601 106.816 
L 46.977042 106.816 
L 47.017367 110.512 
L 47.084573 103.12 
L 47.218987 111.744 
L 47.299635 101.888 
L 47.366841 103.12 
L 47.380283 111.744 
L 47.474372 106.816 
L 47.487814 101.888 
L 47.501255 111.744 
L 47.581903 106.816 
L 47.608786 101.888 
L 47.635668 108.048 
L 47.689434 105.584 
L 47.702875 110.512 
L 47.770082 104.352 
L 47.783523 105.584 
L 47.796964 99.424 
L 47.877613 112.976 
L 47.891054 101.888 
L 48.012026 112.976 
L 48.025467 104.352 
L 48.132998 105.584 
L 48.146439 105.584 
L 48.159881 103.12 
L 48.200205 111.744 
L 48.240529 105.584 
L 48.307736 111.744 
L 48.334618 103.12 
L 48.34806 105.584 
L 48.442149 111.744 
L 48.45559 106.816 
L 48.54968 103.12 
L 48.495914 109.28 
L 48.563121 106.816 
L 48.616886 111.744 
L 48.670652 103.12 
L 48.791624 109.28 
L 48.818507 104.352 
L 48.885713 110.512 
L 48.912596 105.584 
L 48.926037 105.584 
L 49.020127 109.28 
L 48.95292 103.12 
L 49.047009 108.048 
L 49.114216 104.352 
L 49.141099 111.744 
L 49.221747 103.12 
L 49.194864 112.976 
L 49.24863 108.048 
L 49.302395 111.744 
L 49.329278 105.584 
L 49.342719 105.584 
L 49.369602 112.976 
L 49.436808 103.12 
L 49.504015 111.744 
L 49.557781 109.28 
L 49.598105 103.12 
L 49.611546 110.512 
L 49.65187 106.816 
L 49.665311 111.744 
L 49.678753 101.888 
L 49.759401 108.048 
L 49.813166 110.512 
L 49.786283 104.352 
L 49.840049 106.816 
L 49.893814 109.28 
L 49.907255 103.12 
L 49.934138 115.44 
L 50.028228 110.512 
L 50.122317 103.12 
L 50.176082 106.816 
L 50.229848 111.744 
L 50.202965 103.12 
L 50.270172 108.048 
L 50.377703 103.12 
L 50.35082 109.28 
L 50.391144 104.352 
L 50.431468 109.28 
L 50.458351 103.12 
L 50.512116 108.048 
L 50.565881 103.12 
L 50.592764 108.048 
L 50.673412 110.512 
L 50.619647 104.352 
L 50.700295 108.048 
L 50.727177 111.744 
L 50.794384 103.12 
L 50.834708 112.976 
L 50.901915 109.28 
L 50.915356 103.12 
L 50.982563 111.744 
L 51.022887 104.352 
L 51.090094 100.656 
L 51.157301 108.048 
L 51.237949 111.744 
L 51.25139 104.352 
L 51.264831 115.44 
L 51.358921 110.512 
L 51.45301 103.12 
L 51.412686 111.744 
L 51.479893 105.584 
L 51.560541 112.976 
L 51.520217 103.12 
L 51.587424 106.816 
L 51.668072 110.512 
L 51.681513 104.352 
L 51.775602 114.208 
L 51.802485 112.976 
L 51.896574 100.656 
L 51.923457 106.816 
L 52.004105 103.12 
L 51.963781 108.048 
L 52.017547 106.816 
L 52.098195 111.744 
L 52.044429 100.656 
L 52.125077 106.816 
L 52.192284 111.744 
L 52.178843 103.12 
L 52.205725 110.512 
L 52.219167 100.656 
L 52.313256 104.352 
L 52.326697 104.352 
L 52.420787 110.512 
L 52.44767 109.28 
L 52.501435 111.744 
L 52.568642 105.584 
L 52.676172 111.744 
L 52.635848 104.352 
L 52.689614 109.28 
L 52.75682 100.656 
L 52.824027 101.888 
L 52.864351 112.976 
L 52.944999 105.584 
L 52.958441 103.12 
L 52.985323 109.28 
L 53.025647 106.816 
L 53.106295 114.208 
L 53.05253 104.352 
L 53.133178 105.584 
L 53.200385 111.744 
L 53.240709 109.28 
L 53.334798 104.352 
L 53.361681 105.584 
L 53.388564 110.512 
L 53.45577 104.352 
L 53.482653 108.048 
L 53.603625 104.352 
L 53.657391 112.976 
L 53.643949 103.12 
L 53.711156 105.584 
L 53.724597 101.888 
L 53.791804 111.744 
L 53.818687 104.352 
L 53.832128 110.512 
L 53.939659 109.28 
L 54.047189 101.888 
L 54.006865 112.976 
L 54.060631 106.816 
L 54.141279 101.888 
L 54.181603 110.512 
L 54.208486 111.744 
L 54.316016 103.12 
L 54.436988 110.512 
L 54.383223 101.888 
L 54.463871 108.048 
L 54.517637 109.28 
L 54.584843 103.12 
L 54.598285 111.744 
L 54.678933 101.888 
L 54.692374 109.28 
L 54.773022 100.656 
L 54.813346 103.12 
L 54.880553 111.744 
L 54.920877 101.888 
L 54.934318 108.048 
L 55.041849 101.888 
L 55.014966 109.28 
L 55.05529 103.12 
L 55.109056 111.744 
L 55.176262 108.048 
L 55.189704 108.048 
L 55.243469 111.744 
L 55.310676 104.352 
L 55.391324 111.744 
L 55.431648 108.048 
L 55.471972 109.28 
L 55.525737 103.12 
L 55.619827 111.744 
L 55.633268 108.048 
L 55.660151 99.424 
L 55.713916 112.976 
L 55.740799 105.584 
L 55.821447 103.12 
L 55.84833 106.816 
L 55.888654 101.888 
L 55.902095 108.048 
L 55.969302 104.352 
L 56.063391 111.744 
L 56.04995 100.656 
L 56.090274 106.816 
L 56.103715 101.888 
L 56.170922 111.744 
L 56.197805 108.048 
L 56.291894 104.352 
L 56.265011 111.744 
L 56.305335 105.584 
L 56.399425 108.048 
L 56.345659 103.12 
L 56.426307 106.816 
L 56.480073 101.888 
L 56.506955 109.28 
L 56.533838 106.816 
L 56.587604 104.352 
L 56.627928 110.512 
L 56.7489 105.584 
L 56.816106 110.512 
L 56.829548 99.424 
L 56.85643 108.048 
L 56.869872 108.048 
L 56.896754 110.512 
L 56.990844 105.584 
L 57.044609 110.512 
L 57.071492 109.28 
L 57.084933 100.656 
L 57.179023 104.352 
L 57.205905 109.28 
L 57.232788 101.888 
L 57.273112 104.352 
L 57.286553 103.12 
L 57.299995 110.512 
L 57.313436 108.048 
L 57.367201 103.12 
L 57.434408 111.744 
L 57.541939 100.656 
L 57.662911 110.512 
L 57.730118 103.12 
L 57.770442 105.584 
L 57.85109 111.744 
L 57.864531 103.12 
L 57.877973 105.584 
L 57.958621 104.352 
L 57.972062 106.816 
L 57.985503 106.816 
L 58.025827 109.28 
L 58.066151 104.352 
L 58.146799 111.744 
L 58.093034 103.12 
L 58.173682 106.816 
L 58.187123 106.816 
L 58.281213 110.512 
L 58.308096 103.12 
L 58.375302 110.512 
L 58.415626 104.352 
L 58.429068 104.352 
L 58.496274 103.12 
L 58.536598 111.744 
L 58.590364 99.424 
L 58.644129 108.048 
L 58.724777 101.888 
L 58.711336 110.512 
L 58.778543 103.12 
L 58.912956 109.28 
L 59.007045 101.888 
L 59.033928 105.584 
L 59.101135 101.888 
L 59.128018 110.512 
L 59.141459 101.888 
L 59.235548 110.512 
L 59.369962 101.888 
L 59.396844 103.12 
L 59.45061 109.28 
L 59.490934 104.352 
L 59.504375 100.656 
L 59.544699 111.744 
L 59.585023 108.048 
L 59.598465 108.048 
L 59.638789 110.512 
L 59.625347 105.584 
L 59.665671 105.584 
L 59.719437 101.888 
L 59.705995 111.744 
L 59.746319 103.12 
L 59.759761 110.512 
L 59.85385 104.352 
L 59.894174 103.12 
L 59.907616 106.816 
L 59.921057 105.584 
L 60.042029 111.744 
L 60.136118 101.888 
L 60.163001 103.12 
L 60.243649 100.656 
L 60.270532 110.512 
L 60.391504 104.352 
L 60.472152 100.656 
L 60.512476 108.048 
L 60.525917 108.048 
L 60.579683 105.584 
L 60.633448 110.512 
L 60.75442 100.656 
L 60.84851 109.28 
L 60.875392 105.584 
L 60.929158 103.12 
L 60.915716 110.512 
L 60.95604 108.048 
L 61.023247 114.208 
L 60.996364 101.888 
L 61.05013 106.816 
L 61.063571 106.816 
L 61.077012 109.28 
L 61.130778 103.12 
L 61.171102 108.048 
L 61.25175 103.12 
L 61.224867 109.28 
L 61.265191 106.816 
L 61.278633 112.976 
L 61.345839 103.12 
L 61.359281 109.28 
L 61.439929 110.512 
L 61.480253 103.12 
L 61.493694 103.12 
L 61.560901 101.888 
L 61.601225 110.512 
L 61.695314 103.12 
L 61.722197 105.584 
L 61.762521 109.28 
L 61.843169 108.048 
L 61.85661 101.888 
L 61.9507 109.28 
L 61.964141 109.28 
L 62.017907 101.888 
L 62.004465 110.512 
L 62.031348 104.352 
L 62.044789 112.976 
L 62.098555 103.12 
L 62.138879 103.12 
L 62.179203 110.512 
L 62.232968 101.888 
L 62.246409 103.12 
L 62.273292 109.28 
L 62.367382 108.048 
L 62.380823 101.888 
L 62.461471 111.744 
L 62.474912 103.12 
L 62.595884 110.512 
L 62.609326 108.048 
L 62.689974 101.888 
L 62.703415 110.512 
L 62.716856 106.816 
L 62.730298 106.816 
L 62.743739 110.512 
L 62.797505 104.352 
L 62.824387 108.048 
L 62.918477 103.12 
L 62.931918 105.584 
L 62.972242 101.888 
L 63.026007 109.28 
L 63.039449 101.888 
L 63.106655 110.512 
L 63.133538 106.816 
L 63.227628 103.12 
L 63.160421 110.512 
L 63.25451 105.584 
L 63.267952 105.584 
L 63.294834 108.048 
L 63.321717 104.352 
L 63.442689 112.976 
L 63.536778 105.584 
L 63.563661 108.048 
L 63.577102 112.976 
L 63.617427 101.888 
L 63.657751 106.816 
L 63.724957 103.12 
L 63.738399 105.584 
L 63.832488 112.976 
L 63.778723 101.888 
L 63.845929 109.28 
L 63.886253 111.744 
L 63.966901 105.584 
L 64.04755 103.12 
L 64.074432 110.512 
L 64.181963 104.352 
L 64.195404 105.584 
L 64.289494 109.28 
L 64.24917 101.888 
L 64.302935 106.816 
L 64.383583 103.12 
L 64.397024 109.28 
L 64.410466 114.208 
L 64.437349 101.888 
L 64.504555 109.28 
L 64.544879 103.12 
L 64.612086 109.28 
L 64.625527 111.744 
L 64.638969 104.352 
L 64.692734 109.28 
L 64.759941 110.512 
L 64.800265 104.352 
L 64.880913 111.744 
L 64.894354 103.12 
L 64.921237 108.048 
L 64.961561 108.048 
L 64.975002 101.888 
L 65.028768 110.512 
L 65.069092 103.12 
L 65.14974 110.512 
L 65.163181 101.888 
L 65.176622 105.584 
L 65.203505 104.352 
L 65.216946 105.584 
L 65.243829 101.888 
L 65.337919 111.744 
L 65.378243 100.656 
L 65.445449 104.352 
L 65.526097 112.976 
L 65.566421 109.28 
L 65.660511 103.12 
L 65.700835 104.352 
L 65.714276 110.512 
L 65.7546 103.12 
L 65.794924 106.816 
L 65.808366 101.888 
L 65.821807 111.744 
L 65.902455 106.816 
L 65.929338 103.12 
L 65.95622 109.28 
L 66.023427 104.352 
L 66.036868 110.512 
L 66.05031 103.12 
L 66.130958 106.816 
L 66.171282 109.28 
L 66.25193 103.12 
L 66.265371 103.12 
L 66.332578 110.512 
L 66.372902 108.048 
L 66.45355 103.12 
L 66.480433 108.048 
L 66.520757 110.512 
L 66.507316 104.352 
L 66.561081 106.816 
L 66.574522 103.12 
L 66.628288 109.28 
L 66.65517 109.28 
L 66.668612 115.44 
L 66.695494 100.656 
L 66.74926 104.352 
L 66.762701 100.656 
L 66.829908 108.048 
L 66.843349 105.584 
L 66.95088 109.28 
L 66.964321 101.888 
L 67.058411 109.28 
L 67.112176 104.352 
L 67.165941 106.816 
L 67.273472 111.744 
L 67.286913 101.888 
L 67.394444 104.352 
L 67.515416 112.976 
L 67.528858 108.048 
L 67.542299 104.352 
L 67.596064 110.512 
L 67.622947 106.816 
L 67.64983 100.656 
L 67.730478 112.976 
L 67.811126 100.656 
L 67.838009 110.512 
L 67.958981 100.656 
L 67.999305 105.584 
L 68.093394 110.512 
L 68.026187 103.12 
L 68.133718 108.048 
L 68.147159 101.888 
L 68.241249 106.816 
L 68.25469 114.208 
L 68.335338 103.12 
L 68.34878 109.28 
L 68.415986 105.584 
L 68.429428 111.744 
L 68.469752 106.816 
L 68.5504 105.584 
L 68.563841 111.744 
L 68.604165 101.888 
L 68.631048 114.208 
L 68.671372 105.584 
L 68.711696 104.352 
L 68.792344 110.512 
L 68.859551 103.12 
L 68.872992 111.744 
L 68.899875 106.816 
L 68.95364 110.512 
L 68.926757 103.12 
L 68.980523 108.048 
L 68.993964 103.12 
L 69.074612 109.28 
L 69.088054 106.816 
L 69.141819 103.12 
L 69.114936 109.28 
L 69.182143 106.816 
L 69.276232 111.744 
L 69.222467 105.584 
L 69.289674 106.816 
L 69.303115 108.048 
L 69.316556 104.352 
L 69.329998 99.424 
L 69.343439 108.048 
L 69.410646 108.048 
L 69.531618 103.12 
L 69.625707 110.512 
L 69.639149 109.28 
L 69.760121 101.888 
L 69.787003 104.352 
L 69.907976 112.976 
L 69.934858 110.512 
L 70.002065 101.888 
L 70.015506 112.976 
L 70.05583 104.352 
L 70.096154 103.12 
L 70.176802 111.744 
L 70.257451 112.976 
L 70.297775 101.888 
L 70.405305 109.28 
L 70.418747 105.584 
L 70.432188 100.656 
L 70.472512 110.512 
L 70.526277 104.352 
L 70.539719 103.12 
L 70.566601 109.28 
L 70.593484 108.048 
L 70.620367 104.352 
L 70.687574 112.976 
L 70.795104 101.888 
L 70.808546 106.816 
L 70.875752 114.208 
L 70.84887 103.12 
L 70.916076 106.816 
L 70.969842 103.12 
L 70.942959 108.048 
L 71.010166 108.048 
L 71.023607 110.512 
L 71.037048 104.352 
L 71.104255 109.28 
L 71.225227 103.12 
L 71.265551 101.888 
L 71.346199 111.744 
L 71.359641 100.656 
L 71.45373 105.584 
L 71.467171 105.584 
L 71.520937 109.28 
L 71.54782 103.12 
L 71.561261 106.816 
L 71.588144 103.12 
L 71.601585 111.744 
L 71.65535 104.352 
L 71.735998 112.976 
L 71.776322 108.048 
L 71.789764 108.048 
L 71.897295 104.352 
L 71.924177 103.12 
L 72.004825 112.976 
L 72.098915 104.352 
L 72.112356 108.048 
L 72.166121 109.28 
L 72.179563 104.352 
L 72.219887 108.048 
L 72.287093 103.12 
L 72.300535 109.28 
L 72.327418 108.048 
L 72.340859 108.048 
L 72.394624 105.584 
L 72.367742 109.28 
L 72.44839 106.816 
L 72.461831 106.816 
L 72.502155 110.512 
L 72.55592 103.12 
L 72.663451 109.28 
L 72.676892 101.888 
L 72.730658 110.512 
L 72.770982 110.512 
L 72.824747 112.976 
L 72.891954 104.352 
L 72.918837 103.12 
L 73.012926 110.512 
L 73.107015 115.44 
L 73.120457 100.656 
L 73.241429 109.28 
L 73.322077 100.656 
L 73.34896 109.28 
L 73.362401 109.28 
L 73.429608 101.888 
L 73.389284 110.512 
L 73.469932 108.048 
L 73.496814 105.584 
L 73.55058 110.512 
L 73.604345 103.12 
L 73.658111 105.584 
L 73.671552 105.584 
L 73.725317 112.976 
L 73.698435 104.352 
L 73.7522 108.048 
L 73.819407 109.28 
L 73.873172 103.12 
L 73.900055 112.976 
L 73.967262 101.888 
L 73.980703 106.816 
L 73.994144 106.816 
L 74.021027 110.512 
L 74.04791 105.584 
L 74.101675 106.816 
L 74.115116 101.888 
L 74.195764 108.048 
L 74.209206 108.048 
L 74.262971 110.512 
L 74.343619 103.12 
L 74.45115 111.744 
L 74.491474 103.12 
L 74.558681 112.976 
L 74.639329 101.888 
L 74.679653 105.584 
L 74.719977 101.888 
L 74.746859 112.976 
L 74.787183 103.12 
L 74.908156 110.512 
L 75.029128 101.888 
L 75.082893 110.512 
L 75.136658 109.28 
L 75.1501 101.888 
L 75.244189 109.28 
L 75.257631 109.28 
L 75.378603 103.12 
L 75.486133 111.744 
L 75.418927 101.888 
L 75.499575 108.048 
L 75.513016 109.28 
L 75.526457 103.12 
L 75.539899 104.352 
L 75.55334 101.888 
L 75.593664 111.744 
L 75.633988 106.816 
L 75.64743 106.816 
L 75.701195 101.888 
L 75.741519 104.352 
L 75.808726 111.744 
L 75.768402 100.656 
L 75.84905 106.816 
L 75.889374 111.744 
L 75.95658 103.12 
L 75.983463 111.744 
L 76.064111 105.584 
L 76.077553 103.12 
L 76.090994 110.512 
L 76.144759 105.584 
L 76.158201 111.744 
L 76.171642 101.888 
L 76.25229 105.584 
L 76.265731 103.12 
L 76.319497 112.976 
L 76.332938 105.584 
L 76.373262 103.12 
L 76.45391 110.512 
L 76.467352 110.512 
L 76.521117 111.744 
L 76.588324 103.12 
L 76.601765 110.512 
L 76.695854 105.584 
L 76.789944 112.976 
L 76.776502 104.352 
L 76.816826 109.28 
L 76.843709 103.12 
L 76.870592 110.512 
L 76.95124 105.584 
L 77.031888 103.12 
L 77.058771 108.048 
L 77.085653 110.512 
L 77.179743 103.12 
L 77.220067 110.512 
L 77.287274 104.352 
L 77.300715 103.12 
L 77.314156 108.048 
L 77.341039 108.048 
L 77.381363 105.584 
L 77.44857 112.976 
L 77.502335 101.888 
L 77.569542 103.12 
L 77.65019 111.744 
L 77.677072 104.352 
L 77.757721 110.512 
L 77.771162 100.656 
L 77.824927 111.744 
L 77.865251 105.584 
L 77.905575 103.12 
L 77.999665 110.512 
L 78.026547 110.512 
L 78.120637 103.12 
L 78.107195 114.208 
L 78.134078 109.28 
L 78.228168 110.512 
L 78.25505 101.888 
L 78.322257 110.512 
L 78.376022 108.048 
L 78.45667 101.888 
L 78.416346 110.512 
L 78.483553 108.048 
L 78.591084 104.352 
L 78.55076 111.744 
L 78.604525 105.584 
L 78.712056 114.208 
L 78.631408 104.352 
L 78.75238 109.28 
L 78.779263 110.512 
L 78.859911 103.12 
L 78.886793 101.888 
L 78.967442 109.28 
L 78.980883 104.352 
L 79.034648 110.512 
L 79.074972 105.584 
L 79.088414 116.672 
L 79.128738 103.12 
L 79.182503 103.12 
L 79.263151 108.048 
L 79.290034 105.584 
L 79.303475 100.656 
L 79.316916 108.048 
L 79.397565 103.12 
L 79.478213 108.048 
L 79.518537 106.816 
L 79.545419 100.656 
L 79.599185 109.28 
L 79.639509 101.888 
L 79.720157 112.976 
L 79.760481 105.584 
L 79.827688 104.352 
L 79.868012 110.512 
L 79.894894 103.12 
L 79.935218 111.744 
L 79.988984 105.584 
L 80.069632 103.12 
L 80.015866 112.976 
L 80.083073 105.584 
L 80.15028 110.512 
L 80.109956 101.888 
L 80.204045 109.28 
L 80.311576 101.888 
L 80.298135 110.512 
L 80.325017 105.584 
L 80.392224 112.976 
L 80.3519 104.352 
L 80.432548 110.512 
L 80.526637 100.656 
L 80.540079 106.816 
L 80.634168 109.28 
L 80.566961 103.12 
L 80.64761 106.816 
L 80.728258 104.352 
L 80.768582 111.744 
L 80.782023 101.888 
L 80.876112 106.816 
L 80.943319 109.28 
L 80.902995 103.12 
L 80.983643 106.816 
L 80.997084 106.816 
L 81.010526 105.584 
L 81.037409 108.048 
L 81.05085 108.048 
L 81.064291 111.744 
L 81.104615 103.12 
L 81.144939 110.512 
L 81.265911 101.888 
L 81.279353 101.888 
L 81.346559 110.512 
L 81.373442 100.656 
L 81.400325 109.28 
L 81.521297 104.352 
L 81.534738 110.512 
L 81.628828 104.352 
L 81.696034 110.512 
L 81.682593 103.12 
L 81.7498 108.048 
L 81.763241 108.048 
L 81.857331 104.352 
L 81.817006 109.28 
L 81.870772 108.048 
L 81.884213 110.512 
L 81.897655 104.352 
L 81.978303 108.048 
L 82.045509 103.12 
L 82.018627 110.512 
L 82.072392 104.352 
L 82.099275 111.744 
L 82.15304 103.12 
L 82.179923 105.584 
L 82.274012 104.352 
L 82.300895 111.744 
L 82.314336 101.888 
L 82.408426 110.512 
L 82.529398 104.352 
L 82.610046 111.744 
L 82.65037 109.28 
L 82.690694 104.352 
L 82.771342 105.584 
L 82.825107 109.28 
L 82.838549 103.12 
L 82.865431 105.584 
L 82.946079 103.12 
L 82.932638 108.048 
L 82.959521 105.584 
L 82.972962 111.744 
L 83.013286 101.888 
L 83.067051 109.28 
L 83.080493 99.424 
L 83.161141 101.888 
L 83.174582 112.976 
L 83.268672 108.048 
L 83.295554 103.12 
L 83.308996 110.512 
L 83.362761 106.816 
L 83.376202 110.512 
L 83.403085 103.12 
L 83.45685 108.048 
L 83.510616 110.512 
L 83.55094 101.888 
L 83.591264 111.744 
L 83.658471 104.352 
L 83.725677 108.048 
L 83.739119 101.888 
L 83.792884 111.744 
L 83.846649 110.512 
L 83.95418 101.888 
L 84.04827 99.424 
L 84.075152 109.28 
L 84.102035 110.512 
L 84.128918 109.28 
L 84.142359 101.888 
L 84.236448 104.352 
L 84.330538 111.744 
L 84.343979 103.12 
L 84.45151 108.048 
L 84.491834 112.976 
L 84.559041 101.888 
L 84.572482 111.744 
L 84.666571 110.512 
L 84.760661 101.888 
L 84.706895 112.976 
L 84.787544 105.584 
L 84.868192 110.512 
L 84.814426 101.888 
L 84.881633 109.28 
L 84.989164 103.12 
L 85.029488 101.888 
L 85.110136 109.28 
L 85.163901 104.352 
L 85.217667 110.512 
L 85.35208 99.424 
L 85.419287 111.744 
L 85.473052 110.512 
L 85.499935 101.888 
L 85.594024 104.352 
L 85.607466 104.352 
L 85.64779 111.744 
L 85.701555 101.888 
L 85.768762 114.208 
L 85.809086 104.352 
L 85.876292 112.976 
L 85.930058 110.512 
L 86.037589 104.352 
L 86.064471 101.888 
L 86.158561 109.28 
L 86.198885 112.976 
L 86.239209 101.888 
L 86.25265 112.976 
L 86.346739 109.28 
L 86.427388 110.512 
L 86.45427 104.352 
L 86.561801 109.28 
L 86.481153 103.12 
L 86.575242 108.048 
L 86.669332 101.888 
L 86.65589 110.512 
L 86.696214 104.352 
L 86.736538 109.28 
L 86.776862 101.888 
L 86.803745 106.816 
L 86.830628 109.28 
L 86.884393 101.888 
L 87.005365 111.744 
L 87.139779 103.12 
L 87.260751 110.512 
L 87.274192 104.352 
L 87.314516 111.744 
L 87.368282 109.28 
L 87.435488 101.888 
L 87.422047 110.512 
L 87.475812 106.816 
L 87.543019 110.512 
L 87.516136 104.352 
L 87.596784 108.048 
L 87.677433 104.352 
L 87.704315 105.584 
L 87.717757 111.744 
L 87.744639 104.352 
L 87.811846 108.048 
L 87.825287 103.12 
L 87.892494 111.744 
L 87.919377 104.352 
L 88.013466 111.744 
L 88.026907 108.048 
L 88.080673 101.888 
L 88.14788 105.584 
L 88.161321 105.584 
L 88.188204 110.512 
L 88.241969 104.352 
L 88.268852 108.048 
L 88.309176 101.888 
L 88.362941 103.12 
L 88.403265 111.744 
L 88.416706 101.888 
L 88.470472 108.048 
L 88.524237 101.888 
L 88.564561 108.048 
L 88.604885 114.208 
L 88.618327 103.12 
L 88.658651 108.048 
L 88.739299 110.512 
L 88.766181 104.352 
L 88.833388 103.12 
L 88.873712 109.28 
L 88.900595 110.512 
L 88.981243 101.888 
L 89.088774 110.512 
L 89.102215 103.12 
L 89.196304 105.584 
L 89.236628 104.352 
L 89.303835 110.512 
L 89.411366 101.888 
L 89.465131 112.976 
L 89.518897 110.512 
L 89.599545 105.584 
L 89.612986 111.744 
L 89.626427 110.512 
L 89.680193 101.888 
L 89.760841 104.352 
L 89.774282 108.048 
L 89.841489 101.888 
L 89.868372 105.584 
L 89.94902 100.656 
L 89.908696 106.816 
L 89.962461 105.584 
L 89.989344 103.12 
L 90.05655 109.28 
L 90.096874 103.12 
L 90.177523 105.584 
L 90.190964 105.584 
L 90.217847 103.12 
L 90.298495 110.512 
L 90.338819 103.12 
L 90.419467 105.584 
L 90.432908 105.584 
L 90.526997 112.976 
L 90.540439 106.816 
L 90.621087 101.888 
L 90.580763 109.28 
L 90.634528 104.352 
L 90.674852 110.512 
L 90.742059 108.048 
L 90.836148 101.888 
L 90.84959 108.048 
L 90.943679 101.888 
L 90.95712 103.12 
L 91.024327 110.512 
L 91.078093 106.816 
L 91.131858 103.12 
L 91.158741 108.048 
L 91.25283 111.744 
L 91.185623 104.352 
L 91.266271 109.28 
L 91.279713 103.12 
L 91.387243 104.352 
L 91.441009 109.28 
L 91.427568 103.12 
L 91.494774 106.816 
L 91.508216 103.12 
L 91.588864 108.048 
L 91.602305 108.048 
L 91.669512 100.656 
L 91.709836 101.888 
L 91.75016 100.656 
L 91.817367 110.512 
L 91.938339 103.12 
L 92.059311 111.744 
L 92.126517 112.976 
L 92.180283 104.352 
L 92.274372 110.512 
L 92.220607 103.12 
L 92.301255 109.28 
L 92.395344 103.12 
L 92.422227 105.584 
L 92.502875 110.512 
L 92.462551 104.352 
L 92.516316 106.816 
L 92.570082 109.28 
L 92.623847 100.656 
L 92.691054 110.512 
L 92.731378 106.816 
L 92.771702 101.888 
L 92.785143 111.744 
L 92.85235 103.12 
L 92.906115 109.28 
L 92.973322 106.816 
L 92.986763 110.512 
L 93.040529 104.352 
L 93.067412 108.048 
L 93.080853 103.12 
L 93.094294 109.28 
L 93.174942 109.28 
L 93.188384 110.512 
L 93.215266 103.12 
L 93.228708 109.28 
L 93.322797 99.424 
L 93.390004 111.744 
L 93.430328 103.12 
L 93.470652 110.512 
L 93.5513 105.584 
L 93.618507 109.28 
L 93.591624 100.656 
L 93.658831 108.048 
L 93.726037 104.352 
L 93.699155 109.28 
L 93.766361 106.816 
L 93.820127 110.512 
L 93.847009 105.584 
L 93.860451 108.048 
L 93.927658 104.352 
L 93.95454 110.512 
L 93.994864 100.656 
L 94.102395 103.12 
L 94.209926 110.512 
L 94.223367 109.28 
L 94.236808 109.28 
L 94.344339 105.584 
L 94.263691 110.512 
L 94.357781 108.048 
L 94.371222 108.048 
L 94.398105 111.744 
L 94.411546 101.888 
L 94.465311 108.048 
L 94.532518 101.888 
L 94.572842 104.352 
L 94.666931 110.512 
L 94.65349 103.12 
L 94.680373 106.816 
L 94.720697 104.352 
L 94.734138 110.512 
L 94.774462 105.584 
L 94.814786 110.512 
L 94.85511 101.888 
L 94.881993 108.048 
L 94.935758 103.12 
L 94.962641 112.976 
L 94.976082 112.976 
L 95.110496 104.352 
L 95.15082 101.888 
L 95.164261 108.048 
L 95.177703 105.584 
L 95.231468 103.12 
L 95.285233 111.744 
L 95.35244 103.12 
L 95.406205 106.816 
L 95.419647 103.12 
L 95.459971 111.744 
L 95.513736 106.816 
L 95.527177 108.048 
L 95.55406 103.12 
L 95.567502 106.816 
L 95.580943 100.656 
L 95.64815 108.048 
L 95.688474 101.888 
L 95.796004 109.28 
L 95.809446 106.816 
L 95.836328 106.816 
L 95.876652 109.28 
L 95.930418 106.816 
L 95.943859 103.12 
L 95.984183 114.208 
L 96.024507 105.584 
L 96.037949 111.744 
L 96.105155 103.12 
L 96.132038 108.048 
L 96.145479 108.048 
L 96.212686 109.28 
L 96.185803 106.816 
L 96.239569 108.048 
L 96.306775 112.976 
L 96.347099 105.584 
L 96.414306 109.28 
L 96.427748 106.816 
L 96.494954 103.12 
L 96.45463 109.28 
L 96.535278 105.584 
L 96.562161 103.12 
L 96.575602 110.512 
L 96.615926 104.352 
L 96.710016 112.976 
L 96.696574 101.888 
L 96.736898 110.512 
L 96.830988 105.584 
L 96.857871 108.048 
L 96.898195 110.512 
L 96.925077 105.584 
L 96.95196 106.816 
L 97.019167 100.656 
L 96.992284 109.28 
L 97.046049 106.816 
L 97.086373 114.208 
L 97.072932 105.584 
L 97.15358 111.744 
L 97.180463 101.888 
L 97.274552 108.048 
L 97.341759 105.584 
L 97.382083 112.976 
L 97.408966 101.888 
L 97.503055 106.816 
L 97.516496 106.816 
L 97.597144 110.512 
L 97.543379 103.12 
L 97.624027 108.048 
L 97.718117 101.888 
L 97.664351 111.744 
L 97.731558 103.12 
L 97.85253 110.512 
L 97.865971 101.888 
L 97.906295 112.976 
L 97.960061 103.12 
L 97.986943 109.28 
L 98.013826 101.888 
L 98.067592 108.048 
L 98.081033 101.888 
L 98.121357 111.744 
L 98.175122 103.12 
L 98.215446 109.28 
L 98.25577 100.656 
L 98.282653 106.816 
L 98.296094 106.816 
L 98.376742 109.28 
L 98.403625 101.888 
L 98.417066 110.512 
L 98.470832 100.656 
L 98.511156 105.584 
L 98.605245 110.512 
L 98.632128 109.28 
L 98.712776 101.888 
L 98.699335 110.512 
L 98.726217 105.584 
L 98.739659 112.976 
L 98.793424 104.352 
L 98.833748 105.584 
L 98.900955 109.28 
L 98.887514 103.12 
L 98.95472 108.048 
L 99.008486 112.976 
L 99.04881 104.352 
L 99.062251 110.512 
L 99.15634 103.12 
L 99.169782 103.12 
L 99.183223 110.512 
L 99.263871 101.888 
L 99.277313 104.352 
L 99.290754 104.352 
L 99.331078 110.512 
L 99.317637 103.12 
L 99.398285 105.584 
L 99.425167 111.744 
L 99.438609 104.352 
L 99.478933 110.512 
L 99.492374 103.12 
L 99.586463 104.352 
L 99.65367 110.512 
L 99.680553 108.048 
L 99.693994 100.656 
L 99.74776 110.512 
L 99.788084 105.584 
L 99.801525 105.584 
L 99.868732 110.512 
L 99.882173 103.12 
L 99.909056 106.816 
L 100.003145 101.888 
L 100.030028 103.12 
L 100.110676 111.744 
L 100.070352 101.888 
L 100.137559 106.816 
L 100.231648 103.12 
L 100.191324 111.744 
L 100.245089 106.816 
L 100.312296 104.352 
L 100.339179 109.28 
L 100.379503 103.12 
L 100.366061 110.512 
L 100.460151 105.584 
L 100.500475 103.12 
L 100.487033 110.512 
L 100.55424 106.816 
L 100.594564 112.976 
L 100.634888 101.888 
L 100.64833 101.888 
L 100.688654 112.976 
L 100.769302 110.512 
L 100.890274 100.656 
L 100.903715 109.28 
L 101.011246 108.048 
L 101.024687 101.888 
L 101.038129 111.744 
L 101.118777 103.12 
L 101.212866 110.512 
L 101.226307 101.888 
L 101.320397 105.584 
L 101.414486 109.28 
L 101.427928 106.816 
L 101.45481 109.28 
L 101.5489 103.12 
L 101.575782 100.656 
L 101.669872 110.512 
L 101.696754 103.12 
L 101.75052 111.744 
L 101.790844 106.816 
L 101.871492 103.12 
L 101.965581 109.28 
L 101.979023 101.888 
L 102.032788 111.744 
L 102.099995 106.816 
L 102.113436 106.816 
L 102.126877 110.512 
L 102.194084 101.888 
L 102.207526 106.816 
L 102.24785 110.512 
L 102.328498 103.12 
L 102.436028 110.512 
L 102.44947 108.048 
L 102.462911 100.656 
L 102.503235 111.744 
L 102.557 104.352 
L 102.570442 111.744 
L 102.65109 99.424 
L 102.664531 105.584 
L 102.772062 110.512 
L 102.718297 101.888 
L 102.785503 109.28 
L 102.85271 104.352 
L 102.866151 110.512 
L 102.893034 105.584 
L 102.987123 109.28 
L 102.973682 104.352 
L 103.000565 106.816 
L 103.014006 106.816 
L 103.067772 109.28 
L 103.121537 103.12 
L 103.215626 112.976 
L 103.229068 101.888 
L 103.296274 111.744 
L 103.35004 110.512 
L 103.376922 104.352 
L 103.471012 105.584 
L 103.484453 105.584 
L 103.524777 111.744 
L 103.578543 101.888 
L 103.591984 109.28 
L 103.632308 103.12 
L 103.672632 114.208 
L 103.712956 104.352 
L 103.739839 110.512 
L 103.793604 103.12 
L 103.820487 103.12 
L 103.887694 111.744 
L 103.941459 106.816 
L 104.022107 111.744 
L 103.995224 105.584 
L 104.04899 106.816 
L 104.062431 106.816 
L 104.102755 101.888 
L 104.116196 108.048 
L 104.143079 106.816 
L 104.15652 111.744 
L 104.183403 100.656 
L 104.25061 110.512 
L 104.331258 103.12 
L 104.371582 105.584 
L 104.45223 111.744 
L 104.425347 101.888 
L 104.492554 110.512 
L 104.600085 104.352 
L 104.613526 106.816 
L 104.680733 110.512 
L 104.640409 101.888 
L 104.707616 108.048 
L 104.74794 103.12 
L 104.788264 110.512 
L 104.815146 106.816 
L 104.922677 103.12 
L 104.842029 108.048 
L 104.936118 104.352 
L 104.94956 110.512 
L 104.963001 103.12 
L 105.043649 109.28 
L 105.070532 111.744 
L 105.15118 101.888 
L 105.164621 109.28 
L 105.258711 105.584 
L 105.3528 100.656 
L 105.285593 110.512 
L 105.379683 104.352 
L 105.406565 110.512 
L 105.446889 101.888 
L 105.487213 106.816 
L 105.514096 99.424 
L 105.540979 110.512 
L 105.608186 104.352 
L 105.688834 101.888 
L 105.729158 109.28 
L 105.836688 103.12 
L 105.877012 111.744 
L 105.944219 108.048 
L 105.971102 109.28 
L 106.05175 105.584 
L 106.078633 110.512 
L 106.145839 106.816 
L 106.213046 101.888 
L 106.186163 111.744 
L 106.239929 109.28 
L 106.34746 104.352 
L 106.293694 112.976 
L 106.374342 105.584 
L 106.387784 109.28 
L 106.45499 103.12 
L 106.481873 106.816 
L 106.522197 104.352 
L 106.535638 109.28 
L 106.562521 109.28 
L 106.602845 111.744 
L 106.589404 103.12 
L 106.616286 106.816 
L 106.643169 111.744 
L 106.723817 103.12 
L 106.817907 109.28 
L 106.844789 108.048 
L 106.858231 109.28 
L 106.885113 101.888 
L 106.898555 105.584 
L 106.95232 101.888 
L 106.938879 110.512 
L 106.992644 106.816 
L 107.032968 104.352 
L 107.073292 108.048 
L 107.086733 101.888 
L 107.127057 111.744 
L 107.180823 108.048 
L 107.207706 111.744 
L 107.234588 104.352 
L 107.274912 108.048 
L 107.315236 110.512 
L 107.395884 103.12 
L 107.503415 110.512 
L 107.530298 101.888 
L 107.610946 109.28 
L 107.637829 109.28 
L 107.758801 103.12 
L 107.879773 109.28 
L 107.933538 104.352 
L 107.960421 112.976 
L 107.973862 105.584 
L 108.014186 110.512 
L 108.05451 101.888 
L 108.081393 106.816 
L 108.094834 106.816 
L 108.108276 101.888 
L 108.135158 108.048 
L 108.215806 103.12 
L 108.229248 101.888 
L 108.242689 108.048 
L 108.25613 104.352 
L 108.283013 100.656 
L 108.363661 110.512 
L 108.471192 103.12 
L 108.484633 104.352 
L 108.538399 109.28 
L 108.578723 103.12 
L 108.605605 103.12 
L 108.699695 110.512 
L 108.726577 108.048 
L 108.740019 103.12 
L 108.766901 110.512 
L 108.834108 104.352 
L 108.901315 110.512 
L 108.941639 109.28 
L 109.062611 101.888 
L 109.116376 109.28 
L 109.170142 105.584 
L 109.183583 103.12 
L 109.210466 108.048 
L 109.25079 108.048 
L 109.304555 111.744 
L 109.331438 104.352 
L 109.371762 110.512 
L 109.479293 104.352 
L 109.519617 103.12 
L 109.600265 109.28 
L 109.667472 112.976 
L 109.734678 101.888 
L 109.815326 110.512 
L 109.85565 106.816 
L 109.909416 109.28 
L 109.895974 104.352 
L 109.936298 105.584 
L 109.990064 103.12 
L 110.003505 106.816 
L 110.043829 101.888 
L 110.097595 111.744 
L 110.15136 112.976 
L 110.205125 103.12 
L 110.232008 100.656 
L 110.339539 110.512 
L 110.379863 103.12 
L 110.460511 104.352 
L 110.473952 104.352 
L 110.487394 103.12 
L 110.500835 109.28 
L 110.541159 108.048 
L 110.5546 108.048 
L 110.64869 103.12 
L 110.608366 111.744 
L 110.662131 106.816 
L 110.702455 104.352 
L 110.729338 109.28 
L 110.75622 106.816 
L 110.783103 111.744 
L 110.823427 104.352 
L 110.85031 110.512 
L 110.917517 101.888 
L 110.944399 111.744 
L 110.957841 108.048 
L 110.971282 108.048 
L 111.05193 110.512 
L 111.078813 101.888 
L 111.199785 110.512 
L 111.226667 103.12 
L 111.293874 109.28 
L 111.307316 111.744 
L 111.334198 104.352 
L 111.361081 108.048 
L 111.374522 103.12 
L 111.387964 109.28 
L 111.468612 105.584 
L 111.482053 105.584 
L 111.562701 115.44 
L 111.535818 104.352 
L 111.576142 109.28 
L 111.629908 100.656 
L 111.683673 110.512 
L 111.791204 105.584 
L 111.804645 108.048 
L 111.818087 108.048 
L 111.898735 101.888 
L 111.912176 111.744 
L 112.006265 105.584 
L 112.019707 100.656 
L 112.046589 112.976 
L 112.113796 103.12 
L 112.167562 108.048 
L 112.234768 105.584 
L 112.24821 101.888 
L 112.261651 108.048 
L 112.328858 106.816 
L 112.342299 106.816 
L 112.35574 111.744 
L 112.396064 103.12 
L 112.436388 108.048 
L 112.517036 101.888 
L 112.503595 109.28 
L 112.530478 109.28 
L 112.543919 110.512 
L 112.557361 105.584 
L 112.584243 108.048 
L 112.638009 100.656 
L 112.65145 109.28 
L 112.691774 106.816 
L 112.758981 111.744 
L 112.718657 103.12 
L 112.785863 105.584 
L 112.799305 101.888 
L 112.826187 106.816 
L 112.866511 103.12 
L 112.879953 110.512 
L 112.974042 106.816 
L 112.987484 106.816 
L 113.014366 103.12 
L 113.05469 110.512 
L 113.081573 105.584 
L 113.14878 111.744 
L 113.135338 100.656 
L 113.175662 104.352 
L 113.189104 101.888 
L 113.215986 110.512 
L 113.25631 104.352 
L 113.363841 111.744 
L 113.336958 101.888 
L 113.377283 110.512 
L 113.525137 103.12 
L 113.578903 110.512 
L 113.646109 109.28 
L 113.740199 101.888 
L 113.767081 114.208 
L 113.84773 105.584 
L 113.861171 105.584 
L 113.941819 115.44 
L 113.968702 106.816 
L 113.982143 101.888 
L 113.995584 108.048 
L 114.076232 105.584 
L 114.089674 110.512 
L 114.116556 103.12 
L 114.197204 109.28 
L 114.237529 110.512 
L 114.224087 105.584 
L 114.277853 106.816 
L 114.358501 100.656 
L 114.425707 111.744 
L 114.466031 106.816 
L 114.492914 103.12 
L 114.506355 109.28 
L 114.573562 105.584 
L 114.587003 105.584 
L 114.600445 104.352 
L 114.613886 111.744 
L 114.667652 105.584 
L 114.7483 109.28 
L 114.775182 108.048 
L 114.802065 100.656 
L 114.842389 110.512 
L 114.896154 101.888 
L 115.017126 109.28 
L 115.097775 100.656 
L 115.124657 108.048 
L 115.138099 110.512 
L 115.178423 101.888 
L 115.205305 104.352 
L 115.218747 103.12 
L 115.232188 106.816 
L 115.272512 106.816 
L 115.35316 110.512 
L 115.380043 106.816 
L 115.406925 108.048 
L 115.487574 101.888 
L 115.514456 111.744 
L 115.621987 110.512 
L 115.729518 101.888 
L 115.742959 105.584 
L 115.810166 104.352 
L 115.85049 110.512 
L 115.944579 105.584 
L 115.958021 106.816 
L 115.984903 111.744 
L 116.011786 103.12 
L 116.025227 108.048 
L 116.05211 100.656 
L 116.105875 109.28 
L 116.132758 109.28 
L 116.186523 103.12 
L 116.226847 108.048 
L 116.294054 110.512 
L 116.267171 103.12 
L 116.334378 108.048 
L 116.34782 108.048 
L 116.388144 109.28 
L 116.428468 103.12 
L 116.441909 111.744 
L 116.522557 109.28 
L 116.535998 100.656 
L 116.54944 110.512 
L 116.630088 106.816 
L 116.670412 100.656 
L 116.683853 111.744 
L 116.737619 106.816 
L 116.777943 111.744 
L 116.804825 104.352 
L 116.831708 106.816 
L 116.845149 104.352 
L 116.885473 114.208 
L 116.925797 106.816 
L 116.993004 110.512 
L 116.95268 103.12 
L 117.033328 109.28 
L 117.127418 105.584 
L 117.140859 112.976 
L 117.234948 106.816 
L 117.24839 110.512 
L 117.275272 105.584 
L 117.342479 108.048 
L 117.382803 112.976 
L 117.369362 101.888 
L 117.436568 110.512 
L 117.544099 100.656 
L 117.570982 111.744 
L 117.65163 108.048 
L 117.732278 103.12 
L 117.718837 110.512 
L 117.772602 104.352 
L 117.826367 103.12 
L 117.812926 108.048 
L 117.85325 105.584 
L 117.866691 111.744 
L 117.920457 103.12 
L 117.960781 108.048 
L 118.081753 101.888 
L 118.014546 110.512 
L 118.108636 104.352 
L 118.122077 111.744 
L 118.14896 103.12 
L 118.216166 106.816 
L 118.243049 103.12 
L 118.323697 105.584 
L 118.337138 111.744 
L 118.417787 103.12 
L 118.431228 104.352 
L 118.444669 104.352 
L 118.458111 111.744 
L 118.5522 105.584 
L 118.632848 104.352 
L 118.579083 108.048 
L 118.646289 105.584 
L 118.726937 109.28 
L 118.686613 104.352 
L 118.75382 105.584 
L 118.794144 111.744 
L 118.807586 101.888 
L 118.84791 105.584 
L 118.874792 110.512 
L 118.915116 104.352 
L 118.95544 101.888 
L 119.036088 109.28 
L 119.062971 111.744 
L 119.15706 103.12 
L 119.197385 111.744 
L 119.264591 108.048 
L 119.345239 112.976 
L 119.372122 101.888 
L 119.439329 110.512 
L 119.493094 109.28 
L 119.614066 103.12 
L 119.735038 112.976 
L 119.788804 103.12 
L 119.842569 108.048 
L 119.896334 110.512 
L 119.869452 104.352 
L 119.909776 104.352 
L 119.923217 103.12 
L 119.9501 109.28 
L 119.976982 106.816 
L 119.990424 114.208 
L 120.003865 101.888 
L 120.084513 110.512 
L 120.15172 104.352 
L 120.192044 105.584 
L 120.299575 112.976 
L 120.313016 103.12 
L 120.407105 108.048 
L 120.460871 111.744 
L 120.528078 106.816 
L 120.541519 106.816 
L 120.595284 105.584 
L 120.608726 110.512 
L 120.622167 110.512 
L 120.635608 112.976 
L 120.662491 106.816 
L 120.702815 108.048 
L 120.716256 104.352 
L 120.770022 109.28 
L 120.796904 109.28 
L 120.810346 111.744 
L 120.823787 103.12 
L 120.877553 105.584 
L 120.958201 110.512 
L 120.998525 103.12 
L 121.106055 109.28 
L 121.132938 101.888 
L 121.186703 110.512 
L 121.227027 104.352 
L 121.334558 111.744 
L 121.307676 103.12 
L 121.348 109.28 
L 121.415206 103.12 
L 121.45553 105.584 
L 121.468972 110.512 
L 121.495854 104.352 
L 121.563061 105.584 
L 121.643709 101.888 
L 121.65715 108.048 
L 121.724357 112.976 
L 121.778123 103.12 
L 121.831888 110.512 
L 121.899095 108.048 
L 121.925977 108.048 
L 121.939419 101.888 
L 121.993184 111.744 
L 122.033508 105.584 
L 122.100715 109.28 
L 122.141039 108.048 
L 122.275452 103.12 
L 122.369542 112.976 
L 122.342659 101.888 
L 122.396424 109.28 
L 122.490514 103.12 
L 122.517397 105.584 
L 122.557721 100.656 
L 122.598045 109.28 
L 122.611486 104.352 
L 122.678693 109.28 
L 122.719017 108.048 
L 122.772782 104.352 
L 122.786223 112.976 
L 122.826547 103.12 
L 122.880313 108.048 
L 122.960961 110.512 
L 122.974402 105.584 
L 123.05505 109.28 
L 123.014726 103.12 
L 123.081933 108.048 
L 123.135698 110.512 
L 123.189464 101.888 
L 123.270112 110.512 
L 123.296994 109.28 
L 123.35076 100.656 
L 123.391084 110.512 
L 123.417967 103.12 
L 123.431408 109.28 
L 123.525497 105.584 
L 123.579263 109.28 
L 123.592704 105.584 
L 123.606145 99.424 
L 123.659911 108.048 
L 123.700235 104.352 
L 123.754 110.512 
L 123.780883 103.12 
L 123.821207 108.048 
L 123.928738 100.656 
L 123.861531 109.28 
L 123.95562 103.12 
L 123.969062 103.12 
L 124.022827 109.28 
L 124.009386 100.656 
L 124.076592 105.584 
L 124.090034 105.584 
L 124.103475 104.352 
L 124.116916 110.512 
L 124.143799 110.512 
L 124.15724 110.512 
L 124.25133 104.352 
L 124.264771 110.512 
L 124.318537 101.888 
L 124.372302 108.048 
L 124.399185 109.28 
L 124.412626 101.888 
L 124.45295 106.816 
L 124.493274 103.12 
L 124.520157 110.512 
L 124.533598 110.512 
L 124.587364 101.888 
L 124.614246 110.512 
L 124.627688 112.976 
L 124.641129 103.12 
L 124.694894 105.584 
L 124.708336 105.584 
L 124.74866 103.12 
L 124.762101 110.512 
L 124.788984 106.816 
L 124.815866 110.512 
L 124.829308 105.584 
L 124.883073 108.048 
L 124.95028 110.512 
L 125.004045 104.352 
L 125.071252 108.048 
L 125.057811 103.12 
L 125.111576 104.352 
L 125.178783 100.656 
L 125.138459 109.28 
L 125.205665 106.816 
L 125.259431 111.744 
L 125.232548 103.12 
L 125.299755 109.28 
L 125.313196 100.656 
L 125.380403 110.512 
L 125.407286 106.816 
L 125.474492 111.744 
L 125.434168 104.352 
L 125.487934 110.512 
L 125.501375 101.888 
L 125.595464 111.744 
L 125.608906 103.12 
L 125.702995 111.744 
L 125.729878 109.28 
L 125.743319 109.28 
L 125.85085 100.656 
L 125.931498 110.512 
L 125.958381 106.816 
L 125.971822 104.352 
L 125.998705 108.048 
L 126.065911 106.816 
L 126.133118 105.584 
L 126.146559 109.28 
L 126.160001 111.744 
L 126.200325 103.12 
L 126.25409 110.512 
L 126.375062 103.12 
L 126.388504 104.352 
L 126.401945 110.512 
L 126.428828 101.888 
L 126.496034 104.352 
L 126.509476 101.888 
L 126.563241 108.048 
L 126.576682 103.12 
L 126.630448 109.28 
L 126.603565 101.888 
L 126.697655 108.048 
L 126.75142 110.512 
L 126.791744 105.584 
L 126.805185 105.584 
L 126.845509 103.12 
L 126.899275 109.28 
L 126.979923 110.512 
L 127.020247 100.656 
L 127.127778 110.512 
L 127.141219 108.048 
L 127.194984 109.28 
L 127.24875 100.656 
L 127.329398 108.048 
L 127.369722 106.816 
L 127.477252 101.888 
L 127.584783 111.744 
L 127.598225 109.28 
L 127.678873 103.12 
L 127.705755 104.352 
L 127.759521 112.976 
L 127.746079 99.424 
L 127.799845 110.512 
L 127.813286 100.656 
L 127.907376 105.584 
L 127.920817 105.584 
L 127.934258 111.744 
L 128.014906 101.888 
L 128.028348 109.28 
L 128.068672 103.12 
L 128.135878 105.584 
L 128.203085 109.28 
L 128.216526 103.12 
L 128.25685 108.048 
L 128.270292 101.888 
L 128.297174 109.28 
L 128.364381 106.816 
L 128.431588 112.976 
L 128.404705 105.584 
L 128.458471 110.512 
L 128.471912 101.888 
L 128.566001 108.048 
L 128.606325 103.12 
L 128.592884 110.512 
L 128.673532 105.584 
L 128.740739 110.512 
L 128.75418 101.888 
L 128.794504 108.048 
L 128.861711 101.888 
L 128.821387 109.28 
L 128.915476 104.352 
L 128.928918 104.352 
L 128.942359 111.744 
L 129.036448 103.12 
L 129.170862 114.208 
L 129.25151 99.424 
L 129.278393 106.816 
L 129.291834 110.512 
L 129.318717 101.888 
L 129.385923 109.28 
L 129.439689 104.352 
L 129.466571 109.28 
L 129.480013 112.976 
L 129.506895 103.12 
L 129.560661 109.28 
L 129.627868 101.888 
L 129.668192 105.584 
L 129.721957 111.744 
L 129.735398 109.28 
L 129.74884 101.888 
L 129.762281 111.744 
L 129.842929 108.048 
L 129.896694 103.12 
L 129.923577 110.512 
L 129.95046 106.816 
L 130.031108 104.352 
L 130.044549 110.512 
L 130.057991 101.888 
L 130.15208 109.28 
L 130.178963 114.208 
L 130.259611 101.888 
L 130.299935 112.976 
L 130.286493 100.656 
L 130.3537 111.744 
L 130.367141 99.424 
L 130.461231 105.584 
L 130.514996 104.352 
L 130.528438 105.584 
L 130.541879 112.976 
L 130.595644 100.656 
L 130.635968 104.352 
L 130.64941 110.512 
L 130.716616 101.888 
L 130.743499 108.048 
L 130.783823 101.888 
L 130.770382 110.512 
L 130.864471 103.12 
L 130.972002 101.888 
L 130.985443 109.28 
L 130.998885 111.744 
L 131.039209 101.888 
L 131.079533 106.816 
L 131.160181 101.888 
L 131.119857 110.512 
L 131.173622 106.816 
L 131.213946 110.512 
L 131.200505 103.12 
L 131.281153 106.816 
L 131.294594 103.12 
L 131.321477 108.048 
L 131.375242 104.352 
L 131.429008 103.12 
L 131.482773 112.976 
L 131.603745 101.888 
L 131.711276 114.208 
L 131.805365 100.656 
L 131.832248 105.584 
L 131.899455 103.12 
L 131.95322 110.512 
L 132.074192 103.12 
L 132.087634 104.352 
L 132.168282 109.28 
L 132.114516 103.12 
L 132.195164 108.048 
L 132.289254 104.352 
L 132.302695 108.048 
L 132.35646 106.816 
L 132.383343 111.744 
L 132.504315 103.12 
L 132.517757 110.512 
L 132.611846 108.048 
L 132.625287 103.12 
L 132.665611 110.512 
L 132.705935 104.352 
L 132.719377 111.744 
L 132.786583 101.888 
L 132.813466 106.816 
L 132.85379 108.048 
L 132.867231 99.424 
L 132.934438 114.208 
L 132.961321 105.584 
L 132.974762 105.584 
L 132.988204 109.28 
L 133.015086 104.352 
L 133.082293 108.048 
L 133.176382 100.656 
L 133.136058 110.512 
L 133.189824 106.816 
L 133.216706 106.816 
L 133.283913 109.28 
L 133.243589 103.12 
L 133.324237 108.048 
L 133.418327 101.888 
L 133.431768 106.816 
L 133.458651 111.744 
L 133.485533 104.352 
L 133.539299 110.512 
L 133.566181 101.888 
L 133.660271 105.584 
L 133.700595 109.28 
L 133.687153 103.12 
L 133.740919 108.048 
L 133.75436 103.12 
L 133.794684 109.28 
L 133.84845 106.816 
L 133.942539 104.352 
L 133.95598 110.512 
L 134.05007 101.888 
L 134.063511 108.048 
L 134.076952 109.28 
L 134.090394 105.584 
L 134.117277 105.584 
L 134.171042 110.512 
L 134.197925 103.12 
L 134.211366 110.512 
L 134.318897 109.28 
L 134.332338 103.12 
L 134.372662 110.512 
L 134.412986 108.048 
L 134.426427 111.744 
L 134.45331 101.888 
L 134.507075 105.584 
L 134.560841 112.976 
L 134.574282 106.816 
L 134.601165 101.888 
L 134.614606 110.512 
L 134.695254 103.12 
L 134.762461 111.744 
L 134.802785 106.816 
L 134.816226 101.888 
L 134.883433 111.744 
L 134.923757 103.12 
L 135.031288 109.28 
L 134.964081 101.888 
L 135.044729 106.816 
L 135.071612 106.816 
L 135.15226 104.352 
L 135.111936 108.048 
L 135.165701 106.816 
L 135.192584 101.888 
L 135.273232 109.28 
L 135.300115 103.12 
L 135.380763 108.048 
L 135.394204 110.512 
L 135.407646 101.888 
L 135.44797 106.816 
L 135.461411 101.888 
L 135.542059 109.28 
L 135.5555 108.048 
L 135.568942 110.512 
L 135.636148 103.12 
L 135.64959 106.816 
L 135.663031 106.816 
L 135.730238 109.28 
L 135.75712 105.584 
L 135.770562 103.12 
L 135.810886 109.28 
L 135.837769 104.352 
L 135.878093 110.512 
L 135.958741 109.28 
L 135.999065 100.656 
L 136.066271 108.048 
L 136.106595 104.352 
L 136.160361 112.976 
L 136.200685 103.12 
L 136.267892 108.048 
L 136.321657 114.208 
L 136.34854 105.584 
L 136.429188 109.28 
L 136.442629 103.12 
L 136.469512 110.512 
L 136.563601 109.28 
L 136.577042 109.28 
L 136.590484 101.888 
L 136.684573 106.816 
L 136.698015 106.816 
L 136.711456 103.12 
L 136.778663 111.744 
L 136.805545 104.352 
L 136.859311 111.744 
L 136.832428 103.12 
L 136.926517 110.512 
L 136.993724 103.12 
L 137.074372 105.584 
L 137.101255 111.744 
L 137.141579 100.656 
L 137.181903 106.816 
L 137.222227 101.888 
L 137.275992 108.048 
L 137.289434 104.352 
L 137.302875 111.744 
L 137.329758 101.888 
L 137.396964 106.816 
L 137.423847 103.12 
L 137.477613 111.744 
L 137.504495 103.12 
L 137.585143 105.584 
L 137.692674 111.744 
L 137.706115 106.816 
L 137.746439 104.352 
L 137.759881 110.512 
L 137.800205 106.816 
L 137.880853 110.512 
L 137.840529 101.888 
L 137.907736 109.28 
L 138.001825 101.888 
L 138.015266 112.976 
L 138.122797 110.512 
L 138.136238 110.512 
L 138.163121 112.976 
L 138.243769 105.584 
L 138.337859 109.28 
L 138.310976 104.352 
L 138.3513 105.584 
L 138.418507 108.048 
L 138.458831 103.12 
L 138.485713 112.976 
L 138.512596 101.888 
L 138.579803 108.048 
L 138.633568 112.976 
L 138.606685 103.12 
L 138.673892 108.048 
L 138.727658 110.512 
L 138.781423 104.352 
L 138.84863 108.048 
L 138.862071 99.424 
L 138.95616 105.584 
L 139.036808 112.976 
L 138.983043 101.888 
L 139.063691 109.28 
L 139.077132 101.888 
L 139.104015 111.744 
L 139.171222 108.048 
L 139.25187 115.44 
L 139.238429 104.352 
L 139.265311 110.512 
L 139.278753 101.888 
L 139.372842 109.28 
L 139.466931 101.888 
L 139.413166 110.512 
L 139.493814 105.584 
L 139.574462 104.352 
L 139.587904 112.976 
L 139.601345 99.424 
L 139.695434 105.584 
L 139.722317 104.352 
L 139.7492 105.584 
L 139.776082 101.888 
L 139.85673 110.512 
L 139.897054 104.352 
L 139.964261 108.048 
L 139.977703 110.512 
L 140.031468 103.12 
L 140.058351 105.584 
L 140.085233 101.888 
L 140.112116 109.28 
L 140.125557 106.816 
L 140.206205 104.352 
L 140.246529 114.208 
L 140.313736 100.656 
L 140.367502 106.816 
L 140.434708 103.12 
L 140.475032 109.28 
L 140.528798 100.656 
L 140.582563 101.888 
L 140.636328 110.512 
L 140.703535 108.048 
L 140.716976 103.12 
L 140.797625 109.28 
L 140.811066 110.512 
L 140.837949 104.352 
L 140.85139 108.048 
L 140.864831 103.12 
L 140.945479 109.28 
L 140.972362 104.352 
L 140.985803 110.512 
L 141.012686 103.12 
L 141.093334 109.28 
L 141.173982 105.584 
L 141.147099 110.512 
L 141.200865 108.048 
L 141.214306 110.512 
L 141.241189 104.352 
L 141.281513 105.584 
L 141.308396 101.888 
L 141.34872 109.28 
L 141.362161 104.352 
L 141.375602 111.744 
L 141.45625 101.888 
L 141.483133 110.512 
L 141.577222 101.888 
L 141.590664 109.28 
L 141.671312 105.584 
L 141.630988 112.976 
L 141.684753 108.048 
L 141.698195 110.512 
L 141.711636 101.888 
L 141.765401 108.048 
L 141.778843 103.12 
L 141.846049 111.744 
L 141.872932 108.048 
L 141.967021 109.28 
L 141.980463 104.352 
L 141.993904 109.28 
L 142.034228 101.888 
L 142.087994 104.352 
L 142.208966 111.744 
L 142.222407 108.048 
L 142.262731 105.584 
L 142.289614 109.28 
L 142.303055 111.744 
L 142.316496 103.12 
L 142.383703 106.816 
L 142.397144 101.888 
L 142.45091 110.512 
L 142.491234 104.352 
L 142.544999 112.976 
L 142.612206 109.28 
L 142.639089 109.28 
L 142.706295 105.584 
L 142.733178 110.512 
L 142.827268 99.424 
L 142.773502 111.744 
L 142.85415 105.584 
L 142.975122 110.512 
L 143.015446 101.888 
L 143.082653 110.512 
L 143.096094 112.976 
L 143.122977 105.584 
L 143.176742 109.28 
L 143.190184 103.12 
L 143.230508 110.512 
L 143.284273 109.28 
L 143.311156 111.744 
L 143.405245 101.888 
L 143.459011 111.744 
L 143.512776 108.048 
L 143.579983 101.888 
L 143.593424 108.048 
L 143.674072 110.512 
L 143.633748 100.656 
L 143.687514 108.048 
L 143.741279 99.424 
L 143.781603 109.28 
L 143.835368 112.976 
L 143.808486 101.888 
L 143.862251 105.584 
L 143.902575 100.656 
L 143.95634 109.28 
L 143.969782 101.888 
L 144.090754 109.28 
L 144.198285 103.12 
L 144.225167 104.352 
L 144.238609 110.512 
L 144.319257 100.656 
L 144.332698 108.048 
L 144.346139 108.048 
L 144.467111 100.656 
L 144.413346 111.744 
L 144.493994 103.12 
L 144.601525 111.744 
L 144.682173 101.888 
L 144.722497 106.816 
L 144.74938 103.12 
L 144.816586 109.28 
L 144.830028 103.12 
L 144.883793 110.512 
L 144.924117 108.048 
L 144.937559 108.048 
L 145.018207 101.888 
L 145.045089 106.816 
L 145.098855 111.744 
L 145.085413 103.12 
L 145.125737 110.512 
L 145.139179 103.12 
L 145.179503 111.744 
L 145.233268 105.584 
L 145.273592 111.744 
L 145.287033 103.12 
L 145.313916 106.816 
L 145.327358 99.424 
L 145.394564 109.28 
L 145.421447 106.816 
L 145.528978 103.12 
L 145.502095 108.048 
L 145.542419 104.352 
L 145.55586 110.512 
L 145.596184 103.12 
L 145.636508 108.048 
L 145.64995 100.656 
L 145.690274 110.512 
L 145.730598 109.28 
L 145.797805 111.744 
L 145.757481 104.352 
L 145.824687 108.048 
L 145.85157 109.28 
L 145.972542 101.888 
L 146.039749 111.744 
L 146.093514 108.048 
L 146.201045 103.12 
L 146.120397 112.976 
L 146.214486 106.816 
L 146.227928 110.512 
L 146.241369 105.584 
L 146.322017 106.816 
L 146.402665 110.512 
L 146.389224 104.352 
L 146.416106 109.28 
L 146.429548 101.888 
L 146.469872 112.976 
L 146.537078 103.12 
L 146.577403 111.744 
L 146.590844 101.888 
L 146.644609 105.584 
L 146.684933 110.512 
L 146.725257 101.888 
L 146.738699 111.744 
L 146.832788 103.12 
L 146.95376 109.28 
L 146.967201 108.048 
L 146.980643 103.12 
L 147.04785 111.744 
L 147.088174 104.352 
L 147.128498 111.744 
L 147.141939 101.888 
L 147.195704 108.048 
L 147.276352 101.888 
L 147.262911 109.28 
L 147.316676 104.352 
L 147.397325 110.512 
L 147.410766 106.816 
L 147.437649 103.12 
L 147.504855 109.28 
L 147.598945 104.352 
L 147.612386 105.584 
L 147.639269 111.744 
L 147.693034 106.816 
L 147.706475 99.424 
L 147.746799 109.28 
L 147.800565 106.816 
L 147.814006 108.048 
L 147.85433 101.888 
L 147.894654 106.816 
L 147.94842 101.888 
L 147.975302 109.28 
L 148.002185 105.584 
L 148.015626 110.512 
L 148.042509 101.888 
L 148.123157 109.28 
L 148.176922 111.744 
L 148.230688 104.352 
L 148.284453 110.512 
L 148.297895 103.12 
L 148.324777 105.584 
L 148.365101 103.12 
L 148.378543 108.048 
L 148.418867 105.584 
L 148.486073 103.12 
L 148.526397 111.744 
L 148.633928 103.12 
L 148.64737 106.816 
L 148.674252 104.352 
L 148.714576 110.512 
L 148.728018 100.656 
L 148.808666 111.744 
L 148.822107 111.744 
L 148.916196 103.12 
L 148.943079 106.816 
L 149.037168 101.888 
L 148.983403 108.048 
L 149.064051 105.584 
L 149.077493 105.584 
L 149.117817 109.28 
L 149.171582 105.584 
L 149.198465 103.12 
L 149.211906 109.28 
L 149.25223 105.584 
L 149.292554 110.512 
L 149.305995 101.888 
L 149.373202 109.28 
L 149.440409 104.352 
L 149.480733 106.816 
L 149.534498 103.12 
L 149.588264 108.048 
L 149.628588 100.656 
L 149.642029 111.744 
L 149.65547 112.976 
L 149.668912 105.584 
L 149.682353 106.816 
L 149.776442 103.12 
L 149.722677 108.048 
L 149.789884 105.584 
L 149.803325 105.584 
L 149.85709 109.28 
L 149.897415 101.888 
L 150.018387 112.976 
L 150.112476 103.12 
L 150.139359 104.352 
L 150.179683 101.888 
L 150.246889 108.048 
L 150.287213 109.28 
L 150.408186 101.888 
L 150.529158 111.744 
L 150.542599 104.352 
L 150.569482 104.352 
L 150.65013 109.28 
L 150.623247 101.888 
L 150.677012 103.12 
L 150.784543 110.512 
L 150.797985 108.048 
L 150.865191 104.352 
L 150.85175 111.744 
L 150.892074 108.048 
L 150.918957 104.352 
L 151.013046 111.744 
L 151.066811 101.888 
L 151.134018 104.352 
L 151.160901 101.888 
L 151.25499 106.816 
L 151.335638 101.888 
L 151.295314 109.28 
L 151.362521 104.352 
L 151.429728 111.744 
L 151.443169 103.12 
L 151.470052 110.512 
L 151.537259 103.12 
L 151.577583 105.584 
L 151.591024 110.512 
L 151.617907 103.12 
L 151.671672 109.28 
L 151.711996 103.12 
L 151.698555 110.512 
L 151.779203 110.512 
L 151.940499 104.352 
L 151.967382 111.744 
L 152.034588 103.12 
L 152.061471 100.656 
L 152.074912 106.816 
L 152.115236 103.12 
L 152.15556 109.28 
L 152.222767 104.352 
L 152.303415 111.744 
L 152.263091 103.12 
L 152.330298 109.28 
L 152.370622 101.888 
L 152.397505 110.512 
L 152.437829 108.048 
L 152.545359 103.12 
L 152.518477 109.28 
L 152.558801 104.352 
L 152.599125 111.744 
L 152.626007 103.12 
L 152.666331 105.584 
L 152.720097 100.656 
L 152.693214 109.28 
L 152.773862 105.584 
L 152.85451 111.744 
L 152.881393 109.28 
L 152.908276 104.352 
L 152.975482 111.744 
L 153.096454 101.888 
L 153.163661 103.12 
L 153.284633 111.744 
L 153.365281 104.352 
L 153.405605 108.048 
L 153.432488 103.12 
L 153.445929 109.28 
L 153.459371 101.888 
L 153.472812 111.744 
L 153.55346 109.28 
L 153.634108 100.656 
L 153.687874 103.12 
L 153.795404 108.048 
L 153.808846 106.816 
L 153.862611 104.352 
L 153.916376 109.28 
L 154.023907 104.352 
L 154.131438 110.512 
L 154.144879 108.048 
L 154.171762 108.048 
L 154.238969 103.12 
L 154.279293 108.048 
L 154.292734 108.048 
L 154.319617 103.12 
L 154.400265 104.352 
L 154.480913 110.512 
L 154.507796 106.816 
L 154.575002 101.888 
L 154.588444 110.512 
L 154.601885 103.12 
L 154.682533 109.28 
L 154.669092 100.656 
L 154.709416 101.888 
L 154.803505 110.512 
L 154.843829 109.28 
L 154.870712 101.888 
L 154.884153 110.512 
L 154.95136 110.512 
L 155.005125 103.12 
L 155.018567 114.208 
L 155.072332 106.816 
L 155.099215 100.656 
L 155.179863 112.976 
L 155.233628 103.12 
L 155.300835 104.352 
L 155.421807 111.744 
L 155.435248 109.28 
L 155.44869 104.352 
L 155.475572 111.744 
L 155.542779 109.28 
L 155.636868 103.12 
L 155.65031 111.744 
L 155.677192 101.888 
L 155.744399 110.512 
L 155.757841 101.888 
L 155.838489 111.744 
L 155.85193 103.12 
L 155.878813 111.744 
L 155.959461 106.816 
L 156.026667 101.888 
L 156.013226 109.28 
L 156.05355 106.816 
L 156.107316 109.28 
L 156.080433 101.888 
L 156.14764 105.584 
L 156.161081 105.584 
L 156.174522 111.744 
L 156.25517 101.888 
L 156.268612 104.352 
L 156.282053 101.888 
L 156.308936 108.048 
L 156.362701 103.12 
L 156.470232 114.208 
L 156.483673 100.656 
L 156.497114 115.44 
L 156.577763 106.816 
L 156.631528 103.12 
L 156.604645 111.744 
L 156.698735 104.352 
L 156.725617 112.976 
L 156.806265 110.512 
L 156.819707 103.12 
L 156.913796 106.816 
L 156.927237 106.816 
L 156.940679 111.744 
L 156.981003 103.12 
L 157.034768 109.28 
L 157.088534 104.352 
L 157.128858 110.512 
L 157.142299 106.816 
L 157.182623 109.28 
L 157.196064 101.888 
L 157.209506 101.888 
L 157.236388 111.744 
L 157.330478 108.048 
L 157.397685 103.12 
L 157.370802 110.512 
L 157.424567 108.048 
L 157.464891 111.744 
L 157.491774 106.816 
L 157.518657 109.28 
L 157.626187 103.12 
L 157.639629 104.352 
L 157.706835 101.888 
L 157.774042 109.28 
L 157.868132 103.12 
L 157.85469 110.512 
L 157.881573 106.816 
L 157.94878 112.976 
L 157.921897 101.888 
L 158.015986 111.744 
L 158.096634 103.12 
L 158.110076 106.816 
L 158.123517 112.976 
L 158.163841 101.888 
L 158.217607 105.584 
L 158.311696 109.28 
L 158.325137 101.888 
L 158.446109 109.28 
L 158.459551 101.888 
L 158.513316 110.512 
L 158.540199 105.584 
L 158.634288 112.976 
L 158.580523 104.352 
L 158.661171 110.512 
L 158.768702 103.12 
L 158.782143 104.352 
L 158.822467 112.976 
L 158.876232 104.352 
L 158.916556 110.512 
L 158.943439 101.888 
L 159.05097 111.744 
L 159.091294 103.12 
L 159.171942 106.816 
L 159.25259 111.744 
L 159.198825 103.12 
L 159.279473 108.048 
L 159.292914 108.048 
L 159.306355 109.28 
L 159.346679 104.352 
L 159.360121 101.888 
L 159.373562 109.28 
L 159.45421 104.352 
L 159.467652 104.352 
L 159.521417 111.744 
L 159.507976 103.12 
L 159.575182 104.352 
L 159.588624 103.12 
L 159.615506 109.28 
L 159.65583 111.744 
L 159.642389 105.584 
L 159.709596 108.048 
L 159.817126 105.584 
L 159.830568 109.28 
L 159.897775 103.12 
L 159.924657 106.816 
L 159.964981 104.352 
L 159.978423 110.512 
L 160.045629 105.584 
L 160.099395 101.888 
L 160.139719 109.28 
L 160.206925 103.12 
L 160.220367 112.976 
L 160.247249 106.816 
L 160.314456 111.744 
L 160.301015 104.352 
L 160.341339 106.816 
L 160.35478 101.888 
L 160.421987 111.744 
L 160.435428 106.816 
L 160.44887 110.512 
L 160.475752 105.584 
L 160.529518 108.048 
L 160.569842 110.512 
L 160.637048 105.584 
L 160.690814 100.656 
L 160.704255 106.816 
L 160.717697 101.888 
L 160.731138 111.744 
L 160.811786 106.816 
L 160.825227 111.744 
L 160.85211 100.656 
L 160.919317 106.816 
L 160.986523 103.12 
L 160.946199 108.048 
L 160.999965 105.584 
L 161.080613 111.744 
L 161.05373 103.12 
L 161.107496 106.816 
L 161.120937 106.816 
L 161.161261 109.28 
L 161.174702 103.12 
L 161.215026 106.816 
L 161.241909 103.12 
L 161.268792 110.512 
L 161.309116 104.352 
L 161.335998 110.512 
L 161.416646 105.584 
L 161.510736 109.28 
L 161.45697 104.352 
L 161.524177 108.048 
L 161.55106 104.352 
L 161.618267 106.816 
L 161.631708 111.744 
L 161.672032 104.352 
L 161.712356 108.048 
L 161.833328 103.12 
L 161.846769 111.744 
L 161.887093 100.656 
L 161.940859 108.048 
L 162.021507 101.888 
L 161.967742 109.28 
L 162.075272 103.12 
L 162.088714 115.44 
L 162.182803 103.12 
L 162.196244 103.12 
L 162.236568 111.744 
L 162.25001 100.656 
L 162.303775 105.584 
L 162.317216 105.584 
L 162.370982 111.744 
L 162.384423 109.28 
L 162.397865 100.656 
L 162.491954 108.048 
L 162.559161 103.12 
L 162.518837 110.512 
L 162.586043 110.512 
L 162.599485 110.512 
L 162.65325 103.12 
L 162.707015 109.28 
L 162.733898 116.672 
L 162.774222 105.584 
L 162.801105 108.048 
L 162.85487 103.12 
L 162.827988 109.28 
L 162.895194 106.816 
L 162.922077 101.888 
L 163.016166 112.976 
L 163.069932 103.12 
L 163.123697 104.352 
L 163.164021 111.744 
L 163.231228 108.048 
L 163.298435 101.888 
L 163.271552 109.28 
L 163.325317 109.28 
L 163.365641 112.976 
L 163.3522 103.12 
L 163.419407 108.048 
L 163.540379 103.12 
L 163.580703 106.816 
L 163.64791 104.352 
L 163.674792 104.352 
L 163.688234 111.744 
L 163.728558 101.888 
L 163.782323 105.584 
L 163.795764 105.584 
L 163.916736 109.28 
L 163.983943 103.12 
L 164.037709 106.816 
L 164.05115 106.816 
L 164.064591 104.352 
L 164.078033 111.744 
L 164.118357 111.744 
L 164.131798 112.976 
L 164.239329 100.656 
L 164.346859 109.28 
L 164.360301 101.888 
L 164.45439 110.512 
L 164.481273 100.656 
L 164.561921 106.816 
L 164.602245 108.048 
L 164.588804 104.352 
L 164.629128 105.584 
L 164.723217 101.888 
L 164.7501 103.12 
L 164.803865 110.512 
L 164.857631 105.584 
L 164.871072 105.584 
L 164.965161 114.208 
L 164.95172 104.352 
L 164.965161 114.208 
" clip-path="url(#p146aa7447d)" style="fill: none; stroke: #ea546f; stroke-opacity: 0.2; stroke-linecap: round"/>
   </g>
   <g id="line2d_2">
    <path d="M 23.845161 99.424 
L 171.685161 99.424 
" clip-path="url(#p146aa7447d)" style="fill: none; stroke-dasharray: 5.55,2.4; stroke-dashoffset: 0; stroke: #ea546f; stroke-width: 1.5"/>
   </g>
   <g id="line2d_3">
    <path d="M 37.272392 106.788896 
L 37.433688 106.833248 
L 37.769722 106.788896 
L 38.05199 106.744544 
L 38.226727 106.759328 
L 38.441789 106.76672 
L 39.463331 106.65584 
L 39.732158 106.66816 
L 39.947219 106.66816 
L 40.095074 106.675552 
L 40.296694 106.6312 
L 40.55208 106.613952 
L 40.699935 106.616416 
L 41.04941 106.599168 
L 41.345119 106.589312 
L 41.775242 106.61888 
L 42.124717 106.6312 
L 42.245689 106.64352 
L 42.380103 106.685408 
L 42.393544 106.675552 
L 42.541399 106.665696 
L 45.606025 106.769184 
L 45.84797 106.813536 
L 46.036148 106.860352 
L 46.412506 106.887456 
L 46.694774 106.855424 
L 47.326517 106.86528 
L 47.487814 106.85296 
L 47.595344 106.843104 
L 47.608786 106.823392 
L 47.796964 106.788896 
L 48.54968 106.825856 
L 48.778183 106.756864 
L 48.95292 106.727296 
L 50.243289 106.838176 
L 50.458351 106.860352 
L 50.901915 106.907168 
L 51.04977 106.91456 
L 53.643949 107.003264 
L 53.75148 107.008192 
L 53.764921 107.0008 
L 54.625167 107.052544 
L 54.893994 107.018048 
L 55.028408 106.993408 
L 55.230028 106.995872 
L 55.471972 107.042688 
L 55.875212 107.008192 
L 56.157481 106.96384 
L 56.345659 106.97616 
L 56.614486 106.944128 
L 56.7489 106.929344 
L 57.44785 106.95152 
L 57.797325 106.9392 
L 57.945179 106.941664 
L 58.146799 106.882528 
L 59.195224 106.771648 
L 59.585023 106.737152 
L 59.813526 106.744544 
L 60.015146 106.68048 
L 60.525917 106.599168 
L 60.700655 106.613952 
L 61.063571 106.596704 
L 61.843169 106.641056 
L 62.004465 106.60656 
L 62.313616 106.559744 
L 67.44821 106.665696 
L 67.676712 106.724832 
L 68.120277 106.678016 
L 69.45097 106.811072 
L 69.612266 106.798752 
L 69.867652 106.818464 
L 70.028948 106.855424 
L 70.270892 106.870208 
L 70.9564 106.855424 
L 71.359641 106.823392 
L 71.507496 106.79136 
L 71.668792 106.77904 
L 71.843529 106.801216 
L 72.596244 106.82832 
L 72.945719 106.867744 
L 73.201105 106.899776 
L 73.375842 106.872672 
L 73.510256 106.90224 
L 73.792524 106.88992 
L 75.271072 106.783968 
L 75.486133 106.761792 
L 75.75496 106.700192 
L 75.929698 106.70512 
L 76.642089 106.724832 
L 76.789944 106.724832 
L 77.341039 106.727296 
L 77.542659 106.722368 
L 77.878693 106.714976 
L 78.14752 106.820928 
L 82.784783 106.92688 
L 82.919197 106.90224 
L 83.107376 106.887456 
L 83.806325 106.870208 
L 85.378963 106.764256 
L 85.620907 106.719904 
L 85.795644 106.719904 
L 85.916616 106.712512 
L 86.172002 106.771648 
L 86.387063 106.808608 
L 89.115656 106.702656 
L 89.424807 106.653376 
L 89.881813 106.707584 
L 90.043109 106.66816 
L 90.795824 106.702656 
L 91.078093 106.628736 
L 91.414126 106.584384 
L 91.561981 106.562208 
L 92.113076 106.562208 
L 92.314696 106.58192 
L 96.790664 106.6928 
L 97.032608 106.700192 
L 98.605245 106.880064 
L 98.806865 106.88992 
L 101.105335 106.786432 
L 101.239749 106.776576 
L 101.495134 106.796288 
L 101.737078 106.769184 
L 101.925257 106.811072 
L 102.140319 106.811072 
L 102.409146 106.845568 
L 102.677973 106.823392 
L 103.269392 106.823392 
L 103.444129 106.825856 
L 103.659191 106.783968 
L 103.793604 106.806144 
L 103.807045 106.79136 
L 104.04899 106.781504 
L 104.411906 106.737152 
L 104.586643 106.764256 
L 109.922857 106.665696 
L 110.124477 106.604096 
L 116.482233 106.712512 
L 117.060211 106.806144 
L 120.393664 106.91456 
L 120.64905 106.9392 
L 120.783463 106.941664 
L 120.958201 106.912096 
L 121.522737 106.912096 
L 121.710916 106.907168 
L 121.845329 106.931808 
L 122.073832 106.924416 
L 122.329218 106.917024 
L 122.436748 106.909632 
L 122.45019 106.924416 
L 122.839989 106.897312 
L 123.028168 106.875136 
L 123.525497 106.857888 
L 124.533598 106.774112 
L 124.708336 106.783968 
L 125.219107 106.77904 
L 125.35352 106.80368 
L 125.689554 106.843104 
L 125.837409 106.845568 
L 126.092794 106.830784 
L 127.074012 106.719904 
L 128.35094 106.59424 
L 128.606325 106.645984 
L 137.679233 106.74208 
L 137.827087 106.76672 
L 137.94806 106.77904 
L 138.310976 106.820928 
L 138.458831 106.776576 
L 139.224987 106.816 
L 139.332518 106.82832 
L 139.345959 106.843104 
L 139.641669 106.845568 
L 139.802965 106.801216 
L 139.991144 106.830784 
L 143.983223 106.941664 
L 144.373022 106.917024 
L 144.54776 106.882528 
L 144.682173 106.86528 
L 145.206385 106.880064 
L 148.096274 106.771648 
L 148.378543 106.739616 
L 149.279113 106.675552 
L 149.413526 106.648448 
L 150.475392 106.559744 
L 150.623247 106.549888 
L 150.999605 106.584384 
L 151.107135 106.599168 
L 151.120577 106.589312 
L 151.308756 106.542496 
L 151.685113 106.52032 
L 151.886733 106.564672 
L 152.15556 106.537568 
L 152.706655 106.537568 
L 152.908276 106.517856 
L 153.083013 106.510464 
L 153.298075 106.475968 
L 153.526577 106.512928 
L 154.225527 106.537568 
L 154.467472 106.493216 
L 154.682533 106.540032 
L 154.978243 106.549888 
L 155.408366 106.58192 
L 155.717517 106.628736 
L 156.34926 106.638592 
L 156.483673 106.628736 
L 156.644969 106.695264 
L 157.236388 106.702656 
L 157.370802 106.724832 
L 157.626187 106.744544 
L 159.091294 106.843104 
L 159.25259 106.860352 
L 159.494534 106.882528 
L 159.669272 106.867744 
L 159.991864 106.867744 
L 160.206925 106.818464 
L 160.35478 106.85296 
L 160.825227 106.872672 
L 161.107496 106.90224 
L 161.443529 106.917024 
L 161.618267 106.907168 
L 161.75268 106.884992 
L 162.034948 106.850496 
L 162.25001 106.823392 
L 162.465071 106.801216 
L 162.612926 106.801216 
L 162.774222 106.825856 
L 163.110256 106.884992 
L 164.400625 106.756864 
L 164.669452 106.700192 
L 164.965161 106.682944 
L 164.965161 106.682944 
" clip-path="url(#p146aa7447d)" style="fill: none; stroke: #ea546f; stroke-width: 1.5; stroke-linecap: round"/>
   </g>
   <g id="patch_3">
    <path d="M 23.845161 170.88 
L 23.845161 23.04 
" style="fill: none; stroke: #262626; stroke-linejoin: miter; stroke-linecap: square"/>
   </g>
   <g id="patch_4">
    <path d="M 171.685161 170.88 
L 171.685161 23.04 
" style="fill: none; stroke: #262626; stroke-linejoin: miter; stroke-linecap: square"/>
   </g>
   <g id="patch_5">
    <path d="M 23.845161 170.88 
L 171.685161 170.88 
" style="fill: none; stroke: #262626; stroke-linejoin: miter; stroke-linecap: square"/>
   </g>
   <g id="patch_6">
    <path d="M 23.845161 23.04 
L 171.685161 23.04 
" style="fill: none; stroke: #262626; stroke-linejoin: miter; stroke-linecap: square"/>
   </g>
   <g id="text_14">
    <!-- -0.02 -->
    <g style="fill: #ea546f" transform="translate(30.565161 96.221687) scale(0.1 -0.1)">
     <defs>
      <path id="HelveticaNeue-2d" d="M 320 2035 
L 320 1523 
L 2170 1523 
L 2170 2035 
L 320 2035 
z
" transform="scale(0.015625)"/>
     </defs>
     <use xlink:href="#HelveticaNeue-2d"/>
     <use xlink:href="#HelveticaNeue-30" x="38.899994"/>
     <use xlink:href="#HelveticaNeue-2e" x="94.499985"/>
     <use xlink:href="#HelveticaNeue-30" x="122.299973"/>
     <use xlink:href="#HelveticaNeue-32" x="177.899963"/>
    </g>
   </g>
   <g id="legend_1">
    <g id="patch_7">
     <path d="M 30.421099 232.577625 
L 165.109224 232.577625 
L 165.109224 204.848 
L 30.421099 204.848 
z
" style="fill: #ffffff; stroke: #bebebe; stroke-width: 0.8; stroke-linejoin: miter"/>
    </g>
    <g id="line2d_4">
     <path style="fill: none; stroke-dasharray: 5.55,2.4; stroke-dashoffset: 0; stroke: #ea546f; stroke-width: 1.5"/>
    </g>
    <g id="text_15">
     <!-- Max Value Episode -->
     <g style="fill: #262626" transform="translate(58.581099 214.65175) scale(0.088 -0.088)">
      <defs>
       <path id="HelveticaNeue-4d" d="M 512 4570 
L 512 0 
L 1088 0 
L 1088 3802 
L 1101 3802 
L 2528 0 
L 3046 0 
L 4474 3802 
L 4486 3802 
L 4486 0 
L 5062 0 
L 5062 4570 
L 4230 4570 
L 2784 730 
L 1344 4570 
L 512 4570 
z
" transform="scale(0.015625)"/>
       <path id="HelveticaNeue-78" d="M 1299 1741 
L 58 0 
L 717 0 
L 1638 1370 
L 2560 0 
L 3258 0 
L 1978 1786 
L 3117 3309 
L 2464 3309 
L 1638 2150 
L 845 3309 
L 147 3309 
L 1299 1741 
z
" transform="scale(0.015625)"/>
       <path id="HelveticaNeue-56" d="M 2298 0 
L 3923 4570 
L 3290 4570 
L 1971 608 
L 1958 608 
L 653 4570 
L 0 4570 
L 1606 0 
L 2298 0 
z
" transform="scale(0.015625)"/>
       <path id="HelveticaNeue-6c" d="M 442 4570 
L 442 0 
L 986 0 
L 986 4570 
L 442 4570 
z
" transform="scale(0.015625)"/>
       <path id="HelveticaNeue-75" d="M 3149 0 
L 3149 3309 
L 2605 3309 
L 2605 1440 
Q 2605 1216 2544 1027 
Q 2483 838 2361 697 
Q 2240 557 2057 480 
Q 1875 403 1626 403 
Q 1312 403 1133 582 
Q 954 762 954 1069 
L 954 3309 
L 410 3309 
L 410 1133 
Q 410 864 464 643 
Q 518 422 652 262 
Q 787 102 1004 16 
Q 1222 -70 1549 -70 
Q 1914 -70 2182 74 
Q 2451 218 2624 525 
L 2637 525 
L 2637 0 
L 3149 0 
z
" transform="scale(0.015625)"/>
      </defs>
      <use xlink:href="#HelveticaNeue-4d"/>
      <use xlink:href="#HelveticaNeue-61" x="87.099991"/>
      <use xlink:href="#HelveticaNeue-78" x="140.799988"/>
      <use xlink:href="#HelveticaNeue-20" x="192.599976"/>
      <use xlink:href="#HelveticaNeue-56" x="220.399963"/>
      <use xlink:href="#HelveticaNeue-61" x="275.999954"/>
      <use xlink:href="#HelveticaNeue-6c" x="329.699951"/>
      <use xlink:href="#HelveticaNeue-75" x="351.899948"/>
      <use xlink:href="#HelveticaNeue-65" x="407.499939"/>
      <use xlink:href="#HelveticaNeue-20" x="461.199936"/>
      <use xlink:href="#HelveticaNeue-45" x="488.999924"/>
      <use xlink:href="#HelveticaNeue-70" x="550.099915"/>
      <use xlink:href="#HelveticaNeue-69" x="609.399902"/>
      <use xlink:href="#HelveticaNeue-73" x="631.599899"/>
      <use xlink:href="#HelveticaNeue-6f" x="681.599884"/>
      <use xlink:href="#HelveticaNeue-64" x="738.999878"/>
      <use xlink:href="#HelveticaNeue-65" x="798.299866"/>
     </g>
    </g>
    <g id="line2d_5">
     <path style="fill: none; stroke: #ea546f; stroke-width: 1.5; stroke-linecap: round"/>
    </g>
    <g id="text_16">
     <!-- Rolling Average (500 Eps.) -->
     <g style="fill: #262626" transform="translate(58.581099 227.217875) scale(0.088 -0.088)">
      <defs>
       <path id="HelveticaNeue-6e" d="M 410 3309 
L 410 0 
L 954 0 
L 954 1869 
Q 954 2093 1014 2281 
Q 1075 2470 1196 2611 
Q 1318 2752 1500 2829 
Q 1683 2906 1933 2906 
Q 2246 2906 2425 2726 
Q 2605 2547 2605 2240 
L 2605 0 
L 3149 0 
L 3149 2176 
Q 3149 2445 3094 2665 
Q 3040 2886 2905 3046 
Q 2771 3206 2553 3296 
Q 2336 3386 2010 3386 
Q 1274 3386 934 2784 
L 922 2784 
L 922 3309 
L 410 3309 
z
" transform="scale(0.015625)"/>
       <path id="HelveticaNeue-67" d="M 3264 282 
L 3264 3309 
L 2752 3309 
L 2752 2835 
L 2746 2835 
Q 2598 3110 2336 3248 
Q 2074 3386 1760 3386 
Q 1331 3386 1036 3222 
Q 742 3059 563 2806 
Q 384 2554 307 2243 
Q 230 1933 230 1638 
Q 230 1299 323 995 
Q 416 691 601 464 
Q 787 237 1062 102 
Q 1338 -32 1709 -32 
Q 2029 -32 2313 112 
Q 2598 256 2739 563 
L 2752 563 
L 2752 346 
Q 2752 70 2697 -160 
Q 2643 -390 2521 -553 
Q 2400 -717 2214 -809 
Q 2029 -902 1760 -902 
Q 1626 -902 1478 -873 
Q 1331 -845 1206 -781 
Q 1082 -717 995 -614 
Q 909 -512 902 -365 
L 358 -365 
Q 371 -634 499 -819 
Q 627 -1005 822 -1120 
Q 1018 -1235 1258 -1286 
Q 1498 -1338 1728 -1338 
Q 2522 -1338 2893 -934 
Q 3264 -531 3264 282 
z
M 1741 442 
Q 1472 442 1293 554 
Q 1114 666 1005 848 
Q 896 1030 851 1254 
Q 806 1478 806 1702 
Q 806 1939 860 2156 
Q 915 2374 1033 2540 
Q 1152 2707 1337 2806 
Q 1523 2906 1786 2906 
Q 2042 2906 2221 2803 
Q 2400 2701 2512 2531 
Q 2624 2362 2675 2150 
Q 2726 1939 2726 1722 
Q 2726 1491 2672 1260 
Q 2618 1030 2502 848 
Q 2387 666 2198 554 
Q 2010 442 1741 442 
z
" transform="scale(0.015625)"/>
       <path id="HelveticaNeue-41" d="M 1286 1888 
L 2061 4019 
L 2074 4019 
L 2835 1888 
L 1286 1888 
z
M 1741 4570 
L -38 0 
L 582 0 
L 1094 1376 
L 3027 1376 
L 3526 0 
L 4198 0 
L 2413 4570 
L 1741 4570 
z
" transform="scale(0.015625)"/>
       <path id="HelveticaNeue-76" d="M 1901 0 
L 3110 3309 
L 2541 3309 
L 1638 550 
L 1626 550 
L 698 3309 
L 90 3309 
L 1318 0 
L 1901 0 
z
" transform="scale(0.015625)"/>
       <path id="HelveticaNeue-28" d="M 1306 -1261 
L 1722 -1261 
Q 1267 -525 1072 198 
Q 877 922 877 1728 
Q 877 2515 1069 3232 
Q 1261 3949 1722 4678 
L 1306 4678 
Q 806 4019 553 3251 
Q 301 2483 301 1728 
Q 301 1306 371 922 
Q 442 538 573 173 
Q 704 -192 889 -547 
Q 1075 -902 1306 -1261 
z
" transform="scale(0.015625)"/>
       <path id="HelveticaNeue-29" d="M -58 -1261 
L 352 -1261 
Q 851 -602 1104 163 
Q 1357 928 1357 1683 
Q 1357 2106 1286 2490 
Q 1216 2874 1085 3242 
Q 954 3610 768 3965 
Q 582 4320 352 4678 
L -58 4678 
Q 390 3942 585 3216 
Q 781 2490 781 1683 
Q 781 902 589 182 
Q 397 -538 -58 -1261 
z
" transform="scale(0.015625)"/>
      </defs>
      <use xlink:href="#HelveticaNeue-52"/>
      <use xlink:href="#HelveticaNeue-6f" x="68.499985"/>
      <use xlink:href="#HelveticaNeue-6c" x="125.899979"/>
      <use xlink:href="#HelveticaNeue-6c" x="148.099976"/>
      <use xlink:href="#HelveticaNeue-69" x="170.299973"/>
      <use xlink:href="#HelveticaNeue-6e" x="192.499969"/>
      <use xlink:href="#HelveticaNeue-67" x="248.09996"/>
      <use xlink:href="#HelveticaNeue-20" x="305.499954"/>
      <use xlink:href="#HelveticaNeue-41" x="333.299942"/>
      <use xlink:href="#HelveticaNeue-76" x="396.34993"/>
      <use xlink:href="#HelveticaNeue-65" x="446.349915"/>
      <use xlink:href="#HelveticaNeue-72" x="500.049911"/>
      <use xlink:href="#HelveticaNeue-61" x="533.349899"/>
      <use xlink:href="#HelveticaNeue-67" x="587.049896"/>
      <use xlink:href="#HelveticaNeue-65" x="644.44989"/>
      <use xlink:href="#HelveticaNeue-20" x="698.149887"/>
      <use xlink:href="#HelveticaNeue-28" x="725.949875"/>
      <use xlink:href="#HelveticaNeue-35" x="751.849869"/>
      <use xlink:href="#HelveticaNeue-30" x="807.44986"/>
      <use xlink:href="#HelveticaNeue-30" x="863.04985"/>
      <use xlink:href="#HelveticaNeue-20" x="918.649841"/>
      <use xlink:href="#HelveticaNeue-45" x="946.449829"/>
      <use xlink:href="#HelveticaNeue-70" x="1007.54982"/>
      <use xlink:href="#HelveticaNeue-73" x="1066.849808"/>
      <use xlink:href="#HelveticaNeue-2e" x="1116.849792"/>
      <use xlink:href="#HelveticaNeue-29" x="1144.64978"/>
     </g>
    </g>
   </g>
  </g>
 </g>
 <defs>
  <clipPath id="p146aa7447d">
   <rect x="23.845161" y="23.04" width="147.84" height="147.84"/>
  </clipPath>
 </defs>
</svg>
