<?xml version="1.0" encoding="utf-8" standalone="no"?>
<!DOCTYPE svg PUBLIC "-//W3C//DTD SVG 1.1//EN"
  "http://www.w3.org/Graphics/SVG/1.1/DTD/svg11.dtd">
<svg xmlns:xlink="http://www.w3.org/1999/xlink" width="190.76129pt" height="192pt" viewBox="0 0 190.76129 192" xmlns="http://www.w3.org/2000/svg" version="1.1">
 <metadata>
  <rdf:RDF xmlns:dc="http://purl.org/dc/elements/1.1/" xmlns:cc="http://creativecommons.org/ns#" xmlns:rdf="http://www.w3.org/1999/02/22-rdf-syntax-ns#">
   <cc:Work>
    <dc:type rdf:resource="http://purl.org/dc/dcmitype/StillImage"/>
    <dc:date>2023-08-16T17:32:03.425431</dc:date>
    <dc:format>image/svg+xml</dc:format>
    <dc:creator>
     <cc:Agent>
      <dc:title>Matplotlib v3.7.2, https://matplotlib.org/</dc:title>
     </cc:Agent>
    </dc:creator>
   </cc:Work>
  </rdf:RDF>
 </metadata>
 <defs>
  <style type="text/css">*{stroke-linejoin: round; stroke-linecap: butt}</style>
 </defs>
 <g id="figure_1">
  <g id="patch_1">
   <path d="M 0 192 
L 190.76129 192 
L 190.76129 0 
L 0 0 
z
" style="fill: #ffffff"/>
  </g>
  <g id="axes_1">
   <g id="patch_2">
    <path d="M 23.845161 170.88 
L 171.685161 170.88 
L 171.685161 23.04 
L 23.845161 23.04 
z
" style="fill: #ffffff"/>
   </g>
   <g id="matplotlib.axis_1">
    <g id="xtick_1">
     <g id="text_1">
      <!-- 0 -->
      <g style="fill: #262626" transform="translate(28.119036 185.46375) scale(0.088 -0.088)">
       <defs>
        <path id="HelveticaNeue-30" d="M 845 2234 
Q 845 2400 848 2601 
Q 851 2803 880 3004 
Q 909 3206 963 3398 
Q 1018 3590 1123 3734 
Q 1229 3878 1389 3968 
Q 1549 4058 1779 4058 
Q 2010 4058 2170 3968 
Q 2330 3878 2435 3734 
Q 2541 3590 2595 3398 
Q 2650 3206 2678 3004 
Q 2707 2803 2710 2601 
Q 2714 2400 2714 2234 
Q 2714 1978 2698 1661 
Q 2682 1344 2595 1065 
Q 2509 787 2317 595 
Q 2125 403 1779 403 
Q 1434 403 1242 595 
Q 1050 787 963 1065 
Q 877 1344 861 1661 
Q 845 1978 845 2234 
z
M 269 2227 
Q 269 1978 281 1709 
Q 294 1440 345 1184 
Q 397 928 493 701 
Q 589 474 755 301 
Q 922 128 1174 29 
Q 1427 -70 1779 -70 
Q 2138 -70 2387 29 
Q 2637 128 2803 301 
Q 2970 474 3066 701 
Q 3162 928 3213 1184 
Q 3264 1440 3277 1709 
Q 3290 1978 3290 2227 
Q 3290 2477 3277 2745 
Q 3264 3014 3213 3270 
Q 3162 3526 3066 3756 
Q 2970 3987 2803 4160 
Q 2637 4333 2384 4435 
Q 2131 4538 1779 4538 
Q 1427 4538 1174 4435 
Q 922 4333 755 4160 
Q 589 3987 493 3756 
Q 397 3526 345 3270 
Q 294 3014 281 2745 
Q 269 2477 269 2227 
z
" transform="scale(0.015625)"/>
       </defs>
       <use xlink:href="#HelveticaNeue-30"/>
      </g>
     </g>
    </g>
    <g id="xtick_2">
     <g id="text_2">
      <!-- 2500 -->
      <g style="fill: #262626" transform="translate(54.384022 185.46375) scale(0.088 -0.088)">
       <defs>
        <path id="HelveticaNeue-32" d="M 282 2931 
L 826 2931 
Q 819 3136 867 3337 
Q 915 3539 1024 3699 
Q 1133 3859 1302 3958 
Q 1472 4058 1709 4058 
Q 1888 4058 2048 4000 
Q 2208 3942 2326 3833 
Q 2445 3725 2515 3574 
Q 2586 3424 2586 3238 
Q 2586 3002 2512 2822 
Q 2438 2643 2294 2489 
Q 2150 2336 1932 2185 
Q 1715 2035 1427 1856 
Q 1190 1715 972 1555 
Q 755 1395 582 1184 
Q 410 973 298 688 
Q 186 403 154 0 
L 3117 0 
L 3117 480 
L 787 480 
Q 826 691 950 854 
Q 1075 1018 1251 1158 
Q 1427 1299 1638 1424 
Q 1850 1549 2061 1677 
Q 2272 1811 2470 1958 
Q 2669 2106 2822 2288 
Q 2976 2470 3069 2700 
Q 3162 2931 3162 3232 
Q 3162 3552 3050 3795 
Q 2938 4038 2746 4201 
Q 2554 4365 2294 4451 
Q 2035 4538 1741 4538 
Q 1382 4538 1100 4416 
Q 819 4294 630 4080 
Q 442 3866 352 3571 
Q 262 3277 282 2931 
z
" transform="scale(0.015625)"/>
        <path id="HelveticaNeue-35" d="M 3008 3981 
L 3008 4461 
L 768 4461 
L 346 2106 
L 813 2080 
Q 973 2272 1181 2390 
Q 1389 2509 1658 2509 
Q 1888 2509 2077 2432 
Q 2266 2355 2400 2217 
Q 2534 2080 2608 1891 
Q 2682 1702 2682 1478 
Q 2682 1210 2605 1008 
Q 2528 806 2397 672 
Q 2266 538 2090 470 
Q 1914 403 1722 403 
Q 1517 403 1347 464 
Q 1178 525 1053 637 
Q 928 749 854 899 
Q 781 1050 768 1222 
L 224 1222 
Q 230 915 345 672 
Q 461 429 659 265 
Q 858 102 1117 16 
Q 1376 -70 1670 -70 
Q 2067 -70 2364 54 
Q 2662 179 2860 390 
Q 3059 602 3158 874 
Q 3258 1146 3258 1434 
Q 3258 1824 3142 2115 
Q 3027 2406 2828 2601 
Q 2630 2797 2361 2893 
Q 2093 2989 1792 2989 
Q 1562 2989 1328 2909 
Q 1094 2829 947 2662 
L 934 2675 
L 1178 3981 
L 3008 3981 
z
" transform="scale(0.015625)"/>
       </defs>
       <use xlink:href="#HelveticaNeue-32"/>
       <use xlink:href="#HelveticaNeue-35" x="55.599991"/>
       <use xlink:href="#HelveticaNeue-30" x="111.199982"/>
       <use xlink:href="#HelveticaNeue-30" x="166.799973"/>
      </g>
     </g>
    </g>
    <g id="xtick_3">
     <g id="text_3">
      <!-- 5000 -->
      <g style="fill: #262626" transform="translate(87.987382 185.46375) scale(0.088 -0.088)">
       <use xlink:href="#HelveticaNeue-35"/>
       <use xlink:href="#HelveticaNeue-30" x="55.599991"/>
       <use xlink:href="#HelveticaNeue-30" x="111.199982"/>
       <use xlink:href="#HelveticaNeue-30" x="166.799973"/>
      </g>
     </g>
    </g>
    <g id="xtick_4">
     <g id="text_4">
      <!-- 7500 -->
      <g style="fill: #262626" transform="translate(121.590742 185.46375) scale(0.088 -0.088)">
       <defs>
        <path id="HelveticaNeue-37" d="M 3258 3994 
L 3258 4461 
L 320 4461 
L 320 3949 
L 2701 3949 
Q 2342 3571 2032 3123 
Q 1722 2675 1485 2172 
Q 1248 1670 1097 1123 
Q 947 576 909 0 
L 1517 0 
Q 1549 531 1696 1094 
Q 1843 1658 2076 2189 
Q 2310 2720 2611 3187 
Q 2912 3654 3258 3994 
z
" transform="scale(0.015625)"/>
       </defs>
       <use xlink:href="#HelveticaNeue-37"/>
       <use xlink:href="#HelveticaNeue-35" x="55.599991"/>
       <use xlink:href="#HelveticaNeue-30" x="111.199982"/>
       <use xlink:href="#HelveticaNeue-30" x="166.799973"/>
      </g>
     </g>
    </g>
    <g id="xtick_5">
     <g id="text_5">
      <!-- 10000 -->
      <g style="fill: #262626" transform="translate(152.747978 185.46375) scale(0.088 -0.088)">
       <defs>
        <path id="HelveticaNeue-31" d="M 2278 0 
L 2278 4538 
L 1862 4538 
Q 1818 4282 1696 4115 
Q 1574 3949 1398 3853 
Q 1222 3757 1004 3721 
Q 787 3686 557 3686 
L 557 3251 
L 1734 3251 
L 1734 0 
L 2278 0 
z
" transform="scale(0.015625)"/>
       </defs>
       <use xlink:href="#HelveticaNeue-31"/>
       <use xlink:href="#HelveticaNeue-30" x="55.599991"/>
       <use xlink:href="#HelveticaNeue-30" x="111.199982"/>
       <use xlink:href="#HelveticaNeue-30" x="166.799973"/>
       <use xlink:href="#HelveticaNeue-30" x="222.399963"/>
      </g>
     </g>
    </g>
   </g>
   <g id="matplotlib.axis_2">
    <g id="ytick_1">
     <g id="text_6">
      <!-- −0.6 -->
      <g style="fill: #262626" transform="translate(-1.965464 174.021875) scale(0.088 -0.088)">
       <defs>
        <path id="HelveticaNeue-2212" d="M 307 1837 
L 307 1402 
L 3533 1402 
L 3533 1837 
L 307 1837 
z
" transform="scale(0.015625)"/>
        <path id="HelveticaNeue-2e" d="M 531 710 
L 531 0 
L 1242 0 
L 1242 710 
L 531 710 
z
" transform="scale(0.015625)"/>
        <path id="HelveticaNeue-36" d="M 2650 3379 
L 3194 3379 
Q 3142 3942 2809 4240 
Q 2477 4538 1914 4538 
Q 1427 4538 1107 4333 
Q 787 4128 595 3789 
Q 403 3450 323 3011 
Q 243 2573 243 2106 
Q 243 1747 297 1363 
Q 352 979 518 659 
Q 685 339 992 134 
Q 1299 -70 1805 -70 
Q 2234 -70 2525 74 
Q 2816 218 2992 438 
Q 3168 659 3245 928 
Q 3322 1197 3322 1446 
Q 3322 1760 3226 2029 
Q 3130 2298 2954 2496 
Q 2778 2694 2518 2806 
Q 2259 2918 1933 2918 
Q 1562 2918 1277 2777 
Q 992 2637 800 2323 
L 787 2336 
Q 794 2598 838 2899 
Q 883 3200 1001 3459 
Q 1120 3718 1331 3888 
Q 1542 4058 1888 4058 
Q 2214 4058 2412 3872 
Q 2611 3686 2650 3379 
z
M 1830 2438 
Q 2061 2438 2233 2355 
Q 2406 2272 2521 2134 
Q 2637 1997 2691 1808 
Q 2746 1619 2746 1408 
Q 2746 1210 2685 1027 
Q 2624 845 2509 704 
Q 2394 563 2224 483 
Q 2054 403 1830 403 
Q 1606 403 1430 483 
Q 1254 563 1136 697 
Q 1018 832 954 1017 
Q 890 1203 890 1414 
Q 890 1626 950 1814 
Q 1011 2003 1132 2140 
Q 1254 2278 1427 2358 
Q 1600 2438 1830 2438 
z
" transform="scale(0.015625)"/>
       </defs>
       <use xlink:href="#HelveticaNeue-2212"/>
       <use xlink:href="#HelveticaNeue-30" x="59.999985"/>
       <use xlink:href="#HelveticaNeue-2e" x="115.599976"/>
       <use xlink:href="#HelveticaNeue-36" x="143.399963"/>
      </g>
     </g>
    </g>
    <g id="ytick_2">
     <g id="text_7">
      <!-- −0.4 -->
      <g style="fill: #262626" transform="translate(-1.965464 149.381875) scale(0.088 -0.088)">
       <defs>
        <path id="HelveticaNeue-34" d="M 2170 1542 
L 646 1542 
L 2157 3763 
L 2170 3763 
L 2170 1542 
z
M 2682 1542 
L 2682 4538 
L 2246 4538 
L 179 1587 
L 179 1062 
L 2170 1062 
L 2170 0 
L 2682 0 
L 2682 1062 
L 3296 1062 
L 3296 1542 
L 2682 1542 
z
" transform="scale(0.015625)"/>
       </defs>
       <use xlink:href="#HelveticaNeue-2212"/>
       <use xlink:href="#HelveticaNeue-30" x="59.999985"/>
       <use xlink:href="#HelveticaNeue-2e" x="115.599976"/>
       <use xlink:href="#HelveticaNeue-34" x="143.399963"/>
      </g>
     </g>
    </g>
    <g id="ytick_3">
     <g id="text_8">
      <!-- −0.2 -->
      <g style="fill: #262626" transform="translate(-1.965464 124.741875) scale(0.088 -0.088)">
       <use xlink:href="#HelveticaNeue-2212"/>
       <use xlink:href="#HelveticaNeue-30" x="59.999985"/>
       <use xlink:href="#HelveticaNeue-2e" x="115.599976"/>
       <use xlink:href="#HelveticaNeue-32" x="143.399963"/>
      </g>
     </g>
    </g>
    <g id="ytick_4">
     <g id="text_9">
      <!-- 0.0 -->
      <g style="fill: #262626" transform="translate(3.314536 100.101875) scale(0.088 -0.088)">
       <use xlink:href="#HelveticaNeue-30"/>
       <use xlink:href="#HelveticaNeue-2e" x="55.599991"/>
       <use xlink:href="#HelveticaNeue-30" x="83.399979"/>
      </g>
     </g>
    </g>
    <g id="ytick_5">
     <g id="text_10">
      <!-- 0.2 -->
      <g style="fill: #262626" transform="translate(3.314536 75.461875) scale(0.088 -0.088)">
       <use xlink:href="#HelveticaNeue-30"/>
       <use xlink:href="#HelveticaNeue-2e" x="55.599991"/>
       <use xlink:href="#HelveticaNeue-32" x="83.399979"/>
      </g>
     </g>
    </g>
    <g id="ytick_6">
     <g id="text_11">
      <!-- 0.4 -->
      <g style="fill: #262626" transform="translate(3.314536 50.821875) scale(0.088 -0.088)">
       <use xlink:href="#HelveticaNeue-30"/>
       <use xlink:href="#HelveticaNeue-2e" x="55.599991"/>
       <use xlink:href="#HelveticaNeue-34" x="83.399979"/>
      </g>
     </g>
    </g>
    <g id="ytick_7">
     <g id="text_12">
      <!-- 0.6 -->
      <g style="fill: #262626" transform="translate(3.314536 26.181875) scale(0.088 -0.088)">
       <use xlink:href="#HelveticaNeue-30"/>
       <use xlink:href="#HelveticaNeue-2e" x="55.599991"/>
       <use xlink:href="#HelveticaNeue-36" x="83.399979"/>
      </g>
     </g>
    </g>
    <g id="text_13">
     <!-- Episode Reward -->
     <g style="fill: #262626" transform="translate(-7.541714 126.29375) rotate(-90) scale(0.08 -0.08)">
      <defs>
       <path id="HelveticaNeue-45" d="M 499 4570 
L 499 0 
L 3674 0 
L 3674 512 
L 1107 512 
L 1107 2093 
L 3482 2093 
L 3482 2605 
L 1107 2605 
L 1107 4058 
L 3654 4058 
L 3654 4570 
L 499 4570 
z
" transform="scale(0.015625)"/>
       <path id="HelveticaNeue-70" d="M 429 3309 
L 429 -1261 
L 973 -1261 
L 973 442 
L 986 442 
Q 1075 294 1206 195 
Q 1338 96 1485 38 
Q 1632 -19 1782 -44 
Q 1933 -70 2054 -70 
Q 2432 -70 2717 64 
Q 3002 198 3190 432 
Q 3379 666 3472 979 
Q 3565 1293 3565 1645 
Q 3565 1997 3469 2310 
Q 3373 2624 3184 2864 
Q 2995 3104 2710 3245 
Q 2426 3386 2042 3386 
Q 1696 3386 1408 3261 
Q 1120 3136 986 2861 
L 973 2861 
L 973 3309 
L 429 3309 
z
M 2989 1683 
Q 2989 1440 2937 1209 
Q 2886 979 2771 800 
Q 2656 621 2467 512 
Q 2278 403 1997 403 
Q 1715 403 1516 508 
Q 1318 614 1193 787 
Q 1069 960 1011 1187 
Q 954 1414 954 1658 
Q 954 1888 1008 2112 
Q 1062 2336 1184 2512 
Q 1306 2688 1498 2797 
Q 1690 2906 1965 2906 
Q 2227 2906 2422 2803 
Q 2618 2701 2742 2528 
Q 2867 2355 2928 2134 
Q 2989 1914 2989 1683 
z
" transform="scale(0.015625)"/>
       <path id="HelveticaNeue-69" d="M 986 3904 
L 986 4570 
L 442 4570 
L 442 3904 
L 986 3904 
z
M 442 3309 
L 442 0 
L 986 0 
L 986 3309 
L 442 3309 
z
" transform="scale(0.015625)"/>
       <path id="HelveticaNeue-73" d="M 742 1043 
L 198 1043 
Q 211 736 326 521 
Q 442 307 634 176 
Q 826 45 1075 -12 
Q 1325 -70 1600 -70 
Q 1850 -70 2102 -22 
Q 2355 26 2556 147 
Q 2758 269 2883 467 
Q 3008 666 3008 966 
Q 3008 1203 2915 1363 
Q 2822 1523 2672 1628 
Q 2522 1734 2326 1798 
Q 2131 1862 1926 1907 
Q 1734 1952 1542 1993 
Q 1350 2035 1196 2096 
Q 1043 2157 944 2249 
Q 845 2342 845 2483 
Q 845 2611 909 2691 
Q 973 2771 1075 2819 
Q 1178 2867 1302 2886 
Q 1427 2906 1549 2906 
Q 1683 2906 1814 2877 
Q 1946 2848 2054 2784 
Q 2163 2720 2233 2614 
Q 2304 2509 2317 2349 
L 2861 2349 
Q 2842 2650 2733 2851 
Q 2624 3053 2441 3171 
Q 2259 3290 2022 3338 
Q 1786 3386 1504 3386 
Q 1286 3386 1065 3331 
Q 845 3277 669 3165 
Q 493 3053 381 2873 
Q 269 2694 269 2445 
Q 269 2125 429 1945 
Q 589 1766 829 1667 
Q 1069 1568 1350 1513 
Q 1632 1459 1872 1392 
Q 2112 1325 2272 1216 
Q 2432 1107 2432 896 
Q 2432 742 2355 643 
Q 2278 544 2160 493 
Q 2042 442 1901 422 
Q 1760 403 1632 403 
Q 1466 403 1309 435 
Q 1152 467 1027 540 
Q 902 614 825 739 
Q 749 864 742 1043 
z
" transform="scale(0.015625)"/>
       <path id="HelveticaNeue-6f" d="M 806 1651 
Q 806 1952 886 2185 
Q 966 2419 1107 2579 
Q 1248 2739 1437 2822 
Q 1626 2906 1837 2906 
Q 2048 2906 2237 2822 
Q 2426 2739 2566 2579 
Q 2707 2419 2787 2185 
Q 2867 1952 2867 1651 
Q 2867 1350 2787 1116 
Q 2707 883 2566 726 
Q 2426 570 2237 486 
Q 2048 403 1837 403 
Q 1626 403 1437 486 
Q 1248 570 1107 726 
Q 966 883 886 1116 
Q 806 1350 806 1651 
z
M 230 1651 
Q 230 1286 332 972 
Q 435 659 640 425 
Q 845 192 1145 61 
Q 1446 -70 1837 -70 
Q 2234 -70 2531 61 
Q 2829 192 3033 425 
Q 3238 659 3340 972 
Q 3443 1286 3443 1651 
Q 3443 2016 3340 2333 
Q 3238 2650 3033 2883 
Q 2829 3117 2531 3251 
Q 2234 3386 1837 3386 
Q 1446 3386 1145 3251 
Q 845 3117 640 2883 
Q 435 2650 332 2333 
Q 230 2016 230 1651 
z
" transform="scale(0.015625)"/>
       <path id="HelveticaNeue-64" d="M 806 1626 
Q 806 1869 857 2099 
Q 909 2330 1024 2509 
Q 1139 2688 1331 2797 
Q 1523 2906 1798 2906 
Q 2080 2906 2278 2800 
Q 2477 2694 2601 2521 
Q 2726 2349 2784 2121 
Q 2842 1894 2842 1651 
Q 2842 1421 2787 1197 
Q 2733 973 2611 797 
Q 2490 621 2298 512 
Q 2106 403 1830 403 
Q 1568 403 1373 505 
Q 1178 608 1053 781 
Q 928 954 867 1174 
Q 806 1395 806 1626 
z
M 3366 0 
L 3366 4570 
L 2822 4570 
L 2822 2867 
L 2810 2867 
Q 2720 3014 2589 3113 
Q 2458 3213 2310 3273 
Q 2163 3334 2016 3360 
Q 1869 3386 1741 3386 
Q 1363 3386 1078 3248 
Q 794 3110 605 2876 
Q 416 2643 323 2329 
Q 230 2016 230 1664 
Q 230 1312 326 998 
Q 422 685 611 448 
Q 800 211 1085 70 
Q 1370 -70 1754 -70 
Q 2099 -70 2387 51 
Q 2675 173 2810 448 
L 2822 448 
L 2822 0 
L 3366 0 
z
" transform="scale(0.015625)"/>
       <path id="HelveticaNeue-65" d="M 2707 1971 
L 806 1971 
Q 819 2163 889 2332 
Q 960 2502 1081 2630 
Q 1203 2758 1372 2832 
Q 1542 2906 1754 2906 
Q 1958 2906 2128 2832 
Q 2298 2758 2422 2633 
Q 2547 2509 2620 2336 
Q 2694 2163 2707 1971 
z
M 3232 1050 
L 2694 1050 
Q 2624 723 2403 563 
Q 2182 403 1837 403 
Q 1568 403 1369 492 
Q 1171 582 1043 732 
Q 915 883 857 1078 
Q 800 1274 806 1491 
L 3283 1491 
Q 3296 1792 3229 2125 
Q 3162 2458 2986 2739 
Q 2810 3021 2518 3203 
Q 2227 3386 1786 3386 
Q 1446 3386 1161 3258 
Q 877 3130 669 2899 
Q 461 2669 345 2355 
Q 230 2042 230 1664 
Q 243 1286 342 966 
Q 442 646 640 416 
Q 838 186 1129 58 
Q 1421 -70 1818 -70 
Q 2381 -70 2752 211 
Q 3123 493 3232 1050 
z
" transform="scale(0.015625)"/>
       <path id="HelveticaNeue-20" transform="scale(0.015625)"/>
       <path id="HelveticaNeue-52" d="M 499 4570 
L 499 0 
L 1107 0 
L 1107 1952 
L 2592 1952 
Q 2816 1952 2950 1885 
Q 3085 1818 3168 1706 
Q 3251 1594 3289 1443 
Q 3328 1293 3354 1126 
Q 3386 960 3392 787 
Q 3398 614 3404 464 
Q 3411 314 3433 192 
Q 3456 70 3520 0 
L 4198 0 
Q 4102 115 4054 265 
Q 4006 416 3980 582 
Q 3955 749 3948 921 
Q 3942 1094 3930 1261 
Q 3910 1427 3875 1580 
Q 3840 1734 3766 1859 
Q 3693 1984 3568 2073 
Q 3443 2163 3245 2202 
L 3245 2214 
Q 3661 2330 3849 2643 
Q 4038 2957 4038 3373 
Q 4038 3930 3670 4250 
Q 3302 4570 2650 4570 
L 499 4570 
z
M 2374 2464 
L 1107 2464 
L 1107 4058 
L 2618 4058 
Q 3046 4058 3238 3840 
Q 3430 3622 3430 3277 
Q 3430 3027 3344 2870 
Q 3258 2714 3114 2621 
Q 2970 2528 2778 2496 
Q 2586 2464 2374 2464 
z
" transform="scale(0.015625)"/>
       <path id="HelveticaNeue-77" d="M 3686 0 
L 4742 3309 
L 4179 3309 
L 3437 602 
L 3424 602 
L 2733 3309 
L 2138 3309 
L 1472 602 
L 1459 602 
L 710 3309 
L 109 3309 
L 1171 0 
L 1760 0 
L 2426 2630 
L 2438 2630 
L 3110 0 
L 3686 0 
z
" transform="scale(0.015625)"/>
       <path id="HelveticaNeue-61" d="M 3341 13 
Q 3200 -70 2950 -70 
Q 2739 -70 2614 48 
Q 2490 166 2490 435 
Q 2266 166 1968 48 
Q 1670 -70 1325 -70 
Q 1101 -70 899 -19 
Q 698 32 550 141 
Q 403 250 316 426 
Q 230 602 230 851 
Q 230 1133 326 1312 
Q 422 1491 579 1603 
Q 736 1715 937 1772 
Q 1139 1830 1350 1869 
Q 1574 1914 1776 1936 
Q 1978 1958 2131 2000 
Q 2285 2042 2374 2122 
Q 2464 2202 2464 2355 
Q 2464 2534 2397 2643 
Q 2330 2752 2224 2809 
Q 2118 2867 1987 2886 
Q 1856 2906 1728 2906 
Q 1382 2906 1152 2774 
Q 922 2643 902 2278 
L 358 2278 
Q 371 2586 486 2797 
Q 602 3008 794 3139 
Q 986 3270 1232 3328 
Q 1478 3386 1760 3386 
Q 1984 3386 2205 3354 
Q 2426 3322 2605 3222 
Q 2784 3123 2893 2944 
Q 3002 2765 3002 2477 
L 3002 774 
Q 3002 582 3024 492 
Q 3046 403 3174 403 
Q 3245 403 3341 435 
L 3341 13 
z
M 2458 1709 
Q 2355 1632 2188 1597 
Q 2022 1562 1840 1539 
Q 1658 1517 1472 1488 
Q 1286 1459 1139 1395 
Q 992 1331 899 1212 
Q 806 1094 806 890 
Q 806 755 860 662 
Q 915 570 1001 512 
Q 1088 454 1203 428 
Q 1318 403 1446 403 
Q 1715 403 1907 476 
Q 2099 550 2220 662 
Q 2342 774 2400 905 
Q 2458 1037 2458 1152 
L 2458 1709 
z
" transform="scale(0.015625)"/>
       <path id="HelveticaNeue-72" d="M 390 3309 
L 390 0 
L 934 0 
L 934 1472 
Q 934 1792 998 2038 
Q 1062 2285 1203 2457 
Q 1344 2630 1574 2720 
Q 1805 2810 2131 2810 
L 2131 3386 
Q 1690 3398 1402 3206 
Q 1114 3014 915 2611 
L 902 2611 
L 902 3309 
L 390 3309 
z
" transform="scale(0.015625)"/>
      </defs>
      <use xlink:href="#HelveticaNeue-45"/>
      <use xlink:href="#HelveticaNeue-70" x="61.099991"/>
      <use xlink:href="#HelveticaNeue-69" x="120.399979"/>
      <use xlink:href="#HelveticaNeue-73" x="142.599976"/>
      <use xlink:href="#HelveticaNeue-6f" x="192.59996"/>
      <use xlink:href="#HelveticaNeue-64" x="249.999954"/>
      <use xlink:href="#HelveticaNeue-65" x="309.299942"/>
      <use xlink:href="#HelveticaNeue-20" x="362.999939"/>
      <use xlink:href="#HelveticaNeue-52" x="390.799927"/>
      <use xlink:href="#HelveticaNeue-65" x="459.299911"/>
      <use xlink:href="#HelveticaNeue-77" x="512.999908"/>
      <use xlink:href="#HelveticaNeue-61" x="588.799896"/>
      <use xlink:href="#HelveticaNeue-72" x="642.499893"/>
      <use xlink:href="#HelveticaNeue-64" x="674.049881"/>
     </g>
    </g>
   </g>
   <g id="PolyCollection_1"/>
   <g id="PolyCollection_2"/>
   <g id="line2d_1">
    <path d="M 30.565161 109.28 
L 30.592044 103.12 
L 30.632368 110.512 
L 30.659251 104.352 
L 30.766781 110.512 
L 30.713016 101.888 
L 30.780223 109.28 
L 30.793664 109.28 
L 30.820547 106.816 
L 30.833988 111.744 
L 30.874312 108.048 
L 30.887754 112.976 
L 30.941519 103.12 
L 30.981843 110.512 
L 31.008726 103.12 
L 31.102815 105.584 
L 31.183463 104.352 
L 31.196904 110.512 
L 31.210346 103.12 
L 31.237228 111.744 
L 31.304435 109.28 
L 31.317877 112.976 
L 31.371642 104.352 
L 31.411966 111.744 
L 31.479173 105.584 
L 31.492614 112.976 
L 31.506055 111.744 
L 31.519497 112.976 
L 31.559821 106.816 
L 31.586703 110.512 
L 31.680793 101.888 
L 31.801765 111.744 
L 31.909296 105.584 
L 31.94962 114.208 
L 32.030268 110.512 
L 32.070592 105.584 
L 32.097475 111.744 
L 32.137799 110.512 
L 32.178123 108.048 
L 32.205005 112.976 
L 32.245329 110.512 
L 32.272212 114.208 
L 32.299095 108.048 
L 32.35286 111.744 
L 32.446949 106.816 
L 32.473832 108.048 
L 32.514156 108.048 
L 32.527598 105.584 
L 32.567922 115.44 
L 32.594804 106.816 
L 32.608246 114.208 
L 32.662011 104.352 
L 32.702335 106.816 
L 32.782983 112.976 
L 32.809866 111.744 
L 32.836748 103.12 
L 32.863631 112.976 
L 32.930838 108.048 
L 32.944279 108.048 
L 33.011486 111.744 
L 32.998045 106.816 
L 33.024927 110.512 
L 33.065251 101.888 
L 33.145899 105.584 
L 33.159341 105.584 
L 33.226547 114.208 
L 33.25343 109.28 
L 33.266871 103.12 
L 33.334078 115.44 
L 33.360961 108.048 
L 33.428168 111.744 
L 33.468492 106.816 
L 33.508816 105.584 
L 33.576022 114.208 
L 33.629788 106.816 
L 33.683553 108.048 
L 33.696994 114.208 
L 33.710436 106.816 
L 33.791084 112.976 
L 33.831408 104.352 
L 33.898615 108.048 
L 33.925497 115.44 
L 34.019587 112.976 
L 34.073352 114.208 
L 34.140559 106.816 
L 34.180883 115.44 
L 34.261531 109.28 
L 34.274972 109.28 
L 34.301855 105.584 
L 34.342179 111.744 
L 34.382503 109.28 
L 34.395944 109.28 
L 34.409386 106.816 
L 34.436268 114.208 
L 34.490034 108.048 
L 34.503475 112.976 
L 34.597565 109.28 
L 34.611006 109.28 
L 34.624447 114.208 
L 34.691654 106.816 
L 34.718537 109.28 
L 34.745419 111.744 
L 34.812626 108.048 
L 34.85295 114.208 
L 34.866391 105.584 
L 34.947039 112.976 
L 35.014246 109.28 
L 35.027688 115.44 
L 35.05457 112.976 
L 35.068012 114.208 
L 35.081453 106.816 
L 35.108336 110.512 
L 35.121777 101.888 
L 35.162101 111.744 
L 35.215866 109.28 
L 35.25619 115.44 
L 35.269632 106.816 
L 35.323397 109.28 
L 35.336838 109.28 
L 35.35028 112.976 
L 35.444369 109.28 
L 35.511576 105.584 
L 35.498135 112.976 
L 35.5519 109.28 
L 35.578783 111.744 
L 35.592224 104.352 
L 35.632548 109.28 
L 35.645989 103.12 
L 35.659431 110.512 
L 35.726637 109.28 
L 35.807286 114.208 
L 35.780403 108.048 
L 35.834168 111.744 
L 35.861051 108.048 
L 35.874492 116.672 
L 35.928258 110.512 
L 35.995464 114.208 
L 35.95514 105.584 
L 36.035788 110.512 
L 36.089554 116.672 
L 36.102995 106.816 
L 36.116436 100.656 
L 36.129878 111.744 
L 36.197084 110.512 
L 36.210526 110.512 
L 36.277733 106.816 
L 36.291174 111.744 
L 36.331498 108.048 
L 36.371822 112.976 
L 36.358381 106.816 
L 36.45247 111.744 
L 36.492794 106.816 
L 36.560001 108.048 
L 36.573442 114.208 
L 36.65409 105.584 
L 36.667532 106.816 
L 36.761621 114.208 
L 36.74818 104.352 
L 36.775062 106.816 
L 36.788504 106.816 
L 36.85571 111.744 
L 36.869152 109.28 
L 36.882593 101.888 
L 36.936358 111.744 
L 36.963241 108.048 
L 37.043889 112.976 
L 37.030448 105.584 
L 37.070772 106.816 
L 37.124537 112.976 
L 37.178303 111.744 
L 37.191744 103.12 
L 37.218627 112.976 
L 37.285833 108.048 
L 37.393364 112.976 
L 37.487454 116.672 
L 37.514336 105.584 
L 37.594984 114.208 
L 37.635308 112.976 
L 37.662191 105.584 
L 37.689074 114.208 
L 37.742839 114.208 
L 37.75628 115.44 
L 37.769722 109.28 
L 37.810046 112.976 
L 37.823487 106.816 
L 37.917577 109.28 
L 37.944459 116.672 
L 37.998225 111.744 
L 38.011666 104.352 
L 38.05199 114.208 
L 38.105755 108.048 
L 38.172962 112.976 
L 38.146079 106.816 
L 38.213286 111.744 
L 38.267051 106.816 
L 38.293934 116.672 
L 38.320817 108.048 
L 38.428348 116.672 
L 38.374582 105.584 
L 38.441789 111.744 
L 38.45523 111.744 
L 38.522437 109.28 
L 38.495554 115.44 
L 38.535878 114.208 
L 38.54932 115.44 
L 38.576202 108.048 
L 38.589644 108.048 
L 38.697174 112.976 
L 38.710616 104.352 
L 38.804705 112.976 
L 38.898795 108.048 
L 38.912236 112.976 
L 39.033208 110.512 
L 39.113856 112.976 
L 39.100415 106.816 
L 39.127298 110.512 
L 39.140739 105.584 
L 39.167622 114.208 
L 39.221387 110.512 
L 39.302035 105.584 
L 39.315476 115.44 
L 39.409566 106.816 
L 39.423007 111.744 
L 39.436448 111.744 
L 39.44989 105.584 
L 39.543979 108.048 
L 39.611186 105.584 
L 39.664951 114.208 
L 39.785923 108.048 
L 39.866571 112.976 
L 39.826247 106.816 
L 39.893454 110.512 
L 39.947219 104.352 
L 39.933778 112.976 
L 40.000985 110.512 
L 40.05475 112.976 
L 40.095074 110.512 
L 40.162281 105.584 
L 40.202605 110.512 
L 40.216046 110.512 
L 40.229488 109.28 
L 40.242929 114.208 
L 40.269812 111.744 
L 40.283253 116.672 
L 40.296694 109.28 
L 40.377343 110.512 
L 40.404225 105.584 
L 40.484873 112.976 
L 40.55208 105.584 
L 40.578963 111.744 
L 40.673052 116.672 
L 40.619287 104.352 
L 40.686493 111.744 
L 40.740259 108.048 
L 40.767141 112.976 
L 40.780583 106.816 
L 40.874672 108.048 
L 40.941879 105.584 
L 40.982203 114.208 
L 40.995644 108.048 
L 41.089734 111.744 
L 41.116616 112.976 
L 41.130058 108.048 
L 41.143499 108.048 
L 41.170382 106.816 
L 41.183823 115.44 
L 41.224147 104.352 
L 41.277913 105.584 
L 41.331678 116.672 
L 41.398885 112.976 
L 41.45265 104.352 
L 41.439209 116.672 
L 41.519857 109.28 
L 41.560181 115.44 
L 41.587063 105.584 
L 41.640829 111.744 
L 41.667712 103.12 
L 41.694594 112.976 
L 41.761801 109.28 
L 41.829008 112.976 
L 41.802125 106.816 
L 41.869332 109.28 
L 41.963421 112.976 
L 41.923097 108.048 
L 41.976862 110.512 
L 42.017186 105.584 
L 42.044069 112.976 
L 42.084393 108.048 
L 42.097835 112.976 
L 42.178483 111.744 
L 42.245689 104.352 
L 42.272572 119.136 
L 42.286013 106.816 
L 42.380103 112.976 
L 42.406985 110.512 
L 42.44731 105.584 
L 42.460751 112.976 
L 42.514516 111.744 
L 42.55484 116.672 
L 42.622047 106.816 
L 42.662371 114.208 
L 42.689254 104.352 
L 42.743019 112.976 
L 42.769902 106.816 
L 42.85055 111.744 
L 42.863991 112.976 
L 42.890874 106.816 
L 42.931198 109.28 
L 42.944639 109.28 
L 42.984963 111.744 
L 42.998405 105.584 
L 43.038729 108.048 
L 43.05217 106.816 
L 43.065611 111.744 
L 43.119377 109.28 
L 43.173142 114.208 
L 43.186583 100.656 
L 43.213466 109.28 
L 43.226907 104.352 
L 43.240349 112.976 
L 43.307556 106.816 
L 43.320997 112.976 
L 43.374762 103.12 
L 43.415086 111.744 
L 43.45541 108.048 
L 43.441969 115.44 
L 43.522617 111.744 
L 43.603265 115.44 
L 43.576382 108.048 
L 43.616706 111.744 
L 43.724237 108.048 
L 43.670472 114.208 
L 43.737679 110.512 
L 43.75112 110.512 
L 43.764561 106.816 
L 43.804885 114.208 
L 43.845209 110.512 
L 43.858651 116.672 
L 43.925857 109.28 
L 43.939299 112.976 
L 43.95274 105.584 
L 44.006505 115.44 
L 44.046829 111.744 
L 44.060271 111.744 
L 44.073712 114.208 
L 44.114036 108.048 
L 44.140919 112.976 
L 44.167802 104.352 
L 44.24845 110.512 
L 44.302215 104.352 
L 44.329098 110.512 
L 44.342539 114.208 
L 44.35598 105.584 
L 44.436628 112.976 
L 44.463511 114.208 
L 44.584483 109.28 
L 44.665131 114.208 
L 44.678573 108.048 
L 44.692014 106.816 
L 44.705455 112.976 
L 44.759221 108.048 
L 44.786103 105.584 
L 44.866751 116.672 
L 44.907075 108.048 
L 44.987724 110.512 
L 45.041489 112.976 
L 45.05493 105.584 
L 45.162461 114.208 
L 45.243109 105.584 
L 45.269992 109.28 
L 45.310316 114.208 
L 45.377523 110.512 
L 45.390964 110.512 
L 45.404405 115.44 
L 45.485053 105.584 
L 45.498495 105.584 
L 45.592584 112.976 
L 45.606025 108.048 
L 45.619467 108.048 
L 45.700115 106.816 
L 45.646349 111.744 
L 45.726997 108.048 
L 45.780763 114.208 
L 45.794204 106.816 
L 45.834528 109.28 
L 45.915176 105.584 
L 45.888294 114.208 
L 45.928618 110.512 
L 45.9555 105.584 
L 46.036148 114.208 
L 46.143679 104.352 
L 46.25121 114.208 
L 46.264651 111.744 
L 46.318417 116.672 
L 46.291534 110.512 
L 46.358741 111.744 
L 46.372182 103.12 
L 46.412506 114.208 
L 46.466271 106.816 
L 46.479713 106.816 
L 46.493154 114.208 
L 46.546919 105.584 
L 46.587243 110.512 
L 46.600685 110.512 
L 46.627568 114.208 
L 46.708216 106.816 
L 46.775422 104.352 
L 46.815746 114.208 
L 46.896394 106.816 
L 46.923277 109.28 
L 47.003925 111.744 
L 46.95016 106.816 
L 47.017367 108.048 
L 47.030808 108.048 
L 47.057691 114.208 
L 47.084573 112.976 
L 47.124897 103.12 
L 47.165221 114.208 
L 47.192104 106.816 
L 47.286193 115.44 
L 47.299635 109.28 
L 47.313076 106.816 
L 47.380283 114.208 
L 47.55502 105.584 
L 47.662551 112.976 
L 47.783523 105.584 
L 47.891054 116.672 
L 47.904495 106.816 
L 47.944819 117.904 
L 48.012026 108.048 
L 48.079233 114.208 
L 48.092674 106.816 
L 48.119557 109.28 
L 48.146439 112.976 
L 48.227087 105.584 
L 48.267412 112.976 
L 48.334618 106.816 
L 48.34806 106.816 
L 48.388384 114.208 
L 48.469032 110.512 
L 48.590004 104.352 
L 48.509356 111.744 
L 48.603445 108.048 
L 48.65721 112.976 
L 48.670652 105.584 
L 48.710976 110.512 
L 48.791624 103.12 
L 48.764741 111.744 
L 48.805065 111.744 
L 48.818507 112.976 
L 48.831948 108.048 
L 48.899155 110.512 
L 49.006685 101.888 
L 49.100775 114.208 
L 49.127658 108.048 
L 49.141099 105.584 
L 49.15454 111.744 
L 49.208306 110.512 
L 49.235188 112.976 
L 49.24863 109.28 
L 49.262071 104.352 
L 49.275512 112.976 
L 49.342719 109.28 
L 49.35616 114.208 
L 49.369602 106.816 
L 49.436808 108.048 
L 49.45025 100.656 
L 49.477132 114.208 
L 49.530898 110.512 
L 49.544339 112.976 
L 49.598105 104.352 
L 49.624987 109.28 
L 49.719077 104.352 
L 49.692194 112.976 
L 49.732518 109.28 
L 49.745959 109.28 
L 49.813166 111.744 
L 49.840049 106.816 
L 49.85349 105.584 
L 49.866931 111.744 
L 49.893814 108.048 
L 49.987904 112.976 
L 50.041669 105.584 
L 50.095434 109.28 
L 50.135758 111.744 
L 50.1492 104.352 
L 50.202965 110.512 
L 50.25673 112.976 
L 50.310496 106.816 
L 50.377703 114.208 
L 50.364261 103.12 
L 50.431468 112.976 
L 50.458351 106.816 
L 50.538999 110.512 
L 50.55244 111.744 
L 50.592764 105.584 
L 50.619647 108.048 
L 50.633088 105.584 
L 50.659971 110.512 
L 50.713736 109.28 
L 50.794384 115.44 
L 50.780943 105.584 
L 50.834708 112.976 
L 50.875032 115.44 
L 50.95568 105.584 
L 51.04977 114.208 
L 51.063211 105.584 
L 51.130418 114.208 
L 51.184183 111.744 
L 51.197625 111.744 
L 51.332038 105.584 
L 51.412686 110.512 
L 51.439569 109.28 
L 51.466451 114.208 
L 51.520217 106.816 
L 51.533658 112.976 
L 51.627748 110.512 
L 51.681513 112.976 
L 51.775602 104.352 
L 51.85625 115.44 
L 51.896574 111.744 
L 51.990664 105.584 
L 52.017547 109.28 
L 52.098195 115.44 
L 52.044429 101.888 
L 52.111636 109.28 
L 52.138519 110.512 
L 52.232608 105.584 
L 52.272932 115.44 
L 52.340139 110.512 
L 52.35358 106.816 
L 52.380463 112.976 
L 52.434228 109.28 
L 52.487994 115.44 
L 52.514876 106.816 
L 52.541759 110.512 
L 52.595524 114.208 
L 52.608966 109.28 
L 52.662731 111.744 
L 52.676172 111.744 
L 52.743379 114.208 
L 52.783703 105.584 
L 52.797144 112.976 
L 52.891234 106.816 
L 52.918117 112.976 
L 52.944999 101.888 
L 52.998765 111.744 
L 53.05253 105.584 
L 53.079413 116.672 
L 53.106295 110.512 
L 53.173502 104.352 
L 53.213826 106.816 
L 53.307916 114.208 
L 53.294474 105.584 
L 53.334798 111.744 
L 53.361681 105.584 
L 53.388564 116.672 
L 53.442329 108.048 
L 53.536418 114.208 
L 53.469212 106.816 
L 53.54986 108.048 
L 53.563301 108.048 
L 53.617066 104.352 
L 53.603625 114.208 
L 53.657391 105.584 
L 53.724597 115.44 
L 53.764921 106.816 
L 53.845569 110.512 
L 53.791804 105.584 
L 53.872452 106.816 
L 53.9531 111.744 
L 53.926217 104.352 
L 53.979983 109.28 
L 54.033748 101.888 
L 54.060631 116.672 
L 54.087514 104.352 
L 54.100955 114.208 
L 54.195044 105.584 
L 54.316016 114.208 
L 54.436988 105.584 
L 54.557961 115.44 
L 54.625167 106.816 
L 54.665491 109.28 
L 54.732698 114.208 
L 54.692374 106.816 
L 54.773022 110.512 
L 54.813346 115.44 
L 54.85367 109.28 
L 54.867111 108.048 
L 54.880553 114.208 
L 54.907436 109.28 
L 54.920877 115.44 
L 55.001525 108.048 
L 55.014966 111.744 
L 55.041849 103.12 
L 55.135938 108.048 
L 55.176262 106.816 
L 55.243469 110.512 
L 55.324117 103.12 
L 55.351 108.048 
L 55.377883 105.584 
L 55.471972 112.976 
L 55.512296 104.352 
L 55.566061 106.816 
L 55.579503 114.208 
L 55.673592 111.744 
L 55.740799 101.888 
L 55.713916 114.208 
L 55.794564 105.584 
L 55.902095 114.208 
L 55.915536 109.28 
L 55.928978 109.28 
L 55.942419 115.44 
L 56.009626 106.816 
L 56.023067 110.512 
L 56.103715 112.976 
L 56.144039 105.584 
L 56.238129 115.44 
L 56.197805 104.352 
L 56.265011 112.976 
L 56.305335 112.976 
L 56.318777 105.584 
L 56.412866 108.048 
L 56.480073 112.976 
L 56.506955 105.584 
L 56.520397 106.816 
L 56.533838 106.816 
L 56.614486 114.208 
L 56.587604 104.352 
L 56.65481 108.048 
L 56.668252 108.048 
L 56.722017 114.208 
L 56.775782 112.976 
L 56.789224 101.888 
L 56.883313 111.744 
L 56.923637 105.584 
L 56.977403 110.512 
L 56.990844 114.208 
L 57.031168 105.584 
L 57.071492 106.816 
L 57.098375 105.584 
L 57.192464 110.512 
L 57.259671 112.976 
L 57.286553 106.816 
L 57.299995 114.208 
L 57.326877 104.352 
L 57.380643 104.352 
L 57.394084 104.352 
L 57.461291 103.12 
L 57.528498 112.976 
L 57.64947 105.584 
L 57.568822 114.208 
L 57.662911 108.048 
L 57.689794 111.744 
L 57.730118 106.816 
L 57.770442 110.512 
L 57.864531 104.352 
L 57.797325 111.744 
L 57.877973 109.28 
L 57.945179 105.584 
L 57.918297 110.512 
L 57.972062 108.048 
L 58.025827 105.584 
L 58.066151 112.976 
L 58.146799 105.584 
L 58.173682 108.048 
L 58.200565 111.744 
L 58.214006 103.12 
L 58.267772 105.584 
L 58.281213 104.352 
L 58.308096 109.28 
L 58.34842 104.352 
L 58.402185 114.208 
L 58.469392 106.816 
L 58.523157 108.048 
L 58.576922 114.208 
L 58.630688 110.512 
L 58.724777 105.584 
L 58.711336 114.208 
L 58.738219 110.512 
L 58.75166 114.208 
L 58.765101 109.28 
L 58.845749 111.744 
L 58.95328 106.816 
L 58.993604 112.976 
L 58.980163 105.584 
L 59.060811 109.28 
L 59.074252 109.28 
L 59.114576 111.744 
L 59.181783 103.12 
L 59.24899 112.976 
L 59.302755 111.744 
L 59.316196 105.584 
L 59.383403 115.44 
L 59.410286 109.28 
L 59.464051 111.744 
L 59.544699 105.584 
L 59.625347 112.976 
L 59.598465 104.352 
L 59.665671 111.744 
L 59.773202 105.584 
L 59.786643 106.816 
L 59.813526 112.976 
L 59.840409 105.584 
L 59.894174 110.512 
L 60.001705 105.584 
L 59.934498 111.744 
L 60.015146 106.816 
L 60.082353 111.744 
L 60.095794 110.512 
L 60.109236 103.12 
L 60.176442 112.976 
L 60.203325 111.744 
L 60.216766 111.744 
L 60.25709 105.584 
L 60.283973 110.512 
L 60.297415 116.672 
L 60.337739 104.352 
L 60.378063 109.28 
L 60.472152 105.584 
L 60.418387 111.744 
L 60.485593 109.28 
L 60.512476 111.744 
L 60.539359 106.816 
L 60.5528 109.28 
L 60.620007 115.44 
L 60.660331 104.352 
L 60.714096 111.744 
L 60.767862 109.28 
L 60.781303 109.28 
L 60.794744 110.512 
L 60.808186 108.048 
L 60.84851 108.048 
L 60.861951 104.352 
L 60.915716 114.208 
L 60.95604 106.816 
L 60.969482 106.816 
L 61.036688 112.976 
L 61.090454 108.048 
L 61.103895 108.048 
L 61.171102 105.584 
L 61.224867 111.744 
L 61.292074 104.352 
L 61.332398 110.512 
L 61.372722 112.976 
L 61.45337 103.12 
L 61.534018 112.976 
L 61.560901 106.816 
L 61.587784 105.584 
L 61.601225 112.976 
L 61.614666 114.208 
L 61.628108 106.816 
L 61.641549 110.512 
L 61.722197 105.584 
L 61.74908 106.816 
L 61.829728 104.352 
L 61.843169 111.744 
L 61.85661 101.888 
L 61.937259 112.976 
L 61.9507 110.512 
L 62.058231 103.12 
L 62.071672 106.816 
L 62.085113 114.208 
L 62.179203 111.744 
L 62.192644 111.744 
L 62.246409 108.048 
L 62.273292 114.208 
L 62.286733 109.28 
L 62.35394 108.048 
L 62.394264 115.44 
L 62.488354 106.816 
L 62.421147 116.672 
L 62.515236 110.512 
L 62.528678 110.512 
L 62.64965 105.584 
L 62.743739 111.744 
L 62.75718 110.512 
L 62.810946 101.888 
L 62.784063 115.44 
L 62.878153 104.352 
L 62.931918 114.208 
L 62.999125 112.976 
L 63.120097 103.12 
L 63.133538 111.744 
L 63.227628 108.048 
L 63.267952 110.512 
L 63.294834 104.352 
L 63.308276 109.28 
L 63.321717 105.584 
L 63.375482 111.744 
L 63.402365 106.816 
L 63.496454 112.976 
L 63.442689 104.352 
L 63.509896 110.512 
L 63.617427 103.12 
L 63.536778 111.744 
L 63.630868 104.352 
L 63.724957 110.512 
L 63.75184 109.28 
L 63.765281 110.512 
L 63.805605 106.816 
L 63.819047 109.28 
L 63.832488 103.12 
L 63.886253 111.744 
L 63.913136 104.352 
L 63.993784 112.976 
L 64.020667 106.816 
L 64.034108 110.512 
L 64.101315 104.352 
L 64.128198 109.28 
L 64.222287 104.352 
L 64.168522 110.512 
L 64.235728 105.584 
L 64.262611 111.744 
L 64.329818 103.12 
L 64.3567 109.28 
L 64.370142 109.28 
L 64.410466 112.976 
L 64.45079 105.584 
L 64.464231 106.816 
L 64.477673 105.584 
L 64.517997 111.744 
L 64.544879 108.048 
L 64.598645 109.28 
L 64.612086 106.816 
L 64.638969 108.048 
L 64.65241 103.12 
L 64.706175 112.976 
L 64.746499 108.048 
L 64.786823 106.816 
L 64.85403 115.44 
L 64.961561 106.816 
L 64.975002 110.512 
L 65.05565 104.352 
L 65.001885 112.976 
L 65.082533 108.048 
L 65.176622 111.744 
L 65.14974 104.352 
L 65.190064 110.512 
L 65.203505 103.12 
L 65.243829 115.44 
L 65.297595 106.816 
L 65.324477 116.672 
L 65.378243 105.584 
L 65.405125 106.816 
L 65.472332 111.744 
L 65.458891 105.584 
L 65.512656 108.048 
L 65.593304 105.584 
L 65.566421 111.744 
L 65.620187 108.048 
L 65.700835 103.12 
L 65.741159 112.976 
L 65.835248 106.816 
L 65.794924 114.208 
L 65.862131 108.048 
L 65.915896 104.352 
L 65.889014 110.512 
L 65.969662 106.816 
L 66.063751 111.744 
L 66.077192 106.816 
L 66.090634 101.888 
L 66.157841 110.512 
L 66.171282 108.048 
L 66.198165 112.976 
L 66.265371 109.28 
L 66.332578 105.584 
L 66.319137 111.744 
L 66.372902 108.048 
L 66.386343 108.048 
L 66.399785 106.816 
L 66.426667 114.208 
L 66.440109 108.048 
L 66.45355 114.208 
L 66.466991 104.352 
L 66.534198 112.976 
L 66.54764 104.352 
L 66.587964 114.208 
L 66.641729 106.816 
L 66.65517 106.816 
L 66.682053 104.352 
L 66.762701 111.744 
L 66.776142 104.352 
L 66.803025 112.976 
L 66.870232 111.744 
L 66.883673 115.44 
L 66.910556 106.816 
L 66.95088 110.512 
L 67.031528 112.976 
L 67.071852 104.352 
L 67.179383 111.744 
L 67.206265 109.28 
L 67.273472 110.512 
L 67.260031 104.352 
L 67.300355 109.28 
L 67.367562 104.352 
L 67.35412 112.976 
L 67.407886 106.816 
L 67.44821 105.584 
L 67.501975 110.512 
L 67.609506 104.352 
L 67.636388 115.44 
L 67.717036 104.352 
L 67.730478 104.352 
L 67.770802 115.44 
L 67.838009 106.816 
L 67.878333 104.352 
L 67.891774 110.512 
L 67.918657 105.584 
L 67.999305 112.976 
L 68.026187 108.048 
L 68.039629 108.048 
L 68.106835 112.976 
L 68.093394 104.352 
L 68.147159 108.048 
L 68.227808 104.352 
L 68.174042 110.512 
L 68.241249 106.816 
L 68.268132 103.12 
L 68.321897 110.512 
L 68.335338 103.12 
L 68.389104 111.744 
L 68.429428 110.512 
L 68.510076 106.816 
L 68.5504 108.048 
L 68.590724 103.12 
L 68.644489 111.744 
L 68.657931 101.888 
L 68.75202 109.28 
L 68.819227 111.744 
L 68.778903 104.352 
L 68.832668 109.28 
L 68.846109 105.584 
L 68.859551 110.512 
L 68.940199 109.28 
L 69.034288 106.816 
L 69.007406 112.976 
L 69.04773 108.048 
L 69.141819 111.744 
L 69.074612 105.584 
L 69.15526 109.28 
L 69.24935 105.584 
L 69.195584 111.744 
L 69.262791 109.28 
L 69.303115 111.744 
L 69.370322 105.584 
L 69.383763 111.744 
L 69.491294 110.512 
L 69.531618 104.352 
L 69.612266 105.584 
L 69.692914 112.976 
L 69.773562 110.512 
L 69.813886 105.584 
L 69.85421 109.28 
L 69.867652 112.976 
L 69.934858 104.352 
L 69.961741 109.28 
L 70.002065 111.744 
L 70.028948 108.048 
L 70.042389 108.048 
L 70.109596 103.12 
L 70.123037 110.512 
L 70.136478 104.352 
L 70.176802 103.12 
L 70.244009 115.44 
L 70.257451 100.656 
L 70.35154 111.744 
L 70.445629 104.352 
L 70.459071 108.048 
L 70.539719 114.208 
L 70.499395 106.816 
L 70.566601 109.28 
L 70.647249 103.12 
L 70.660691 106.816 
L 70.741339 110.512 
L 70.687574 105.584 
L 70.768222 106.816 
L 70.781663 104.352 
L 70.795104 110.512 
L 70.84887 106.816 
L 70.862311 114.208 
L 70.916076 104.352 
L 70.942959 104.352 
L 70.9564 104.352 
L 71.077373 111.744 
L 71.198345 105.584 
L 71.25211 110.512 
L 71.305875 104.352 
L 71.332758 115.44 
L 71.440289 106.816 
L 71.480613 101.888 
L 71.467171 109.28 
L 71.520937 109.28 
L 71.54782 110.512 
L 71.561261 106.816 
L 71.574702 108.048 
L 71.628468 115.44 
L 71.682233 101.888 
L 71.722557 109.28 
L 71.762881 100.656 
L 71.803205 108.048 
L 71.816646 104.352 
L 71.883853 105.584 
L 71.897295 115.44 
L 72.004825 112.976 
L 72.098915 103.12 
L 72.125797 105.584 
L 72.233328 114.208 
L 72.219887 104.352 
L 72.246769 110.512 
L 72.273652 111.744 
L 72.381183 101.888 
L 72.475272 112.976 
L 72.488714 110.512 
L 72.502155 103.12 
L 72.596244 108.048 
L 72.636568 103.12 
L 72.65001 111.744 
L 72.690334 106.816 
L 72.703775 110.512 
L 72.757541 105.584 
L 72.784423 109.28 
L 72.811306 110.512 
L 72.891954 100.656 
L 73.012926 109.28 
L 73.05325 106.816 
L 73.120457 108.048 
L 73.174222 111.744 
L 73.160781 105.584 
L 73.227988 108.048 
L 73.241429 108.048 
L 73.322077 111.744 
L 73.268312 106.816 
L 73.335518 108.048 
L 73.429608 105.584 
L 73.362401 110.512 
L 73.443049 106.816 
L 73.510256 110.512 
L 73.469932 101.888 
L 73.55058 109.28 
L 73.684993 103.12 
L 73.792524 111.744 
L 73.819407 109.28 
L 73.873172 110.512 
L 73.95382 101.888 
L 73.980703 110.512 
L 74.074792 108.048 
L 74.088234 108.048 
L 74.101675 103.12 
L 74.115116 112.976 
L 74.209206 104.352 
L 74.330178 110.512 
L 74.437709 105.584 
L 74.464591 112.976 
L 74.491474 103.12 
L 74.558681 110.512 
L 74.585563 104.352 
L 74.65277 111.744 
L 74.666211 111.744 
L 74.746859 114.208 
L 74.800625 101.888 
L 74.867832 114.208 
L 74.908156 110.512 
L 74.935038 114.208 
L 75.029128 105.584 
L 75.109776 110.512 
L 75.096334 104.352 
L 75.136658 108.048 
L 75.217307 101.888 
L 75.176982 111.744 
L 75.244189 103.12 
L 75.284513 111.744 
L 75.365161 108.048 
L 75.378603 101.888 
L 75.392044 110.512 
L 75.472692 106.816 
L 75.55334 109.28 
L 75.513016 104.352 
L 75.580223 106.816 
L 75.633988 103.12 
L 75.660871 108.048 
L 75.674312 112.976 
L 75.75496 104.352 
L 75.768402 110.512 
L 75.822167 101.888 
L 75.875932 108.048 
L 75.943139 110.512 
L 75.916256 104.352 
L 75.983463 109.28 
L 76.064111 100.656 
L 76.090994 108.048 
L 76.117877 108.048 
L 76.144759 101.888 
L 76.171642 109.28 
L 76.225407 105.584 
L 76.319497 111.744 
L 76.292614 104.352 
L 76.346379 109.28 
L 76.427027 105.584 
L 76.400145 111.744 
L 76.440469 106.816 
L 76.467352 112.976 
L 76.494234 104.352 
L 76.534558 109.28 
L 76.615206 103.12 
L 76.642089 104.352 
L 76.776502 115.44 
L 76.897475 101.888 
L 77.018447 111.744 
L 77.15286 101.888 
L 77.166301 106.816 
L 77.273832 105.584 
L 77.300715 103.12 
L 77.341039 109.28 
L 77.394804 104.352 
L 77.421687 104.352 
L 77.435128 109.28 
L 77.488894 101.888 
L 77.529218 106.816 
L 77.609866 109.28 
L 77.65019 99.424 
L 77.663631 108.048 
L 77.757721 106.816 
L 77.771162 101.888 
L 77.811486 108.048 
L 77.865251 104.352 
L 77.919017 106.816 
L 77.892134 101.888 
L 77.945899 103.12 
L 77.999665 101.888 
L 77.986223 105.584 
L 78.013106 103.12 
L 78.093754 106.816 
L 78.120637 104.352 
L 78.134078 104.352 
L 78.201285 112.976 
L 78.214726 100.656 
L 78.268492 109.28 
L 78.295374 100.656 
L 78.376022 105.584 
L 78.389464 105.584 
L 78.537319 99.424 
L 78.671732 109.28 
L 78.698615 104.352 
L 78.779263 105.584 
L 78.846469 106.816 
L 78.859911 105.584 
L 78.900235 101.888 
L 78.940559 110.512 
L 78.954 108.048 
L 79.034648 101.888 
L 79.007766 109.28 
L 79.074972 104.352 
L 79.088414 109.28 
L 79.115296 103.12 
L 79.182503 105.584 
L 79.236268 101.888 
L 79.290034 104.352 
L 79.343799 100.656 
L 79.384123 108.048 
L 79.45133 110.512 
L 79.505095 101.888 
L 79.518537 101.888 
L 79.626067 106.816 
L 79.639509 105.584 
L 79.65295 105.584 
L 79.679833 100.656 
L 79.693274 106.816 
L 79.760481 101.888 
L 79.773922 108.048 
L 79.868012 104.352 
L 79.881453 101.888 
L 79.894894 108.048 
L 79.962101 104.352 
L 79.988984 108.048 
L 80.002425 100.656 
L 80.05619 104.352 
L 80.123397 101.888 
L 80.109956 109.28 
L 80.15028 105.584 
L 80.163721 108.048 
L 80.230928 103.12 
L 80.244369 106.816 
L 80.311576 108.048 
L 80.3519 101.888 
L 80.432548 106.816 
L 80.405665 100.656 
L 80.445989 103.12 
L 80.459431 99.424 
L 80.499755 106.816 
L 80.55352 101.888 
L 80.620727 110.512 
L 80.661051 103.12 
L 80.701375 100.656 
L 80.741699 105.584 
L 80.75514 110.512 
L 80.835788 100.656 
L 80.84923 99.424 
L 80.862671 103.12 
L 80.929878 110.512 
L 80.970202 104.352 
L 81.037409 110.512 
L 81.077733 108.048 
L 81.158381 101.888 
L 81.118057 110.512 
L 81.185263 108.048 
L 81.225587 109.28 
L 81.306235 103.12 
L 81.373442 108.048 
L 81.413766 103.12 
L 81.45409 108.048 
L 81.440649 100.656 
L 81.521297 106.816 
L 81.628828 101.888 
L 81.736358 111.744 
L 81.7498 106.816 
L 81.830448 100.656 
L 81.817006 110.512 
L 81.843889 103.12 
L 81.857331 110.512 
L 81.897655 101.888 
L 81.95142 105.584 
L 81.991744 109.28 
L 82.058951 103.12 
L 82.139599 106.816 
L 82.085833 101.888 
L 82.166481 105.584 
L 82.247129 104.352 
L 82.193364 106.816 
L 82.260571 105.584 
L 82.287454 109.28 
L 82.314336 101.888 
L 82.341219 106.816 
L 82.381543 101.888 
L 82.408426 108.048 
L 82.44875 105.584 
L 82.515956 108.048 
L 82.529398 100.656 
L 82.542839 105.584 
L 82.583163 101.888 
L 82.596604 106.816 
L 82.65037 105.584 
L 82.690694 109.28 
L 82.677252 104.352 
L 82.744459 105.584 
L 82.771342 101.888 
L 82.825107 108.048 
L 82.85199 103.12 
L 82.865431 109.28 
L 82.959521 103.12 
L 83.067051 106.816 
L 83.107376 108.048 
L 83.174582 101.888 
L 83.282113 106.816 
L 83.228348 99.424 
L 83.295554 105.584 
L 83.362761 101.888 
L 83.335878 108.048 
L 83.389644 106.816 
L 83.403085 108.048 
L 83.443409 103.12 
L 83.470292 101.888 
L 83.483733 109.28 
L 83.524057 104.352 
L 83.55094 108.048 
L 83.577823 103.12 
L 83.631588 104.352 
L 83.645029 104.352 
L 83.685353 115.44 
L 83.725677 101.888 
L 83.75256 106.816 
L 83.833208 109.28 
L 83.860091 103.12 
L 83.873532 108.048 
L 83.95418 101.888 
L 83.967622 105.584 
L 84.04827 100.656 
L 84.021387 106.816 
L 84.061711 104.352 
L 84.102035 108.048 
L 84.088594 103.12 
L 84.169242 104.352 
L 84.182683 100.656 
L 84.196124 108.048 
L 84.263331 103.12 
L 84.317096 108.048 
L 84.330538 101.888 
L 84.370862 104.352 
L 84.411186 100.656 
L 84.424627 106.816 
L 84.464951 105.584 
L 84.491834 105.584 
L 84.505275 110.512 
L 84.518717 99.424 
L 84.599365 108.048 
L 84.626247 101.888 
L 84.666571 114.208 
L 84.706895 104.352 
L 84.787544 109.28 
L 84.774102 100.656 
L 84.814426 105.584 
L 84.895074 101.888 
L 84.85475 108.048 
L 84.921957 103.12 
L 85.002605 110.512 
L 85.029488 106.816 
L 85.083253 101.888 
L 85.137018 106.816 
L 85.15046 109.28 
L 85.177343 99.424 
L 85.231108 104.352 
L 85.298315 106.816 
L 85.284873 101.888 
L 85.325197 103.12 
L 85.338639 103.12 
L 85.405845 108.048 
L 85.432728 100.656 
L 85.446169 104.352 
L 85.459611 104.352 
L 85.473052 100.656 
L 85.526817 109.28 
L 85.5537 105.584 
L 85.607466 109.28 
L 85.580583 103.12 
L 85.64779 108.048 
L 85.75532 99.424 
L 85.768762 104.352 
L 85.782203 104.352 
L 85.822527 103.12 
L 85.809086 108.048 
L 85.84941 105.584 
L 85.862851 109.28 
L 85.876292 103.12 
L 85.943499 104.352 
L 85.997265 106.816 
L 86.064471 100.656 
L 86.198885 106.816 
L 86.212326 100.656 
L 86.225767 108.048 
L 86.306415 103.12 
L 86.319857 103.12 
L 86.346739 109.28 
L 86.440829 104.352 
L 86.467712 101.888 
L 86.481153 105.584 
L 86.508036 104.352 
L 86.521477 109.28 
L 86.54836 100.656 
L 86.615566 103.12 
L 86.682773 106.816 
L 86.709656 100.656 
L 86.723097 103.12 
L 86.763421 106.816 
L 86.790304 101.888 
L 86.857511 105.584 
L 86.870952 100.656 
L 86.897835 108.048 
L 86.965041 105.584 
L 87.072572 101.888 
L 87.086013 104.352 
L 87.180103 108.048 
L 87.206985 106.816 
L 87.233868 106.816 
L 87.24731 100.656 
L 87.301075 108.048 
L 87.35484 101.888 
L 87.462371 106.816 
L 87.475812 105.584 
L 87.529578 100.656 
L 87.543019 108.048 
L 87.583343 103.12 
L 87.677433 111.744 
L 87.690874 108.048 
L 87.744639 101.888 
L 87.798405 105.584 
L 87.838729 105.584 
L 87.932818 100.656 
L 88.000025 109.28 
L 88.05379 106.816 
L 88.094114 99.424 
L 88.161321 104.352 
L 88.174762 104.352 
L 88.201645 101.888 
L 88.241969 106.816 
L 88.25541 109.28 
L 88.295734 103.12 
L 88.3495 108.048 
L 88.403265 101.888 
L 88.470472 104.352 
L 88.483913 104.352 
L 88.55112 100.656 
L 88.564561 108.048 
L 88.604885 101.888 
L 88.618327 101.888 
L 88.698975 109.28 
L 88.779623 106.816 
L 88.833388 103.12 
L 88.846829 109.28 
L 88.887153 104.352 
L 88.900595 108.048 
L 88.981243 106.816 
L 89.008126 100.656 
L 89.088774 103.12 
L 89.129098 106.816 
L 89.169422 103.12 
L 89.182863 100.656 
L 89.209746 108.048 
L 89.263511 103.12 
L 89.317277 105.584 
L 89.290394 100.656 
L 89.344159 104.352 
L 89.384483 99.424 
L 89.411366 108.048 
L 89.424807 101.888 
L 89.438249 109.28 
L 89.532338 104.352 
L 89.599545 110.512 
L 89.639869 106.816 
L 89.733958 100.656 
L 89.680193 108.048 
L 89.7474 104.352 
L 89.828048 108.048 
L 89.787724 103.12 
L 89.841489 105.584 
L 89.85493 101.888 
L 89.881813 106.816 
L 89.94902 105.584 
L 90.016226 103.12 
L 90.002785 108.048 
L 90.029668 105.584 
L 90.043109 109.28 
L 90.123757 101.888 
L 90.258171 108.048 
L 90.298495 101.888 
L 90.325377 109.28 
L 90.379143 104.352 
L 90.392584 104.352 
L 90.406025 100.656 
L 90.459791 108.048 
L 90.500115 104.352 
L 90.540439 104.352 
L 90.607646 110.512 
L 90.594204 100.656 
L 90.64797 104.352 
L 90.688294 101.888 
L 90.701735 104.352 
L 90.715176 109.28 
L 90.795824 99.424 
L 90.809266 106.816 
L 90.903355 101.888 
L 90.916796 103.12 
L 91.024327 109.28 
L 91.010886 100.656 
L 91.037769 108.048 
L 91.104975 100.656 
L 91.145299 105.584 
L 91.158741 108.048 
L 91.185623 101.888 
L 91.225947 103.12 
L 91.239389 101.888 
L 91.266271 105.584 
L 91.279713 104.352 
L 91.333478 101.888 
L 91.373802 108.048 
L 91.494774 101.888 
L 91.561981 109.28 
L 91.602305 105.584 
L 91.682953 100.656 
L 91.696394 106.816 
L 91.709836 101.888 
L 91.736718 108.048 
L 91.790484 100.656 
L 91.817367 106.816 
L 91.857691 101.888 
L 91.844249 109.28 
L 91.924897 103.12 
L 91.992104 106.816 
L 92.005545 99.424 
L 92.032428 104.352 
L 92.045869 100.656 
L 92.086193 106.816 
L 92.139959 101.888 
L 92.274372 108.048 
L 92.287814 106.816 
L 92.301255 99.424 
L 92.395344 104.352 
L 92.422227 106.816 
L 92.475992 101.888 
L 92.489434 111.744 
L 92.583523 108.048 
L 92.65073 103.12 
L 92.623847 109.28 
L 92.717937 104.352 
L 92.744819 109.28 
L 92.812026 101.888 
L 92.825467 106.816 
L 92.892674 101.888 
L 92.865791 109.28 
L 92.932998 105.584 
L 92.946439 105.584 
L 92.973322 106.816 
L 93.067412 100.656 
L 93.121177 106.816 
L 93.188384 105.584 
L 93.215266 101.888 
L 93.25559 106.816 
L 93.295914 105.584 
L 93.34968 103.12 
L 93.390004 109.28 
L 93.510976 100.656 
L 93.591624 106.816 
L 93.618507 103.12 
L 93.631948 103.12 
L 93.658831 100.656 
L 93.739479 108.048 
L 93.820127 100.656 
L 93.860451 104.352 
L 93.927658 110.512 
L 93.967982 105.584 
L 94.04863 106.816 
L 94.075512 100.656 
L 94.115836 112.976 
L 94.183043 110.512 
L 94.277132 103.12 
L 94.304015 104.352 
L 94.357781 101.888 
L 94.411546 104.352 
L 94.438429 99.424 
L 94.519077 108.048 
L 94.599725 103.12 
L 94.572842 114.208 
L 94.626607 104.352 
L 94.640049 108.048 
L 94.693814 101.888 
L 94.734138 104.352 
L 94.814786 100.656 
L 94.801345 106.816 
L 94.828228 101.888 
L 94.922317 108.048 
L 94.935758 104.352 
L 94.9492 101.888 
L 94.989524 106.816 
L 95.016406 106.816 
L 95.029848 109.28 
L 95.083613 103.12 
L 95.097054 105.584 
L 95.15082 101.888 
L 95.123937 109.28 
L 95.218027 103.12 
L 95.298675 108.048 
L 95.312116 105.584 
L 95.392764 100.656 
L 95.365881 106.816 
L 95.406205 103.12 
L 95.419647 108.048 
L 95.500295 100.656 
L 95.513736 103.12 
L 95.527177 99.424 
L 95.55406 106.816 
L 95.607826 104.352 
L 95.661591 106.816 
L 95.634708 103.12 
L 95.675032 105.584 
L 95.769122 100.656 
L 95.75568 106.816 
L 95.782563 104.352 
L 95.863211 106.816 
L 95.84977 101.888 
L 95.876652 104.352 
L 95.890094 100.656 
L 95.903535 106.816 
L 95.970742 104.352 
L 95.997625 103.12 
L 96.091714 106.816 
L 96.158921 109.28 
L 96.226127 101.888 
L 96.347099 106.816 
L 96.427748 100.656 
L 96.468072 103.12 
L 96.589044 110.512 
L 96.602485 100.656 
L 96.696574 109.28 
L 96.804105 103.12 
L 96.817547 104.352 
L 96.830988 104.352 
L 96.857871 105.584 
L 96.884753 100.656 
L 96.898195 109.28 
L 96.992284 103.12 
L 97.046049 108.048 
L 97.072932 99.424 
L 97.099815 103.12 
L 97.140139 108.048 
L 97.193904 104.352 
L 97.207346 101.888 
L 97.234228 108.048 
L 97.301435 103.12 
L 97.3552 106.816 
L 97.341759 101.888 
L 97.422407 104.352 
L 97.435848 104.352 
L 97.503055 109.28 
L 97.529938 106.816 
L 97.570262 101.888 
L 97.55682 109.28 
L 97.637469 103.12 
L 97.65091 109.28 
L 97.744999 103.12 
L 97.825647 105.584 
L 97.798765 100.656 
L 97.839089 103.12 
L 97.85253 101.888 
L 97.879413 108.048 
L 97.919737 103.12 
L 98.040709 108.048 
L 98.067592 100.656 
L 98.161681 104.352 
L 98.175122 109.28 
L 98.202005 100.656 
L 98.269212 104.352 
L 98.282653 100.656 
L 98.309536 105.584 
L 98.363301 103.12 
L 98.390184 108.048 
L 98.470832 106.816 
L 98.497715 109.28 
L 98.578363 101.888 
L 98.672452 108.048 
L 98.685893 105.584 
L 98.712776 109.28 
L 98.793424 101.888 
L 98.900955 108.048 
L 98.914396 106.816 
L 99.035368 101.888 
L 99.062251 103.12 
L 99.075692 103.12 
L 99.129458 99.424 
L 99.142899 106.816 
L 99.169782 104.352 
L 99.223547 108.048 
L 99.236988 103.12 
L 99.263871 105.584 
L 99.331078 108.048 
L 99.384843 101.888 
L 99.398285 108.048 
L 99.492374 104.352 
L 99.505815 104.352 
L 99.519257 112.976 
L 99.532698 100.656 
L 99.613346 103.12 
L 99.720877 109.28 
L 99.734318 104.352 
L 99.74776 104.352 
L 99.788084 101.888 
L 99.85529 106.816 
L 99.935938 108.048 
L 99.962821 103.12 
L 100.05691 110.512 
L 100.003145 101.888 
L 100.083793 106.816 
L 100.097234 100.656 
L 100.191324 106.816 
L 100.312296 99.424 
L 100.366061 108.048 
L 100.419827 104.352 
L 100.500475 100.656 
L 100.446709 106.816 
L 100.527358 104.352 
L 100.540799 106.816 
L 100.594564 100.656 
L 100.634888 104.352 
L 100.661771 108.048 
L 100.75586 100.656 
L 100.836508 106.816 
L 100.876832 104.352 
L 100.944039 103.12 
L 100.917156 106.816 
L 100.957481 104.352 
L 101.024687 101.888 
L 101.05157 106.816 
L 101.091894 108.048 
L 101.172542 100.656 
L 101.266631 106.816 
L 101.280073 101.888 
L 101.401045 110.512 
L 101.427928 106.816 
L 101.535458 100.656 
L 101.5489 101.888 
L 101.629548 105.584 
L 101.65643 104.352 
L 101.710196 100.656 
L 101.683313 105.584 
L 101.737078 104.352 
L 101.790844 108.048 
L 101.777403 100.656 
L 101.844609 105.584 
L 101.858051 100.656 
L 101.871492 106.816 
L 101.95214 104.352 
L 101.965581 103.12 
L 101.979023 106.816 
L 102.019347 106.816 
L 102.046229 108.048 
L 102.059671 101.888 
L 102.099995 104.352 
L 102.140319 101.888 
L 102.167201 106.816 
L 102.194084 105.584 
L 102.24785 106.816 
L 102.220967 101.888 
L 102.301615 105.584 
L 102.315056 100.656 
L 102.328498 109.28 
L 102.395704 103.12 
L 102.489794 108.048 
L 102.436028 101.888 
L 102.503235 105.584 
L 102.516676 99.424 
L 102.610766 104.352 
L 102.677973 101.888 
L 102.718297 103.12 
L 102.772062 106.816 
L 102.758621 101.888 
L 102.812386 104.352 
L 102.825827 100.656 
L 102.893034 106.816 
L 102.919917 103.12 
L 102.933358 111.744 
L 102.946799 100.656 
L 103.027448 104.352 
L 103.05433 105.584 
L 103.121537 100.656 
L 103.215626 106.816 
L 103.242509 105.584 
L 103.296274 100.656 
L 103.363481 108.048 
L 103.390364 100.656 
L 103.471012 105.584 
L 103.497895 106.816 
L 103.524777 103.12 
L 103.538219 103.12 
L 103.591984 101.888 
L 103.605425 106.816 
L 103.632308 104.352 
L 103.645749 104.352 
L 103.672632 106.816 
L 103.766721 100.656 
L 103.887694 109.28 
L 103.901135 106.816 
L 103.928018 109.28 
L 104.008666 100.656 
L 104.022107 106.816 
L 104.129638 105.584 
L 104.143079 100.656 
L 104.210286 106.816 
L 104.237168 105.584 
L 104.344699 104.352 
L 104.425347 103.12 
L 104.438789 105.584 
L 104.492554 103.12 
L 104.479113 108.048 
L 104.532878 108.048 
L 104.680733 101.888 
L 104.788264 110.512 
L 104.828588 99.424 
L 104.909236 103.12 
L 104.922677 103.12 
L 104.936118 106.816 
L 105.030208 103.12 
L 105.083973 109.28 
L 105.097415 101.888 
L 105.15118 105.584 
L 105.258711 100.656 
L 105.178063 108.048 
L 105.272152 101.888 
L 105.366241 100.656 
L 105.393124 108.048 
L 105.473772 110.512 
L 105.527538 103.12 
L 105.594744 108.048 
L 105.635068 103.12 
L 105.742599 108.048 
L 105.688834 100.656 
L 105.75604 104.352 
L 105.769482 104.352 
L 105.836688 108.048 
L 105.85013 101.888 
L 105.890454 99.424 
L 105.957661 110.512 
L 106.05175 103.12 
L 106.078633 104.352 
L 106.105515 108.048 
L 106.186163 100.656 
L 106.307135 109.28 
L 106.360901 100.656 
L 106.428108 105.584 
L 106.468432 103.12 
L 106.481873 105.584 
L 106.495314 110.512 
L 106.575962 101.888 
L 106.629728 106.816 
L 106.683493 105.584 
L 106.737259 100.656 
L 106.7507 106.816 
L 106.791024 104.352 
L 106.804465 104.352 
L 106.817907 111.744 
L 106.871672 99.424 
L 106.911996 104.352 
L 106.965761 108.048 
L 107.019527 103.12 
L 107.059851 106.816 
L 107.113616 101.888 
L 107.140499 101.888 
L 107.207706 111.744 
L 107.274912 109.28 
L 107.301795 100.656 
L 107.382443 105.584 
L 107.463091 109.28 
L 107.436208 104.352 
L 107.476532 104.352 
L 107.489974 104.352 
L 107.516856 101.888 
L 107.610946 106.816 
L 107.705035 101.888 
L 107.65127 108.048 
L 107.718477 105.584 
L 107.731918 106.816 
L 107.758801 100.656 
L 107.785683 103.12 
L 107.799125 101.888 
L 107.826007 106.816 
L 107.879773 103.12 
L 107.960421 106.816 
L 107.987304 104.352 
L 108.014186 108.048 
L 108.05451 101.888 
L 108.162041 108.048 
L 108.242689 100.656 
L 108.269572 105.584 
L 108.283013 106.816 
L 108.323337 100.656 
L 108.35022 104.352 
L 108.444309 100.656 
L 108.390544 105.584 
L 108.457751 104.352 
L 108.498075 109.28 
L 108.511516 101.888 
L 108.524957 110.512 
L 108.565281 100.656 
L 108.619047 104.352 
L 108.659371 108.048 
L 108.672812 101.888 
L 108.726577 104.352 
L 108.740019 103.12 
L 108.75346 106.816 
L 108.807225 105.584 
L 108.820667 108.048 
L 108.860991 101.888 
L 108.901315 104.352 
L 108.914756 104.352 
L 108.928198 100.656 
L 108.981963 108.048 
L 109.022287 104.352 
L 109.035728 104.352 
L 109.04917 109.28 
L 109.102935 99.424 
L 109.129818 108.048 
L 109.143259 101.888 
L 109.237349 103.12 
L 109.25079 106.816 
L 109.277673 100.656 
L 109.344879 105.584 
L 109.425527 100.656 
L 109.398645 108.048 
L 109.45241 101.888 
L 109.546499 106.816 
L 109.506175 100.656 
L 109.559941 104.352 
L 109.573382 99.424 
L 109.586823 106.816 
L 109.667472 104.352 
L 109.680913 104.352 
L 109.775002 101.888 
L 109.734678 106.816 
L 109.801885 103.12 
L 109.815326 103.12 
L 109.85565 108.048 
L 109.909416 104.352 
L 109.936298 105.584 
L 110.030388 100.656 
L 110.164801 109.28 
L 110.191684 101.888 
L 110.272332 104.352 
L 110.35298 108.048 
L 110.326097 101.888 
L 110.379863 104.352 
L 110.393304 104.352 
L 110.406745 108.048 
L 110.433628 100.656 
L 110.500835 106.816 
L 110.514276 106.816 
L 110.608366 100.656 
L 110.621807 103.12 
L 110.729338 109.28 
L 110.64869 101.888 
L 110.742779 106.816 
L 110.796544 108.048 
L 110.877192 101.888 
L 110.998165 108.048 
L 111.05193 100.656 
L 111.119137 101.888 
L 111.186343 110.512 
L 111.199785 99.424 
L 111.226667 104.352 
L 111.240109 101.888 
L 111.320757 105.584 
L 111.334198 104.352 
L 111.34764 106.816 
L 111.361081 103.12 
L 111.414846 104.352 
L 111.428288 99.424 
L 111.522377 105.584 
L 111.535818 105.584 
L 111.589584 100.656 
L 111.643349 101.888 
L 111.697114 108.048 
L 111.75088 104.352 
L 111.764321 104.352 
L 111.804645 103.12 
L 111.858411 106.816 
L 111.925617 101.888 
L 111.965941 103.12 
L 112.033148 106.816 
L 111.992824 101.888 
L 112.060031 101.888 
L 112.086913 105.584 
L 112.127237 100.656 
L 112.221327 108.048 
L 112.234768 99.424 
L 112.24821 104.352 
L 112.288534 100.656 
L 112.315416 105.584 
L 112.328858 101.888 
L 112.422947 99.424 
L 112.44983 108.048 
L 112.517036 99.424 
L 112.570802 104.352 
L 112.584243 104.352 
L 112.664891 106.816 
L 112.611126 101.888 
L 112.678333 101.888 
L 112.691774 100.656 
L 112.705215 106.816 
L 112.758981 101.888 
L 112.812746 108.048 
L 112.879953 106.816 
L 112.893394 106.816 
L 112.974042 101.888 
L 112.947159 108.048 
L 113.014366 103.12 
L 113.041249 103.12 
L 113.081573 101.888 
L 113.095014 103.12 
L 113.108456 108.048 
L 113.135338 100.656 
L 113.202545 105.584 
L 113.323517 101.888 
L 113.336958 108.048 
L 113.431048 104.352 
L 113.444489 104.352 
L 113.525137 105.584 
L 113.511696 103.12 
L 113.538579 103.12 
L 113.578903 100.656 
L 113.592344 101.888 
L 113.605785 109.28 
L 113.646109 100.656 
L 113.699875 104.352 
L 113.740199 106.816 
L 113.75364 101.888 
L 113.793964 105.584 
L 113.834288 101.888 
L 113.874612 108.048 
L 113.914936 103.12 
L 113.968702 110.512 
L 114.009026 106.816 
L 114.129998 101.888 
L 114.143439 101.888 
L 114.210646 105.584 
L 114.197204 100.656 
L 114.264411 104.352 
L 114.277853 101.888 
L 114.358501 103.12 
L 114.439149 101.888 
L 114.466031 106.816 
L 114.506355 100.656 
L 114.573562 104.352 
L 114.640769 108.048 
L 114.613886 100.656 
L 114.694534 105.584 
L 114.707976 105.584 
L 114.815506 101.888 
L 114.909596 109.28 
L 114.923037 105.584 
L 115.017126 108.048 
L 115.044009 101.888 
L 115.070892 101.888 
L 115.178423 109.28 
L 115.15154 100.656 
L 115.191864 104.352 
L 115.299395 100.656 
L 115.272512 106.816 
L 115.312836 103.12 
L 115.326277 103.12 
L 115.433808 108.048 
L 115.380043 99.424 
L 115.447249 106.816 
L 115.527898 101.888 
L 115.541339 110.512 
L 115.635428 104.352 
L 115.675752 109.28 
L 115.7564 101.888 
L 115.890814 106.816 
L 115.810166 100.656 
L 115.904255 105.584 
L 115.971462 101.888 
L 115.944579 106.816 
L 116.011786 104.352 
L 116.038669 101.888 
L 116.065551 106.816 
L 116.119317 103.12 
L 116.199965 100.656 
L 116.25373 108.048 
L 116.294054 100.656 
L 116.361261 103.12 
L 116.45535 108.048 
L 116.401585 100.656 
L 116.468792 104.352 
L 116.482233 99.424 
L 116.576322 100.656 
L 116.589764 109.28 
L 116.683853 104.352 
L 116.724177 104.352 
L 116.75106 106.816 
L 116.818267 100.656 
L 116.898915 108.048 
L 116.925797 103.12 
L 116.939239 103.12 
L 116.979563 109.28 
L 117.006445 101.888 
L 117.019887 109.28 
L 117.113976 105.584 
L 117.140859 105.584 
L 117.1543 109.28 
L 117.167742 101.888 
L 117.24839 106.816 
L 117.275272 100.656 
L 117.369362 101.888 
L 117.382803 101.888 
L 117.436568 99.424 
L 117.503775 109.28 
L 117.624747 101.888 
L 117.732278 105.584 
L 117.759161 100.656 
L 117.839809 103.12 
L 117.893574 110.512 
L 117.866691 100.656 
L 117.94734 105.584 
L 118.001105 103.12 
L 118.027988 104.352 
L 118.041429 108.048 
L 118.05487 101.888 
L 118.135518 104.352 
L 118.14896 104.352 
L 118.189284 103.12 
L 118.269932 108.048 
L 118.364021 100.656 
L 118.390904 101.888 
L 118.484993 108.048 
L 118.431228 100.656 
L 118.498435 103.12 
L 118.525317 99.424 
L 118.579083 104.352 
L 118.592524 103.12 
L 118.659731 108.048 
L 118.700055 105.584 
L 118.794144 106.816 
L 118.821027 99.424 
L 118.915116 108.048 
L 118.982323 104.352 
L 119.04953 101.888 
L 119.022647 106.816 
L 119.089854 104.352 
L 119.103295 106.816 
L 119.143619 100.656 
L 119.183943 105.584 
L 119.264591 100.656 
L 119.291474 103.12 
L 119.304915 106.816 
L 119.331798 101.888 
L 119.399005 105.584 
L 119.493094 100.656 
L 119.506535 105.584 
L 119.587183 106.816 
L 119.600625 101.888 
L 119.721597 108.048 
L 119.788804 100.656 
L 119.842569 103.12 
L 119.882893 108.048 
L 119.896334 101.888 
L 119.963541 105.584 
L 120.044189 101.888 
L 120.030748 106.816 
L 120.071072 104.352 
L 120.15172 106.816 
L 120.192044 101.888 
L 120.218927 105.584 
L 120.259251 100.656 
L 120.299575 104.352 
L 120.339899 99.424 
L 120.380223 109.28 
L 120.393664 106.816 
L 120.514636 101.888 
L 120.595284 105.584 
L 120.581843 100.656 
L 120.622167 103.12 
L 120.716256 108.048 
L 120.64905 100.656 
L 120.729698 103.12 
L 120.743139 101.888 
L 120.75658 104.352 
L 120.783463 104.352 
L 120.864111 101.888 
L 120.890994 109.28 
L 121.011966 100.656 
L 121.038849 108.048 
L 121.132938 105.584 
L 121.186703 100.656 
L 121.213586 106.816 
L 121.227027 101.888 
L 121.240469 109.28 
L 121.321117 100.656 
L 121.334558 104.352 
L 121.415206 100.656 
L 121.374882 105.584 
L 121.45553 103.12 
L 121.509296 108.048 
L 121.522737 101.888 
L 121.576502 104.352 
L 121.589944 100.656 
L 121.603385 110.512 
L 121.684033 104.352 
L 121.710916 100.656 
L 121.75124 106.816 
L 121.764681 104.352 
L 121.778123 106.816 
L 121.805005 101.888 
L 121.858771 103.12 
L 121.872212 103.12 
L 121.95286 106.816 
L 121.912536 101.888 
L 121.966301 101.888 
L 121.979743 101.888 
L 122.033508 103.12 
L 122.060391 100.656 
L 122.114156 108.048 
L 122.167922 103.12 
L 122.181363 103.12 
L 122.24857 106.816 
L 122.262011 101.888 
L 122.275452 105.584 
L 122.302335 100.656 
L 122.369542 101.888 
L 122.382983 101.888 
L 122.396424 108.048 
L 122.423307 99.424 
L 122.490514 101.888 
L 122.503955 101.888 
L 122.557721 109.28 
L 122.611486 105.584 
L 122.692134 106.816 
L 122.719017 101.888 
L 122.813106 108.048 
L 122.786223 100.656 
L 122.839989 104.352 
L 122.920637 101.888 
L 122.880313 106.816 
L 122.94752 104.352 
L 122.960961 104.352 
L 123.001285 100.656 
L 123.014726 106.816 
L 123.05505 103.12 
L 123.095374 108.048 
L 123.122257 101.888 
L 123.14914 104.352 
L 123.243229 99.424 
L 123.202905 105.584 
L 123.25667 101.888 
L 123.310436 105.584 
L 123.364201 103.12 
L 123.431408 100.656 
L 123.391084 104.352 
L 123.471732 103.12 
L 123.485173 108.048 
L 123.498615 101.888 
L 123.579263 104.352 
L 123.592704 104.352 
L 123.659911 106.816 
L 123.646469 101.888 
L 123.686793 103.12 
L 123.754 101.888 
L 123.713676 104.352 
L 123.767442 104.352 
L 123.834648 106.816 
L 123.794324 103.12 
L 123.84809 105.584 
L 123.901855 101.888 
L 123.915296 108.048 
L 123.95562 104.352 
L 124.022827 112.976 
L 123.982503 103.12 
L 124.036268 104.352 
L 124.076592 109.28 
L 124.170682 99.424 
L 124.197565 108.048 
L 124.291654 105.584 
L 124.358861 100.656 
L 124.318537 106.816 
L 124.426067 103.12 
L 124.506715 111.744 
L 124.520157 100.656 
L 124.547039 106.816 
L 124.65457 100.656 
L 124.668012 104.352 
L 124.694894 106.816 
L 124.721777 101.888 
L 124.775542 105.584 
L 124.802425 103.12 
L 124.842749 106.816 
L 124.85619 104.352 
L 124.869632 108.048 
L 124.95028 100.656 
L 124.963721 106.816 
L 125.084693 101.888 
L 125.098135 108.048 
L 125.138459 99.424 
L 125.192224 103.12 
L 125.205665 103.12 
L 125.232548 106.816 
L 125.245989 101.888 
L 125.286313 103.12 
L 125.35352 100.656 
L 125.313196 108.048 
L 125.380403 103.12 
L 125.434168 109.28 
L 125.420727 101.888 
L 125.501375 104.352 
L 125.55514 106.816 
L 125.608906 100.656 
L 125.716436 110.512 
L 125.729878 105.584 
L 125.75676 106.816 
L 125.837409 101.888 
L 125.931498 105.584 
L 125.904615 100.656 
L 125.944939 104.352 
L 126.012146 101.888 
L 125.971822 105.584 
L 126.05247 103.12 
L 126.065911 103.12 
L 126.079353 99.424 
L 126.160001 104.352 
L 126.173442 104.352 
L 126.200325 100.656 
L 126.240649 105.584 
L 126.267532 100.656 
L 126.280973 106.816 
L 126.361621 101.888 
L 126.45571 105.584 
L 126.469152 104.352 
L 126.522917 100.656 
L 126.509476 105.584 
L 126.563241 104.352 
L 126.576682 108.048 
L 126.590124 101.888 
L 126.657331 104.352 
L 126.75142 101.888 
L 126.818627 100.656 
L 126.872392 106.816 
L 126.885833 99.424 
L 126.979923 105.584 
L 127.020247 99.424 
L 127.060571 101.888 
L 127.074012 109.28 
L 127.168102 104.352 
L 127.181543 104.352 
L 127.194984 106.816 
L 127.24875 100.656 
L 127.289074 104.352 
L 127.342839 101.888 
L 127.329398 108.048 
L 127.369722 104.352 
L 127.436928 106.816 
L 127.423487 100.656 
L 127.477252 104.352 
L 127.531018 100.656 
L 127.504135 105.584 
L 127.584783 104.352 
L 127.638549 106.816 
L 127.665431 101.888 
L 127.678873 101.888 
L 127.759521 108.048 
L 127.786403 104.352 
L 127.799845 100.656 
L 127.880493 106.816 
L 127.893934 104.352 
L 127.907376 104.352 
L 127.988024 100.656 
L 128.001465 106.816 
L 128.108996 100.656 
L 128.122437 108.048 
L 128.216526 100.656 
L 128.310616 106.816 
L 128.337499 104.352 
L 128.391264 105.584 
L 128.445029 100.656 
L 128.471912 108.048 
L 128.566001 103.12 
L 128.592884 101.888 
L 128.673532 105.584 
L 128.700415 100.656 
L 128.781063 101.888 
L 128.834828 108.048 
L 128.821387 99.424 
L 128.888594 101.888 
L 129.009566 106.816 
L 129.103655 100.656 
L 129.036448 108.048 
L 129.117096 104.352 
L 129.157421 104.352 
L 129.170862 106.816 
L 129.184303 101.888 
L 129.25151 103.12 
L 129.264951 100.656 
L 129.291834 105.584 
L 129.345599 101.888 
L 129.385923 106.816 
L 129.399365 100.656 
L 129.45313 103.12 
L 129.506895 101.888 
L 129.520337 105.584 
L 129.547219 103.12 
L 129.574102 106.816 
L 129.600985 101.888 
L 129.641309 105.584 
L 129.695074 99.424 
L 129.74884 106.816 
L 129.762281 101.888 
L 129.789164 100.656 
L 129.883253 104.352 
L 129.95046 110.512 
L 130.004225 100.656 
L 130.125197 104.352 
L 130.178963 100.656 
L 130.15208 105.584 
L 130.219287 104.352 
L 130.259611 106.816 
L 130.286493 100.656 
L 130.313376 103.12 
L 130.340259 106.816 
L 130.407466 101.888 
L 130.501555 105.584 
L 130.514996 104.352 
L 130.541879 99.424 
L 130.662851 100.656 
L 130.716616 104.352 
L 130.770382 103.12 
L 130.783823 103.12 
L 130.824147 100.656 
L 130.864471 105.584 
L 130.904795 101.888 
L 130.998885 105.584 
L 130.972002 100.656 
L 131.025767 104.352 
L 131.039209 104.352 
L 131.079533 100.656 
L 131.066091 108.048 
L 131.160181 103.12 
L 131.227388 108.048 
L 131.240829 101.888 
L 131.25427 104.352 
L 131.267712 99.424 
L 131.321477 108.048 
L 131.361801 105.584 
L 131.442449 106.816 
L 131.469332 101.888 
L 131.496214 100.656 
L 131.590304 105.584 
L 131.697835 100.656 
L 131.630628 109.28 
L 131.711276 101.888 
L 131.738159 108.048 
L 131.818807 105.584 
L 131.872572 100.656 
L 131.926337 104.352 
L 131.939779 104.352 
L 132.006985 106.816 
L 131.980103 100.656 
L 132.033868 105.584 
L 132.114516 99.424 
L 132.087634 109.28 
L 132.141399 103.12 
L 132.208606 109.28 
L 132.181723 101.888 
L 132.262371 104.352 
L 132.289254 105.584 
L 132.383343 100.656 
L 132.463991 106.816 
L 132.490874 104.352 
L 132.598405 100.656 
L 132.558081 105.584 
L 132.611846 101.888 
L 132.65217 100.656 
L 132.719377 105.584 
L 132.773142 100.656 
L 132.759701 109.28 
L 132.826907 101.888 
L 132.907556 110.512 
L 132.920997 99.424 
L 132.934438 104.352 
L 133.015086 106.816 
L 133.041969 100.656 
L 133.05541 106.816 
L 133.1495 101.888 
L 133.203265 100.656 
L 133.270472 109.28 
L 133.35112 100.656 
L 133.391444 105.584 
L 133.485533 100.656 
L 133.472092 106.816 
L 133.512416 101.888 
L 133.579623 108.048 
L 133.593064 100.656 
L 133.619947 103.12 
L 133.633388 101.888 
L 133.660271 103.12 
L 133.673712 109.28 
L 133.727478 100.656 
L 133.75436 101.888 
L 133.808126 100.656 
L 133.821567 105.584 
L 133.835008 104.352 
L 133.84845 108.048 
L 133.902215 103.12 
L 133.942539 105.584 
L 134.05007 101.888 
L 134.103835 100.656 
L 134.157601 105.584 
L 134.238249 100.656 
L 134.184483 108.048 
L 134.278573 101.888 
L 134.332338 106.816 
L 134.372662 100.656 
L 134.386103 103.12 
L 134.466751 101.888 
L 134.439869 105.584 
L 134.493634 103.12 
L 134.560841 99.424 
L 134.614606 108.048 
L 134.65493 100.656 
L 134.74902 103.12 
L 134.816226 108.048 
L 134.843109 104.352 
L 134.85655 100.656 
L 134.896874 105.584 
L 134.95064 101.888 
L 135.044729 100.656 
L 135.058171 105.584 
L 135.111936 106.816 
L 135.179143 100.656 
L 135.232908 106.816 
L 135.300115 104.352 
L 135.394204 100.656 
L 135.340439 108.048 
L 135.407646 104.352 
L 135.434528 104.352 
L 135.44797 105.584 
L 135.461411 101.888 
L 135.528618 103.12 
L 135.622707 104.352 
L 135.636148 100.656 
L 135.75712 105.584 
L 135.864651 101.888 
L 135.784003 106.816 
L 135.878093 103.12 
L 135.958741 108.048 
L 135.972182 101.888 
L 135.985623 104.352 
L 135.999065 100.656 
L 136.025947 105.584 
L 136.093154 101.888 
L 136.160361 106.816 
L 136.146919 100.656 
L 136.200685 104.352 
L 136.214126 104.352 
L 136.241009 100.656 
L 136.321657 101.888 
L 136.34854 106.816 
L 136.429188 101.888 
L 136.442629 101.888 
L 136.45607 100.656 
L 136.469512 105.584 
L 136.523277 101.888 
L 136.617367 100.656 
L 136.657691 108.048 
L 136.738339 100.656 
L 136.778663 101.888 
L 136.845869 109.28 
L 136.818987 99.424 
L 136.886193 104.352 
L 136.899635 104.352 
L 136.913076 100.656 
L 136.966841 106.816 
L 136.993724 104.352 
L 137.020607 100.656 
L 137.087814 108.048 
L 137.181903 109.28 
L 137.208786 103.12 
L 137.235668 100.656 
L 137.262551 104.352 
L 137.302875 104.352 
L 137.316316 104.352 
L 137.437289 99.424 
L 137.517937 105.584 
L 137.558261 103.12 
L 137.598585 101.888 
L 137.585143 105.584 
L 137.665791 103.12 
L 137.773322 105.584 
L 137.692674 100.656 
L 137.786763 104.352 
L 137.880853 100.656 
L 137.907736 101.888 
L 137.94806 106.816 
L 137.974942 99.424 
L 137.988384 106.816 
L 138.082473 104.352 
L 138.109356 106.816 
L 138.190004 101.888 
L 138.203445 106.816 
L 138.216886 100.656 
L 138.310976 105.584 
L 138.405065 100.656 
L 138.337859 106.816 
L 138.445389 101.888 
L 138.593244 109.28 
L 138.633568 99.424 
L 138.727658 101.888 
L 138.741099 108.048 
L 138.835188 101.888 
L 138.942719 105.584 
L 138.95616 103.12 
L 138.983043 100.656 
L 139.05025 105.584 
L 139.063691 101.888 
L 139.077132 101.888 
L 139.117457 100.656 
L 139.211546 108.048 
L 139.25187 100.656 
L 139.332518 101.888 
L 139.386283 100.656 
L 139.426607 104.352 
L 139.440049 100.656 
L 139.520697 108.048 
L 139.534138 103.12 
L 139.628228 106.816 
L 139.587904 100.656 
L 139.641669 104.352 
L 139.681993 100.656 
L 139.668552 106.816 
L 139.7492 103.12 
L 139.843289 105.584 
L 139.816406 99.424 
L 139.85673 103.12 
L 139.870172 103.12 
L 139.95082 105.584 
L 139.923937 100.656 
L 139.964261 104.352 
L 140.044909 105.584 
L 140.085233 101.888 
L 140.138999 100.656 
L 140.125557 106.816 
L 140.15244 101.888 
L 140.179323 105.584 
L 140.259971 104.352 
L 140.327177 99.424 
L 140.313736 105.584 
L 140.367502 103.12 
L 140.434708 100.656 
L 140.461591 105.584 
L 140.569122 100.656 
L 140.582563 108.048 
L 140.676652 104.352 
L 140.690094 104.352 
L 140.811066 100.656 
L 140.891714 108.048 
L 140.918597 103.12 
L 140.999245 104.352 
L 140.945479 99.424 
L 141.012686 101.888 
L 141.026127 101.888 
L 141.120217 106.816 
L 141.227748 100.656 
L 141.321837 105.584 
L 141.335278 101.888 
L 141.34872 101.888 
L 141.389044 106.816 
L 141.375602 99.424 
L 141.469692 104.352 
L 141.523457 108.048 
L 141.577222 101.888 
L 141.671312 100.656 
L 141.684753 104.352 
L 141.725077 100.656 
L 141.778843 105.584 
L 141.792284 103.12 
L 141.805725 106.816 
L 141.872932 99.424 
L 141.899815 105.584 
L 141.913256 105.584 
L 141.95358 100.656 
L 141.980463 108.048 
L 142.020787 101.888 
L 142.087994 100.656 
L 142.141759 104.352 
L 142.195524 109.28 
L 142.262731 99.424 
L 142.35682 106.816 
L 142.383703 103.12 
L 142.397144 103.12 
L 142.424027 100.656 
L 142.45091 105.584 
L 142.504675 103.12 
L 142.598765 106.816 
L 142.544999 100.656 
L 142.612206 104.352 
L 142.639089 100.656 
L 142.692854 106.816 
L 142.733178 101.888 
L 142.760061 99.424 
L 142.867592 105.584 
L 142.961681 100.656 
L 142.907916 106.816 
L 142.975122 103.12 
L 142.988564 104.352 
L 143.015446 100.656 
L 143.042329 100.656 
L 143.05577 99.424 
L 143.069212 104.352 
L 143.122977 103.12 
L 143.14986 103.12 
L 143.243949 106.816 
L 143.176742 100.656 
L 143.257391 103.12 
L 143.270832 100.656 
L 143.338039 106.816 
L 143.364921 101.888 
L 143.391804 101.888 
L 143.472452 99.424 
L 143.512776 105.584 
L 143.566541 108.048 
L 143.620307 101.888 
L 143.647189 100.656 
L 143.714396 105.584 
L 143.835368 100.656 
L 143.929458 106.816 
L 143.95634 104.352 
L 143.996664 108.048 
L 144.05043 101.888 
L 144.090754 100.656 
L 144.171402 108.048 
L 144.292374 100.656 
L 144.413346 108.048 
L 144.426787 100.656 
L 144.520877 101.888 
L 144.534318 106.816 
L 144.561201 99.424 
L 144.628408 104.352 
L 144.722497 100.656 
L 144.735938 103.12 
L 144.830028 99.424 
L 144.789704 106.816 
L 144.843469 100.656 
L 144.951 106.816 
L 145.045089 100.656 
L 145.031648 108.048 
L 145.071972 101.888 
L 145.085413 105.584 
L 145.112296 99.424 
L 145.179503 101.888 
L 145.233268 105.584 
L 145.273592 104.352 
L 145.327358 99.424 
L 145.367682 104.352 
L 145.381123 111.744 
L 145.434888 100.656 
L 145.475212 105.584 
L 145.542419 99.424 
L 145.596184 101.888 
L 145.676832 100.656 
L 145.730598 106.816 
L 145.744039 99.424 
L 145.838129 103.12 
L 145.891894 100.656 
L 145.945659 106.816 
L 146.026307 99.424 
L 146.05319 105.584 
L 146.066631 105.584 
L 146.160721 99.424 
L 146.106955 106.816 
L 146.174162 103.12 
L 146.214486 100.656 
L 146.295134 104.352 
L 146.308576 99.424 
L 146.375782 105.584 
L 146.402665 104.352 
L 146.429548 99.424 
L 146.523637 101.888 
L 146.537078 101.888 
L 146.604285 105.584 
L 146.644609 104.352 
L 146.738699 99.424 
L 146.725257 105.584 
L 146.75214 100.656 
L 146.819347 104.352 
L 146.832788 99.424 
L 146.859671 101.888 
L 146.926877 104.352 
L 146.967201 100.656 
L 147.04785 106.816 
L 146.994084 99.424 
L 147.074732 104.352 
L 147.128498 106.816 
L 147.195704 99.424 
L 147.289794 105.584 
L 147.330118 104.352 
L 147.383883 105.584 
L 147.45109 99.424 
L 147.531738 108.048 
L 147.558621 104.352 
L 147.65271 99.424 
L 147.612386 105.584 
L 147.666151 103.12 
L 147.679593 104.352 
L 147.693034 99.424 
L 147.733358 103.12 
L 147.746799 99.424 
L 147.827448 103.12 
L 147.840889 105.584 
L 147.867772 99.424 
L 147.921537 101.888 
L 147.934978 101.888 
L 148.069392 99.424 
L 148.136598 99.424 
L 148.257571 105.584 
L 148.378543 99.424 
L 148.445749 106.816 
L 148.486073 104.352 
L 148.620487 101.888 
L 148.64737 101.888 
L 148.674252 108.048 
L 148.701135 100.656 
L 148.7549 101.888 
L 148.768342 101.888 
L 148.822107 105.584 
L 148.84899 100.656 
L 148.875872 104.352 
L 148.916196 100.656 
L 148.969962 106.816 
L 148.996844 101.888 
L 149.05061 100.656 
L 149.104375 105.584 
L 149.225347 99.424 
L 149.332878 104.352 
L 149.45385 99.424 
L 149.561381 99.424 
L 149.682353 104.352 
L 149.74956 99.424 
L 149.789884 103.12 
L 149.803325 103.12 
L 149.830208 100.656 
L 149.85709 105.584 
L 149.870532 108.048 
L 149.937739 100.656 
L 149.95118 103.12 
L 149.964621 100.656 
L 149.978063 105.584 
L 150.058711 101.888 
L 150.139359 104.352 
L 150.125917 100.656 
L 150.1528 100.656 
L 150.179683 100.656 
L 150.193124 105.584 
L 150.287213 104.352 
L 150.408186 100.656 
L 150.421627 100.656 
L 150.542599 106.816 
L 150.55604 100.656 
L 150.663571 101.888 
L 150.677012 101.888 
L 150.703895 104.352 
L 150.784543 100.656 
L 150.797985 105.584 
L 150.85175 99.424 
L 150.892074 99.424 
L 150.932398 99.424 
L 150.945839 106.816 
L 151.039929 99.424 
L 151.160901 99.424 
L 151.187784 100.656 
L 151.268432 99.424 
L 151.281873 99.424 
L 151.402845 103.12 
L 151.45661 104.352 
L 151.523817 99.424 
L 151.604465 99.424 
L 151.725437 104.352 
L 151.846409 99.424 
L 151.859851 99.424 
L 151.873292 100.656 
L 151.967382 99.424 
L 152.007706 99.424 
L 152.034588 104.352 
L 152.115236 99.424 
L 152.169002 99.424 
L 152.276532 106.816 
L 152.384063 99.424 
L 152.397505 104.352 
L 152.491594 101.888 
L 152.612566 99.424 
L 152.733538 99.424 
L 152.85451 101.888 
L 152.9486 103.12 
L 152.975482 99.424 
L 153.096454 99.424 
L 153.190544 105.584 
L 153.217427 104.352 
L 153.324957 99.424 
L 153.338399 100.656 
L 153.459371 99.424 
L 153.486253 99.424 
L 153.513136 101.888 
L 153.593784 99.424 
L 153.607225 99.424 
L 153.620667 103.12 
L 153.714756 100.656 
L 153.75508 104.352 
L 153.835728 99.424 
L 153.889494 99.424 
L 153.929818 104.352 
L 153.997024 99.424 
L 154.037349 99.424 
L 154.144879 104.352 
L 154.158321 100.656 
L 154.212086 104.352 
L 154.238969 99.424 
L 154.25241 108.048 
L 154.346499 99.424 
L 154.413706 99.424 
L 154.494354 104.352 
L 154.521237 99.424 
L 154.575002 99.424 
L 154.709416 104.352 
L 154.816946 99.424 
L 154.830388 100.656 
L 154.884153 99.424 
L 154.897595 104.352 
L 154.924477 101.888 
L 154.991684 106.816 
L 155.005125 99.424 
L 155.045449 99.424 
L 155.15298 105.584 
L 155.273952 99.424 
L 155.341159 99.424 
L 155.3546 101.888 
L 155.44869 99.424 
L 155.475572 99.424 
L 155.529338 105.584 
L 155.583103 99.424 
L 155.596544 99.424 
L 155.663751 103.12 
L 155.704075 99.424 
L 155.784723 99.424 
L 155.798165 103.12 
L 155.892254 99.424 
L 155.905695 99.424 
L 155.919137 103.12 
L 156.013226 99.424 
L 156.174522 99.424 
L 156.268612 103.12 
L 156.295494 100.656 
L 156.376142 101.888 
L 156.416466 99.424 
L 156.429908 99.424 
L 156.443349 104.352 
L 156.537439 99.424 
L 156.564321 99.424 
L 156.577763 103.12 
L 156.671852 101.888 
L 156.765941 99.424 
L 156.779383 104.352 
L 156.873472 99.424 
L 156.900355 99.424 
L 157.007886 105.584 
L 157.128858 99.424 
L 157.142299 99.424 
L 157.209506 104.352 
L 157.24983 99.424 
L 157.303595 99.424 
L 157.317036 104.352 
L 157.411126 101.888 
L 157.464891 104.352 
L 157.532098 99.424 
L 157.545539 99.424 
L 157.572422 104.352 
L 157.65307 99.424 
L 157.747159 99.424 
L 157.760601 104.352 
L 157.85469 99.424 
L 157.895014 99.424 
L 157.908456 101.888 
L 158.002545 99.424 
L 158.015986 99.424 
L 158.029428 105.584 
L 158.123517 101.888 
L 158.163841 104.352 
L 158.204165 99.424 
L 158.271372 105.584 
L 158.311696 99.424 
L 158.446109 99.424 
L 158.459551 105.584 
L 158.55364 99.424 
L 158.580523 99.424 
L 158.620847 103.12 
L 158.701495 101.888 
L 158.822467 99.424 
L 158.835908 99.424 
L 158.84935 100.656 
L 158.943439 99.424 
L 158.970322 99.424 
L 158.983763 105.584 
L 159.077853 103.12 
L 159.198825 99.424 
L 159.279473 99.424 
L 159.292914 101.888 
L 159.387003 100.656 
L 159.440769 99.424 
L 159.45421 105.584 
L 159.5483 99.424 
L 159.588624 99.424 
L 159.602065 103.12 
L 159.696154 99.424 
L 159.817126 99.424 
L 159.884333 104.352 
L 159.938099 101.888 
L 159.978423 104.352 
L 160.045629 99.424 
L 160.059071 105.584 
L 160.15316 99.424 
L 160.193484 99.424 
L 160.233808 104.352 
L 160.301015 99.424 
L 160.35478 99.424 
L 160.368222 105.584 
L 160.462311 101.888 
L 160.489194 100.656 
L 160.583283 104.352 
L 160.704255 100.656 
L 160.731138 104.352 
L 160.838669 103.12 
L 160.85211 103.12 
L 160.878993 106.816 
L 160.946199 100.656 
L 161.026847 104.352 
L 161.013406 99.424 
L 161.040289 100.656 
L 161.120937 99.424 
L 161.201585 104.352 
L 161.228468 99.424 
L 161.241909 99.424 
L 161.335998 104.352 
L 161.34944 99.424 
L 161.362881 99.424 
L 161.376322 104.352 
L 161.470412 99.424 
L 161.483853 99.424 
L 161.591384 100.656 
L 161.658591 101.888 
L 161.685473 99.424 
L 161.725797 104.352 
L 161.793004 99.424 
L 161.806445 99.424 
L 161.819887 103.12 
L 161.913976 99.424 
L 162.008066 99.424 
L 162.102155 104.352 
L 162.115596 100.656 
L 162.129038 100.656 
L 162.169362 103.12 
L 162.25001 99.424 
L 162.290334 99.424 
L 162.397865 104.352 
L 162.518837 99.424 
L 162.532278 99.424 
L 162.545719 104.352 
L 162.639809 99.424 
L 162.65325 99.424 
L 162.760781 104.352 
L 162.881753 99.424 
L 162.989284 99.424 
L 163.069932 105.584 
L 163.096814 99.424 
L 163.164021 99.424 
L 163.204345 104.352 
L 163.271552 99.424 
L 163.311876 99.424 
L 163.405965 103.12 
L 163.419407 99.424 
L 163.473172 99.424 
L 163.580703 101.888 
L 163.621027 103.12 
L 163.688234 99.424 
L 163.701675 101.888 
L 163.795764 99.424 
L 163.809206 99.424 
L 163.822647 104.352 
L 163.916736 100.656 
L 163.943619 104.352 
L 164.037709 99.424 
L 164.05115 104.352 
L 164.145239 99.424 
L 164.185563 99.424 
L 164.279653 103.12 
L 164.293094 99.424 
L 164.400625 103.12 
L 164.521597 99.424 
L 164.642569 106.816 
L 164.7501 99.424 
L 164.776982 104.352 
L 164.857631 99.424 
L 164.95172 99.424 
L 164.965161 103.12 
L 164.965161 103.12 
" clip-path="url(#pf1f11be85c)" style="fill: none; stroke: #792a8f; stroke-opacity: 0.2; stroke-linecap: round"/>
   </g>
   <g id="line2d_2">
    <path d="M 23.845161 99.424 
L 171.685161 99.424 
" clip-path="url(#pf1f11be85c)" style="fill: none; stroke-dasharray: 5.55,2.4; stroke-dashoffset: 0; stroke: #792a8f; stroke-width: 1.5"/>
   </g>
   <g id="line2d_3">
    <path d="M 37.272392 109.35392 
L 37.420247 109.430304 
L 37.635308 109.516544 
L 37.796604 109.597856 
L 38.979443 109.913248 
L 39.140739 109.94528 
L 39.85313 110.051232 
L 40.027868 110.090656 
L 40.699935 110.201536 
L 40.888114 110.186752 
L 41.076292 110.201536 
L 41.291354 110.199072 
L 41.466091 110.248352 
L 41.694594 110.258208 
L 41.94998 110.238496 
L 42.084393 110.201536 
L 42.716136 110.208928 
L 43.495734 110.169504 
L 44.087153 110.378944 
L 44.597925 110.309952 
L 44.907075 110.305024 
L 46.116796 110.194144 
L 46.264651 110.186752 
L 49.060451 110.078336 
L 49.221747 110.085728 
L 49.557781 110.038912 
L 50.081993 110.053696 
L 50.202965 110.029056 
L 51.009446 109.849184 
L 51.224507 109.844256 
L 52.259491 109.57568 
L 52.44767 109.622496 
L 52.797144 109.691488 
L 53.133178 109.642208 
L 53.630508 109.578144 
L 54.531078 109.521472 
L 54.678933 109.499296 
L 54.840229 109.528864 
L 55.14938 109.5264 
L 59.35652 109.422912 
L 59.598465 109.373632 
L 59.773202 109.368704 
L 60.499035 109.334208 
L 60.714096 109.383488 
L 60.888834 109.356384 
L 61.54746 109.250432 
L 61.802845 109.191296 
L 62.528678 109.348992 
L 62.75718 109.28 
L 63.429248 109.176512 
L 63.55022 109.183904 
L 63.819047 109.137088 
L 63.993784 109.10752 
L 64.840589 109.055776 
L 65.122857 109.092736 
L 66.520757 108.94736 
L 68.106835 108.843872 
L 68.375662 108.777344 
L 68.644489 108.769952 
L 68.778903 108.740384 
L 69.128378 108.634432 
L 69.329998 108.617184 
L 69.881093 108.62704 
L 70.082713 108.617184 
L 70.378423 108.575296 
L 70.687574 108.572832 
L 70.862311 108.580224 
L 71.225227 108.5408 
L 71.386523 108.550656 
L 71.574702 108.506304 
L 71.85697 108.434848 
L 72.031708 108.420064 
L 72.219887 108.388032 
L 72.367742 108.40528 
L 72.381183 108.390496 
L 74.65277 108.077568 
L 74.827508 108.089888 
L 77.690514 107.464032 
L 78.013106 107.266912 
L 78.134078 107.202848 
L 78.833028 106.941664 
L 79.04809 106.870208 
L 79.437889 106.71744 
L 79.65295 106.650912 
L 80.204045 106.382336 
L 80.983643 106.0768 
L 81.225587 106.057088 
L 81.790124 105.778656 
L 83.161141 105.418912 
L 83.362761 105.3376 
L 84.061711 105.192224 
L 84.397745 105.20208 
L 84.65313 105.216864 
L 84.800985 105.258752 
L 86.024147 105.138016 
L 86.185443 105.101056 
L 86.682773 105.083808 
L 86.884393 105.056704 
L 87.072572 105.036992 
L 88.040349 104.926112 
L 88.95436 104.864512 
L 89.169422 104.842336 
L 89.357601 104.797984 
L 91.400685 104.687104 
L 92.220607 104.64768 
L 92.381903 104.613184 
L 92.691054 104.662464 
L 93.134618 104.70928 
L 93.376562 104.726528 
L 93.605065 104.761024 
L 93.779803 104.768416 
L 94.04863 104.748704 
L 94.559401 104.743776 
L 94.707255 104.790592 
L 94.868552 104.785664 
L 97.328318 104.677248 
L 97.610586 104.687104 
L 97.785323 104.67232 
L 97.946619 104.664928 
L 98.632128 104.679712 
L 100.823067 104.578688 
L 100.997805 104.558976 
L 105.446889 104.448096 
L 106.065191 104.443168 
L 106.374342 104.445632 
L 106.629728 104.428384 
L 113.14878 104.319968 
L 113.444489 104.317504 
L 113.619227 104.312576 
L 114.076232 104.258368 
L 114.358501 104.199232 
L 114.963361 104.196768 
L 115.299395 104.206624 
L 115.635428 104.194304 
L 115.958021 104.194304 
L 116.132758 104.189376 
L 116.34782 104.218944 
L 116.75106 104.186912 
L 117.261831 104.177056 
L 117.490334 104.140096 
L 117.65163 104.137632 
L 117.826367 104.137632 
L 118.498435 104.152416 
L 118.700055 104.140096 
L 122.490514 104.029216 
L 123.189464 103.999648 
L 123.35076 103.999648 
L 126.401945 103.891232 
L 126.791744 103.861664 
L 127.342839 103.851808 
L 128.028348 103.829632 
L 128.229968 103.819776 
L 131.54998 103.713824 
L 131.7516 103.696576 
L 139.964261 103.590624 
L 140.300295 103.524096 
L 140.461591 103.509312 
L 143.042329 103.398432 
L 143.230508 103.393504 
L 143.391804 103.37872 
L 143.714396 103.381184 
L 143.929458 103.331904 
L 144.399905 103.35408 
L 144.54776 103.363936 
L 144.937559 103.336832 
L 145.098855 103.336832 
L 145.408006 103.285088 
L 145.569302 103.25552 
L 145.784363 103.253056 
L 146.026307 103.233344 
L 146.281693 103.213632 
L 147.236028 103.105216 
L 147.585503 103.038688 
L 147.814006 103.006656 
L 148.136598 102.900704 
L 148.566721 102.784896 
L 148.996844 102.752864 
L 149.615146 102.531104 
L 149.803325 102.481824 
L 150.179683 102.449792 
L 150.327538 102.439936 
L 150.582923 102.420224 
L 151.389404 102.094976 
L 151.617907 102.028448 
L 154.884153 100.93936 
L 155.126097 100.98864 
L 156.362701 100.653536 
L 156.55088 100.611648 
L 156.994444 100.42192 
L 157.222947 100.352928 
L 158.257931 100.264224 
L 158.405785 100.254368 
L 160.798345 100.365248 
L 161.604825 100.4096 
L 161.873652 100.343072 
L 164.965161 100.387424 
L 164.965161 100.387424 
" clip-path="url(#pf1f11be85c)" style="fill: none; stroke: #792a8f; stroke-width: 1.5; stroke-linecap: round"/>
   </g>
   <g id="patch_3">
    <path d="M 23.845161 170.88 
L 23.845161 23.04 
" style="fill: none; stroke: #262626; stroke-linejoin: miter; stroke-linecap: square"/>
   </g>
   <g id="patch_4">
    <path d="M 171.685161 170.88 
L 171.685161 23.04 
" style="fill: none; stroke: #262626; stroke-linejoin: miter; stroke-linecap: square"/>
   </g>
   <g id="patch_5">
    <path d="M 23.845161 170.88 
L 171.685161 170.88 
" style="fill: none; stroke: #262626; stroke-linejoin: miter; stroke-linecap: square"/>
   </g>
   <g id="patch_6">
    <path d="M 23.845161 23.04 
L 171.685161 23.04 
" style="fill: none; stroke: #262626; stroke-linejoin: miter; stroke-linecap: square"/>
   </g>
   <g id="text_14">
    <!-- -0.02 -->
    <g style="fill: #792a8f" transform="translate(30.565161 96.221687) scale(0.1 -0.1)">
     <defs>
      <path id="HelveticaNeue-2d" d="M 320 2035 
L 320 1523 
L 2170 1523 
L 2170 2035 
L 320 2035 
z
" transform="scale(0.015625)"/>
     </defs>
     <use xlink:href="#HelveticaNeue-2d"/>
     <use xlink:href="#HelveticaNeue-30" x="38.899994"/>
     <use xlink:href="#HelveticaNeue-2e" x="94.499985"/>
     <use xlink:href="#HelveticaNeue-30" x="122.299973"/>
     <use xlink:href="#HelveticaNeue-32" x="177.899963"/>
    </g>
   </g>
   <g id="legend_1">
    <g id="patch_7">
     <path d="M 30.421099 232.577625 
L 165.109224 232.577625 
L 165.109224 204.848 
L 30.421099 204.848 
z
" style="fill: #ffffff; stroke: #bebebe; stroke-width: 0.8; stroke-linejoin: miter"/>
    </g>
    <g id="line2d_4">
     <path style="fill: none; stroke-dasharray: 5.55,2.4; stroke-dashoffset: 0; stroke: #792a8f; stroke-width: 1.5"/>
    </g>
    <g id="text_15">
     <!-- Max Value Episode -->
     <g style="fill: #262626" transform="translate(58.581099 214.65175) scale(0.088 -0.088)">
      <defs>
       <path id="HelveticaNeue-4d" d="M 512 4570 
L 512 0 
L 1088 0 
L 1088 3802 
L 1101 3802 
L 2528 0 
L 3046 0 
L 4474 3802 
L 4486 3802 
L 4486 0 
L 5062 0 
L 5062 4570 
L 4230 4570 
L 2784 730 
L 1344 4570 
L 512 4570 
z
" transform="scale(0.015625)"/>
       <path id="HelveticaNeue-78" d="M 1299 1741 
L 58 0 
L 717 0 
L 1638 1370 
L 2560 0 
L 3258 0 
L 1978 1786 
L 3117 3309 
L 2464 3309 
L 1638 2150 
L 845 3309 
L 147 3309 
L 1299 1741 
z
" transform="scale(0.015625)"/>
       <path id="HelveticaNeue-56" d="M 2298 0 
L 3923 4570 
L 3290 4570 
L 1971 608 
L 1958 608 
L 653 4570 
L 0 4570 
L 1606 0 
L 2298 0 
z
" transform="scale(0.015625)"/>
       <path id="HelveticaNeue-6c" d="M 442 4570 
L 442 0 
L 986 0 
L 986 4570 
L 442 4570 
z
" transform="scale(0.015625)"/>
       <path id="HelveticaNeue-75" d="M 3149 0 
L 3149 3309 
L 2605 3309 
L 2605 1440 
Q 2605 1216 2544 1027 
Q 2483 838 2361 697 
Q 2240 557 2057 480 
Q 1875 403 1626 403 
Q 1312 403 1133 582 
Q 954 762 954 1069 
L 954 3309 
L 410 3309 
L 410 1133 
Q 410 864 464 643 
Q 518 422 652 262 
Q 787 102 1004 16 
Q 1222 -70 1549 -70 
Q 1914 -70 2182 74 
Q 2451 218 2624 525 
L 2637 525 
L 2637 0 
L 3149 0 
z
" transform="scale(0.015625)"/>
      </defs>
      <use xlink:href="#HelveticaNeue-4d"/>
      <use xlink:href="#HelveticaNeue-61" x="87.099991"/>
      <use xlink:href="#HelveticaNeue-78" x="140.799988"/>
      <use xlink:href="#HelveticaNeue-20" x="192.599976"/>
      <use xlink:href="#HelveticaNeue-56" x="220.399963"/>
      <use xlink:href="#HelveticaNeue-61" x="275.999954"/>
      <use xlink:href="#HelveticaNeue-6c" x="329.699951"/>
      <use xlink:href="#HelveticaNeue-75" x="351.899948"/>
      <use xlink:href="#HelveticaNeue-65" x="407.499939"/>
      <use xlink:href="#HelveticaNeue-20" x="461.199936"/>
      <use xlink:href="#HelveticaNeue-45" x="488.999924"/>
      <use xlink:href="#HelveticaNeue-70" x="550.099915"/>
      <use xlink:href="#HelveticaNeue-69" x="609.399902"/>
      <use xlink:href="#HelveticaNeue-73" x="631.599899"/>
      <use xlink:href="#HelveticaNeue-6f" x="681.599884"/>
      <use xlink:href="#HelveticaNeue-64" x="738.999878"/>
      <use xlink:href="#HelveticaNeue-65" x="798.299866"/>
     </g>
    </g>
    <g id="line2d_5">
     <path style="fill: none; stroke: #792a8f; stroke-width: 1.5; stroke-linecap: round"/>
    </g>
    <g id="text_16">
     <!-- Rolling Average (500 Eps.) -->
     <g style="fill: #262626" transform="translate(58.581099 227.217875) scale(0.088 -0.088)">
      <defs>
       <path id="HelveticaNeue-6e" d="M 410 3309 
L 410 0 
L 954 0 
L 954 1869 
Q 954 2093 1014 2281 
Q 1075 2470 1196 2611 
Q 1318 2752 1500 2829 
Q 1683 2906 1933 2906 
Q 2246 2906 2425 2726 
Q 2605 2547 2605 2240 
L 2605 0 
L 3149 0 
L 3149 2176 
Q 3149 2445 3094 2665 
Q 3040 2886 2905 3046 
Q 2771 3206 2553 3296 
Q 2336 3386 2010 3386 
Q 1274 3386 934 2784 
L 922 2784 
L 922 3309 
L 410 3309 
z
" transform="scale(0.015625)"/>
       <path id="HelveticaNeue-67" d="M 3264 282 
L 3264 3309 
L 2752 3309 
L 2752 2835 
L 2746 2835 
Q 2598 3110 2336 3248 
Q 2074 3386 1760 3386 
Q 1331 3386 1036 3222 
Q 742 3059 563 2806 
Q 384 2554 307 2243 
Q 230 1933 230 1638 
Q 230 1299 323 995 
Q 416 691 601 464 
Q 787 237 1062 102 
Q 1338 -32 1709 -32 
Q 2029 -32 2313 112 
Q 2598 256 2739 563 
L 2752 563 
L 2752 346 
Q 2752 70 2697 -160 
Q 2643 -390 2521 -553 
Q 2400 -717 2214 -809 
Q 2029 -902 1760 -902 
Q 1626 -902 1478 -873 
Q 1331 -845 1206 -781 
Q 1082 -717 995 -614 
Q 909 -512 902 -365 
L 358 -365 
Q 371 -634 499 -819 
Q 627 -1005 822 -1120 
Q 1018 -1235 1258 -1286 
Q 1498 -1338 1728 -1338 
Q 2522 -1338 2893 -934 
Q 3264 -531 3264 282 
z
M 1741 442 
Q 1472 442 1293 554 
Q 1114 666 1005 848 
Q 896 1030 851 1254 
Q 806 1478 806 1702 
Q 806 1939 860 2156 
Q 915 2374 1033 2540 
Q 1152 2707 1337 2806 
Q 1523 2906 1786 2906 
Q 2042 2906 2221 2803 
Q 2400 2701 2512 2531 
Q 2624 2362 2675 2150 
Q 2726 1939 2726 1722 
Q 2726 1491 2672 1260 
Q 2618 1030 2502 848 
Q 2387 666 2198 554 
Q 2010 442 1741 442 
z
" transform="scale(0.015625)"/>
       <path id="HelveticaNeue-41" d="M 1286 1888 
L 2061 4019 
L 2074 4019 
L 2835 1888 
L 1286 1888 
z
M 1741 4570 
L -38 0 
L 582 0 
L 1094 1376 
L 3027 1376 
L 3526 0 
L 4198 0 
L 2413 4570 
L 1741 4570 
z
" transform="scale(0.015625)"/>
       <path id="HelveticaNeue-76" d="M 1901 0 
L 3110 3309 
L 2541 3309 
L 1638 550 
L 1626 550 
L 698 3309 
L 90 3309 
L 1318 0 
L 1901 0 
z
" transform="scale(0.015625)"/>
       <path id="HelveticaNeue-28" d="M 1306 -1261 
L 1722 -1261 
Q 1267 -525 1072 198 
Q 877 922 877 1728 
Q 877 2515 1069 3232 
Q 1261 3949 1722 4678 
L 1306 4678 
Q 806 4019 553 3251 
Q 301 2483 301 1728 
Q 301 1306 371 922 
Q 442 538 573 173 
Q 704 -192 889 -547 
Q 1075 -902 1306 -1261 
z
" transform="scale(0.015625)"/>
       <path id="HelveticaNeue-29" d="M -58 -1261 
L 352 -1261 
Q 851 -602 1104 163 
Q 1357 928 1357 1683 
Q 1357 2106 1286 2490 
Q 1216 2874 1085 3242 
Q 954 3610 768 3965 
Q 582 4320 352 4678 
L -58 4678 
Q 390 3942 585 3216 
Q 781 2490 781 1683 
Q 781 902 589 182 
Q 397 -538 -58 -1261 
z
" transform="scale(0.015625)"/>
      </defs>
      <use xlink:href="#HelveticaNeue-52"/>
      <use xlink:href="#HelveticaNeue-6f" x="68.499985"/>
      <use xlink:href="#HelveticaNeue-6c" x="125.899979"/>
      <use xlink:href="#HelveticaNeue-6c" x="148.099976"/>
      <use xlink:href="#HelveticaNeue-69" x="170.299973"/>
      <use xlink:href="#HelveticaNeue-6e" x="192.499969"/>
      <use xlink:href="#HelveticaNeue-67" x="248.09996"/>
      <use xlink:href="#HelveticaNeue-20" x="305.499954"/>
      <use xlink:href="#HelveticaNeue-41" x="333.299942"/>
      <use xlink:href="#HelveticaNeue-76" x="396.34993"/>
      <use xlink:href="#HelveticaNeue-65" x="446.349915"/>
      <use xlink:href="#HelveticaNeue-72" x="500.049911"/>
      <use xlink:href="#HelveticaNeue-61" x="533.349899"/>
      <use xlink:href="#HelveticaNeue-67" x="587.049896"/>
      <use xlink:href="#HelveticaNeue-65" x="644.44989"/>
      <use xlink:href="#HelveticaNeue-20" x="698.149887"/>
      <use xlink:href="#HelveticaNeue-28" x="725.949875"/>
      <use xlink:href="#HelveticaNeue-35" x="751.849869"/>
      <use xlink:href="#HelveticaNeue-30" x="807.44986"/>
      <use xlink:href="#HelveticaNeue-30" x="863.04985"/>
      <use xlink:href="#HelveticaNeue-20" x="918.649841"/>
      <use xlink:href="#HelveticaNeue-45" x="946.449829"/>
      <use xlink:href="#HelveticaNeue-70" x="1007.54982"/>
      <use xlink:href="#HelveticaNeue-73" x="1066.849808"/>
      <use xlink:href="#HelveticaNeue-2e" x="1116.849792"/>
      <use xlink:href="#HelveticaNeue-29" x="1144.64978"/>
     </g>
    </g>
   </g>
  </g>
 </g>
 <defs>
  <clipPath id="pf1f11be85c">
   <rect x="23.845161" y="23.04" width="147.84" height="147.84"/>
  </clipPath>
 </defs>
</svg>
