<?xml version="1.0" encoding="utf-8" standalone="no"?>
<!DOCTYPE svg PUBLIC "-//W3C//DTD SVG 1.1//EN"
  "http://www.w3.org/Graphics/SVG/1.1/DTD/svg11.dtd">
<svg xmlns:xlink="http://www.w3.org/1999/xlink" width="1080pt" height="360pt" viewBox="0 0 1080 360" xmlns="http://www.w3.org/2000/svg" version="1.1">
 <metadata>
  <rdf:RDF xmlns:dc="http://purl.org/dc/elements/1.1/" xmlns:cc="http://creativecommons.org/ns#" xmlns:rdf="http://www.w3.org/1999/02/22-rdf-syntax-ns#">
   <cc:Work>
    <dc:type rdf:resource="http://purl.org/dc/dcmitype/StillImage"/>
    <dc:date>2023-03-31T02:32:54.145972</dc:date>
    <dc:format>image/svg+xml</dc:format>
    <dc:creator>
     <cc:Agent>
      <dc:title>Matplotlib v3.7.0, https://matplotlib.org/</dc:title>
     </cc:Agent>
    </dc:creator>
   </cc:Work>
  </rdf:RDF>
 </metadata>
 <defs>
  <style type="text/css">*{stroke-linejoin: round; stroke-linecap: butt}</style>
 </defs>
 <g id="figure_1">
  <g id="patch_1">
   <path d="M 0 360 
L 1080 360 
L 1080 0 
L 0 0 
z
" style="fill: #ffffff"/>
  </g>
  <g id="axes_1">
   <g id="patch_2">
    <path d="M 135 320.4 
L 381.176471 320.4 
L 381.176471 43.2 
L 135 43.2 
z
" style="fill: #ffffff"/>
   </g>
   <g id="matplotlib.axis_1">
    <g id="xtick_1">
     <g id="text_1">
      <!-- −100 -->
      <g style="fill: #262626" transform="translate(122.612109 337.773594) scale(0.11 -0.11)">
       <defs>
        <path id="ArialMT-2212" d="M 3381 1997 
L 356 1997 
L 356 2522 
L 3381 2522 
L 3381 1997 
z
" transform="scale(0.015625)"/>
        <path id="ArialMT-31" d="M 2384 0 
L 1822 0 
L 1822 3584 
Q 1619 3391 1289 3197 
Q 959 3003 697 2906 
L 697 3450 
Q 1169 3672 1522 3987 
Q 1875 4303 2022 4600 
L 2384 4600 
L 2384 0 
z
" transform="scale(0.015625)"/>
        <path id="ArialMT-30" d="M 266 2259 
Q 266 3072 433 3567 
Q 600 4063 929 4331 
Q 1259 4600 1759 4600 
Q 2128 4600 2406 4451 
Q 2684 4303 2865 4023 
Q 3047 3744 3150 3342 
Q 3253 2941 3253 2259 
Q 3253 1453 3087 958 
Q 2922 463 2592 192 
Q 2263 -78 1759 -78 
Q 1097 -78 719 397 
Q 266 969 266 2259 
z
M 844 2259 
Q 844 1131 1108 757 
Q 1372 384 1759 384 
Q 2147 384 2411 759 
Q 2675 1134 2675 2259 
Q 2675 3391 2411 3762 
Q 2147 4134 1753 4134 
Q 1366 4134 1134 3806 
Q 844 3388 844 2259 
z
" transform="scale(0.015625)"/>
       </defs>
       <use xlink:href="#ArialMT-2212"/>
       <use xlink:href="#ArialMT-31" x="58.398438"/>
       <use xlink:href="#ArialMT-30" x="114.013672"/>
       <use xlink:href="#ArialMT-30" x="169.628906"/>
      </g>
     </g>
    </g>
    <g id="xtick_2">
     <g id="text_2">
      <!-- −50 -->
      <g style="fill: #262626" transform="translate(187.214743 337.773594) scale(0.11 -0.11)">
       <defs>
        <path id="ArialMT-35" d="M 266 1200 
L 856 1250 
Q 922 819 1161 601 
Q 1400 384 1738 384 
Q 2144 384 2425 690 
Q 2706 997 2706 1503 
Q 2706 1984 2436 2262 
Q 2166 2541 1728 2541 
Q 1456 2541 1237 2417 
Q 1019 2294 894 2097 
L 366 2166 
L 809 4519 
L 3088 4519 
L 3088 3981 
L 1259 3981 
L 1013 2750 
Q 1425 3038 1878 3038 
Q 2478 3038 2890 2622 
Q 3303 2206 3303 1553 
Q 3303 931 2941 478 
Q 2500 -78 1738 -78 
Q 1113 -78 717 272 
Q 322 622 266 1200 
z
" transform="scale(0.015625)"/>
       </defs>
       <use xlink:href="#ArialMT-2212"/>
       <use xlink:href="#ArialMT-35" x="58.398438"/>
       <use xlink:href="#ArialMT-30" x="114.013672"/>
      </g>
     </g>
    </g>
    <g id="xtick_3">
     <g id="text_3">
      <!-- 0 -->
      <g style="fill: #262626" transform="translate(255.02972 337.773594) scale(0.11 -0.11)">
       <use xlink:href="#ArialMT-30"/>
      </g>
     </g>
    </g>
    <g id="xtick_4">
     <g id="text_4">
      <!-- 50 -->
      <g style="fill: #262626" transform="translate(313.515322 337.773594) scale(0.11 -0.11)">
       <use xlink:href="#ArialMT-35"/>
       <use xlink:href="#ArialMT-30" x="55.615234"/>
      </g>
     </g>
    </g>
    <g id="xtick_5">
     <g id="text_5">
      <!-- 100 -->
      <g style="fill: #262626" transform="translate(372.000924 337.773594) scale(0.11 -0.11)">
       <use xlink:href="#ArialMT-31"/>
       <use xlink:href="#ArialMT-30" x="55.615234"/>
       <use xlink:href="#ArialMT-30" x="111.230469"/>
      </g>
     </g>
    </g>
    <g id="text_6">
     <!-- a* -->
     <g style="fill: #262626" transform="translate(252.41636 352.549219) scale(0.12 -0.12)">
      <defs>
       <path id="ArialMT-61" d="M 2588 409 
Q 2275 144 1986 34 
Q 1697 -75 1366 -75 
Q 819 -75 525 192 
Q 231 459 231 875 
Q 231 1119 342 1320 
Q 453 1522 633 1644 
Q 813 1766 1038 1828 
Q 1203 1872 1538 1913 
Q 2219 1994 2541 2106 
Q 2544 2222 2544 2253 
Q 2544 2597 2384 2738 
Q 2169 2928 1744 2928 
Q 1347 2928 1158 2789 
Q 969 2650 878 2297 
L 328 2372 
Q 403 2725 575 2942 
Q 747 3159 1072 3276 
Q 1397 3394 1825 3394 
Q 2250 3394 2515 3294 
Q 2781 3194 2906 3042 
Q 3031 2891 3081 2659 
Q 3109 2516 3109 2141 
L 3109 1391 
Q 3109 606 3145 398 
Q 3181 191 3288 0 
L 2700 0 
Q 2613 175 2588 409 
z
M 2541 1666 
Q 2234 1541 1622 1453 
Q 1275 1403 1131 1340 
Q 988 1278 909 1158 
Q 831 1038 831 891 
Q 831 666 1001 516 
Q 1172 366 1500 366 
Q 1825 366 2078 508 
Q 2331 650 2450 897 
Q 2541 1088 2541 1459 
L 2541 1666 
z
" transform="scale(0.015625)"/>
       <path id="ArialMT-2a" d="M 200 3741 
L 344 4184 
Q 841 4009 1066 3881 
Q 1006 4447 1003 4659 
L 1456 4659 
Q 1447 4350 1384 3884 
Q 1706 4047 2122 4184 
L 2266 3741 
Q 1869 3609 1488 3566 
Q 1678 3400 2025 2975 
L 1650 2709 
Q 1469 2956 1222 3381 
Q 991 2941 816 2709 
L 447 2975 
Q 809 3422 966 3566 
Q 563 3644 200 3741 
z
" transform="scale(0.015625)"/>
      </defs>
      <use xlink:href="#ArialMT-61"/>
      <use xlink:href="#ArialMT-2a" x="55.615234"/>
     </g>
    </g>
   </g>
   <g id="matplotlib.axis_2">
    <g id="ytick_1">
     <g id="text_7">
      <!-- −100 -->
      <g style="fill: #262626" transform="translate(100.724219 324.336797) scale(0.11 -0.11)">
       <use xlink:href="#ArialMT-2212"/>
       <use xlink:href="#ArialMT-31" x="58.398438"/>
       <use xlink:href="#ArialMT-30" x="114.013672"/>
       <use xlink:href="#ArialMT-30" x="169.628906"/>
      </g>
     </g>
    </g>
    <g id="ytick_2">
     <g id="text_8">
      <!-- −75 -->
      <g style="fill: #262626" transform="translate(106.84125 289.686797) scale(0.11 -0.11)">
       <defs>
        <path id="ArialMT-37" d="M 303 3981 
L 303 4522 
L 3269 4522 
L 3269 4084 
Q 2831 3619 2401 2847 
Q 1972 2075 1738 1259 
Q 1569 684 1522 0 
L 944 0 
Q 953 541 1156 1306 
Q 1359 2072 1739 2783 
Q 2119 3494 2547 3981 
L 303 3981 
z
" transform="scale(0.015625)"/>
       </defs>
       <use xlink:href="#ArialMT-2212"/>
       <use xlink:href="#ArialMT-37" x="58.398438"/>
       <use xlink:href="#ArialMT-35" x="114.013672"/>
      </g>
     </g>
    </g>
    <g id="ytick_3">
     <g id="text_9">
      <!-- −50 -->
      <g style="fill: #262626" transform="translate(106.84125 255.036797) scale(0.11 -0.11)">
       <use xlink:href="#ArialMT-2212"/>
       <use xlink:href="#ArialMT-35" x="58.398438"/>
       <use xlink:href="#ArialMT-30" x="114.013672"/>
      </g>
     </g>
    </g>
    <g id="ytick_4">
     <g id="text_10">
      <!-- −25 -->
      <g style="fill: #262626" transform="translate(106.84125 220.386797) scale(0.11 -0.11)">
       <defs>
        <path id="ArialMT-32" d="M 3222 541 
L 3222 0 
L 194 0 
Q 188 203 259 391 
Q 375 700 629 1000 
Q 884 1300 1366 1694 
Q 2113 2306 2375 2664 
Q 2638 3022 2638 3341 
Q 2638 3675 2398 3904 
Q 2159 4134 1775 4134 
Q 1369 4134 1125 3890 
Q 881 3647 878 3216 
L 300 3275 
Q 359 3922 746 4261 
Q 1134 4600 1788 4600 
Q 2447 4600 2831 4234 
Q 3216 3869 3216 3328 
Q 3216 3053 3103 2787 
Q 2991 2522 2730 2228 
Q 2469 1934 1863 1422 
Q 1356 997 1212 845 
Q 1069 694 975 541 
L 3222 541 
z
" transform="scale(0.015625)"/>
       </defs>
       <use xlink:href="#ArialMT-2212"/>
       <use xlink:href="#ArialMT-32" x="58.398438"/>
       <use xlink:href="#ArialMT-35" x="114.013672"/>
      </g>
     </g>
    </g>
    <g id="ytick_5">
     <g id="text_11">
      <!-- 0 -->
      <g style="fill: #262626" transform="translate(119.382969 185.736797) scale(0.11 -0.11)">
       <use xlink:href="#ArialMT-30"/>
      </g>
     </g>
    </g>
    <g id="ytick_6">
     <g id="text_12">
      <!-- 25 -->
      <g style="fill: #262626" transform="translate(113.265938 151.086797) scale(0.11 -0.11)">
       <use xlink:href="#ArialMT-32"/>
       <use xlink:href="#ArialMT-35" x="55.615234"/>
      </g>
     </g>
    </g>
    <g id="ytick_7">
     <g id="text_13">
      <!-- 50 -->
      <g style="fill: #262626" transform="translate(113.265938 116.436797) scale(0.11 -0.11)">
       <use xlink:href="#ArialMT-35"/>
       <use xlink:href="#ArialMT-30" x="55.615234"/>
      </g>
     </g>
    </g>
    <g id="ytick_8">
     <g id="text_14">
      <!-- 75 -->
      <g style="fill: #262626" transform="translate(113.265938 81.786797) scale(0.11 -0.11)">
       <use xlink:href="#ArialMT-37"/>
       <use xlink:href="#ArialMT-35" x="55.615234"/>
      </g>
     </g>
    </g>
    <g id="ytick_9">
     <g id="text_15">
      <!-- 100 -->
      <g style="fill: #262626" transform="translate(107.148906 47.136797) scale(0.11 -0.11)">
       <use xlink:href="#ArialMT-31"/>
       <use xlink:href="#ArialMT-30" x="55.615234"/>
       <use xlink:href="#ArialMT-30" x="111.230469"/>
      </g>
     </g>
    </g>
    <g id="text_16">
     <!-- b* -->
     <g style="fill: #262626" transform="translate(94.339219 187.471875) rotate(-90) scale(0.12 -0.12)">
      <defs>
       <path id="ArialMT-62" d="M 941 0 
L 419 0 
L 419 4581 
L 981 4581 
L 981 2947 
Q 1338 3394 1891 3394 
Q 2197 3394 2470 3270 
Q 2744 3147 2920 2923 
Q 3097 2700 3197 2384 
Q 3297 2069 3297 1709 
Q 3297 856 2875 390 
Q 2453 -75 1863 -75 
Q 1275 -75 941 416 
L 941 0 
z
M 934 1684 
Q 934 1088 1097 822 
Q 1363 388 1816 388 
Q 2184 388 2453 708 
Q 2722 1028 2722 1663 
Q 2722 2313 2464 2622 
Q 2206 2931 1841 2931 
Q 1472 2931 1203 2611 
Q 934 2291 934 1684 
z
" transform="scale(0.015625)"/>
      </defs>
      <use xlink:href="#ArialMT-62"/>
      <use xlink:href="#ArialMT-2a" x="55.615234"/>
     </g>
    </g>
   </g>
   <g id="PathCollection_1">
    <defs>
     <path id="C0_0_1c3f09b004" d="M 0 3 
C 0.795609 3 1.55874 2.683901 2.12132 2.12132 
C 2.683901 1.55874 3 0.795609 3 -0 
C 3 -0.795609 2.683901 -1.55874 2.12132 -2.12132 
C 1.55874 -2.683901 0.795609 -3 0 -3 
C -0.795609 -3 -1.55874 -2.683901 -2.12132 -2.12132 
C -2.683901 -1.55874 -3 -0.795609 -3 0 
C -3 0.795609 -2.683901 1.55874 -2.12132 2.12132 
C -1.55874 2.683901 -0.795609 3 0 3 
z
"/>
    </defs>
    <g clip-path="url(#p6b6b256f31)">
     <use xlink:href="#C0_0_1c3f09b004" x="258.088235" y="181.8" style="fill: #ffffff; stroke: #ffffff"/>
    </g>
    <g clip-path="url(#p6b6b256f31)">
     <use xlink:href="#C0_0_1c3f09b004" x="180.476498" y="143.548891" style="fill: #06e893; stroke: #06e893"/>
    </g>
    <g clip-path="url(#p6b6b256f31)">
     <use xlink:href="#C0_0_1c3f09b004" x="196.743841" y="160.851581" style="fill: #4fdfa8; stroke: #4fdfa8"/>
    </g>
    <g clip-path="url(#p6b6b256f31)">
     <use xlink:href="#C0_0_1c3f09b004" x="198.453757" y="169.049877" style="fill: #2bc89e; stroke: #2bc89e"/>
    </g>
    <g clip-path="url(#p6b6b256f31)">
     <use xlink:href="#C0_0_1c3f09b004" x="214.081604" y="180.065887" style="fill: #45af9a; stroke: #45af9a"/>
    </g>
    <g clip-path="url(#p6b6b256f31)">
     <use xlink:href="#C0_0_1c3f09b004" x="220.978594" y="190.749073" style="fill: #2e928d; stroke: #2e928d"/>
    </g>
    <g clip-path="url(#p6b6b256f31)">
     <use xlink:href="#C0_0_1c3f09b004" x="242.027628" y="218.135468" style="fill: #2a6f92; stroke: #2a6f92"/>
    </g>
    <g clip-path="url(#p6b6b256f31)">
     <use xlink:href="#C0_0_1c3f09b004" x="249.562294" y="198.38618" style="fill: #46606f; stroke: #46606f"/>
    </g>
    <g clip-path="url(#p6b6b256f31)">
     <use xlink:href="#C0_0_1c3f09b004" x="257.908565" y="196.950332" style="fill: #464e5e; stroke: #464e5e"/>
    </g>
    <g clip-path="url(#p6b6b256f31)">
     <use xlink:href="#C0_0_1c3f09b004" x="258.088235" y="181.8" style="stroke: #000000"/>
    </g>
   </g>
   <g id="line2d_1">
    <path d="M 237.541384 171.654023 
L 220.035155 163.208379 
L 209.517264 158.350808 
L 202.32008 155.23592 
L 197.845005 153.486132 
L 194.887104 152.513118 
L 193.459898 152.153721 
L 192.13166 151.950798 
L 191.015963 152.014458 
L 190.360634 152.506503 
L 190.379246 153.460963 
L 190.925501 154.656787 
L 192.625702 157.158894 
L 195.085474 160.581411 
L 196.734239 163.34874 
L 198.83306 167.039359 
L 200.302737 169.035966 
L 202.192889 171.017343 
L 205.130155 173.618235 
L 212.132049 179.626941 
L 214.27628 181.809754 
L 216.080255 183.935864 
L 218.474183 187.160362 
L 227.353479 199.702957 
L 230.074537 203.007004 
L 232.487473 205.596104 
L 234.534996 207.494537 
L 236.149507 208.755401 
L 237.842376 209.791479 
L 239.021541 210.2853 
L 240.241001 210.527288 
L 241.492673 210.43046 
L 242.749025 209.933598 
L 243.973552 209.027179 
L 245.134832 207.780713 
L 246.744007 205.548686 
L 249.219872 201.852586 
L 250.663958 200.172861 
L 252.376711 198.666364 
L 255.518591 196.130089 
L 256.226315 195.233422 
L 256.811835 194.104479 
L 257.265329 192.699258 
L 257.637204 190.772732 
L 257.751041 189.876399 
L 257.751041 189.876399 
" clip-path="url(#p6b6b256f31)" style="fill: none; stroke: #008000; stroke-width: 1.5; stroke-linecap: round"/>
   </g>
   <g id="patch_3">
    <path d="M 135 320.4 
L 135 43.2 
" style="fill: none; stroke: #262626; stroke-width: 1.25; stroke-linejoin: miter; stroke-linecap: square"/>
   </g>
   <g id="patch_4">
    <path d="M 381.176471 320.4 
L 381.176471 43.2 
" style="fill: none; stroke: #262626; stroke-width: 1.25; stroke-linejoin: miter; stroke-linecap: square"/>
   </g>
   <g id="patch_5">
    <path d="M 135 320.4 
L 381.176471 320.4 
" style="fill: none; stroke: #262626; stroke-width: 1.25; stroke-linejoin: miter; stroke-linecap: square"/>
   </g>
   <g id="patch_6">
    <path d="M 135 43.2 
L 381.176471 43.2 
" style="fill: none; stroke: #262626; stroke-width: 1.25; stroke-linejoin: miter; stroke-linecap: square"/>
   </g>
   <g id="text_17">
    <!-- Interpolated color ramp -->
    <g style="fill: #262626" transform="translate(196.394173 37.2) scale(0.12 -0.12)">
     <defs>
      <path id="ArialMT-49" d="M 597 0 
L 597 4581 
L 1203 4581 
L 1203 0 
L 597 0 
z
" transform="scale(0.015625)"/>
      <path id="ArialMT-6e" d="M 422 0 
L 422 3319 
L 928 3319 
L 928 2847 
Q 1294 3394 1984 3394 
Q 2284 3394 2536 3286 
Q 2788 3178 2913 3003 
Q 3038 2828 3088 2588 
Q 3119 2431 3119 2041 
L 3119 0 
L 2556 0 
L 2556 2019 
Q 2556 2363 2490 2533 
Q 2425 2703 2258 2804 
Q 2091 2906 1866 2906 
Q 1506 2906 1245 2678 
Q 984 2450 984 1813 
L 984 0 
L 422 0 
z
" transform="scale(0.015625)"/>
      <path id="ArialMT-74" d="M 1650 503 
L 1731 6 
Q 1494 -44 1306 -44 
Q 1000 -44 831 53 
Q 663 150 594 308 
Q 525 466 525 972 
L 525 2881 
L 113 2881 
L 113 3319 
L 525 3319 
L 525 4141 
L 1084 4478 
L 1084 3319 
L 1650 3319 
L 1650 2881 
L 1084 2881 
L 1084 941 
Q 1084 700 1114 631 
Q 1144 563 1211 522 
Q 1278 481 1403 481 
Q 1497 481 1650 503 
z
" transform="scale(0.015625)"/>
      <path id="ArialMT-65" d="M 2694 1069 
L 3275 997 
Q 3138 488 2766 206 
Q 2394 -75 1816 -75 
Q 1088 -75 661 373 
Q 234 822 234 1631 
Q 234 2469 665 2931 
Q 1097 3394 1784 3394 
Q 2450 3394 2872 2941 
Q 3294 2488 3294 1666 
Q 3294 1616 3291 1516 
L 816 1516 
Q 847 969 1125 678 
Q 1403 388 1819 388 
Q 2128 388 2347 550 
Q 2566 713 2694 1069 
z
M 847 1978 
L 2700 1978 
Q 2663 2397 2488 2606 
Q 2219 2931 1791 2931 
Q 1403 2931 1139 2672 
Q 875 2413 847 1978 
z
" transform="scale(0.015625)"/>
      <path id="ArialMT-72" d="M 416 0 
L 416 3319 
L 922 3319 
L 922 2816 
Q 1116 3169 1280 3281 
Q 1444 3394 1641 3394 
Q 1925 3394 2219 3213 
L 2025 2691 
Q 1819 2813 1613 2813 
Q 1428 2813 1281 2702 
Q 1134 2591 1072 2394 
Q 978 2094 978 1738 
L 978 0 
L 416 0 
z
" transform="scale(0.015625)"/>
      <path id="ArialMT-70" d="M 422 -1272 
L 422 3319 
L 934 3319 
L 934 2888 
Q 1116 3141 1344 3267 
Q 1572 3394 1897 3394 
Q 2322 3394 2647 3175 
Q 2972 2956 3137 2557 
Q 3303 2159 3303 1684 
Q 3303 1175 3120 767 
Q 2938 359 2589 142 
Q 2241 -75 1856 -75 
Q 1575 -75 1351 44 
Q 1128 163 984 344 
L 984 -1272 
L 422 -1272 
z
M 931 1641 
Q 931 1000 1190 694 
Q 1450 388 1819 388 
Q 2194 388 2461 705 
Q 2728 1022 2728 1688 
Q 2728 2322 2467 2637 
Q 2206 2953 1844 2953 
Q 1484 2953 1207 2617 
Q 931 2281 931 1641 
z
" transform="scale(0.015625)"/>
      <path id="ArialMT-6f" d="M 213 1659 
Q 213 2581 725 3025 
Q 1153 3394 1769 3394 
Q 2453 3394 2887 2945 
Q 3322 2497 3322 1706 
Q 3322 1066 3130 698 
Q 2938 331 2570 128 
Q 2203 -75 1769 -75 
Q 1072 -75 642 372 
Q 213 819 213 1659 
z
M 791 1659 
Q 791 1022 1069 705 
Q 1347 388 1769 388 
Q 2188 388 2466 706 
Q 2744 1025 2744 1678 
Q 2744 2294 2464 2611 
Q 2184 2928 1769 2928 
Q 1347 2928 1069 2612 
Q 791 2297 791 1659 
z
" transform="scale(0.015625)"/>
      <path id="ArialMT-6c" d="M 409 0 
L 409 4581 
L 972 4581 
L 972 0 
L 409 0 
z
" transform="scale(0.015625)"/>
      <path id="ArialMT-64" d="M 2575 0 
L 2575 419 
Q 2259 -75 1647 -75 
Q 1250 -75 917 144 
Q 584 363 401 755 
Q 219 1147 219 1656 
Q 219 2153 384 2558 
Q 550 2963 881 3178 
Q 1213 3394 1622 3394 
Q 1922 3394 2156 3267 
Q 2391 3141 2538 2938 
L 2538 4581 
L 3097 4581 
L 3097 0 
L 2575 0 
z
M 797 1656 
Q 797 1019 1065 703 
Q 1334 388 1700 388 
Q 2069 388 2326 689 
Q 2584 991 2584 1609 
Q 2584 2291 2321 2609 
Q 2059 2928 1675 2928 
Q 1300 2928 1048 2622 
Q 797 2316 797 1656 
z
" transform="scale(0.015625)"/>
      <path id="ArialMT-20" transform="scale(0.015625)"/>
      <path id="ArialMT-63" d="M 2588 1216 
L 3141 1144 
Q 3050 572 2676 248 
Q 2303 -75 1759 -75 
Q 1078 -75 664 370 
Q 250 816 250 1647 
Q 250 2184 428 2587 
Q 606 2991 970 3192 
Q 1334 3394 1763 3394 
Q 2303 3394 2647 3120 
Q 2991 2847 3088 2344 
L 2541 2259 
Q 2463 2594 2264 2762 
Q 2066 2931 1784 2931 
Q 1359 2931 1093 2626 
Q 828 2322 828 1663 
Q 828 994 1084 691 
Q 1341 388 1753 388 
Q 2084 388 2306 591 
Q 2528 794 2588 1216 
z
" transform="scale(0.015625)"/>
      <path id="ArialMT-6d" d="M 422 0 
L 422 3319 
L 925 3319 
L 925 2853 
Q 1081 3097 1340 3245 
Q 1600 3394 1931 3394 
Q 2300 3394 2536 3241 
Q 2772 3088 2869 2813 
Q 3263 3394 3894 3394 
Q 4388 3394 4653 3120 
Q 4919 2847 4919 2278 
L 4919 0 
L 4359 0 
L 4359 2091 
Q 4359 2428 4304 2576 
Q 4250 2725 4106 2815 
Q 3963 2906 3769 2906 
Q 3419 2906 3187 2673 
Q 2956 2441 2956 1928 
L 2956 0 
L 2394 0 
L 2394 2156 
Q 2394 2531 2256 2718 
Q 2119 2906 1806 2906 
Q 1569 2906 1367 2781 
Q 1166 2656 1075 2415 
Q 984 2175 984 1722 
L 984 0 
L 422 0 
z
" transform="scale(0.015625)"/>
     </defs>
     <use xlink:href="#ArialMT-49"/>
     <use xlink:href="#ArialMT-6e" x="27.783203"/>
     <use xlink:href="#ArialMT-74" x="83.398438"/>
     <use xlink:href="#ArialMT-65" x="111.181641"/>
     <use xlink:href="#ArialMT-72" x="166.796875"/>
     <use xlink:href="#ArialMT-70" x="200.097656"/>
     <use xlink:href="#ArialMT-6f" x="255.712891"/>
     <use xlink:href="#ArialMT-6c" x="311.328125"/>
     <use xlink:href="#ArialMT-61" x="333.544922"/>
     <use xlink:href="#ArialMT-74" x="389.160156"/>
     <use xlink:href="#ArialMT-65" x="416.943359"/>
     <use xlink:href="#ArialMT-64" x="472.558594"/>
     <use xlink:href="#ArialMT-20" x="528.173828"/>
     <use xlink:href="#ArialMT-63" x="555.957031"/>
     <use xlink:href="#ArialMT-6f" x="605.957031"/>
     <use xlink:href="#ArialMT-6c" x="661.572266"/>
     <use xlink:href="#ArialMT-6f" x="683.789062"/>
     <use xlink:href="#ArialMT-72" x="739.404297"/>
     <use xlink:href="#ArialMT-20" x="772.705078"/>
     <use xlink:href="#ArialMT-72" x="800.488281"/>
     <use xlink:href="#ArialMT-61" x="833.789062"/>
     <use xlink:href="#ArialMT-6d" x="889.404297"/>
     <use xlink:href="#ArialMT-70" x="972.705078"/>
    </g>
   </g>
  </g>
  <g id="axes_2">
   <g id="patch_7">
    <path d="M 430.411765 124.729412 
L 676.588235 124.729412 
L 676.588235 43.2 
L 430.411765 43.2 
z
" style="fill: #ffffff"/>
   </g>
   <g id="matplotlib.axis_3">
    <g id="xtick_6">
     <g id="text_18">
      <!-- 0 -->
      <g style="fill: #262626" transform="translate(438.543089 142.103006) scale(0.11 -0.11)">
       <use xlink:href="#ArialMT-30"/>
      </g>
     </g>
    </g>
    <g id="xtick_7">
     <g id="text_19">
      <!-- 50 -->
      <g style="fill: #262626" transform="translate(491.155417 142.103006) scale(0.11 -0.11)">
       <use xlink:href="#ArialMT-35"/>
       <use xlink:href="#ArialMT-30" x="55.615234"/>
      </g>
     </g>
    </g>
    <g id="xtick_8">
     <g id="text_20">
      <!-- 100 -->
      <g style="fill: #262626" transform="translate(543.767745 142.103006) scale(0.11 -0.11)">
       <use xlink:href="#ArialMT-31"/>
       <use xlink:href="#ArialMT-30" x="55.615234"/>
       <use xlink:href="#ArialMT-30" x="111.230469"/>
      </g>
     </g>
    </g>
    <g id="xtick_9">
     <g id="text_21">
      <!-- 150 -->
      <g style="fill: #262626" transform="translate(599.438588 142.103006) scale(0.11 -0.11)">
       <use xlink:href="#ArialMT-31"/>
       <use xlink:href="#ArialMT-35" x="55.615234"/>
       <use xlink:href="#ArialMT-30" x="111.230469"/>
      </g>
     </g>
    </g>
    <g id="xtick_10">
     <g id="text_22">
      <!-- 200 -->
      <g style="fill: #262626" transform="translate(655.109432 142.103006) scale(0.11 -0.11)">
       <use xlink:href="#ArialMT-32"/>
       <use xlink:href="#ArialMT-30" x="55.615234"/>
       <use xlink:href="#ArialMT-30" x="111.230469"/>
      </g>
     </g>
    </g>
    <g id="text_23">
     <!-- Point -->
     <g style="fill: #262626" transform="translate(539.824687 156.878631) scale(0.12 -0.12)">
      <defs>
       <path id="ArialMT-50" d="M 494 0 
L 494 4581 
L 2222 4581 
Q 2678 4581 2919 4538 
Q 3256 4481 3484 4323 
Q 3713 4166 3852 3881 
Q 3991 3597 3991 3256 
Q 3991 2672 3619 2267 
Q 3247 1863 2275 1863 
L 1100 1863 
L 1100 0 
L 494 0 
z
M 1100 2403 
L 2284 2403 
Q 2872 2403 3119 2622 
Q 3366 2841 3366 3238 
Q 3366 3525 3220 3729 
Q 3075 3934 2838 4000 
Q 2684 4041 2272 4041 
L 1100 4041 
L 1100 2403 
z
" transform="scale(0.015625)"/>
       <path id="ArialMT-69" d="M 425 3934 
L 425 4581 
L 988 4581 
L 988 3934 
L 425 3934 
z
M 425 0 
L 425 3319 
L 988 3319 
L 988 0 
L 425 0 
z
" transform="scale(0.015625)"/>
      </defs>
      <use xlink:href="#ArialMT-50"/>
      <use xlink:href="#ArialMT-6f" x="66.699219"/>
      <use xlink:href="#ArialMT-69" x="122.314453"/>
      <use xlink:href="#ArialMT-6e" x="144.53125"/>
      <use xlink:href="#ArialMT-74" x="200.146484"/>
     </g>
    </g>
   </g>
   <g id="matplotlib.axis_4">
    <g id="ytick_10">
     <g id="text_24">
      <!-- 0 -->
      <g style="fill: #262626" transform="translate(414.794733 128.666209) scale(0.11 -0.11)">
       <use xlink:href="#ArialMT-30"/>
      </g>
     </g>
    </g>
    <g id="ytick_11">
     <g id="text_25">
      <!-- 50 -->
      <g style="fill: #262626" transform="translate(408.677702 87.901503) scale(0.11 -0.11)">
       <use xlink:href="#ArialMT-35"/>
       <use xlink:href="#ArialMT-30" x="55.615234"/>
      </g>
     </g>
    </g>
    <g id="ytick_12">
     <g id="text_26">
      <!-- 100 -->
      <g style="fill: #262626" transform="translate(402.560671 47.136797) scale(0.11 -0.11)">
       <use xlink:href="#ArialMT-31"/>
       <use xlink:href="#ArialMT-30" x="55.615234"/>
       <use xlink:href="#ArialMT-30" x="111.230469"/>
      </g>
     </g>
    </g>
    <g id="text_27">
     <!-- L* value -->
     <g style="fill: #262626" transform="translate(396.175671 105.646268) rotate(-90) scale(0.12 -0.12)">
      <defs>
       <path id="ArialMT-4c" d="M 469 0 
L 469 4581 
L 1075 4581 
L 1075 541 
L 3331 541 
L 3331 0 
L 469 0 
z
" transform="scale(0.015625)"/>
       <path id="ArialMT-76" d="M 1344 0 
L 81 3319 
L 675 3319 
L 1388 1331 
Q 1503 1009 1600 663 
Q 1675 925 1809 1294 
L 2547 3319 
L 3125 3319 
L 1869 0 
L 1344 0 
z
" transform="scale(0.015625)"/>
       <path id="ArialMT-75" d="M 2597 0 
L 2597 488 
Q 2209 -75 1544 -75 
Q 1250 -75 995 37 
Q 741 150 617 320 
Q 494 491 444 738 
Q 409 903 409 1263 
L 409 3319 
L 972 3319 
L 972 1478 
Q 972 1038 1006 884 
Q 1059 663 1231 536 
Q 1403 409 1656 409 
Q 1909 409 2131 539 
Q 2353 669 2445 892 
Q 2538 1116 2538 1541 
L 2538 3319 
L 3100 3319 
L 3100 0 
L 2597 0 
z
" transform="scale(0.015625)"/>
      </defs>
      <use xlink:href="#ArialMT-4c"/>
      <use xlink:href="#ArialMT-2a" x="55.615234"/>
      <use xlink:href="#ArialMT-20" x="94.53125"/>
      <use xlink:href="#ArialMT-76" x="122.314453"/>
      <use xlink:href="#ArialMT-61" x="172.314453"/>
      <use xlink:href="#ArialMT-6c" x="227.929688"/>
      <use xlink:href="#ArialMT-75" x="250.146484"/>
      <use xlink:href="#ArialMT-65" x="305.761719"/>
     </g>
    </g>
   </g>
   <g id="line2d_2">
    <path d="M 441.601604 47.3163 
L 449.395522 48.591459 
L 456.076024 49.87858 
L 463.869942 51.615172 
L 471.66386 53.613718 
L 477.230944 55.244648 
L 481.684612 56.770258 
L 488.365113 59.321182 
L 492.81878 60.610424 
L 497.272448 62.286185 
L 508.406617 66.664546 
L 515.087118 68.941786 
L 536.242038 75.733284 
L 544.035957 77.997035 
L 550.716458 79.720516 
L 558.510376 81.494513 
L 571.871378 84.246003 
L 586.345798 87.2617 
L 593.026299 88.838731 
L 605.273885 91.873094 
L 614.18122 93.965243 
L 618.634887 95.248522 
L 623.088555 96.765735 
L 628.655639 98.91532 
L 635.33614 101.749198 
L 643.130058 105.300674 
L 653.15081 110.175075 
L 663.171562 115.357459 
L 665.398396 116.549482 
L 665.398396 116.549482 
" clip-path="url(#p23c7160413)" style="fill: none; stroke: #4c72b0; stroke-width: 1.5; stroke-linecap: round"/>
   </g>
   <g id="patch_8">
    <path d="M 430.411765 124.729412 
L 430.411765 43.2 
" style="fill: none; stroke: #262626; stroke-width: 1.25; stroke-linejoin: miter; stroke-linecap: square"/>
   </g>
   <g id="patch_9">
    <path d="M 676.588235 124.729412 
L 676.588235 43.2 
" style="fill: none; stroke: #262626; stroke-width: 1.25; stroke-linejoin: miter; stroke-linecap: square"/>
   </g>
   <g id="patch_10">
    <path d="M 430.411765 124.729412 
L 676.588235 124.729412 
" style="fill: none; stroke: #262626; stroke-width: 1.25; stroke-linejoin: miter; stroke-linecap: square"/>
   </g>
   <g id="patch_11">
    <path d="M 430.411765 43.2 
L 676.588235 43.2 
" style="fill: none; stroke: #262626; stroke-width: 1.25; stroke-linejoin: miter; stroke-linecap: square"/>
   </g>
   <g id="text_28">
    <!-- L* values -->
    <g style="fill: #262626" transform="translate(528.818437 37.2) scale(0.12 -0.12)">
     <defs>
      <path id="ArialMT-73" d="M 197 991 
L 753 1078 
Q 800 744 1014 566 
Q 1228 388 1613 388 
Q 2000 388 2187 545 
Q 2375 703 2375 916 
Q 2375 1106 2209 1216 
Q 2094 1291 1634 1406 
Q 1016 1563 777 1677 
Q 538 1791 414 1992 
Q 291 2194 291 2438 
Q 291 2659 392 2848 
Q 494 3038 669 3163 
Q 800 3259 1026 3326 
Q 1253 3394 1513 3394 
Q 1903 3394 2198 3281 
Q 2494 3169 2634 2976 
Q 2775 2784 2828 2463 
L 2278 2388 
Q 2241 2644 2061 2787 
Q 1881 2931 1553 2931 
Q 1166 2931 1000 2803 
Q 834 2675 834 2503 
Q 834 2394 903 2306 
Q 972 2216 1119 2156 
Q 1203 2125 1616 2013 
Q 2213 1853 2448 1751 
Q 2684 1650 2818 1456 
Q 2953 1263 2953 975 
Q 2953 694 2789 445 
Q 2625 197 2315 61 
Q 2006 -75 1616 -75 
Q 969 -75 630 194 
Q 291 463 197 991 
z
" transform="scale(0.015625)"/>
     </defs>
     <use xlink:href="#ArialMT-4c"/>
     <use xlink:href="#ArialMT-2a" x="55.615234"/>
     <use xlink:href="#ArialMT-20" x="94.53125"/>
     <use xlink:href="#ArialMT-76" x="122.314453"/>
     <use xlink:href="#ArialMT-61" x="172.314453"/>
     <use xlink:href="#ArialMT-6c" x="227.929688"/>
     <use xlink:href="#ArialMT-75" x="250.146484"/>
     <use xlink:href="#ArialMT-65" x="305.761719"/>
     <use xlink:href="#ArialMT-73" x="361.376953"/>
    </g>
   </g>
  </g>
  <g id="axes_3">
   <g id="patch_12">
    <path d="M 430.411765 222.564706 
L 676.588235 222.564706 
L 676.588235 141.035294 
L 430.411765 141.035294 
z
" style="fill: #ffffff"/>
   </g>
   <g id="matplotlib.axis_5">
    <g id="xtick_11">
     <g id="text_29">
      <!-- 0 -->
      <g style="fill: #262626" transform="translate(438.543089 239.9383) scale(0.11 -0.11)">
       <use xlink:href="#ArialMT-30"/>
      </g>
     </g>
    </g>
    <g id="xtick_12">
     <g id="text_30">
      <!-- 50 -->
      <g style="fill: #262626" transform="translate(491.155417 239.9383) scale(0.11 -0.11)">
       <use xlink:href="#ArialMT-35"/>
       <use xlink:href="#ArialMT-30" x="55.615234"/>
      </g>
     </g>
    </g>
    <g id="xtick_13">
     <g id="text_31">
      <!-- 100 -->
      <g style="fill: #262626" transform="translate(543.767745 239.9383) scale(0.11 -0.11)">
       <use xlink:href="#ArialMT-31"/>
       <use xlink:href="#ArialMT-30" x="55.615234"/>
       <use xlink:href="#ArialMT-30" x="111.230469"/>
      </g>
     </g>
    </g>
    <g id="xtick_14">
     <g id="text_32">
      <!-- 150 -->
      <g style="fill: #262626" transform="translate(599.438588 239.9383) scale(0.11 -0.11)">
       <use xlink:href="#ArialMT-31"/>
       <use xlink:href="#ArialMT-35" x="55.615234"/>
       <use xlink:href="#ArialMT-30" x="111.230469"/>
      </g>
     </g>
    </g>
    <g id="xtick_15">
     <g id="text_33">
      <!-- 200 -->
      <g style="fill: #262626" transform="translate(655.109432 239.9383) scale(0.11 -0.11)">
       <use xlink:href="#ArialMT-32"/>
       <use xlink:href="#ArialMT-30" x="55.615234"/>
       <use xlink:href="#ArialMT-30" x="111.230469"/>
      </g>
     </g>
    </g>
    <g id="text_34">
     <!-- Point -->
     <g style="fill: #262626" transform="translate(539.824687 254.713925) scale(0.12 -0.12)">
      <use xlink:href="#ArialMT-50"/>
      <use xlink:href="#ArialMT-6f" x="66.699219"/>
      <use xlink:href="#ArialMT-69" x="122.314453"/>
      <use xlink:href="#ArialMT-6e" x="144.53125"/>
      <use xlink:href="#ArialMT-74" x="200.146484"/>
     </g>
    </g>
   </g>
   <g id="matplotlib.axis_6">
    <g id="ytick_13">
     <g id="text_35">
      <!-- 0 -->
      <g style="fill: #262626" transform="translate(414.794733 226.501503) scale(0.11 -0.11)">
       <use xlink:href="#ArialMT-30"/>
      </g>
     </g>
    </g>
    <g id="ytick_14">
     <g id="text_36">
      <!-- 50 -->
      <g style="fill: #262626" transform="translate(408.677702 199.325032) scale(0.11 -0.11)">
       <use xlink:href="#ArialMT-35"/>
       <use xlink:href="#ArialMT-30" x="55.615234"/>
      </g>
     </g>
    </g>
    <g id="ytick_15">
     <g id="text_37">
      <!-- 100 -->
      <g style="fill: #262626" transform="translate(402.560671 172.148562) scale(0.11 -0.11)">
       <use xlink:href="#ArialMT-31"/>
       <use xlink:href="#ArialMT-30" x="55.615234"/>
       <use xlink:href="#ArialMT-30" x="111.230469"/>
      </g>
     </g>
    </g>
    <g id="ytick_16">
     <g id="text_38">
      <!-- 150 -->
      <g style="fill: #262626" transform="translate(402.560671 144.972091) scale(0.11 -0.11)">
       <use xlink:href="#ArialMT-31"/>
       <use xlink:href="#ArialMT-35" x="55.615234"/>
       <use xlink:href="#ArialMT-30" x="111.230469"/>
      </g>
     </g>
    </g>
    <g id="text_39">
     <!-- c* value -->
     <g style="fill: #262626" transform="translate(396.175671 203.145) rotate(-90) scale(0.12 -0.12)">
      <use xlink:href="#ArialMT-63"/>
      <use xlink:href="#ArialMT-2a" x="50"/>
      <use xlink:href="#ArialMT-20" x="88.916016"/>
      <use xlink:href="#ArialMT-76" x="116.699219"/>
      <use xlink:href="#ArialMT-61" x="166.699219"/>
      <use xlink:href="#ArialMT-6c" x="222.314453"/>
      <use xlink:href="#ArialMT-75" x="244.53125"/>
      <use xlink:href="#ArialMT-65" x="300.146484"/>
     </g>
    </g>
   </g>
   <g id="line2d_3">
    <path d="M 441.601604 212.657606 
L 447.168689 210.527192 
L 451.622356 208.619089 
L 457.18944 205.965709 
L 461.643108 203.650946 
L 467.210192 200.536354 
L 473.890694 196.517052 
L 481.684612 191.749069 
L 482.798029 191.175523 
L 483.911445 190.727033 
L 485.024862 190.527353 
L 486.138279 190.667356 
L 488.365113 191.553378 
L 491.705364 193.098017 
L 493.932197 193.900058 
L 497.272448 194.791062 
L 506.179783 196.862674 
L 510.63345 198.232281 
L 519.540785 201.05879 
L 523.994453 202.253623 
L 528.44812 203.218351 
L 534.015205 204.169198 
L 541.809123 205.224581 
L 550.716458 206.202248 
L 559.623793 206.975746 
L 569.644545 207.603119 
L 591.912882 208.816147 
L 595.253133 209.371773 
L 598.593383 210.20137 
L 603.047051 211.614671 
L 609.727552 213.779817 
L 613.067803 214.648868 
L 616.408053 215.30678 
L 620.861721 215.931683 
L 627.542222 216.571976 
L 642.016641 217.627337 
L 665.398396 219.393993 
L 665.398396 219.393993 
" clip-path="url(#p6ff41c507b)" style="fill: none; stroke: #4c72b0; stroke-width: 1.5; stroke-linecap: round"/>
   </g>
   <g id="patch_13">
    <path d="M 430.411765 222.564706 
L 430.411765 141.035294 
" style="fill: none; stroke: #262626; stroke-width: 1.25; stroke-linejoin: miter; stroke-linecap: square"/>
   </g>
   <g id="patch_14">
    <path d="M 676.588235 222.564706 
L 676.588235 141.035294 
" style="fill: none; stroke: #262626; stroke-width: 1.25; stroke-linejoin: miter; stroke-linecap: square"/>
   </g>
   <g id="patch_15">
    <path d="M 430.411765 222.564706 
L 676.588235 222.564706 
" style="fill: none; stroke: #262626; stroke-width: 1.25; stroke-linejoin: miter; stroke-linecap: square"/>
   </g>
   <g id="patch_16">
    <path d="M 430.411765 141.035294 
L 676.588235 141.035294 
" style="fill: none; stroke: #262626; stroke-width: 1.25; stroke-linejoin: miter; stroke-linecap: square"/>
   </g>
   <g id="text_40">
    <!-- c* values -->
    <g style="fill: #262626" transform="translate(529.155 135.035294) scale(0.12 -0.12)">
     <use xlink:href="#ArialMT-63"/>
     <use xlink:href="#ArialMT-2a" x="50"/>
     <use xlink:href="#ArialMT-20" x="88.916016"/>
     <use xlink:href="#ArialMT-76" x="116.699219"/>
     <use xlink:href="#ArialMT-61" x="166.699219"/>
     <use xlink:href="#ArialMT-6c" x="222.314453"/>
     <use xlink:href="#ArialMT-75" x="244.53125"/>
     <use xlink:href="#ArialMT-65" x="300.146484"/>
     <use xlink:href="#ArialMT-73" x="355.761719"/>
    </g>
   </g>
  </g>
  <g id="axes_4">
   <g id="patch_17">
    <path d="M 430.411765 320.4 
L 676.588235 320.4 
L 676.588235 238.870588 
L 430.411765 238.870588 
z
" style="fill: #ffffff"/>
   </g>
   <g id="matplotlib.axis_7">
    <g id="xtick_16">
     <g id="text_41">
      <!-- 0 -->
      <g style="fill: #262626" transform="translate(438.543089 337.773594) scale(0.11 -0.11)">
       <use xlink:href="#ArialMT-30"/>
      </g>
     </g>
    </g>
    <g id="xtick_17">
     <g id="text_42">
      <!-- 50 -->
      <g style="fill: #262626" transform="translate(491.155417 337.773594) scale(0.11 -0.11)">
       <use xlink:href="#ArialMT-35"/>
       <use xlink:href="#ArialMT-30" x="55.615234"/>
      </g>
     </g>
    </g>
    <g id="xtick_18">
     <g id="text_43">
      <!-- 100 -->
      <g style="fill: #262626" transform="translate(543.767745 337.773594) scale(0.11 -0.11)">
       <use xlink:href="#ArialMT-31"/>
       <use xlink:href="#ArialMT-30" x="55.615234"/>
       <use xlink:href="#ArialMT-30" x="111.230469"/>
      </g>
     </g>
    </g>
    <g id="xtick_19">
     <g id="text_44">
      <!-- 150 -->
      <g style="fill: #262626" transform="translate(599.438588 337.773594) scale(0.11 -0.11)">
       <use xlink:href="#ArialMT-31"/>
       <use xlink:href="#ArialMT-35" x="55.615234"/>
       <use xlink:href="#ArialMT-30" x="111.230469"/>
      </g>
     </g>
    </g>
    <g id="xtick_20">
     <g id="text_45">
      <!-- 200 -->
      <g style="fill: #262626" transform="translate(655.109432 337.773594) scale(0.11 -0.11)">
       <use xlink:href="#ArialMT-32"/>
       <use xlink:href="#ArialMT-30" x="55.615234"/>
       <use xlink:href="#ArialMT-30" x="111.230469"/>
      </g>
     </g>
    </g>
    <g id="text_46">
     <!-- Point -->
     <g style="fill: #262626" transform="translate(539.824687 352.549219) scale(0.12 -0.12)">
      <use xlink:href="#ArialMT-50"/>
      <use xlink:href="#ArialMT-6f" x="66.699219"/>
      <use xlink:href="#ArialMT-69" x="122.314453"/>
      <use xlink:href="#ArialMT-6e" x="144.53125"/>
      <use xlink:href="#ArialMT-74" x="200.146484"/>
     </g>
    </g>
   </g>
   <g id="matplotlib.axis_8">
    <g id="ytick_17">
     <g id="text_47">
      <!-- −2.5 -->
      <g style="fill: #262626" transform="translate(399.197077 316.011613) scale(0.11 -0.11)">
       <defs>
        <path id="ArialMT-2e" d="M 581 0 
L 581 641 
L 1222 641 
L 1222 0 
L 581 0 
z
" transform="scale(0.015625)"/>
       </defs>
       <use xlink:href="#ArialMT-2212"/>
       <use xlink:href="#ArialMT-32" x="58.398438"/>
       <use xlink:href="#ArialMT-2e" x="114.013672"/>
       <use xlink:href="#ArialMT-35" x="141.796875"/>
      </g>
     </g>
    </g>
    <g id="ytick_18">
     <g id="text_48">
      <!-- 0.0 -->
      <g style="fill: #262626" transform="translate(405.621765 283.572091) scale(0.11 -0.11)">
       <use xlink:href="#ArialMT-30"/>
       <use xlink:href="#ArialMT-2e" x="55.615234"/>
       <use xlink:href="#ArialMT-30" x="83.398438"/>
      </g>
     </g>
    </g>
    <g id="ytick_19">
     <g id="text_49">
      <!-- 2.5 -->
      <g style="fill: #262626" transform="translate(405.621765 251.132569) scale(0.11 -0.11)">
       <use xlink:href="#ArialMT-32"/>
       <use xlink:href="#ArialMT-2e" x="55.615234"/>
       <use xlink:href="#ArialMT-35" x="83.398438"/>
      </g>
     </g>
    </g>
    <g id="text_50">
     <!-- h* value -->
     <g style="fill: #262626" transform="translate(392.812077 301.316857) rotate(-90) scale(0.12 -0.12)">
      <defs>
       <path id="ArialMT-68" d="M 422 0 
L 422 4581 
L 984 4581 
L 984 2938 
Q 1378 3394 1978 3394 
Q 2347 3394 2619 3248 
Q 2891 3103 3008 2847 
Q 3125 2591 3125 2103 
L 3125 0 
L 2563 0 
L 2563 2103 
Q 2563 2525 2380 2717 
Q 2197 2909 1863 2909 
Q 1613 2909 1392 2779 
Q 1172 2650 1078 2428 
Q 984 2206 984 1816 
L 984 0 
L 422 0 
z
" transform="scale(0.015625)"/>
      </defs>
      <use xlink:href="#ArialMT-68"/>
      <use xlink:href="#ArialMT-2a" x="55.615234"/>
      <use xlink:href="#ArialMT-20" x="94.53125"/>
      <use xlink:href="#ArialMT-76" x="122.314453"/>
      <use xlink:href="#ArialMT-61" x="172.314453"/>
      <use xlink:href="#ArialMT-6c" x="227.929688"/>
      <use xlink:href="#ArialMT-75" x="250.146484"/>
      <use xlink:href="#ArialMT-65" x="305.761719"/>
     </g>
    </g>
   </g>
   <g id="line2d_4">
    <path d="M 441.601604 244.23319 
L 473.890694 244.078913 
L 481.684612 243.890317 
L 485.024862 243.629284 
L 498.385865 242.022528 
L 527.334703 239.007761 
L 528.44812 320.397435 
L 538.468872 319.0178 
L 547.376207 317.554686 
L 556.283542 315.850939 
L 567.417711 313.46978 
L 595.253133 307.333739 
L 599.7068 306.756514 
L 605.273885 306.353214 
L 609.727552 306.012958 
L 613.067803 305.558514 
L 619.748304 304.32158 
L 626.428805 303.19473 
L 631.99589 302.474392 
L 638.676391 301.838632 
L 646.470309 301.333967 
L 657.604478 300.858641 
L 665.398396 300.627218 
L 665.398396 300.627218 
" clip-path="url(#p6d00566d88)" style="fill: none; stroke: #4c72b0; stroke-width: 1.5; stroke-linecap: round"/>
   </g>
   <g id="patch_18">
    <path d="M 430.411765 320.4 
L 430.411765 238.870588 
" style="fill: none; stroke: #262626; stroke-width: 1.25; stroke-linejoin: miter; stroke-linecap: square"/>
   </g>
   <g id="patch_19">
    <path d="M 676.588235 320.4 
L 676.588235 238.870588 
" style="fill: none; stroke: #262626; stroke-width: 1.25; stroke-linejoin: miter; stroke-linecap: square"/>
   </g>
   <g id="patch_20">
    <path d="M 430.411765 320.4 
L 676.588235 320.4 
" style="fill: none; stroke: #262626; stroke-width: 1.25; stroke-linejoin: miter; stroke-linecap: square"/>
   </g>
   <g id="patch_21">
    <path d="M 430.411765 238.870588 
L 676.588235 238.870588 
" style="fill: none; stroke: #262626; stroke-width: 1.25; stroke-linejoin: miter; stroke-linecap: square"/>
   </g>
   <g id="text_51">
    <!-- h* values -->
    <g style="fill: #262626" transform="translate(528.818437 232.870588) scale(0.12 -0.12)">
     <use xlink:href="#ArialMT-68"/>
     <use xlink:href="#ArialMT-2a" x="55.615234"/>
     <use xlink:href="#ArialMT-20" x="94.53125"/>
     <use xlink:href="#ArialMT-76" x="122.314453"/>
     <use xlink:href="#ArialMT-61" x="172.314453"/>
     <use xlink:href="#ArialMT-6c" x="227.929688"/>
     <use xlink:href="#ArialMT-75" x="250.146484"/>
     <use xlink:href="#ArialMT-65" x="305.761719"/>
     <use xlink:href="#ArialMT-73" x="361.376953"/>
    </g>
   </g>
  </g>
  <g id="axes_5">
   <g id="patch_22">
    <path d="M 725.823529 320.4 
L 972 320.4 
L 972 43.2 
L 725.823529 43.2 
z
" style="fill: #ffffff"/>
   </g>
   <g id="matplotlib.axis_9">
    <g id="xtick_21">
     <g id="text_52">
      <!-- 0 -->
      <g style="fill: #262626" transform="translate(733.954853 337.773594) scale(0.11 -0.11)">
       <use xlink:href="#ArialMT-30"/>
      </g>
     </g>
    </g>
    <g id="xtick_22">
     <g id="text_53">
      <!-- 50 -->
      <g style="fill: #262626" transform="translate(786.845536 337.773594) scale(0.11 -0.11)">
       <use xlink:href="#ArialMT-35"/>
       <use xlink:href="#ArialMT-30" x="55.615234"/>
      </g>
     </g>
    </g>
    <g id="xtick_23">
     <g id="text_54">
      <!-- 100 -->
      <g style="fill: #262626" transform="translate(839.736218 337.773594) scale(0.11 -0.11)">
       <use xlink:href="#ArialMT-31"/>
       <use xlink:href="#ArialMT-30" x="55.615234"/>
       <use xlink:href="#ArialMT-30" x="111.230469"/>
      </g>
     </g>
    </g>
    <g id="xtick_24">
     <g id="text_55">
      <!-- 150 -->
      <g style="fill: #262626" transform="translate(895.685416 337.773594) scale(0.11 -0.11)">
       <use xlink:href="#ArialMT-31"/>
       <use xlink:href="#ArialMT-35" x="55.615234"/>
       <use xlink:href="#ArialMT-30" x="111.230469"/>
      </g>
     </g>
    </g>
    <g id="xtick_25">
     <g id="text_56">
      <!-- 200 -->
      <g style="fill: #262626" transform="translate(951.634614 337.773594) scale(0.11 -0.11)">
       <use xlink:href="#ArialMT-32"/>
       <use xlink:href="#ArialMT-30" x="55.615234"/>
       <use xlink:href="#ArialMT-30" x="111.230469"/>
      </g>
     </g>
    </g>
    <g id="text_57">
     <!-- Point -->
     <g style="fill: #262626" transform="translate(835.236452 352.549219) scale(0.12 -0.12)">
      <use xlink:href="#ArialMT-50"/>
      <use xlink:href="#ArialMT-6f" x="66.699219"/>
      <use xlink:href="#ArialMT-69" x="122.314453"/>
      <use xlink:href="#ArialMT-6e" x="144.53125"/>
      <use xlink:href="#ArialMT-74" x="200.146484"/>
     </g>
    </g>
   </g>
   <g id="matplotlib.axis_10">
    <g id="ytick_20">
     <g id="text_58">
      <!-- 0 -->
      <g style="fill: #262626" transform="translate(710.206498 324.336797) scale(0.11 -0.11)">
       <use xlink:href="#ArialMT-30"/>
      </g>
     </g>
    </g>
    <g id="ytick_21">
     <g id="text_59">
      <!-- 25 -->
      <g style="fill: #262626" transform="translate(704.089467 289.131931) scale(0.11 -0.11)">
       <use xlink:href="#ArialMT-32"/>
       <use xlink:href="#ArialMT-35" x="55.615234"/>
      </g>
     </g>
    </g>
    <g id="ytick_22">
     <g id="text_60">
      <!-- 50 -->
      <g style="fill: #262626" transform="translate(704.089467 253.927065) scale(0.11 -0.11)">
       <use xlink:href="#ArialMT-35"/>
       <use xlink:href="#ArialMT-30" x="55.615234"/>
      </g>
     </g>
    </g>
    <g id="ytick_23">
     <g id="text_61">
      <!-- 75 -->
      <g style="fill: #262626" transform="translate(704.089467 218.722199) scale(0.11 -0.11)">
       <use xlink:href="#ArialMT-37"/>
       <use xlink:href="#ArialMT-35" x="55.615234"/>
      </g>
     </g>
    </g>
    <g id="ytick_24">
     <g id="text_62">
      <!-- 100 -->
      <g style="fill: #262626" transform="translate(697.972436 183.517333) scale(0.11 -0.11)">
       <use xlink:href="#ArialMT-31"/>
       <use xlink:href="#ArialMT-30" x="55.615234"/>
       <use xlink:href="#ArialMT-30" x="111.230469"/>
      </g>
     </g>
    </g>
    <g id="ytick_25">
     <g id="text_63">
      <!-- 125 -->
      <g style="fill: #262626" transform="translate(697.972436 148.312467) scale(0.11 -0.11)">
       <use xlink:href="#ArialMT-31"/>
       <use xlink:href="#ArialMT-32" x="55.615234"/>
       <use xlink:href="#ArialMT-35" x="111.230469"/>
      </g>
     </g>
    </g>
    <g id="ytick_26">
     <g id="text_64">
      <!-- 150 -->
      <g style="fill: #262626" transform="translate(697.972436 113.107601) scale(0.11 -0.11)">
       <use xlink:href="#ArialMT-31"/>
       <use xlink:href="#ArialMT-35" x="55.615234"/>
       <use xlink:href="#ArialMT-30" x="111.230469"/>
      </g>
     </g>
    </g>
    <g id="ytick_27">
     <g id="text_65">
      <!-- 175 -->
      <g style="fill: #262626" transform="translate(697.972436 77.902735) scale(0.11 -0.11)">
       <use xlink:href="#ArialMT-31"/>
       <use xlink:href="#ArialMT-37" x="55.615234"/>
       <use xlink:href="#ArialMT-35" x="111.230469"/>
      </g>
     </g>
    </g>
    <g id="text_66">
     <!-- Distance -->
     <g style="fill: #262626" transform="translate(691.587436 205.142812) rotate(-90) scale(0.12 -0.12)">
      <defs>
       <path id="ArialMT-44" d="M 494 0 
L 494 4581 
L 2072 4581 
Q 2606 4581 2888 4516 
Q 3281 4425 3559 4188 
Q 3922 3881 4101 3404 
Q 4281 2928 4281 2316 
Q 4281 1794 4159 1391 
Q 4038 988 3847 723 
Q 3656 459 3429 307 
Q 3203 156 2883 78 
Q 2563 0 2147 0 
L 494 0 
z
M 1100 541 
L 2078 541 
Q 2531 541 2789 625 
Q 3047 709 3200 863 
Q 3416 1078 3536 1442 
Q 3656 1806 3656 2325 
Q 3656 3044 3420 3430 
Q 3184 3816 2847 3947 
Q 2603 4041 2063 4041 
L 1100 4041 
L 1100 541 
z
" transform="scale(0.015625)"/>
      </defs>
      <use xlink:href="#ArialMT-44"/>
      <use xlink:href="#ArialMT-69" x="72.216797"/>
      <use xlink:href="#ArialMT-73" x="94.433594"/>
      <use xlink:href="#ArialMT-74" x="144.433594"/>
      <use xlink:href="#ArialMT-61" x="172.216797"/>
      <use xlink:href="#ArialMT-6e" x="227.832031"/>
      <use xlink:href="#ArialMT-63" x="283.447266"/>
      <use xlink:href="#ArialMT-65" x="333.447266"/>
     </g>
    </g>
   </g>
   <g id="line2d_5">
    <path d="M 737.013369 182.879733 
L 738.132353 183.481538 
L 739.251337 187.559598 
L 740.370321 182.48204 
L 741.489305 184.303207 
L 742.608289 187.326773 
L 743.727273 181.8 
L 744.846257 186.089596 
L 745.965241 183.890507 
L 747.084225 184.48048 
L 748.203209 185.462164 
L 749.322193 183.57374 
L 750.441176 185.984548 
L 751.56016 183.240731 
L 752.679144 185.884479 
L 753.798128 183.389225 
L 754.917112 185.395473 
L 756.036096 183.994621 
L 757.15508 184.649875 
L 758.274064 185.087496 
L 759.393048 183.750703 
L 760.512032 185.488715 
L 761.631016 184.062884 
L 762.75 184.184 
L 763.868984 185.213452 
L 764.987968 184.736819 
L 766.106952 183.883052 
L 767.225936 184.408728 
L 768.34492 184.68558 
L 769.463904 184.741411 
L 772.820856 184.325514 
L 773.93984 184.745211 
L 775.058824 185.033053 
L 776.177807 184.649317 
L 777.296791 184.832262 
L 778.415775 184.649504 
L 779.534759 185.605156 
L 780.653743 185.444178 
L 781.772727 184.901602 
L 782.891711 184.539408 
L 785.129679 184.528959 
L 811.985294 184.451041 
L 813.104278 184.627873 
L 814.223262 184.508466 
L 816.46123 184.53887 
L 825.413102 184.591678 
L 826.532086 184.435062 
L 827.65107 184.59886 
L 828.770053 184.638465 
L 831.008021 184.434512 
L 834.364973 184.622055 
L 838.840909 184.550292 
L 845.554813 184.508791 
L 847.792781 184.310437 
L 848.911765 184.636317 
L 850.030749 184.717263 
L 853.387701 184.343226 
L 854.506684 184.568873 
L 855.625668 184.630796 
L 857.863636 184.432488 
L 860.101604 184.558041 
L 862.339572 184.508884 
L 863.458556 184.545328 
L 864.57754 184.455449 
L 867.934492 184.613463 
L 869.053476 184.357528 
L 871.291444 184.569077 
L 872.410428 184.725587 
L 874.648396 184.323191 
L 879.124332 184.61474 
L 881.362299 184.579256 
L 884.719251 184.382191 
L 885.838235 184.480358 
L 888.076203 184.949889 
L 889.195187 184.224935 
L 890.314171 184.875661 
L 891.433155 184.422514 
L 892.552139 184.785954 
L 893.671123 184.501635 
L 894.790107 184.611252 
L 905.979947 184.539409 
L 907.09893 184.656696 
L 909.336898 184.577846 
L 911.574866 184.575334 
L 912.69385 184.458613 
L 913.812834 184.814866 
L 916.050802 184.255577 
L 917.169786 184.694733 
L 918.28877 184.750021 
L 925.002674 184.187705 
L 926.121658 185.027463 
L 927.240642 184.886978 
L 928.359626 184.604572 
L 929.47861 184.170524 
L 930.597594 184.341738 
L 931.716578 185.149035 
L 933.954545 183.791546 
L 935.073529 185.417525 
L 936.192513 184.317964 
L 937.311497 184.185848 
L 938.430481 185.051131 
L 939.549465 183.883941 
L 940.668449 185.023153 
L 941.787433 184.371063 
L 942.906417 184.427613 
L 944.025401 184.736843 
L 945.144385 184.067004 
L 946.263369 184.988083 
L 947.382353 183.912172 
L 948.501337 185.099417 
L 949.620321 184.09646 
L 950.739305 184.90505 
L 951.858289 184.223065 
L 952.977273 184.783161 
L 954.096257 184.305398 
L 955.215241 184.710251 
L 956.334225 184.355786 
L 957.453209 184.669041 
L 958.572193 184.384884 
L 959.691176 184.646911 
L 960.81016 184.401478 
L 960.81016 184.401478 
" clip-path="url(#pf9f1c68e88)" style="fill: none; stroke: #4c72b0; stroke-width: 1.5; stroke-linecap: round"/>
   </g>
   <g id="patch_23">
    <path d="M 725.823529 320.4 
L 725.823529 43.2 
" style="fill: none; stroke: #262626; stroke-width: 1.25; stroke-linejoin: miter; stroke-linecap: square"/>
   </g>
   <g id="patch_24">
    <path d="M 972 320.4 
L 972 43.2 
" style="fill: none; stroke: #262626; stroke-width: 1.25; stroke-linejoin: miter; stroke-linecap: square"/>
   </g>
   <g id="patch_25">
    <path d="M 725.823529 320.4 
L 972 320.4 
" style="fill: none; stroke: #262626; stroke-width: 1.25; stroke-linejoin: miter; stroke-linecap: square"/>
   </g>
   <g id="patch_26">
    <path d="M 725.823529 43.2 
L 972 43.2 
" style="fill: none; stroke: #262626; stroke-width: 1.25; stroke-linejoin: miter; stroke-linecap: square"/>
   </g>
   <g id="text_67">
    <!-- Flatness of perceptual differences: 100.00% -->
    <g style="fill: #262626" transform="translate(731.95489 37.2) scale(0.12 -0.12)">
     <defs>
      <path id="ArialMT-46" d="M 525 0 
L 525 4581 
L 3616 4581 
L 3616 4041 
L 1131 4041 
L 1131 2622 
L 3281 2622 
L 3281 2081 
L 1131 2081 
L 1131 0 
L 525 0 
z
" transform="scale(0.015625)"/>
      <path id="ArialMT-66" d="M 556 0 
L 556 2881 
L 59 2881 
L 59 3319 
L 556 3319 
L 556 3672 
Q 556 4006 616 4169 
Q 697 4388 901 4523 
Q 1106 4659 1475 4659 
Q 1713 4659 2000 4603 
L 1916 4113 
Q 1741 4144 1584 4144 
Q 1328 4144 1222 4034 
Q 1116 3925 1116 3625 
L 1116 3319 
L 1763 3319 
L 1763 2881 
L 1116 2881 
L 1116 0 
L 556 0 
z
" transform="scale(0.015625)"/>
      <path id="ArialMT-3a" d="M 578 2678 
L 578 3319 
L 1219 3319 
L 1219 2678 
L 578 2678 
z
M 578 0 
L 578 641 
L 1219 641 
L 1219 0 
L 578 0 
z
" transform="scale(0.015625)"/>
      <path id="ArialMT-25" d="M 372 3481 
Q 372 3972 619 4315 
Q 866 4659 1334 4659 
Q 1766 4659 2048 4351 
Q 2331 4044 2331 3447 
Q 2331 2866 2045 2552 
Q 1759 2238 1341 2238 
Q 925 2238 648 2547 
Q 372 2856 372 3481 
z
M 1350 4272 
Q 1141 4272 1002 4090 
Q 863 3909 863 3425 
Q 863 2984 1003 2804 
Q 1144 2625 1350 2625 
Q 1563 2625 1702 2806 
Q 1841 2988 1841 3469 
Q 1841 3913 1700 4092 
Q 1559 4272 1350 4272 
z
M 1353 -169 
L 3859 4659 
L 4316 4659 
L 1819 -169 
L 1353 -169 
z
M 3334 1075 
Q 3334 1569 3581 1911 
Q 3828 2253 4300 2253 
Q 4731 2253 5014 1945 
Q 5297 1638 5297 1041 
Q 5297 459 5011 145 
Q 4725 -169 4303 -169 
Q 3888 -169 3611 142 
Q 3334 453 3334 1075 
z
M 4316 1866 
Q 4103 1866 3964 1684 
Q 3825 1503 3825 1019 
Q 3825 581 3965 400 
Q 4106 219 4313 219 
Q 4528 219 4667 400 
Q 4806 581 4806 1063 
Q 4806 1506 4665 1686 
Q 4525 1866 4316 1866 
z
" transform="scale(0.015625)"/>
     </defs>
     <use xlink:href="#ArialMT-46"/>
     <use xlink:href="#ArialMT-6c" x="61.083984"/>
     <use xlink:href="#ArialMT-61" x="83.300781"/>
     <use xlink:href="#ArialMT-74" x="138.916016"/>
     <use xlink:href="#ArialMT-6e" x="166.699219"/>
     <use xlink:href="#ArialMT-65" x="222.314453"/>
     <use xlink:href="#ArialMT-73" x="277.929688"/>
     <use xlink:href="#ArialMT-73" x="327.929688"/>
     <use xlink:href="#ArialMT-20" x="377.929688"/>
     <use xlink:href="#ArialMT-6f" x="405.712891"/>
     <use xlink:href="#ArialMT-66" x="461.328125"/>
     <use xlink:href="#ArialMT-20" x="489.111328"/>
     <use xlink:href="#ArialMT-70" x="516.894531"/>
     <use xlink:href="#ArialMT-65" x="572.509766"/>
     <use xlink:href="#ArialMT-72" x="628.125"/>
     <use xlink:href="#ArialMT-63" x="661.425781"/>
     <use xlink:href="#ArialMT-65" x="711.425781"/>
     <use xlink:href="#ArialMT-70" x="767.041016"/>
     <use xlink:href="#ArialMT-74" x="822.65625"/>
     <use xlink:href="#ArialMT-75" x="850.439453"/>
     <use xlink:href="#ArialMT-61" x="906.054688"/>
     <use xlink:href="#ArialMT-6c" x="961.669922"/>
     <use xlink:href="#ArialMT-20" x="983.886719"/>
     <use xlink:href="#ArialMT-64" x="1011.669922"/>
     <use xlink:href="#ArialMT-69" x="1067.285156"/>
     <use xlink:href="#ArialMT-66" x="1089.501953"/>
     <use xlink:href="#ArialMT-66" x="1115.535156"/>
     <use xlink:href="#ArialMT-65" x="1143.318359"/>
     <use xlink:href="#ArialMT-72" x="1198.933594"/>
     <use xlink:href="#ArialMT-65" x="1232.234375"/>
     <use xlink:href="#ArialMT-6e" x="1287.849609"/>
     <use xlink:href="#ArialMT-63" x="1343.464844"/>
     <use xlink:href="#ArialMT-65" x="1393.464844"/>
     <use xlink:href="#ArialMT-73" x="1449.080078"/>
     <use xlink:href="#ArialMT-3a" x="1499.080078"/>
     <use xlink:href="#ArialMT-20" x="1526.863281"/>
     <use xlink:href="#ArialMT-31" x="1554.646484"/>
     <use xlink:href="#ArialMT-30" x="1610.261719"/>
     <use xlink:href="#ArialMT-30" x="1665.876953"/>
     <use xlink:href="#ArialMT-2e" x="1721.492188"/>
     <use xlink:href="#ArialMT-30" x="1749.275391"/>
     <use xlink:href="#ArialMT-30" x="1804.890625"/>
     <use xlink:href="#ArialMT-25" x="1860.505859"/>
    </g>
   </g>
  </g>
  <g id="text_68">
   <!-- Cieran's plot -->
   <g style="fill: #262626" transform="translate(500.20875 17.68275) scale(0.144 -0.144)">
    <defs>
     <path id="ArialMT-43" d="M 3763 1606 
L 4369 1453 
Q 4178 706 3683 314 
Q 3188 -78 2472 -78 
Q 1731 -78 1267 223 
Q 803 525 561 1097 
Q 319 1669 319 2325 
Q 319 3041 592 3573 
Q 866 4106 1370 4382 
Q 1875 4659 2481 4659 
Q 3169 4659 3637 4309 
Q 4106 3959 4291 3325 
L 3694 3184 
Q 3534 3684 3231 3912 
Q 2928 4141 2469 4141 
Q 1941 4141 1586 3887 
Q 1231 3634 1087 3207 
Q 944 2781 944 2328 
Q 944 1744 1114 1308 
Q 1284 872 1643 656 
Q 2003 441 2422 441 
Q 2931 441 3284 734 
Q 3638 1028 3763 1606 
z
" transform="scale(0.015625)"/>
     <path id="ArialMT-27" d="M 425 2959 
L 281 3816 
L 281 4581 
L 922 4581 
L 922 3816 
L 772 2959 
L 425 2959 
z
" transform="scale(0.015625)"/>
    </defs>
    <use xlink:href="#ArialMT-43"/>
    <use xlink:href="#ArialMT-69" x="72.216797"/>
    <use xlink:href="#ArialMT-65" x="94.433594"/>
    <use xlink:href="#ArialMT-72" x="150.048828"/>
    <use xlink:href="#ArialMT-61" x="183.349609"/>
    <use xlink:href="#ArialMT-6e" x="238.964844"/>
    <use xlink:href="#ArialMT-27" x="294.580078"/>
    <use xlink:href="#ArialMT-73" x="313.671875"/>
    <use xlink:href="#ArialMT-20" x="363.671875"/>
    <use xlink:href="#ArialMT-70" x="391.455078"/>
    <use xlink:href="#ArialMT-6c" x="447.070312"/>
    <use xlink:href="#ArialMT-6f" x="469.287109"/>
    <use xlink:href="#ArialMT-74" x="524.902344"/>
   </g>
  </g>
 </g>
 <defs>
  <clipPath id="p6b6b256f31">
   <rect x="135" y="43.2" width="246.176471" height="277.2"/>
  </clipPath>
  <clipPath id="p23c7160413">
   <rect x="430.411765" y="43.2" width="246.176471" height="81.529412"/>
  </clipPath>
  <clipPath id="p6ff41c507b">
   <rect x="430.411765" y="141.035294" width="246.176471" height="81.529412"/>
  </clipPath>
  <clipPath id="p6d00566d88">
   <rect x="430.411765" y="238.870588" width="246.176471" height="81.529412"/>
  </clipPath>
  <clipPath id="pf9f1c68e88">
   <rect x="725.823529" y="43.2" width="246.176471" height="277.2"/>
  </clipPath>
 </defs>
</svg>
