<?xml version="1.0" encoding="utf-8" standalone="no"?>
<!DOCTYPE svg PUBLIC "-//W3C//DTD SVG 1.1//EN"
  "http://www.w3.org/Graphics/SVG/1.1/DTD/svg11.dtd">
<svg xmlns:xlink="http://www.w3.org/1999/xlink" width="1080pt" height="360pt" viewBox="0 0 1080 360" xmlns="http://www.w3.org/2000/svg" version="1.1">
 <metadata>
  <rdf:RDF xmlns:dc="http://purl.org/dc/elements/1.1/" xmlns:cc="http://creativecommons.org/ns#" xmlns:rdf="http://www.w3.org/1999/02/22-rdf-syntax-ns#">
   <cc:Work>
    <dc:type rdf:resource="http://purl.org/dc/dcmitype/StillImage"/>
    <dc:date>2023-03-31T02:31:17.188219</dc:date>
    <dc:format>image/svg+xml</dc:format>
    <dc:creator>
     <cc:Agent>
      <dc:title>Matplotlib v3.7.0, https://matplotlib.org/</dc:title>
     </cc:Agent>
    </dc:creator>
   </cc:Work>
  </rdf:RDF>
 </metadata>
 <defs>
  <style type="text/css">*{stroke-linejoin: round; stroke-linecap: butt}</style>
 </defs>
 <g id="figure_1">
  <g id="patch_1">
   <path d="M 0 360 
L 1080 360 
L 1080 0 
L 0 0 
z
" style="fill: #ffffff"/>
  </g>
  <g id="axes_1">
   <g id="patch_2">
    <path d="M 135 320.4 
L 381.176471 320.4 
L 381.176471 43.2 
L 135 43.2 
z
" style="fill: #ffffff"/>
   </g>
   <g id="matplotlib.axis_1">
    <g id="xtick_1">
     <g id="text_1">
      <!-- −100 -->
      <g style="fill: #262626" transform="translate(122.612109 337.773594) scale(0.11 -0.11)">
       <defs>
        <path id="ArialMT-2212" d="M 3381 1997 
L 356 1997 
L 356 2522 
L 3381 2522 
L 3381 1997 
z
" transform="scale(0.015625)"/>
        <path id="ArialMT-31" d="M 2384 0 
L 1822 0 
L 1822 3584 
Q 1619 3391 1289 3197 
Q 959 3003 697 2906 
L 697 3450 
Q 1169 3672 1522 3987 
Q 1875 4303 2022 4600 
L 2384 4600 
L 2384 0 
z
" transform="scale(0.015625)"/>
        <path id="ArialMT-30" d="M 266 2259 
Q 266 3072 433 3567 
Q 600 4063 929 4331 
Q 1259 4600 1759 4600 
Q 2128 4600 2406 4451 
Q 2684 4303 2865 4023 
Q 3047 3744 3150 3342 
Q 3253 2941 3253 2259 
Q 3253 1453 3087 958 
Q 2922 463 2592 192 
Q 2263 -78 1759 -78 
Q 1097 -78 719 397 
Q 266 969 266 2259 
z
M 844 2259 
Q 844 1131 1108 757 
Q 1372 384 1759 384 
Q 2147 384 2411 759 
Q 2675 1134 2675 2259 
Q 2675 3391 2411 3762 
Q 2147 4134 1753 4134 
Q 1366 4134 1134 3806 
Q 844 3388 844 2259 
z
" transform="scale(0.015625)"/>
       </defs>
       <use xlink:href="#ArialMT-2212"/>
       <use xlink:href="#ArialMT-31" x="58.398438"/>
       <use xlink:href="#ArialMT-30" x="114.013672"/>
       <use xlink:href="#ArialMT-30" x="169.628906"/>
      </g>
     </g>
    </g>
    <g id="xtick_2">
     <g id="text_2">
      <!-- −50 -->
      <g style="fill: #262626" transform="translate(187.214743 337.773594) scale(0.11 -0.11)">
       <defs>
        <path id="ArialMT-35" d="M 266 1200 
L 856 1250 
Q 922 819 1161 601 
Q 1400 384 1738 384 
Q 2144 384 2425 690 
Q 2706 997 2706 1503 
Q 2706 1984 2436 2262 
Q 2166 2541 1728 2541 
Q 1456 2541 1237 2417 
Q 1019 2294 894 2097 
L 366 2166 
L 809 4519 
L 3088 4519 
L 3088 3981 
L 1259 3981 
L 1013 2750 
Q 1425 3038 1878 3038 
Q 2478 3038 2890 2622 
Q 3303 2206 3303 1553 
Q 3303 931 2941 478 
Q 2500 -78 1738 -78 
Q 1113 -78 717 272 
Q 322 622 266 1200 
z
" transform="scale(0.015625)"/>
       </defs>
       <use xlink:href="#ArialMT-2212"/>
       <use xlink:href="#ArialMT-35" x="58.398438"/>
       <use xlink:href="#ArialMT-30" x="114.013672"/>
      </g>
     </g>
    </g>
    <g id="xtick_3">
     <g id="text_3">
      <!-- 0 -->
      <g style="fill: #262626" transform="translate(255.02972 337.773594) scale(0.11 -0.11)">
       <use xlink:href="#ArialMT-30"/>
      </g>
     </g>
    </g>
    <g id="xtick_4">
     <g id="text_4">
      <!-- 50 -->
      <g style="fill: #262626" transform="translate(313.515322 337.773594) scale(0.11 -0.11)">
       <use xlink:href="#ArialMT-35"/>
       <use xlink:href="#ArialMT-30" x="55.615234"/>
      </g>
     </g>
    </g>
    <g id="xtick_5">
     <g id="text_5">
      <!-- 100 -->
      <g style="fill: #262626" transform="translate(372.000924 337.773594) scale(0.11 -0.11)">
       <use xlink:href="#ArialMT-31"/>
       <use xlink:href="#ArialMT-30" x="55.615234"/>
       <use xlink:href="#ArialMT-30" x="111.230469"/>
      </g>
     </g>
    </g>
    <g id="text_6">
     <!-- a* -->
     <g style="fill: #262626" transform="translate(252.41636 352.549219) scale(0.12 -0.12)">
      <defs>
       <path id="ArialMT-61" d="M 2588 409 
Q 2275 144 1986 34 
Q 1697 -75 1366 -75 
Q 819 -75 525 192 
Q 231 459 231 875 
Q 231 1119 342 1320 
Q 453 1522 633 1644 
Q 813 1766 1038 1828 
Q 1203 1872 1538 1913 
Q 2219 1994 2541 2106 
Q 2544 2222 2544 2253 
Q 2544 2597 2384 2738 
Q 2169 2928 1744 2928 
Q 1347 2928 1158 2789 
Q 969 2650 878 2297 
L 328 2372 
Q 403 2725 575 2942 
Q 747 3159 1072 3276 
Q 1397 3394 1825 3394 
Q 2250 3394 2515 3294 
Q 2781 3194 2906 3042 
Q 3031 2891 3081 2659 
Q 3109 2516 3109 2141 
L 3109 1391 
Q 3109 606 3145 398 
Q 3181 191 3288 0 
L 2700 0 
Q 2613 175 2588 409 
z
M 2541 1666 
Q 2234 1541 1622 1453 
Q 1275 1403 1131 1340 
Q 988 1278 909 1158 
Q 831 1038 831 891 
Q 831 666 1001 516 
Q 1172 366 1500 366 
Q 1825 366 2078 508 
Q 2331 650 2450 897 
Q 2541 1088 2541 1459 
L 2541 1666 
z
" transform="scale(0.015625)"/>
       <path id="ArialMT-2a" d="M 200 3741 
L 344 4184 
Q 841 4009 1066 3881 
Q 1006 4447 1003 4659 
L 1456 4659 
Q 1447 4350 1384 3884 
Q 1706 4047 2122 4184 
L 2266 3741 
Q 1869 3609 1488 3566 
Q 1678 3400 2025 2975 
L 1650 2709 
Q 1469 2956 1222 3381 
Q 991 2941 816 2709 
L 447 2975 
Q 809 3422 966 3566 
Q 563 3644 200 3741 
z
" transform="scale(0.015625)"/>
      </defs>
      <use xlink:href="#ArialMT-61"/>
      <use xlink:href="#ArialMT-2a" x="55.615234"/>
     </g>
    </g>
   </g>
   <g id="matplotlib.axis_2">
    <g id="ytick_1">
     <g id="text_7">
      <!-- −100 -->
      <g style="fill: #262626" transform="translate(100.724219 324.336797) scale(0.11 -0.11)">
       <use xlink:href="#ArialMT-2212"/>
       <use xlink:href="#ArialMT-31" x="58.398438"/>
       <use xlink:href="#ArialMT-30" x="114.013672"/>
       <use xlink:href="#ArialMT-30" x="169.628906"/>
      </g>
     </g>
    </g>
    <g id="ytick_2">
     <g id="text_8">
      <!-- −75 -->
      <g style="fill: #262626" transform="translate(106.84125 289.686797) scale(0.11 -0.11)">
       <defs>
        <path id="ArialMT-37" d="M 303 3981 
L 303 4522 
L 3269 4522 
L 3269 4084 
Q 2831 3619 2401 2847 
Q 1972 2075 1738 1259 
Q 1569 684 1522 0 
L 944 0 
Q 953 541 1156 1306 
Q 1359 2072 1739 2783 
Q 2119 3494 2547 3981 
L 303 3981 
z
" transform="scale(0.015625)"/>
       </defs>
       <use xlink:href="#ArialMT-2212"/>
       <use xlink:href="#ArialMT-37" x="58.398438"/>
       <use xlink:href="#ArialMT-35" x="114.013672"/>
      </g>
     </g>
    </g>
    <g id="ytick_3">
     <g id="text_9">
      <!-- −50 -->
      <g style="fill: #262626" transform="translate(106.84125 255.036797) scale(0.11 -0.11)">
       <use xlink:href="#ArialMT-2212"/>
       <use xlink:href="#ArialMT-35" x="58.398438"/>
       <use xlink:href="#ArialMT-30" x="114.013672"/>
      </g>
     </g>
    </g>
    <g id="ytick_4">
     <g id="text_10">
      <!-- −25 -->
      <g style="fill: #262626" transform="translate(106.84125 220.386797) scale(0.11 -0.11)">
       <defs>
        <path id="ArialMT-32" d="M 3222 541 
L 3222 0 
L 194 0 
Q 188 203 259 391 
Q 375 700 629 1000 
Q 884 1300 1366 1694 
Q 2113 2306 2375 2664 
Q 2638 3022 2638 3341 
Q 2638 3675 2398 3904 
Q 2159 4134 1775 4134 
Q 1369 4134 1125 3890 
Q 881 3647 878 3216 
L 300 3275 
Q 359 3922 746 4261 
Q 1134 4600 1788 4600 
Q 2447 4600 2831 4234 
Q 3216 3869 3216 3328 
Q 3216 3053 3103 2787 
Q 2991 2522 2730 2228 
Q 2469 1934 1863 1422 
Q 1356 997 1212 845 
Q 1069 694 975 541 
L 3222 541 
z
" transform="scale(0.015625)"/>
       </defs>
       <use xlink:href="#ArialMT-2212"/>
       <use xlink:href="#ArialMT-32" x="58.398438"/>
       <use xlink:href="#ArialMT-35" x="114.013672"/>
      </g>
     </g>
    </g>
    <g id="ytick_5">
     <g id="text_11">
      <!-- 0 -->
      <g style="fill: #262626" transform="translate(119.382969 185.736797) scale(0.11 -0.11)">
       <use xlink:href="#ArialMT-30"/>
      </g>
     </g>
    </g>
    <g id="ytick_6">
     <g id="text_12">
      <!-- 25 -->
      <g style="fill: #262626" transform="translate(113.265938 151.086797) scale(0.11 -0.11)">
       <use xlink:href="#ArialMT-32"/>
       <use xlink:href="#ArialMT-35" x="55.615234"/>
      </g>
     </g>
    </g>
    <g id="ytick_7">
     <g id="text_13">
      <!-- 50 -->
      <g style="fill: #262626" transform="translate(113.265938 116.436797) scale(0.11 -0.11)">
       <use xlink:href="#ArialMT-35"/>
       <use xlink:href="#ArialMT-30" x="55.615234"/>
      </g>
     </g>
    </g>
    <g id="ytick_8">
     <g id="text_14">
      <!-- 75 -->
      <g style="fill: #262626" transform="translate(113.265938 81.786797) scale(0.11 -0.11)">
       <use xlink:href="#ArialMT-37"/>
       <use xlink:href="#ArialMT-35" x="55.615234"/>
      </g>
     </g>
    </g>
    <g id="ytick_9">
     <g id="text_15">
      <!-- 100 -->
      <g style="fill: #262626" transform="translate(107.148906 47.136797) scale(0.11 -0.11)">
       <use xlink:href="#ArialMT-31"/>
       <use xlink:href="#ArialMT-30" x="55.615234"/>
       <use xlink:href="#ArialMT-30" x="111.230469"/>
      </g>
     </g>
    </g>
    <g id="text_16">
     <!-- b* -->
     <g style="fill: #262626" transform="translate(94.339219 187.471875) rotate(-90) scale(0.12 -0.12)">
      <defs>
       <path id="ArialMT-62" d="M 941 0 
L 419 0 
L 419 4581 
L 981 4581 
L 981 2947 
Q 1338 3394 1891 3394 
Q 2197 3394 2470 3270 
Q 2744 3147 2920 2923 
Q 3097 2700 3197 2384 
Q 3297 2069 3297 1709 
Q 3297 856 2875 390 
Q 2453 -75 1863 -75 
Q 1275 -75 941 416 
L 941 0 
z
M 934 1684 
Q 934 1088 1097 822 
Q 1363 388 1816 388 
Q 2184 388 2453 708 
Q 2722 1028 2722 1663 
Q 2722 2313 2464 2622 
Q 2206 2931 1841 2931 
Q 1472 2931 1203 2611 
Q 934 2291 934 1684 
z
" transform="scale(0.015625)"/>
      </defs>
      <use xlink:href="#ArialMT-62"/>
      <use xlink:href="#ArialMT-2a" x="55.615234"/>
     </g>
    </g>
   </g>
   <g id="PathCollection_1">
    <defs>
     <path id="C0_0_682a2054ab" d="M 0 3 
C 0.795609 3 1.55874 2.683901 2.12132 2.12132 
C 2.683901 1.55874 3 0.795609 3 -0 
C 3 -0.795609 2.683901 -1.55874 2.12132 -2.12132 
C 1.55874 -2.683901 0.795609 -3 0 -3 
C -0.795609 -3 -1.55874 -2.683901 -2.12132 -2.12132 
C -2.683901 -1.55874 -3 -0.795609 -3 0 
C -3 0.795609 -2.683901 1.55874 -2.12132 2.12132 
C -1.55874 2.683901 -0.795609 3 0 3 
z
"/>
    </defs>
    <g clip-path="url(#p752e9494ec)">
     <use xlink:href="#C0_0_682a2054ab" x="258.088235" y="181.8" style="fill: #ffffff; stroke: #ffffff"/>
    </g>
    <g clip-path="url(#p752e9494ec)">
     <use xlink:href="#C0_0_682a2054ab" x="239.09852" y="123.941783" style="fill: #daea90; stroke: #daea90"/>
    </g>
    <g clip-path="url(#p752e9494ec)">
     <use xlink:href="#C0_0_682a2054ab" x="224.080784" y="124.983754" style="fill: #b2e183; stroke: #b2e183"/>
    </g>
    <g clip-path="url(#p752e9494ec)">
     <use xlink:href="#C0_0_682a2054ab" x="215.540224" y="145.403599" style="fill: #75bf7c; stroke: #75bf7c"/>
    </g>
    <g clip-path="url(#p752e9494ec)">
     <use xlink:href="#C0_0_682a2054ab" x="214.081604" y="180.065887" style="fill: #45af9a; stroke: #45af9a"/>
    </g>
    <g clip-path="url(#p752e9494ec)">
     <use xlink:href="#C0_0_682a2054ab" x="220.978594" y="190.749073" style="fill: #2e928d; stroke: #2e928d"/>
    </g>
    <g clip-path="url(#p752e9494ec)">
     <use xlink:href="#C0_0_682a2054ab" x="242.027628" y="218.135468" style="fill: #2a6f92; stroke: #2a6f92"/>
    </g>
    <g clip-path="url(#p752e9494ec)">
     <use xlink:href="#C0_0_682a2054ab" x="265.117062" y="221.274588" style="fill: #485483; stroke: #485483"/>
    </g>
    <g clip-path="url(#p752e9494ec)">
     <use xlink:href="#C0_0_682a2054ab" x="276.623046" y="234.522013" style="fill: #222664; stroke: #222664"/>
    </g>
    <g clip-path="url(#p752e9494ec)">
     <use xlink:href="#C0_0_682a2054ab" x="292.858815" y="231.198728" style="fill: #351459; stroke: #351459"/>
    </g>
    <g clip-path="url(#p752e9494ec)">
     <use xlink:href="#C0_0_682a2054ab" x="258.088235" y="181.8" style="stroke: #000000"/>
    </g>
   </g>
   <g id="line2d_1">
    <path d="M 247.35741 153.873115 
L 243.276241 143.298953 
L 241.174233 138.35894 
L 239.580808 135.035135 
L 237.754732 131.831104 
L 236.735888 130.347341 
L 235.646961 129.004534 
L 234.49657 127.857886 
L 233.303678 126.960753 
L 232.097607 126.350523 
L 230.910064 126.034821 
L 229.767005 125.99173 
L 228.684747 126.181081 
L 227.67062 126.55733 
L 226.725759 127.077933 
L 225.033172 128.414383 
L 223.574355 129.995163 
L 222.30056 131.757817 
L 221.17431 133.674202 
L 220.168956 135.727506 
L 218.84903 139.040231 
L 217.720138 142.6135 
L 216.760237 146.430379 
L 215.960256 150.468499 
L 215.326009 154.643213 
L 214.86711 158.840014 
L 214.587931 162.975102 
L 214.490522 166.984394 
L 214.577007 170.816182 
L 214.85239 174.418254 
L 215.326725 177.719796 
L 216.009145 180.667218 
L 216.894109 183.292924 
L 217.959937 185.672754 
L 219.608785 188.620302 
L 221.925312 192.176718 
L 225.979437 197.904375 
L 229.273194 202.124286 
L 232.22599 205.521803 
L 234.748478 208.131875 
L 237.423761 210.604536 
L 240.249283 212.878917 
L 242.462817 214.407887 
L 244.74423 215.753277 
L 247.856541 217.286458 
L 251.012316 218.579335 
L 255.77646 220.252164 
L 260.454678 221.944886 
L 262.661205 222.961023 
L 264.695173 224.158937 
L 267.205129 225.944599 
L 271.634678 229.189738 
L 273.796762 230.477079 
L 275.40061 231.237856 
L 277.169082 231.86663 
L 279.088204 232.2861 
L 281.033614 232.382996 
L 281.96205 232.268455 
L 282.825391 232.022094 
L 283.592568 231.630433 
L 284.234424 231.087277 
L 284.728048 230.396947 
L 285.06009 229.579532 
L 285.234048 228.656463 
L 285.261672 227.654995 
L 284.951628 225.510982 
L 284.273924 223.274966 
L 284.273924 223.274966 
" clip-path="url(#p752e9494ec)" style="fill: none; stroke: #008000; stroke-width: 1.5; stroke-linecap: round"/>
   </g>
   <g id="patch_3">
    <path d="M 135 320.4 
L 135 43.2 
" style="fill: none; stroke: #262626; stroke-width: 1.25; stroke-linejoin: miter; stroke-linecap: square"/>
   </g>
   <g id="patch_4">
    <path d="M 381.176471 320.4 
L 381.176471 43.2 
" style="fill: none; stroke: #262626; stroke-width: 1.25; stroke-linejoin: miter; stroke-linecap: square"/>
   </g>
   <g id="patch_5">
    <path d="M 135 320.4 
L 381.176471 320.4 
" style="fill: none; stroke: #262626; stroke-width: 1.25; stroke-linejoin: miter; stroke-linecap: square"/>
   </g>
   <g id="patch_6">
    <path d="M 135 43.2 
L 381.176471 43.2 
" style="fill: none; stroke: #262626; stroke-width: 1.25; stroke-linejoin: miter; stroke-linecap: square"/>
   </g>
   <g id="text_17">
    <!-- Interpolated color ramp -->
    <g style="fill: #262626" transform="translate(196.394173 37.2) scale(0.12 -0.12)">
     <defs>
      <path id="ArialMT-49" d="M 597 0 
L 597 4581 
L 1203 4581 
L 1203 0 
L 597 0 
z
" transform="scale(0.015625)"/>
      <path id="ArialMT-6e" d="M 422 0 
L 422 3319 
L 928 3319 
L 928 2847 
Q 1294 3394 1984 3394 
Q 2284 3394 2536 3286 
Q 2788 3178 2913 3003 
Q 3038 2828 3088 2588 
Q 3119 2431 3119 2041 
L 3119 0 
L 2556 0 
L 2556 2019 
Q 2556 2363 2490 2533 
Q 2425 2703 2258 2804 
Q 2091 2906 1866 2906 
Q 1506 2906 1245 2678 
Q 984 2450 984 1813 
L 984 0 
L 422 0 
z
" transform="scale(0.015625)"/>
      <path id="ArialMT-74" d="M 1650 503 
L 1731 6 
Q 1494 -44 1306 -44 
Q 1000 -44 831 53 
Q 663 150 594 308 
Q 525 466 525 972 
L 525 2881 
L 113 2881 
L 113 3319 
L 525 3319 
L 525 4141 
L 1084 4478 
L 1084 3319 
L 1650 3319 
L 1650 2881 
L 1084 2881 
L 1084 941 
Q 1084 700 1114 631 
Q 1144 563 1211 522 
Q 1278 481 1403 481 
Q 1497 481 1650 503 
z
" transform="scale(0.015625)"/>
      <path id="ArialMT-65" d="M 2694 1069 
L 3275 997 
Q 3138 488 2766 206 
Q 2394 -75 1816 -75 
Q 1088 -75 661 373 
Q 234 822 234 1631 
Q 234 2469 665 2931 
Q 1097 3394 1784 3394 
Q 2450 3394 2872 2941 
Q 3294 2488 3294 1666 
Q 3294 1616 3291 1516 
L 816 1516 
Q 847 969 1125 678 
Q 1403 388 1819 388 
Q 2128 388 2347 550 
Q 2566 713 2694 1069 
z
M 847 1978 
L 2700 1978 
Q 2663 2397 2488 2606 
Q 2219 2931 1791 2931 
Q 1403 2931 1139 2672 
Q 875 2413 847 1978 
z
" transform="scale(0.015625)"/>
      <path id="ArialMT-72" d="M 416 0 
L 416 3319 
L 922 3319 
L 922 2816 
Q 1116 3169 1280 3281 
Q 1444 3394 1641 3394 
Q 1925 3394 2219 3213 
L 2025 2691 
Q 1819 2813 1613 2813 
Q 1428 2813 1281 2702 
Q 1134 2591 1072 2394 
Q 978 2094 978 1738 
L 978 0 
L 416 0 
z
" transform="scale(0.015625)"/>
      <path id="ArialMT-70" d="M 422 -1272 
L 422 3319 
L 934 3319 
L 934 2888 
Q 1116 3141 1344 3267 
Q 1572 3394 1897 3394 
Q 2322 3394 2647 3175 
Q 2972 2956 3137 2557 
Q 3303 2159 3303 1684 
Q 3303 1175 3120 767 
Q 2938 359 2589 142 
Q 2241 -75 1856 -75 
Q 1575 -75 1351 44 
Q 1128 163 984 344 
L 984 -1272 
L 422 -1272 
z
M 931 1641 
Q 931 1000 1190 694 
Q 1450 388 1819 388 
Q 2194 388 2461 705 
Q 2728 1022 2728 1688 
Q 2728 2322 2467 2637 
Q 2206 2953 1844 2953 
Q 1484 2953 1207 2617 
Q 931 2281 931 1641 
z
" transform="scale(0.015625)"/>
      <path id="ArialMT-6f" d="M 213 1659 
Q 213 2581 725 3025 
Q 1153 3394 1769 3394 
Q 2453 3394 2887 2945 
Q 3322 2497 3322 1706 
Q 3322 1066 3130 698 
Q 2938 331 2570 128 
Q 2203 -75 1769 -75 
Q 1072 -75 642 372 
Q 213 819 213 1659 
z
M 791 1659 
Q 791 1022 1069 705 
Q 1347 388 1769 388 
Q 2188 388 2466 706 
Q 2744 1025 2744 1678 
Q 2744 2294 2464 2611 
Q 2184 2928 1769 2928 
Q 1347 2928 1069 2612 
Q 791 2297 791 1659 
z
" transform="scale(0.015625)"/>
      <path id="ArialMT-6c" d="M 409 0 
L 409 4581 
L 972 4581 
L 972 0 
L 409 0 
z
" transform="scale(0.015625)"/>
      <path id="ArialMT-64" d="M 2575 0 
L 2575 419 
Q 2259 -75 1647 -75 
Q 1250 -75 917 144 
Q 584 363 401 755 
Q 219 1147 219 1656 
Q 219 2153 384 2558 
Q 550 2963 881 3178 
Q 1213 3394 1622 3394 
Q 1922 3394 2156 3267 
Q 2391 3141 2538 2938 
L 2538 4581 
L 3097 4581 
L 3097 0 
L 2575 0 
z
M 797 1656 
Q 797 1019 1065 703 
Q 1334 388 1700 388 
Q 2069 388 2326 689 
Q 2584 991 2584 1609 
Q 2584 2291 2321 2609 
Q 2059 2928 1675 2928 
Q 1300 2928 1048 2622 
Q 797 2316 797 1656 
z
" transform="scale(0.015625)"/>
      <path id="ArialMT-20" transform="scale(0.015625)"/>
      <path id="ArialMT-63" d="M 2588 1216 
L 3141 1144 
Q 3050 572 2676 248 
Q 2303 -75 1759 -75 
Q 1078 -75 664 370 
Q 250 816 250 1647 
Q 250 2184 428 2587 
Q 606 2991 970 3192 
Q 1334 3394 1763 3394 
Q 2303 3394 2647 3120 
Q 2991 2847 3088 2344 
L 2541 2259 
Q 2463 2594 2264 2762 
Q 2066 2931 1784 2931 
Q 1359 2931 1093 2626 
Q 828 2322 828 1663 
Q 828 994 1084 691 
Q 1341 388 1753 388 
Q 2084 388 2306 591 
Q 2528 794 2588 1216 
z
" transform="scale(0.015625)"/>
      <path id="ArialMT-6d" d="M 422 0 
L 422 3319 
L 925 3319 
L 925 2853 
Q 1081 3097 1340 3245 
Q 1600 3394 1931 3394 
Q 2300 3394 2536 3241 
Q 2772 3088 2869 2813 
Q 3263 3394 3894 3394 
Q 4388 3394 4653 3120 
Q 4919 2847 4919 2278 
L 4919 0 
L 4359 0 
L 4359 2091 
Q 4359 2428 4304 2576 
Q 4250 2725 4106 2815 
Q 3963 2906 3769 2906 
Q 3419 2906 3187 2673 
Q 2956 2441 2956 1928 
L 2956 0 
L 2394 0 
L 2394 2156 
Q 2394 2531 2256 2718 
Q 2119 2906 1806 2906 
Q 1569 2906 1367 2781 
Q 1166 2656 1075 2415 
Q 984 2175 984 1722 
L 984 0 
L 422 0 
z
" transform="scale(0.015625)"/>
     </defs>
     <use xlink:href="#ArialMT-49"/>
     <use xlink:href="#ArialMT-6e" x="27.783203"/>
     <use xlink:href="#ArialMT-74" x="83.398438"/>
     <use xlink:href="#ArialMT-65" x="111.181641"/>
     <use xlink:href="#ArialMT-72" x="166.796875"/>
     <use xlink:href="#ArialMT-70" x="200.097656"/>
     <use xlink:href="#ArialMT-6f" x="255.712891"/>
     <use xlink:href="#ArialMT-6c" x="311.328125"/>
     <use xlink:href="#ArialMT-61" x="333.544922"/>
     <use xlink:href="#ArialMT-74" x="389.160156"/>
     <use xlink:href="#ArialMT-65" x="416.943359"/>
     <use xlink:href="#ArialMT-64" x="472.558594"/>
     <use xlink:href="#ArialMT-20" x="528.173828"/>
     <use xlink:href="#ArialMT-63" x="555.957031"/>
     <use xlink:href="#ArialMT-6f" x="605.957031"/>
     <use xlink:href="#ArialMT-6c" x="661.572266"/>
     <use xlink:href="#ArialMT-6f" x="683.789062"/>
     <use xlink:href="#ArialMT-72" x="739.404297"/>
     <use xlink:href="#ArialMT-20" x="772.705078"/>
     <use xlink:href="#ArialMT-72" x="800.488281"/>
     <use xlink:href="#ArialMT-61" x="833.789062"/>
     <use xlink:href="#ArialMT-6d" x="889.404297"/>
     <use xlink:href="#ArialMT-70" x="972.705078"/>
    </g>
   </g>
  </g>
  <g id="axes_2">
   <g id="patch_7">
    <path d="M 430.411765 124.729412 
L 676.588235 124.729412 
L 676.588235 43.2 
L 430.411765 43.2 
z
" style="fill: #ffffff"/>
   </g>
   <g id="matplotlib.axis_3">
    <g id="xtick_6">
     <g id="text_18">
      <!-- 0 -->
      <g style="fill: #262626" transform="translate(438.543089 142.103006) scale(0.11 -0.11)">
       <use xlink:href="#ArialMT-30"/>
      </g>
     </g>
    </g>
    <g id="xtick_7">
     <g id="text_19">
      <!-- 50 -->
      <g style="fill: #262626" transform="translate(496.967208 142.103006) scale(0.11 -0.11)">
       <use xlink:href="#ArialMT-35"/>
       <use xlink:href="#ArialMT-30" x="55.615234"/>
      </g>
     </g>
    </g>
    <g id="xtick_8">
     <g id="text_20">
      <!-- 100 -->
      <g style="fill: #262626" transform="translate(555.391327 142.103006) scale(0.11 -0.11)">
       <use xlink:href="#ArialMT-31"/>
       <use xlink:href="#ArialMT-30" x="55.615234"/>
       <use xlink:href="#ArialMT-30" x="111.230469"/>
      </g>
     </g>
    </g>
    <g id="xtick_9">
     <g id="text_21">
      <!-- 150 -->
      <g style="fill: #262626" transform="translate(616.873962 142.103006) scale(0.11 -0.11)">
       <use xlink:href="#ArialMT-31"/>
       <use xlink:href="#ArialMT-35" x="55.615234"/>
       <use xlink:href="#ArialMT-30" x="111.230469"/>
      </g>
     </g>
    </g>
    <g id="text_22">
     <!-- Point -->
     <g style="fill: #262626" transform="translate(539.824687 156.878631) scale(0.12 -0.12)">
      <defs>
       <path id="ArialMT-50" d="M 494 0 
L 494 4581 
L 2222 4581 
Q 2678 4581 2919 4538 
Q 3256 4481 3484 4323 
Q 3713 4166 3852 3881 
Q 3991 3597 3991 3256 
Q 3991 2672 3619 2267 
Q 3247 1863 2275 1863 
L 1100 1863 
L 1100 0 
L 494 0 
z
M 1100 2403 
L 2284 2403 
Q 2872 2403 3119 2622 
Q 3366 2841 3366 3238 
Q 3366 3525 3220 3729 
Q 3075 3934 2838 4000 
Q 2684 4041 2272 4041 
L 1100 4041 
L 1100 2403 
z
" transform="scale(0.015625)"/>
       <path id="ArialMT-69" d="M 425 3934 
L 425 4581 
L 988 4581 
L 988 3934 
L 425 3934 
z
M 425 0 
L 425 3319 
L 988 3319 
L 988 0 
L 425 0 
z
" transform="scale(0.015625)"/>
      </defs>
      <use xlink:href="#ArialMT-50"/>
      <use xlink:href="#ArialMT-6f" x="66.699219"/>
      <use xlink:href="#ArialMT-69" x="122.314453"/>
      <use xlink:href="#ArialMT-6e" x="144.53125"/>
      <use xlink:href="#ArialMT-74" x="200.146484"/>
     </g>
    </g>
   </g>
   <g id="matplotlib.axis_4">
    <g id="ytick_10">
     <g id="text_23">
      <!-- 0 -->
      <g style="fill: #262626" transform="translate(414.794733 128.666209) scale(0.11 -0.11)">
       <use xlink:href="#ArialMT-30"/>
      </g>
     </g>
    </g>
    <g id="ytick_11">
     <g id="text_24">
      <!-- 50 -->
      <g style="fill: #262626" transform="translate(408.677702 87.901503) scale(0.11 -0.11)">
       <use xlink:href="#ArialMT-35"/>
       <use xlink:href="#ArialMT-30" x="55.615234"/>
      </g>
     </g>
    </g>
    <g id="ytick_12">
     <g id="text_25">
      <!-- 100 -->
      <g style="fill: #262626" transform="translate(402.560671 47.136797) scale(0.11 -0.11)">
       <use xlink:href="#ArialMT-31"/>
       <use xlink:href="#ArialMT-30" x="55.615234"/>
       <use xlink:href="#ArialMT-30" x="111.230469"/>
      </g>
     </g>
    </g>
    <g id="text_26">
     <!-- L* value -->
     <g style="fill: #262626" transform="translate(396.175671 105.646268) rotate(-90) scale(0.12 -0.12)">
      <defs>
       <path id="ArialMT-4c" d="M 469 0 
L 469 4581 
L 1075 4581 
L 1075 541 
L 3331 541 
L 3331 0 
L 469 0 
z
" transform="scale(0.015625)"/>
       <path id="ArialMT-76" d="M 1344 0 
L 81 3319 
L 675 3319 
L 1388 1331 
Q 1503 1009 1600 663 
Q 1675 925 1809 1294 
L 2547 3319 
L 3125 3319 
L 1869 0 
L 1344 0 
z
" transform="scale(0.015625)"/>
       <path id="ArialMT-75" d="M 2597 0 
L 2597 488 
Q 2209 -75 1544 -75 
Q 1250 -75 995 37 
Q 741 150 617 320 
Q 494 491 444 738 
Q 409 903 409 1263 
L 409 3319 
L 972 3319 
L 972 1478 
Q 972 1038 1006 884 
Q 1059 663 1231 536 
Q 1403 409 1656 409 
Q 1909 409 2131 539 
Q 2353 669 2445 892 
Q 2538 1116 2538 1541 
L 2538 3319 
L 3100 3319 
L 3100 0 
L 2597 0 
z
" transform="scale(0.015625)"/>
      </defs>
      <use xlink:href="#ArialMT-4c"/>
      <use xlink:href="#ArialMT-2a" x="55.615234"/>
      <use xlink:href="#ArialMT-20" x="94.53125"/>
      <use xlink:href="#ArialMT-76" x="122.314453"/>
      <use xlink:href="#ArialMT-61" x="172.314453"/>
      <use xlink:href="#ArialMT-6c" x="227.929688"/>
      <use xlink:href="#ArialMT-75" x="250.146484"/>
      <use xlink:href="#ArialMT-65" x="305.761719"/>
     </g>
    </g>
   </g>
   <g id="line2d_2">
    <path d="M 441.601604 47.391167 
L 447.749868 48.567085 
L 453.898131 49.968137 
L 458.816742 51.324867 
L 462.5057 52.549662 
L 468.653964 54.902242 
L 476.03188 57.943084 
L 485.869101 62.045443 
L 492.017365 64.350158 
L 496.935976 65.959895 
L 501.854587 67.33364 
L 509.232503 69.108707 
L 521.52903 71.98386 
L 526.447641 73.366093 
L 535.055209 76.085125 
L 543.662778 78.735615 
L 549.811042 80.417579 
L 557.188958 82.205751 
L 568.255832 84.635143 
L 587.930276 88.690562 
L 603.915761 91.978871 
L 610.064024 93.467674 
L 614.982635 94.883602 
L 618.671593 96.133487 
L 623.590204 98.076245 
L 629.738467 100.800502 
L 646.953605 108.623901 
L 658.02048 112.940648 
L 664.168743 115.833366 
L 665.398396 116.426196 
L 665.398396 116.426196 
" clip-path="url(#p5d9a1a2476)" style="fill: none; stroke: #4c72b0; stroke-width: 1.5; stroke-linecap: round"/>
   </g>
   <g id="patch_8">
    <path d="M 430.411765 124.729412 
L 430.411765 43.2 
" style="fill: none; stroke: #262626; stroke-width: 1.25; stroke-linejoin: miter; stroke-linecap: square"/>
   </g>
   <g id="patch_9">
    <path d="M 676.588235 124.729412 
L 676.588235 43.2 
" style="fill: none; stroke: #262626; stroke-width: 1.25; stroke-linejoin: miter; stroke-linecap: square"/>
   </g>
   <g id="patch_10">
    <path d="M 430.411765 124.729412 
L 676.588235 124.729412 
" style="fill: none; stroke: #262626; stroke-width: 1.25; stroke-linejoin: miter; stroke-linecap: square"/>
   </g>
   <g id="patch_11">
    <path d="M 430.411765 43.2 
L 676.588235 43.2 
" style="fill: none; stroke: #262626; stroke-width: 1.25; stroke-linejoin: miter; stroke-linecap: square"/>
   </g>
   <g id="text_27">
    <!-- L* values -->
    <g style="fill: #262626" transform="translate(528.818437 37.2) scale(0.12 -0.12)">
     <defs>
      <path id="ArialMT-73" d="M 197 991 
L 753 1078 
Q 800 744 1014 566 
Q 1228 388 1613 388 
Q 2000 388 2187 545 
Q 2375 703 2375 916 
Q 2375 1106 2209 1216 
Q 2094 1291 1634 1406 
Q 1016 1563 777 1677 
Q 538 1791 414 1992 
Q 291 2194 291 2438 
Q 291 2659 392 2848 
Q 494 3038 669 3163 
Q 800 3259 1026 3326 
Q 1253 3394 1513 3394 
Q 1903 3394 2198 3281 
Q 2494 3169 2634 2976 
Q 2775 2784 2828 2463 
L 2278 2388 
Q 2241 2644 2061 2787 
Q 1881 2931 1553 2931 
Q 1166 2931 1000 2803 
Q 834 2675 834 2503 
Q 834 2394 903 2306 
Q 972 2216 1119 2156 
Q 1203 2125 1616 2013 
Q 2213 1853 2448 1751 
Q 2684 1650 2818 1456 
Q 2953 1263 2953 975 
Q 2953 694 2789 445 
Q 2625 197 2315 61 
Q 2006 -75 1616 -75 
Q 969 -75 630 194 
Q 291 463 197 991 
z
" transform="scale(0.015625)"/>
     </defs>
     <use xlink:href="#ArialMT-4c"/>
     <use xlink:href="#ArialMT-2a" x="55.615234"/>
     <use xlink:href="#ArialMT-20" x="94.53125"/>
     <use xlink:href="#ArialMT-76" x="122.314453"/>
     <use xlink:href="#ArialMT-61" x="172.314453"/>
     <use xlink:href="#ArialMT-6c" x="227.929688"/>
     <use xlink:href="#ArialMT-75" x="250.146484"/>
     <use xlink:href="#ArialMT-65" x="305.761719"/>
     <use xlink:href="#ArialMT-73" x="361.376953"/>
    </g>
   </g>
  </g>
  <g id="axes_3">
   <g id="patch_12">
    <path d="M 430.411765 222.564706 
L 676.588235 222.564706 
L 676.588235 141.035294 
L 430.411765 141.035294 
z
" style="fill: #ffffff"/>
   </g>
   <g id="matplotlib.axis_5">
    <g id="xtick_10">
     <g id="text_28">
      <!-- 0 -->
      <g style="fill: #262626" transform="translate(438.543089 239.9383) scale(0.11 -0.11)">
       <use xlink:href="#ArialMT-30"/>
      </g>
     </g>
    </g>
    <g id="xtick_11">
     <g id="text_29">
      <!-- 50 -->
      <g style="fill: #262626" transform="translate(496.967208 239.9383) scale(0.11 -0.11)">
       <use xlink:href="#ArialMT-35"/>
       <use xlink:href="#ArialMT-30" x="55.615234"/>
      </g>
     </g>
    </g>
    <g id="xtick_12">
     <g id="text_30">
      <!-- 100 -->
      <g style="fill: #262626" transform="translate(555.391327 239.9383) scale(0.11 -0.11)">
       <use xlink:href="#ArialMT-31"/>
       <use xlink:href="#ArialMT-30" x="55.615234"/>
       <use xlink:href="#ArialMT-30" x="111.230469"/>
      </g>
     </g>
    </g>
    <g id="xtick_13">
     <g id="text_31">
      <!-- 150 -->
      <g style="fill: #262626" transform="translate(616.873962 239.9383) scale(0.11 -0.11)">
       <use xlink:href="#ArialMT-31"/>
       <use xlink:href="#ArialMT-35" x="55.615234"/>
       <use xlink:href="#ArialMT-30" x="111.230469"/>
      </g>
     </g>
    </g>
    <g id="text_32">
     <!-- Point -->
     <g style="fill: #262626" transform="translate(539.824687 254.713925) scale(0.12 -0.12)">
      <use xlink:href="#ArialMT-50"/>
      <use xlink:href="#ArialMT-6f" x="66.699219"/>
      <use xlink:href="#ArialMT-69" x="122.314453"/>
      <use xlink:href="#ArialMT-6e" x="144.53125"/>
      <use xlink:href="#ArialMT-74" x="200.146484"/>
     </g>
    </g>
   </g>
   <g id="matplotlib.axis_6">
    <g id="ytick_13">
     <g id="text_33">
      <!-- 0 -->
      <g style="fill: #262626" transform="translate(414.794733 226.501503) scale(0.11 -0.11)">
       <use xlink:href="#ArialMT-30"/>
      </g>
     </g>
    </g>
    <g id="ytick_14">
     <g id="text_34">
      <!-- 50 -->
      <g style="fill: #262626" transform="translate(408.677702 199.325032) scale(0.11 -0.11)">
       <use xlink:href="#ArialMT-35"/>
       <use xlink:href="#ArialMT-30" x="55.615234"/>
      </g>
     </g>
    </g>
    <g id="ytick_15">
     <g id="text_35">
      <!-- 100 -->
      <g style="fill: #262626" transform="translate(402.560671 172.148562) scale(0.11 -0.11)">
       <use xlink:href="#ArialMT-31"/>
       <use xlink:href="#ArialMT-30" x="55.615234"/>
       <use xlink:href="#ArialMT-30" x="111.230469"/>
      </g>
     </g>
    </g>
    <g id="ytick_16">
     <g id="text_36">
      <!-- 150 -->
      <g style="fill: #262626" transform="translate(402.560671 144.972091) scale(0.11 -0.11)">
       <use xlink:href="#ArialMT-31"/>
       <use xlink:href="#ArialMT-35" x="55.615234"/>
       <use xlink:href="#ArialMT-30" x="111.230469"/>
      </g>
     </g>
    </g>
    <g id="text_37">
     <!-- c* value -->
     <g style="fill: #262626" transform="translate(396.175671 203.145) rotate(-90) scale(0.12 -0.12)">
      <use xlink:href="#ArialMT-63"/>
      <use xlink:href="#ArialMT-2a" x="50"/>
      <use xlink:href="#ArialMT-20" x="88.916016"/>
      <use xlink:href="#ArialMT-76" x="116.699219"/>
      <use xlink:href="#ArialMT-61" x="166.699219"/>
      <use xlink:href="#ArialMT-6c" x="222.314453"/>
      <use xlink:href="#ArialMT-75" x="244.53125"/>
      <use xlink:href="#ArialMT-65" x="300.146484"/>
     </g>
    </g>
   </g>
   <g id="line2d_3">
    <path d="M 441.601604 210.631835 
L 446.520215 208.138096 
L 451.438826 205.406863 
L 462.5057 198.984903 
L 464.965006 197.976928 
L 467.424311 197.357971 
L 469.883616 197.074884 
L 472.342922 197.01722 
L 476.03188 197.167885 
L 480.950491 197.627062 
L 487.098754 198.452191 
L 496.935976 200.060971 
L 506.773197 201.642852 
L 514.151114 202.600096 
L 523.988335 203.614531 
L 535.055209 204.780005 
L 553.5 206.833965 
L 562.107569 207.478579 
L 570.715138 207.877316 
L 579.322707 208.043613 
L 591.619234 208.004144 
L 601.456455 207.806875 
L 608.834372 207.450912 
L 614.982635 206.925026 
L 619.901246 206.29731 
L 626.049509 205.256982 
L 634.657078 203.556027 
L 650.642563 200.29037 
L 653.101869 200.043373 
L 655.561174 200.050604 
L 658.02048 200.362689 
L 660.479785 200.946544 
L 664.168743 202.152615 
L 665.398396 202.608675 
L 665.398396 202.608675 
" clip-path="url(#p571958d157)" style="fill: none; stroke: #4c72b0; stroke-width: 1.5; stroke-linecap: round"/>
   </g>
   <g id="patch_13">
    <path d="M 430.411765 222.564706 
L 430.411765 141.035294 
" style="fill: none; stroke: #262626; stroke-width: 1.25; stroke-linejoin: miter; stroke-linecap: square"/>
   </g>
   <g id="patch_14">
    <path d="M 676.588235 222.564706 
L 676.588235 141.035294 
" style="fill: none; stroke: #262626; stroke-width: 1.25; stroke-linejoin: miter; stroke-linecap: square"/>
   </g>
   <g id="patch_15">
    <path d="M 430.411765 222.564706 
L 676.588235 222.564706 
" style="fill: none; stroke: #262626; stroke-width: 1.25; stroke-linejoin: miter; stroke-linecap: square"/>
   </g>
   <g id="patch_16">
    <path d="M 430.411765 141.035294 
L 676.588235 141.035294 
" style="fill: none; stroke: #262626; stroke-width: 1.25; stroke-linejoin: miter; stroke-linecap: square"/>
   </g>
   <g id="text_38">
    <!-- c* values -->
    <g style="fill: #262626" transform="translate(529.155 135.035294) scale(0.12 -0.12)">
     <use xlink:href="#ArialMT-63"/>
     <use xlink:href="#ArialMT-2a" x="50"/>
     <use xlink:href="#ArialMT-20" x="88.916016"/>
     <use xlink:href="#ArialMT-76" x="116.699219"/>
     <use xlink:href="#ArialMT-61" x="166.699219"/>
     <use xlink:href="#ArialMT-6c" x="222.314453"/>
     <use xlink:href="#ArialMT-75" x="244.53125"/>
     <use xlink:href="#ArialMT-65" x="300.146484"/>
     <use xlink:href="#ArialMT-73" x="355.761719"/>
    </g>
   </g>
  </g>
  <g id="axes_4">
   <g id="patch_17">
    <path d="M 430.411765 320.4 
L 676.588235 320.4 
L 676.588235 238.870588 
L 430.411765 238.870588 
z
" style="fill: #ffffff"/>
   </g>
   <g id="matplotlib.axis_7">
    <g id="xtick_14">
     <g id="text_39">
      <!-- 0 -->
      <g style="fill: #262626" transform="translate(438.543089 337.773594) scale(0.11 -0.11)">
       <use xlink:href="#ArialMT-30"/>
      </g>
     </g>
    </g>
    <g id="xtick_15">
     <g id="text_40">
      <!-- 50 -->
      <g style="fill: #262626" transform="translate(496.967208 337.773594) scale(0.11 -0.11)">
       <use xlink:href="#ArialMT-35"/>
       <use xlink:href="#ArialMT-30" x="55.615234"/>
      </g>
     </g>
    </g>
    <g id="xtick_16">
     <g id="text_41">
      <!-- 100 -->
      <g style="fill: #262626" transform="translate(555.391327 337.773594) scale(0.11 -0.11)">
       <use xlink:href="#ArialMT-31"/>
       <use xlink:href="#ArialMT-30" x="55.615234"/>
       <use xlink:href="#ArialMT-30" x="111.230469"/>
      </g>
     </g>
    </g>
    <g id="xtick_17">
     <g id="text_42">
      <!-- 150 -->
      <g style="fill: #262626" transform="translate(616.873962 337.773594) scale(0.11 -0.11)">
       <use xlink:href="#ArialMT-31"/>
       <use xlink:href="#ArialMT-35" x="55.615234"/>
       <use xlink:href="#ArialMT-30" x="111.230469"/>
      </g>
     </g>
    </g>
    <g id="text_43">
     <!-- Point -->
     <g style="fill: #262626" transform="translate(539.824687 352.549219) scale(0.12 -0.12)">
      <use xlink:href="#ArialMT-50"/>
      <use xlink:href="#ArialMT-6f" x="66.699219"/>
      <use xlink:href="#ArialMT-69" x="122.314453"/>
      <use xlink:href="#ArialMT-6e" x="144.53125"/>
      <use xlink:href="#ArialMT-74" x="200.146484"/>
     </g>
    </g>
   </g>
   <g id="matplotlib.axis_8">
    <g id="ytick_17">
     <g id="text_44">
      <!-- −2.5 -->
      <g style="fill: #262626" transform="translate(399.197077 316.011613) scale(0.11 -0.11)">
       <defs>
        <path id="ArialMT-2e" d="M 581 0 
L 581 641 
L 1222 641 
L 1222 0 
L 581 0 
z
" transform="scale(0.015625)"/>
       </defs>
       <use xlink:href="#ArialMT-2212"/>
       <use xlink:href="#ArialMT-32" x="58.398438"/>
       <use xlink:href="#ArialMT-2e" x="114.013672"/>
       <use xlink:href="#ArialMT-35" x="141.796875"/>
      </g>
     </g>
    </g>
    <g id="ytick_18">
     <g id="text_45">
      <!-- 0.0 -->
      <g style="fill: #262626" transform="translate(405.621765 283.572091) scale(0.11 -0.11)">
       <use xlink:href="#ArialMT-30"/>
       <use xlink:href="#ArialMT-2e" x="55.615234"/>
       <use xlink:href="#ArialMT-30" x="83.398438"/>
      </g>
     </g>
    </g>
    <g id="ytick_19">
     <g id="text_46">
      <!-- 2.5 -->
      <g style="fill: #262626" transform="translate(405.621765 251.132569) scale(0.11 -0.11)">
       <use xlink:href="#ArialMT-32"/>
       <use xlink:href="#ArialMT-2e" x="55.615234"/>
       <use xlink:href="#ArialMT-35" x="83.398438"/>
      </g>
     </g>
    </g>
    <g id="text_47">
     <!-- h* value -->
     <g style="fill: #262626" transform="translate(392.812077 301.316857) rotate(-90) scale(0.12 -0.12)">
      <defs>
       <path id="ArialMT-68" d="M 422 0 
L 422 4581 
L 984 4581 
L 984 2938 
Q 1378 3394 1978 3394 
Q 2347 3394 2619 3248 
Q 2891 3103 3008 2847 
Q 3125 2591 3125 2103 
L 3125 0 
L 2563 0 
L 2563 2103 
Q 2563 2525 2380 2717 
Q 2197 2909 1863 2909 
Q 1613 2909 1392 2779 
Q 1172 2650 1078 2428 
Q 984 2206 984 1816 
L 984 0 
L 422 0 
z
" transform="scale(0.015625)"/>
      </defs>
      <use xlink:href="#ArialMT-68"/>
      <use xlink:href="#ArialMT-2a" x="55.615234"/>
      <use xlink:href="#ArialMT-20" x="94.53125"/>
      <use xlink:href="#ArialMT-76" x="122.314453"/>
      <use xlink:href="#ArialMT-61" x="172.314453"/>
      <use xlink:href="#ArialMT-6c" x="227.929688"/>
      <use xlink:href="#ArialMT-75" x="250.146484"/>
      <use xlink:href="#ArialMT-65" x="305.761719"/>
     </g>
    </g>
   </g>
   <g id="line2d_4">
    <path d="M 441.601604 253.954274 
L 452.668479 253.916743 
L 457.587089 253.754134 
L 461.276047 253.460491 
L 464.965006 252.951418 
L 472.342922 251.583165 
L 493.247018 247.576344 
L 500.624934 245.842048 
L 526.447641 239.435652 
L 528.906946 238.932548 
L 530.136599 320.219688 
L 551.040695 316.10152 
L 559.648264 314.066234 
L 570.715138 311.200118 
L 587.930276 306.438179 
L 602.686108 302.464124 
L 612.52333 299.998237 
L 618.671593 298.642513 
L 623.590204 297.761697 
L 629.738467 296.892834 
L 645.723953 294.75765 
L 659.250132 292.517308 
L 664.168743 292.074462 
L 665.398396 291.998317 
L 665.398396 291.998317 
" clip-path="url(#p49fe3e579e)" style="fill: none; stroke: #4c72b0; stroke-width: 1.5; stroke-linecap: round"/>
   </g>
   <g id="patch_18">
    <path d="M 430.411765 320.4 
L 430.411765 238.870588 
" style="fill: none; stroke: #262626; stroke-width: 1.25; stroke-linejoin: miter; stroke-linecap: square"/>
   </g>
   <g id="patch_19">
    <path d="M 676.588235 320.4 
L 676.588235 238.870588 
" style="fill: none; stroke: #262626; stroke-width: 1.25; stroke-linejoin: miter; stroke-linecap: square"/>
   </g>
   <g id="patch_20">
    <path d="M 430.411765 320.4 
L 676.588235 320.4 
" style="fill: none; stroke: #262626; stroke-width: 1.25; stroke-linejoin: miter; stroke-linecap: square"/>
   </g>
   <g id="patch_21">
    <path d="M 430.411765 238.870588 
L 676.588235 238.870588 
" style="fill: none; stroke: #262626; stroke-width: 1.25; stroke-linejoin: miter; stroke-linecap: square"/>
   </g>
   <g id="text_48">
    <!-- h* values -->
    <g style="fill: #262626" transform="translate(528.818437 232.870588) scale(0.12 -0.12)">
     <use xlink:href="#ArialMT-68"/>
     <use xlink:href="#ArialMT-2a" x="55.615234"/>
     <use xlink:href="#ArialMT-20" x="94.53125"/>
     <use xlink:href="#ArialMT-76" x="122.314453"/>
     <use xlink:href="#ArialMT-61" x="172.314453"/>
     <use xlink:href="#ArialMT-6c" x="227.929688"/>
     <use xlink:href="#ArialMT-75" x="250.146484"/>
     <use xlink:href="#ArialMT-65" x="305.761719"/>
     <use xlink:href="#ArialMT-73" x="361.376953"/>
    </g>
   </g>
  </g>
  <g id="axes_5">
   <g id="patch_22">
    <path d="M 725.823529 320.4 
L 972 320.4 
L 972 43.2 
L 725.823529 43.2 
z
" style="fill: #ffffff"/>
   </g>
   <g id="matplotlib.axis_9">
    <g id="xtick_18">
     <g id="text_49">
      <!-- 0 -->
      <g style="fill: #262626" transform="translate(733.954853 337.773594) scale(0.11 -0.11)">
       <use xlink:href="#ArialMT-30"/>
      </g>
     </g>
    </g>
    <g id="xtick_19">
     <g id="text_50">
      <!-- 50 -->
      <g style="fill: #262626" transform="translate(792.718656 337.773594) scale(0.11 -0.11)">
       <use xlink:href="#ArialMT-35"/>
       <use xlink:href="#ArialMT-30" x="55.615234"/>
      </g>
     </g>
    </g>
    <g id="xtick_20">
     <g id="text_51">
      <!-- 100 -->
      <g style="fill: #262626" transform="translate(851.482458 337.773594) scale(0.11 -0.11)">
       <use xlink:href="#ArialMT-31"/>
       <use xlink:href="#ArialMT-30" x="55.615234"/>
       <use xlink:href="#ArialMT-30" x="111.230469"/>
      </g>
     </g>
    </g>
    <g id="xtick_21">
     <g id="text_52">
      <!-- 150 -->
      <g style="fill: #262626" transform="translate(913.304776 337.773594) scale(0.11 -0.11)">
       <use xlink:href="#ArialMT-31"/>
       <use xlink:href="#ArialMT-35" x="55.615234"/>
       <use xlink:href="#ArialMT-30" x="111.230469"/>
      </g>
     </g>
    </g>
    <g id="text_53">
     <!-- Point -->
     <g style="fill: #262626" transform="translate(835.236452 352.549219) scale(0.12 -0.12)">
      <use xlink:href="#ArialMT-50"/>
      <use xlink:href="#ArialMT-6f" x="66.699219"/>
      <use xlink:href="#ArialMT-69" x="122.314453"/>
      <use xlink:href="#ArialMT-6e" x="144.53125"/>
      <use xlink:href="#ArialMT-74" x="200.146484"/>
     </g>
    </g>
   </g>
   <g id="matplotlib.axis_10">
    <g id="ytick_20">
     <g id="text_54">
      <!-- 0 -->
      <g style="fill: #262626" transform="translate(710.206498 324.336797) scale(0.11 -0.11)">
       <use xlink:href="#ArialMT-30"/>
      </g>
     </g>
    </g>
    <g id="ytick_21">
     <g id="text_55">
      <!-- 25 -->
      <g style="fill: #262626" transform="translate(704.089467 292.3593) scale(0.11 -0.11)">
       <use xlink:href="#ArialMT-32"/>
       <use xlink:href="#ArialMT-35" x="55.615234"/>
      </g>
     </g>
    </g>
    <g id="ytick_22">
     <g id="text_56">
      <!-- 50 -->
      <g style="fill: #262626" transform="translate(704.089467 260.381804) scale(0.11 -0.11)">
       <use xlink:href="#ArialMT-35"/>
       <use xlink:href="#ArialMT-30" x="55.615234"/>
      </g>
     </g>
    </g>
    <g id="ytick_23">
     <g id="text_57">
      <!-- 75 -->
      <g style="fill: #262626" transform="translate(704.089467 228.404308) scale(0.11 -0.11)">
       <use xlink:href="#ArialMT-37"/>
       <use xlink:href="#ArialMT-35" x="55.615234"/>
      </g>
     </g>
    </g>
    <g id="ytick_24">
     <g id="text_58">
      <!-- 100 -->
      <g style="fill: #262626" transform="translate(697.972436 196.426811) scale(0.11 -0.11)">
       <use xlink:href="#ArialMT-31"/>
       <use xlink:href="#ArialMT-30" x="55.615234"/>
       <use xlink:href="#ArialMT-30" x="111.230469"/>
      </g>
     </g>
    </g>
    <g id="ytick_25">
     <g id="text_59">
      <!-- 125 -->
      <g style="fill: #262626" transform="translate(697.972436 164.449315) scale(0.11 -0.11)">
       <use xlink:href="#ArialMT-31"/>
       <use xlink:href="#ArialMT-32" x="55.615234"/>
       <use xlink:href="#ArialMT-35" x="111.230469"/>
      </g>
     </g>
    </g>
    <g id="ytick_26">
     <g id="text_60">
      <!-- 150 -->
      <g style="fill: #262626" transform="translate(697.972436 132.471818) scale(0.11 -0.11)">
       <use xlink:href="#ArialMT-31"/>
       <use xlink:href="#ArialMT-35" x="55.615234"/>
       <use xlink:href="#ArialMT-30" x="111.230469"/>
      </g>
     </g>
    </g>
    <g id="ytick_27">
     <g id="text_61">
      <!-- 175 -->
      <g style="fill: #262626" transform="translate(697.972436 100.494322) scale(0.11 -0.11)">
       <use xlink:href="#ArialMT-31"/>
       <use xlink:href="#ArialMT-37" x="55.615234"/>
       <use xlink:href="#ArialMT-35" x="111.230469"/>
      </g>
     </g>
    </g>
    <g id="ytick_28">
     <g id="text_62">
      <!-- 200 -->
      <g style="fill: #262626" transform="translate(697.972436 68.516825) scale(0.11 -0.11)">
       <use xlink:href="#ArialMT-32"/>
       <use xlink:href="#ArialMT-30" x="55.615234"/>
       <use xlink:href="#ArialMT-30" x="111.230469"/>
      </g>
     </g>
    </g>
    <g id="text_63">
     <!-- Distance -->
     <g style="fill: #262626" transform="translate(691.587436 205.142812) rotate(-90) scale(0.12 -0.12)">
      <defs>
       <path id="ArialMT-44" d="M 494 0 
L 494 4581 
L 2072 4581 
Q 2606 4581 2888 4516 
Q 3281 4425 3559 4188 
Q 3922 3881 4101 3404 
Q 4281 2928 4281 2316 
Q 4281 1794 4159 1391 
Q 4038 988 3847 723 
Q 3656 459 3429 307 
Q 3203 156 2883 78 
Q 2563 0 2147 0 
L 494 0 
z
M 1100 541 
L 2078 541 
Q 2531 541 2789 625 
Q 3047 709 3200 863 
Q 3416 1078 3536 1442 
Q 3656 1806 3656 2325 
Q 3656 3044 3420 3430 
Q 3184 3816 2847 3947 
Q 2603 4041 2063 4041 
L 1100 4041 
L 1100 541 
z
" transform="scale(0.015625)"/>
      </defs>
      <use xlink:href="#ArialMT-44"/>
      <use xlink:href="#ArialMT-69" x="72.216797"/>
      <use xlink:href="#ArialMT-73" x="94.433594"/>
      <use xlink:href="#ArialMT-74" x="144.433594"/>
      <use xlink:href="#ArialMT-61" x="172.216797"/>
      <use xlink:href="#ArialMT-6e" x="227.832031"/>
      <use xlink:href="#ArialMT-63" x="283.447266"/>
      <use xlink:href="#ArialMT-65" x="333.447266"/>
     </g>
    </g>
   </g>
   <g id="line2d_5">
    <path d="M 737.013369 182.826869 
L 738.249815 183.286703 
L 739.486262 181.8 
L 741.959154 182.394248 
L 744.432047 182.498228 
L 746.90494 182.445606 
L 748.141386 182.518748 
L 749.377833 182.778888 
L 750.614279 182.525858 
L 751.850725 182.149838 
L 753.087172 182.934515 
L 754.323618 182.341165 
L 756.796511 182.62017 
L 759.269403 182.622168 
L 762.978743 182.475477 
L 766.688082 182.527426 
L 769.160974 182.278313 
L 770.397421 182.634556 
L 771.633867 182.305724 
L 772.870313 182.552404 
L 774.10676 182.30349 
L 775.343206 182.567218 
L 776.579653 182.311271 
L 777.816099 182.515763 
L 780.288992 182.320708 
L 781.525438 182.520923 
L 785.234777 182.425077 
L 787.70767 182.436527 
L 790.180563 182.426738 
L 792.653455 182.451665 
L 796.362794 182.447273 
L 803.781473 182.441529 
L 813.673043 182.427624 
L 816.145936 182.46995 
L 817.382382 182.346244 
L 819.855275 182.530969 
L 822.328168 182.456624 
L 827.273953 182.445521 
L 828.5104 182.344547 
L 829.746846 182.584146 
L 834.692632 182.397965 
L 835.929078 182.586425 
L 842.11131 182.468814 
L 847.057095 182.299582 
L 848.293542 182.246551 
L 849.529988 182.578287 
L 852.002881 182.473882 
L 855.71222 182.290535 
L 856.948666 182.572019 
L 859.421559 182.387561 
L 861.894452 182.421097 
L 866.840237 182.452176 
L 869.31313 182.391626 
L 873.022469 182.44519 
L 874.258915 182.355748 
L 879.204701 182.433633 
L 880.441147 182.338293 
L 885.386932 182.53184 
L 887.859825 182.366801 
L 895.278503 182.5063 
L 898.987842 182.388441 
L 911.352306 182.440178 
L 913.825199 182.428961 
L 917.534538 182.47215 
L 931.135448 182.482774 
L 932.371894 182.492091 
L 933.60834 182.301772 
L 936.081233 182.610669 
L 937.31768 182.256198 
L 938.554126 182.453038 
L 939.790572 182.511081 
L 941.027019 182.361784 
L 942.263465 182.539277 
L 944.736358 182.39928 
L 945.972804 182.550854 
L 948.445697 182.449617 
L 950.91859 182.55108 
L 952.155036 182.389482 
L 953.391482 182.780419 
L 954.627929 182.568102 
L 957.100821 182.40868 
L 958.337268 182.89519 
L 959.573714 182.495761 
L 960.81016 182.354536 
L 960.81016 182.354536 
" clip-path="url(#p37ae4a9d7b)" style="fill: none; stroke: #4c72b0; stroke-width: 1.5; stroke-linecap: round"/>
   </g>
   <g id="patch_23">
    <path d="M 725.823529 320.4 
L 725.823529 43.2 
" style="fill: none; stroke: #262626; stroke-width: 1.25; stroke-linejoin: miter; stroke-linecap: square"/>
   </g>
   <g id="patch_24">
    <path d="M 972 320.4 
L 972 43.2 
" style="fill: none; stroke: #262626; stroke-width: 1.25; stroke-linejoin: miter; stroke-linecap: square"/>
   </g>
   <g id="patch_25">
    <path d="M 725.823529 320.4 
L 972 320.4 
" style="fill: none; stroke: #262626; stroke-width: 1.25; stroke-linejoin: miter; stroke-linecap: square"/>
   </g>
   <g id="patch_26">
    <path d="M 725.823529 43.2 
L 972 43.2 
" style="fill: none; stroke: #262626; stroke-width: 1.25; stroke-linejoin: miter; stroke-linecap: square"/>
   </g>
   <g id="text_64">
    <!-- Flatness of perceptual differences: 100.00% -->
    <g style="fill: #262626" transform="translate(731.95489 37.2) scale(0.12 -0.12)">
     <defs>
      <path id="ArialMT-46" d="M 525 0 
L 525 4581 
L 3616 4581 
L 3616 4041 
L 1131 4041 
L 1131 2622 
L 3281 2622 
L 3281 2081 
L 1131 2081 
L 1131 0 
L 525 0 
z
" transform="scale(0.015625)"/>
      <path id="ArialMT-66" d="M 556 0 
L 556 2881 
L 59 2881 
L 59 3319 
L 556 3319 
L 556 3672 
Q 556 4006 616 4169 
Q 697 4388 901 4523 
Q 1106 4659 1475 4659 
Q 1713 4659 2000 4603 
L 1916 4113 
Q 1741 4144 1584 4144 
Q 1328 4144 1222 4034 
Q 1116 3925 1116 3625 
L 1116 3319 
L 1763 3319 
L 1763 2881 
L 1116 2881 
L 1116 0 
L 556 0 
z
" transform="scale(0.015625)"/>
      <path id="ArialMT-3a" d="M 578 2678 
L 578 3319 
L 1219 3319 
L 1219 2678 
L 578 2678 
z
M 578 0 
L 578 641 
L 1219 641 
L 1219 0 
L 578 0 
z
" transform="scale(0.015625)"/>
      <path id="ArialMT-25" d="M 372 3481 
Q 372 3972 619 4315 
Q 866 4659 1334 4659 
Q 1766 4659 2048 4351 
Q 2331 4044 2331 3447 
Q 2331 2866 2045 2552 
Q 1759 2238 1341 2238 
Q 925 2238 648 2547 
Q 372 2856 372 3481 
z
M 1350 4272 
Q 1141 4272 1002 4090 
Q 863 3909 863 3425 
Q 863 2984 1003 2804 
Q 1144 2625 1350 2625 
Q 1563 2625 1702 2806 
Q 1841 2988 1841 3469 
Q 1841 3913 1700 4092 
Q 1559 4272 1350 4272 
z
M 1353 -169 
L 3859 4659 
L 4316 4659 
L 1819 -169 
L 1353 -169 
z
M 3334 1075 
Q 3334 1569 3581 1911 
Q 3828 2253 4300 2253 
Q 4731 2253 5014 1945 
Q 5297 1638 5297 1041 
Q 5297 459 5011 145 
Q 4725 -169 4303 -169 
Q 3888 -169 3611 142 
Q 3334 453 3334 1075 
z
M 4316 1866 
Q 4103 1866 3964 1684 
Q 3825 1503 3825 1019 
Q 3825 581 3965 400 
Q 4106 219 4313 219 
Q 4528 219 4667 400 
Q 4806 581 4806 1063 
Q 4806 1506 4665 1686 
Q 4525 1866 4316 1866 
z
" transform="scale(0.015625)"/>
     </defs>
     <use xlink:href="#ArialMT-46"/>
     <use xlink:href="#ArialMT-6c" x="61.083984"/>
     <use xlink:href="#ArialMT-61" x="83.300781"/>
     <use xlink:href="#ArialMT-74" x="138.916016"/>
     <use xlink:href="#ArialMT-6e" x="166.699219"/>
     <use xlink:href="#ArialMT-65" x="222.314453"/>
     <use xlink:href="#ArialMT-73" x="277.929688"/>
     <use xlink:href="#ArialMT-73" x="327.929688"/>
     <use xlink:href="#ArialMT-20" x="377.929688"/>
     <use xlink:href="#ArialMT-6f" x="405.712891"/>
     <use xlink:href="#ArialMT-66" x="461.328125"/>
     <use xlink:href="#ArialMT-20" x="489.111328"/>
     <use xlink:href="#ArialMT-70" x="516.894531"/>
     <use xlink:href="#ArialMT-65" x="572.509766"/>
     <use xlink:href="#ArialMT-72" x="628.125"/>
     <use xlink:href="#ArialMT-63" x="661.425781"/>
     <use xlink:href="#ArialMT-65" x="711.425781"/>
     <use xlink:href="#ArialMT-70" x="767.041016"/>
     <use xlink:href="#ArialMT-74" x="822.65625"/>
     <use xlink:href="#ArialMT-75" x="850.439453"/>
     <use xlink:href="#ArialMT-61" x="906.054688"/>
     <use xlink:href="#ArialMT-6c" x="961.669922"/>
     <use xlink:href="#ArialMT-20" x="983.886719"/>
     <use xlink:href="#ArialMT-64" x="1011.669922"/>
     <use xlink:href="#ArialMT-69" x="1067.285156"/>
     <use xlink:href="#ArialMT-66" x="1089.501953"/>
     <use xlink:href="#ArialMT-66" x="1115.535156"/>
     <use xlink:href="#ArialMT-65" x="1143.318359"/>
     <use xlink:href="#ArialMT-72" x="1198.933594"/>
     <use xlink:href="#ArialMT-65" x="1232.234375"/>
     <use xlink:href="#ArialMT-6e" x="1287.849609"/>
     <use xlink:href="#ArialMT-63" x="1343.464844"/>
     <use xlink:href="#ArialMT-65" x="1393.464844"/>
     <use xlink:href="#ArialMT-73" x="1449.080078"/>
     <use xlink:href="#ArialMT-3a" x="1499.080078"/>
     <use xlink:href="#ArialMT-20" x="1526.863281"/>
     <use xlink:href="#ArialMT-31" x="1554.646484"/>
     <use xlink:href="#ArialMT-30" x="1610.261719"/>
     <use xlink:href="#ArialMT-30" x="1665.876953"/>
     <use xlink:href="#ArialMT-2e" x="1721.492188"/>
     <use xlink:href="#ArialMT-30" x="1749.275391"/>
     <use xlink:href="#ArialMT-30" x="1804.890625"/>
     <use xlink:href="#ArialMT-25" x="1860.505859"/>
    </g>
   </g>
  </g>
  <g id="text_65">
   <!-- Cieran's plot -->
   <g style="fill: #262626" transform="translate(500.20875 17.68275) scale(0.144 -0.144)">
    <defs>
     <path id="ArialMT-43" d="M 3763 1606 
L 4369 1453 
Q 4178 706 3683 314 
Q 3188 -78 2472 -78 
Q 1731 -78 1267 223 
Q 803 525 561 1097 
Q 319 1669 319 2325 
Q 319 3041 592 3573 
Q 866 4106 1370 4382 
Q 1875 4659 2481 4659 
Q 3169 4659 3637 4309 
Q 4106 3959 4291 3325 
L 3694 3184 
Q 3534 3684 3231 3912 
Q 2928 4141 2469 4141 
Q 1941 4141 1586 3887 
Q 1231 3634 1087 3207 
Q 944 2781 944 2328 
Q 944 1744 1114 1308 
Q 1284 872 1643 656 
Q 2003 441 2422 441 
Q 2931 441 3284 734 
Q 3638 1028 3763 1606 
z
" transform="scale(0.015625)"/>
     <path id="ArialMT-27" d="M 425 2959 
L 281 3816 
L 281 4581 
L 922 4581 
L 922 3816 
L 772 2959 
L 425 2959 
z
" transform="scale(0.015625)"/>
    </defs>
    <use xlink:href="#ArialMT-43"/>
    <use xlink:href="#ArialMT-69" x="72.216797"/>
    <use xlink:href="#ArialMT-65" x="94.433594"/>
    <use xlink:href="#ArialMT-72" x="150.048828"/>
    <use xlink:href="#ArialMT-61" x="183.349609"/>
    <use xlink:href="#ArialMT-6e" x="238.964844"/>
    <use xlink:href="#ArialMT-27" x="294.580078"/>
    <use xlink:href="#ArialMT-73" x="313.671875"/>
    <use xlink:href="#ArialMT-20" x="363.671875"/>
    <use xlink:href="#ArialMT-70" x="391.455078"/>
    <use xlink:href="#ArialMT-6c" x="447.070312"/>
    <use xlink:href="#ArialMT-6f" x="469.287109"/>
    <use xlink:href="#ArialMT-74" x="524.902344"/>
   </g>
  </g>
 </g>
 <defs>
  <clipPath id="p752e9494ec">
   <rect x="135" y="43.2" width="246.176471" height="277.2"/>
  </clipPath>
  <clipPath id="p5d9a1a2476">
   <rect x="430.411765" y="43.2" width="246.176471" height="81.529412"/>
  </clipPath>
  <clipPath id="p571958d157">
   <rect x="430.411765" y="141.035294" width="246.176471" height="81.529412"/>
  </clipPath>
  <clipPath id="p49fe3e579e">
   <rect x="430.411765" y="238.870588" width="246.176471" height="81.529412"/>
  </clipPath>
  <clipPath id="p37ae4a9d7b">
   <rect x="725.823529" y="43.2" width="246.176471" height="277.2"/>
  </clipPath>
 </defs>
</svg>
